<?xml version="1.0" encoding="UTF-8"?>
<svg xmlns="http://www.w3.org/2000/svg" xmlns:xlink="http://www.w3.org/1999/xlink" version="1.2" >
<font id="Speedee Light">
<font-face  font-family="Speedee" units-per-em="1000" ascent="700" descent="-300" font-style="normal" font-weight="300" font-stretch="normal" cap-height="670" x-height="496" underline-position="-125" underline-thickness="40" />
<missing-glyph  horiz-adv-x="500" d="M443 0 L56 0 L56 670 L443 670 L443 0 Z M410 29 L410 641 L89 641 L89 29 L410 29 Z " />
<glyph glyph-name="uni0000" d="" />
<glyph glyph-name="uni000D" unicode="&#xd;" horiz-adv-x="200" d="" />
<glyph glyph-name="space" unicode="&#x20;" horiz-adv-x="200" d="" />
<glyph glyph-name="exclam" unicode="&#x21;" horiz-adv-x="207" d="M79 670 L128 670 L123 160 L84 160 L79 670 Z M103 -10 Q84 -10 72.5 2 Q61 14 61 32 Q61 50 72.5 62 Q84 74 103 74 Q122 74 133.5 62 Q145 50 145 32 Q145 14 133.5 2 Q122 -10 103 -10 Z " />
<glyph glyph-name="quotedbl" unicode="&#x22;" horiz-adv-x="401" d="M150 480 L121 480 Q115 529 113 566.5 Q111 604 111 645 L111 700 L160 700 L160 645 Q160 604 158 566.5 Q156 529 150 480 Z M280 480 L251 480 Q245 529 243 566.5 Q241 604 241 645 L241 700 L290 700 L290 645 Q290 604 288 566.5 Q286 529 280 480 Z " />
<glyph glyph-name="numbersign" unicode="&#x23;" horiz-adv-x="590" d="M101 0 L134 193 L28 193 L28 236 L142 236 L176 434 L62 434 L62 477 L183 477 L214 654 L259 654 L228 477 L407 477 L438 654 L483 654 L452 477 L562 477 L562 434 L445 434 L411 236 L530 236 L530 193 L403 193 L370 0 L325 0 L358 193 L179 193 L146 0 L101 0 Z M187 236 L366 236 L400 434 L221 434 L187 236 Z " />
<glyph glyph-name="dollar" unicode="&#x24;" horiz-adv-x="590" d="M270 -100 L270 -15 Q171 -8 114.5 40.5 Q58 89 50 170 L96 170 Q111 95 159 62.5 Q207 30 270 24 L270 319 L228 327 Q159 340 114 378.5 Q69 417 69 493 Q69 574 123.5 620 Q178 666 270 670 L270 760 L313 760 L313 669 Q400 662 452 614.5 Q504 567 516 480 L470 480 Q457 553 417.5 589 Q378 625 313 631 L313 353 L362 343 Q438 328 484.5 287.5 Q531 247 531 168 Q531 84 474.5 35.5 Q418 -13 313 -16 L313 -100 L270 -100 Z M242 367 L270 361 L270 632 Q199 629 157 597.5 Q115 566 115 498 Q115 442 145 411 Q175 380 242 367 Z M349 303 L313 310 L313 22 Q397 24 441 59.5 Q485 95 485 164 Q485 226 450.5 258 Q416 290 349 303 Z " />
<glyph glyph-name="percent" unicode="&#x25;" horiz-adv-x="909" d="M191 258 Q116 258 79.5 314.5 Q43 371 43 464 Q43 557 79.5 613.5 Q116 670 191 670 Q266 670 302.5 613.5 Q339 557 339 464 Q339 371 302.5 314.5 Q266 258 191 258 Z M191 292 Q246 292 271 337 Q296 382 296 464 Q296 546 271 591 Q246 636 191 636 Q136 636 111 591 Q86 546 86 464 Q86 382 111 337 Q136 292 191 292 Z M260 0 L606 660 L652 660 L306 0 L260 0 Z M718 -10 Q643 -10 606.5 46.5 Q570 103 570 196 Q570 289 606.5 345.5 Q643 402 718 402 Q793 402 829.5 345.5 Q866 289 866 196 Q866 103 829.5 46.5 Q793 -10 718 -10 Z M718 24 Q773 24 798 69 Q823 114 823 196 Q823 278 798 323 Q773 368 718 368 Q663 368 638 323 Q613 278 613 196 Q613 114 638 69 Q663 24 718 24 Z " />
<glyph glyph-name="ampersand" unicode="&#x26;" horiz-adv-x="697" d="M534 324 L582 324 Q582 246 561.5 184.5 Q541 123 503 80 Q529 56 546.5 48.5 Q564 41 585 41 Q612 41 629 47 L637 10 Q617 0 582 0 Q558 0 533.5 9.5 Q509 19 474 52 Q400 -10 290 -10 Q222 -10 173 15 Q124 40 97.5 83 Q71 126 71 180 Q71 248 108.5 294 Q146 340 204 370 Q166 416 148.5 452.5 Q131 489 131 531 Q131 570 150.5 601.5 Q170 633 204 651.5 Q238 670 282 670 Q326 670 360 651.5 Q394 633 413.5 601.5 Q433 570 433 531 Q433 477 393.5 433.5 Q354 390 270 356 L413 183 Q431 161 446.5 143 Q462 125 474 111 Q503 147 518.5 200 Q534 253 534 324 Z M178 531 Q178 491 195.5 459 Q213 427 246 387 Q323 419 354.5 452.5 Q386 486 386 531 Q386 577 358 604 Q330 631 282 631 Q234 631 206 604 Q178 577 178 531 Z M120 181 Q120 113 164 72.5 Q208 32 291 32 Q385 32 445 81 Q419 109 385 150 L229 339 Q180 313 150 276 Q120 239 120 181 Z " />
<glyph glyph-name="quotesingle" unicode="&#x27;" horiz-adv-x="270" d="M150 480 L121 480 Q115 529 113 566.5 Q111 604 111 645 L111 700 L160 700 L160 645 Q160 604 158 566.5 Q156 529 150 480 Z " />
<glyph glyph-name="parenleft" unicode="&#x28;" horiz-adv-x="268" d="M250 -100 L207 -100 Q136 -6 103 97 Q70 200 70 310 Q70 421 103 524.5 Q136 628 207 720 L250 720 Q182 628 149.5 520.5 Q117 413 117 310 Q117 207 149.5 100.5 Q182 -6 250 -100 Z " />
<glyph glyph-name="parenright" unicode="&#x29;" horiz-adv-x="268" d="M61 -100 L18 -100 Q86 -8 118.5 99.5 Q151 207 151 310 Q151 413 118.5 519.5 Q86 626 18 720 L61 720 Q132 626 165 523 Q198 420 198 310 Q198 199 165 95.5 Q132 -8 61 -100 Z " />
<glyph glyph-name="asterisk" unicode="&#x2a;" horiz-adv-x="359" d="M156 699 L202 699 Q201 673 198.5 629.5 Q196 586 191 546 Q227 562 267.5 578 Q308 594 334 603 L348 560 Q322 552 280 541 Q238 530 198 522 Q225 493 253.5 459.5 Q282 426 298 405 L260 378 Q245 400 221.5 437 Q198 474 179 509 Q159 474 136 437 Q113 400 98 378 L60 405 Q76 426 104 459.5 Q132 493 159 522 Q120 530 78 541 Q36 552 10 560 L24 603 Q49 594 89.5 578 Q130 562 167 546 Q162 586 159.5 629.5 Q157 673 156 699 Z " />
<glyph glyph-name="plus" unicode="&#x2b;" horiz-adv-x="590" d="M87 350 L274 350 L274 542 L316 542 L316 350 L503 350 L503 310 L316 310 L316 117 L274 117 L274 310 L87 310 L87 350 Z " />
<glyph glyph-name="comma" unicode="&#x2c;" horiz-adv-x="220" d="M48 -117 L48 -87 Q81 -75 97.5 -51 Q114 -27 116 -5 Q114 -5 112 -5 Q90 -5 79 7.5 Q68 20 68 36 Q68 78 111 78 Q130 78 143.5 61 Q157 44 157 10 Q157 -28 132.5 -64.5 Q108 -101 48 -117 Z " />
<glyph glyph-name="hyphen" unicode="&#x2d;" horiz-adv-x="388" d="M56 218 L56 258 L332 258 L332 218 L56 218 Z " />
<glyph glyph-name="period" unicode="&#x2e;" horiz-adv-x="220" d="M110 -6 Q90 -6 79 6 Q68 18 68 36 Q68 54 79 66 Q90 78 110 78 Q129 78 140.5 66 Q152 54 152 36 Q152 18 140.5 6 Q129 -6 110 -6 Z " />
<glyph glyph-name="slash" unicode="&#x2f;" horiz-adv-x="304" d="M8 -105 L252 685 L298 685 L54 -105 L8 -105 Z " />
<glyph glyph-name="zero" unicode="0" horiz-adv-x="542" d="M271 -16 Q192 -16 140.5 27 Q89 70 63 147.5 Q37 225 37 327 Q37 430 63 507 Q89 584 140.5 627 Q192 670 271 670 Q350 670 401.5 627 Q453 584 479 507 Q505 430 505 327 Q505 225 479 147.5 Q453 70 401.5 27 Q350 -16 271 -16 Z M271 26 Q366 26 410.5 105.5 Q455 185 455 327 Q455 469 410.5 548.5 Q366 628 271 628 Q176 628 131.5 548.5 Q87 469 87 327 Q87 185 131.5 105.5 Q176 26 271 26 Z " />
<glyph glyph-name="one" unicode="1" horiz-adv-x="370" d="M24 510 L24 550 Q57 558 94.5 573 Q132 588 167 609 Q202 630 228 654 L265 654 L265 0 L219 0 L219 588 Q177 562 124 540.5 Q71 519 24 510 Z " />
<glyph glyph-name="two" unicode="2" horiz-adv-x="520" d="M45 0 L45 18 Q45 94 80 145.5 Q115 197 184 243 L316 331 Q374 370 396.5 407 Q419 444 419 496 Q419 558 377.5 593 Q336 628 264 628 Q186 628 141 584.5 Q96 541 89 459 L41 459 Q46 556 107 613 Q168 670 266 670 Q357 670 412 622.5 Q467 575 467 497 Q467 432 437 386 Q407 340 341 297 L207 209 Q143 166 118.5 129 Q94 92 92 43 L481 43 L481 0 L45 0 Z " />
<glyph glyph-name="three" unicode="3" horiz-adv-x="519" d="M264 -16 Q199 -16 147.5 7.5 Q96 31 64 75.5 Q32 120 27 184 L77 184 Q87 102 140.5 64 Q194 26 270 26 Q346 26 392 63 Q438 100 438 180 Q438 204 430.5 229.5 Q423 255 401.5 277.5 Q380 300 337 313.5 Q294 327 222 327 L206 327 L206 367 L222 367 Q288 367 328 379.5 Q368 392 388 411.5 Q408 431 414.5 453.5 Q421 476 421 495 Q421 563 378.5 595.5 Q336 628 269 628 Q196 628 151 591 Q106 554 99 486 L49 486 Q53 543 82.5 584 Q112 625 161 647.5 Q210 670 271 670 Q360 670 414.5 623.5 Q469 577 469 498 Q469 451 439.5 408 Q410 365 338 347 Q419 329 452.5 284 Q486 239 486 182 Q486 91 425 37.5 Q364 -16 264 -16 Z " />
<glyph glyph-name="four" unicode="4" horiz-adv-x="545" d="M27 150 L27 193 L361 654 L408 654 L408 193 L522 193 L522 150 L408 150 L408 0 L362 0 L362 150 L27 150 Z M75 193 L362 193 L362 590 L75 193 Z " />
<glyph glyph-name="five" unicode="5" horiz-adv-x="506" d="M60 281 L87 654 L452 654 L452 611 L130 611 L111 363 Q141 398 182 414.5 Q223 431 263 431 Q328 431 376 402.5 Q424 374 450 324 Q476 274 476 208 Q476 103 415 43.5 Q354 -16 250 -16 Q193 -16 146.5 5 Q100 26 70 66 Q40 106 34 163 L82 163 Q93 92 140.5 59 Q188 26 256 26 Q336 26 382 70 Q428 114 428 203 Q428 291 382 340 Q336 389 260 389 Q208 389 162 364 Q116 339 97 281 L60 281 Z " />
<glyph glyph-name="six" unicode="6" horiz-adv-x="516" d="M267 -16 Q37 -16 37 308 Q37 415 61 496.5 Q85 578 137.5 624 Q190 670 274 670 Q350 670 405.5 625.5 Q461 581 472 498 L421 498 Q409 565 367.5 596.5 Q326 628 270 628 Q177 628 131 549.5 Q85 471 83 299 Q99 338 129 364.5 Q159 391 196.5 404.5 Q234 418 272 418 Q370 418 428.5 359 Q487 300 487 199 Q487 133 459.5 84.5 Q432 36 382 10 Q332 -16 267 -16 Z M267 26 Q345 26 392 69.5 Q439 113 439 199 Q439 288 394.5 332 Q350 376 272 376 Q193 376 143.5 328.5 Q94 281 94 204 Q94 148 117 108 Q140 68 179 47 Q218 26 267 26 Z " />
<glyph glyph-name="seven" unicode="7" horiz-adv-x="468" d="M17 611 L17 654 L448 654 L448 611 Q334 456 266.5 310 Q199 164 176 0 L124 0 Q144 115 179 214.5 Q214 314 268 410 Q322 506 399 611 L17 611 Z " />
<glyph glyph-name="eight" unicode="8" horiz-adv-x="536" d="M268 -16 Q198 -16 145.5 7 Q93 30 63 73 Q33 116 33 176 Q33 236 70.5 280.5 Q108 325 172 345 Q118 363 87 402 Q56 441 56 497 Q56 549 82.5 588 Q109 627 156.5 648.5 Q204 670 268 670 Q332 670 379.5 648.5 Q427 627 453.5 588 Q480 549 480 497 Q480 441 449 402 Q418 363 364 345 Q428 325 465.5 280.5 Q503 236 503 176 Q503 116 473 73 Q443 30 390.5 7 Q338 -16 268 -16 Z M268 363 Q342 363 387.5 397 Q433 431 433 497 Q433 563 387.5 597 Q342 631 268 631 Q194 631 148.5 597 Q103 563 103 497 Q103 431 148.5 397 Q194 363 268 363 Z M268 26 Q349 26 401 63 Q453 100 453 176 Q453 246 401 285.5 Q349 325 268 325 Q187 325 135 285.5 Q83 246 83 176 Q83 100 135 63 Q187 26 268 26 Z " />
<glyph glyph-name="nine" unicode="9" horiz-adv-x="515" d="M250 670 Q356 670 417 594 Q478 518 478 349 Q478 241 453 159 Q428 77 376 30.5 Q324 -16 242 -16 Q166 -16 112 28.5 Q58 73 47 156 L98 156 Q110 89 149.5 57.5 Q189 26 246 26 Q334 26 381 104.5 Q428 183 432 349 Q416 312 385.5 286.5 Q355 261 318 248.5 Q281 236 243 236 Q146 236 87.5 295 Q29 354 29 455 Q29 521 56.5 569.5 Q84 618 134 644 Q184 670 250 670 Z M250 628 Q171 628 124 584.5 Q77 541 77 455 Q77 366 121.5 322 Q166 278 243 278 Q296 278 336.5 299 Q377 320 399.5 357.5 Q422 395 422 443 Q422 533 372.5 580.5 Q323 628 250 628 Z " />
<glyph glyph-name="colon" unicode="&#x3a;" horiz-adv-x="220" d="M110 -6 Q90 -6 79 6 Q68 18 68 36 Q68 54 79 66 Q90 78 110 78 Q129 78 140.5 66 Q152 54 152 36 Q152 18 140.5 6 Q129 -6 110 -6 Z M110 412 Q90 412 79 424 Q68 436 68 454 Q68 472 79 484 Q90 496 110 496 Q129 496 140.5 484 Q152 472 152 454 Q152 436 140.5 424 Q129 412 110 412 Z " />
<glyph glyph-name="semicolon" unicode="&#x3b;" horiz-adv-x="220" d="M48 -117 L48 -87 Q81 -75 97.5 -51 Q114 -27 116 -5 Q114 -5 112 -5 Q90 -5 79 7.5 Q68 20 68 36 Q68 78 111 78 Q130 78 143.5 61 Q157 44 157 10 Q157 -28 132.5 -64.5 Q108 -101 48 -117 Z M110 412 Q90 412 79 424 Q68 436 68 454 Q68 472 79 484 Q90 496 110 496 Q129 496 140.5 484 Q152 472 152 454 Q152 436 140.5 424 Q129 412 110 412 Z " />
<glyph glyph-name="less" unicode="&#x3c;" horiz-adv-x="590" d="M490 129 L74 310 L74 350 L490 531 L490 487 L124 330 L490 174 L490 129 Z " />
<glyph glyph-name="equal" unicode="&#x3d;" horiz-adv-x="590" d="M87 405 L87 445 L503 445 L503 405 L87 405 Z M87 195 L87 235 L503 235 L503 195 L87 195 Z " />
<glyph glyph-name="greater" unicode="&#x3e;" horiz-adv-x="590" d="M100 129 L100 173 L466 330 L100 486 L100 531 L516 350 L516 310 L100 129 Z " />
<glyph glyph-name="question" unicode="&#x3f;" horiz-adv-x="442" d="M60 478 L13 478 Q18 572 76 627.5 Q134 683 227 683 Q284 683 328 662 Q372 641 396.5 603.5 Q421 566 421 518 Q421 468 402.5 429 Q384 390 340 355 L271 300 Q237 273 225.5 249.5 Q214 226 214 188 L214 160 L171 160 L171 188 Q171 233 186.5 264.5 Q202 296 243 329 L314 387 Q374 435 374 516 Q374 573 333.5 608 Q293 643 226 643 Q152 643 108.5 600 Q65 557 60 478 Z M193 74 Q212 74 223.5 62 Q235 50 235 32 Q235 14 223.5 2 Q212 -10 193 -10 Q174 -10 162.5 2 Q151 14 151 32 Q151 50 162.5 62 Q174 74 193 74 Z " />
<glyph glyph-name="at" unicode="&#x40;" horiz-adv-x="947" d="M479 -162 Q350 -162 255.5 -108.5 Q161 -55 109.5 39.5 Q58 134 58 257 Q58 347 87.5 423 Q117 499 172 555.5 Q227 612 304.5 643.5 Q382 675 479 675 Q580 675 658 645 Q736 615 789.5 562.5 Q843 510 871 440 Q899 370 899 291 Q899 218 878 161.5 Q857 105 815.5 72.5 Q774 40 713 40 Q662 40 637.5 66.5 Q613 93 611 139 Q587 91 545.5 65.5 Q504 40 452 40 Q394 40 352 67 Q310 94 287.5 141 Q265 188 265 247 Q265 308 289 355 Q313 402 355.5 429 Q398 456 453 456 Q510 456 551.5 427 Q593 398 614 352 L617 446 L654 446 L654 145 Q654 110 668 93 Q682 76 717 76 Q776 76 816 130 Q856 184 856 291 Q856 361 832.5 423.5 Q809 486 762 534 Q715 582 644.5 609.5 Q574 637 479 637 Q361 637 276.5 587.5 Q192 538 146.5 452 Q101 366 101 257 Q101 140 149 54.5 Q197 -31 282.5 -77.5 Q368 -124 479 -124 Q547 -124 598.5 -112.5 Q650 -101 705 -76 L718 -112 Q659 -138 604 -150 Q549 -162 479 -162 Z M456 76 Q501 76 537 99.5 Q573 123 594 161 Q615 199 615 242 L615 254 Q615 296 595 334 Q575 372 539.5 396 Q504 420 458 420 Q413 420 379.5 397.5 Q346 375 327.5 336 Q309 297 309 248 Q309 199 327 160 Q345 121 378.5 98.5 Q412 76 456 76 Z " />
<glyph glyph-name="A" unicode="A" horiz-adv-x="622" d="M541 0 L475 181 L145 181 L78 0 L30 0 L283 670 L341 670 L592 0 L541 0 Z M160 221 L460 221 L311 629 L160 221 Z " />
<glyph glyph-name="B" unicode="B" horiz-adv-x="601" d="M93 0 L93 670 L291 670 Q377 670 427 646.5 Q477 623 498 584.5 Q519 546 519 502 Q519 448 486.5 405.5 Q454 363 379 347 Q466 332 508 289 Q550 246 550 184 Q550 136 526.5 94 Q503 52 449.5 26 Q396 0 305 0 L93 0 Z M287 630 L141 630 L141 364 L267 364 Q348 364 391.5 384.5 Q435 405 452 436.5 Q469 468 469 502 Q469 558 427 594 Q385 630 287 630 Z M267 324 L141 324 L141 40 L307 40 Q367 40 405 52.5 Q443 65 463.5 86.5 Q484 108 492 133 Q500 158 500 184 Q500 224 479 256 Q458 288 407.5 306 Q357 324 267 324 Z " />
<glyph glyph-name="C" unicode="C" horiz-adv-x="689" d="M359 -16 Q264 -16 196.5 29 Q129 74 92.5 153 Q56 232 56 335 Q56 436 93 515.5 Q130 595 198 640.5 Q266 686 359 686 Q471 686 546.5 624 Q622 562 642 454 L590 454 Q570 545 509.5 594.5 Q449 644 359 644 Q281 644 224.5 605.5 Q168 567 138 497.5 Q108 428 108 335 Q108 242 138.5 172.5 Q169 103 225.5 64.5 Q282 26 359 26 Q448 26 508.5 73.5 Q569 121 590 210 L640 210 Q620 104 545 44 Q470 -16 359 -16 Z " />
<glyph glyph-name="D" unicode="D" horiz-adv-x="697" d="M93 0 L93 670 L284 670 Q405 670 484 626 Q563 582 602 506 Q641 430 641 335 Q641 239 602 163.5 Q563 88 484.5 44 Q406 0 285 0 L93 0 Z M284 630 L141 630 L141 40 L284 40 Q389 40 456.5 77 Q524 114 556.5 180.5 Q589 247 589 335 Q589 423 557.5 489.5 Q526 556 459 593 Q392 630 284 630 Z " />
<glyph glyph-name="E" unicode="E" horiz-adv-x="552" d="M93 0 L93 670 L493 670 L493 630 L141 630 L141 356 L462 356 L462 318 L141 318 L141 40 L497 40 L497 0 L93 0 Z " />
<glyph glyph-name="F" unicode="F" horiz-adv-x="546" d="M93 0 L93 670 L504 670 L504 630 L141 630 L141 346 L457 346 L457 308 L141 308 L141 0 L93 0 Z " />
<glyph glyph-name="G" unicode="G" horiz-adv-x="718" d="M56 335 Q56 438 94 517 Q132 596 201 641 Q270 686 365 686 Q483 686 560.5 624 Q638 562 655 454 L603 454 Q586 547 523 595.5 Q460 644 365 644 Q286 644 228.5 605.5 Q171 567 139.5 497.5 Q108 428 108 335 Q108 242 139 172.5 Q170 103 227.5 64.5 Q285 26 365 26 Q484 26 546.5 95.5 Q609 165 614 285 L398 285 L398 325 L662 325 L662 302 Q662 206 628 134.5 Q594 63 528 23.5 Q462 -16 365 -16 Q269 -16 199.5 29 Q130 74 93 153.5 Q56 233 56 335 Z " />
<glyph glyph-name="H" unicode="H" horiz-adv-x="684" d="M93 0 L93 670 L141 670 L141 356 L543 356 L543 670 L591 670 L591 0 L543 0 L543 316 L141 316 L141 0 L93 0 Z " />
<glyph glyph-name="I" unicode="I" horiz-adv-x="234" d="M93 0 L93 670 L141 670 L141 0 L93 0 Z " />
<glyph glyph-name="J" unicode="J" horiz-adv-x="569" d="M263 -16 Q162 -16 104.5 44 Q47 104 38 220 L86 220 Q94 120 139 73 Q184 26 263 26 Q350 26 395.5 82 Q441 138 441 262 L441 670 L489 670 L489 262 Q489 123 430.5 53.5 Q372 -16 263 -16 Z " />
<glyph glyph-name="K" unicode="K" horiz-adv-x="585" d="M93 0 L93 670 L141 670 L141 353 L492 670 L554 670 L189 342 Q247 327 300 301 Q353 275 402 234 Q460 186 499 129.5 Q538 73 567 0 L513 0 Q489 64 455.5 112.5 Q422 161 369 206 Q321 247 262.5 274 Q204 301 141 312 L141 0 L93 0 Z " />
<glyph glyph-name="L" unicode="L" horiz-adv-x="513" d="M93 0 L93 670 L141 670 L141 40 L481 40 L481 0 L93 0 Z " />
<glyph glyph-name="M" unicode="M" horiz-adv-x="800" d="M51 0 L138 670 L195 670 L400 125 L603 670 L661 670 L750 0 L701 0 L621 605 L417 59 L382 59 L176 603 L98 0 L51 0 Z " />
<glyph glyph-name="N" unicode="N" horiz-adv-x="692" d="M93 0 L93 670 L141 670 L551 77 L551 670 L599 670 L599 0 L551 0 L141 593 L141 0 L93 0 Z " />
<glyph glyph-name="O" unicode="O" horiz-adv-x="730" d="M365 -16 Q266 -16 197 30 Q128 76 92 155 Q56 234 56 335 Q56 436 92 515 Q128 594 197 640 Q266 686 365 686 Q464 686 533 640 Q602 594 638 515 Q674 436 674 335 Q674 234 638 155 Q602 76 533 30 Q464 -16 365 -16 Z M365 26 Q448 26 505.5 64.5 Q563 103 592.5 172.5 Q622 242 622 335 Q622 428 592.5 497.5 Q563 567 505.5 605.5 Q448 644 365 644 Q282 644 224.5 605.5 Q167 567 137.5 497.5 Q108 428 108 335 Q108 242 137.5 172.5 Q167 103 224.5 64.5 Q282 26 365 26 Z " />
<glyph glyph-name="P" unicode="P" horiz-adv-x="569" d="M297 277 L141 277 L141 0 L93 0 L93 670 L314 670 Q386 670 433 645 Q480 620 502.5 576 Q525 532 525 477 Q525 388 471.5 332.5 Q418 277 297 277 Z M305 630 L141 630 L141 317 L305 317 Q392 317 433.5 359.5 Q475 402 475 476 Q475 550 434.5 590 Q394 630 305 630 Z " />
<glyph glyph-name="Q" unicode="Q" horiz-adv-x="730" d="M365 -16 Q266 -16 197 30 Q128 76 92 155 Q56 234 56 335 Q56 436 92 515 Q128 594 197 640 Q266 686 365 686 Q464 686 533 640 Q602 594 638 515 Q674 436 674 335 Q674 245 645 172 Q616 99 560.5 51 Q505 3 425 -11 Q467 -46 520.5 -59 Q574 -72 636 -72 L636 -124 Q533 -118 475.5 -91.5 Q418 -65 381 -16 Q373 -16 365 -16 Z M365 26 Q448 26 505.5 64.5 Q563 103 592.5 172.5 Q622 242 622 335 Q622 428 592.5 497.5 Q563 567 505.5 605.5 Q448 644 365 644 Q282 644 224.5 605.5 Q167 567 137.5 497.5 Q108 428 108 335 Q108 242 137.5 172.5 Q167 103 224.5 64.5 Q282 26 365 26 Z " />
<glyph glyph-name="R" unicode="R" horiz-adv-x="600" d="M93 0 L93 670 L301 670 Q383 670 434.5 645.5 Q486 621 510 580 Q534 539 534 488 Q534 410 481.5 364 Q429 318 326 308 Q405 285 464 213.5 Q523 142 566 0 L512 0 Q479 110 435 175.5 Q391 241 330 269.5 Q269 298 186 298 L141 298 L141 0 L93 0 Z M291 630 L141 630 L141 337 L276 337 Q382 337 433 375.5 Q484 414 484 486 Q484 552 439.5 591 Q395 630 291 630 Z " />
<glyph glyph-name="S" unicode="S" horiz-adv-x="581" d="M295 -16 Q181 -16 116.5 34.5 Q52 85 42 176 L92 176 Q102 118 133.5 85.5 Q165 53 208.5 39.5 Q252 26 300 26 Q388 26 437 63 Q486 100 486 165 Q486 230 451 263 Q416 296 340 313 L223 339 Q178 349 142.5 367.5 Q107 386 86 420 Q65 454 65 511 Q65 562 92.5 601.5 Q120 641 171 663.5 Q222 686 290 686 Q389 686 449.5 636 Q510 586 523 496 L473 496 Q445 644 288 644 Q210 644 162.5 610 Q115 576 115 516 Q115 454 145 425.5 Q175 397 237 383 L353 357 Q441 338 488.5 296 Q536 254 536 169 Q536 84 472.5 34 Q409 -16 295 -16 Z " />
<glyph glyph-name="T" unicode="T" horiz-adv-x="576" d="M264 0 L264 630 L27 630 L27 670 L549 670 L549 630 L312 630 L312 0 L264 0 Z " />
<glyph glyph-name="U" unicode="U" horiz-adv-x="664" d="M332 -16 Q210 -16 145 58 Q80 132 80 262 L80 670 L128 670 L128 262 Q128 146 180 86 Q232 26 332 26 Q432 26 484 86 Q536 146 536 262 L536 670 L584 670 L584 262 Q584 132 519 58 Q454 -16 332 -16 Z " />
<glyph glyph-name="V" unicode="V" horiz-adv-x="608" d="M81 670 L304 44 L530 670 L578 670 L332 0 L274 0 L30 670 L81 670 Z " />
<glyph glyph-name="W" unicode="W" horiz-adv-x="914" d="M227 0 L33 670 L84 670 L256 52 L435 670 L482 670 L659 52 L833 670 L881 670 L687 0 L630 0 L457 595 L285 0 L227 0 Z " />
<glyph glyph-name="X" unicode="X" horiz-adv-x="590" d="M100 670 L298 377 L501 670 L555 670 L325 343 L561 0 L504 0 L296 309 L81 0 L27 0 L268 344 L44 670 L100 670 Z " />
<glyph glyph-name="Y" unicode="Y" horiz-adv-x="574" d="M79 670 L288 308 L499 670 L548 670 L311 270 L311 0 L263 0 L263 270 L26 670 L79 670 Z " />
<glyph glyph-name="Z" unicode="Z" horiz-adv-x="563" d="M48 0 L48 33 L462 630 L60 630 L60 670 L519 670 L519 637 L105 40 L527 40 L527 0 L48 0 Z " />
<glyph glyph-name="bracketleft" unicode="&#x5b;" horiz-adv-x="254" d="M77 -100 L77 720 L232 720 L232 682 L122 682 L122 -62 L232 -62 L232 -100 L77 -100 Z " />
<glyph glyph-name="backslash" unicode="&#x5c;" horiz-adv-x="304" d="M52 685 L296 -105 L250 -105 L6 685 L52 685 Z " />
<glyph glyph-name="bracketright" unicode="&#x5d;" horiz-adv-x="254" d="M177 720 L177 -100 L22 -100 L22 -62 L132 -62 L132 682 L22 682 L22 720 L177 720 Z " />
<glyph glyph-name="asciicircum" unicode="&#x5e;" horiz-adv-x="590" d="M121 342 L279 660 L311 660 L469 342 L424 342 L294 607 L165 342 L121 342 Z " />
<glyph glyph-name="underscore" unicode="&#x5f;" horiz-adv-x="500" d="M0 -125 L0 -85 L500 -85 L500 -125 L0 -125 Z " />
<glyph glyph-name="grave" unicode="&#x60;" horiz-adv-x="500" d="M197 731 L346 595 L327 572 L166 694 L197 731 Z " />
<glyph glyph-name="a" unicode="a" horiz-adv-x="512" d="M207 -13 Q130 -13 86.5 21.5 Q43 56 43 121 Q43 172 71.5 205.5 Q100 239 149.5 258 Q199 277 262 285 Q325 293 395 294 L395 316 Q395 390 358 431 Q321 472 256 472 Q198 472 158.5 443.5 Q119 415 108 361 L62 361 Q76 431 126 470 Q176 509 259 509 Q344 509 392 458.5 Q440 408 440 302 L440 0 L399 0 L397 89 Q370 42 320 14.5 Q270 -13 207 -13 Z M211 25 Q266 25 307.5 47.5 Q349 70 372 108 Q395 146 395 193 L395 259 Q253 258 171.5 227 Q90 196 90 123 Q90 76 123.5 50.5 Q157 25 211 25 Z " />
<glyph glyph-name="b" unicode="b" horiz-adv-x="569" d="M307 -13 Q240 -13 193.5 19.5 Q147 52 125 102 L122 0 L81 0 L81 700 L126 700 L126 396 Q151 450 200.5 479.5 Q250 509 307 509 Q374 509 422 475 Q470 441 495.5 381.5 Q521 322 521 248 Q521 172 494 113 Q467 54 418.5 20.5 Q370 -13 307 -13 Z M297 25 Q352 25 392 54.5 Q432 84 453 134 Q474 184 474 248 Q474 312 453 362 Q432 412 392 441.5 Q352 471 297 471 Q252 471 212.5 445.5 Q173 420 148.5 371.5 Q124 323 124 255 L124 241 Q124 174 147 126 Q170 78 209.5 51.5 Q249 25 297 25 Z " />
<glyph glyph-name="c" unicode="c" horiz-adv-x="537" d="M281 -13 Q218 -13 165 17 Q112 47 80 105 Q48 163 48 248 Q48 330 80 388.5 Q112 447 165 478 Q218 509 282 509 Q331 509 374.5 490.5 Q418 472 448.5 434.5 Q479 397 490 339 L444 339 Q426 411 381 441 Q336 471 281 471 Q236 471 193 448 Q150 425 122.5 375.5 Q95 326 95 248 Q95 170 122.5 121 Q150 72 192.5 48.5 Q235 25 281 25 Q336 25 381 58.5 Q426 92 446 168 L491 168 Q478 108 446 68 Q414 28 371 7.5 Q328 -13 281 -13 Z " />
<glyph glyph-name="d" unicode="d" horiz-adv-x="569" d="M262 509 Q328 509 374 477.5 Q420 446 443 397 L443 700 L488 700 L488 0 L447 0 L444 103 Q419 48 370 17.5 Q321 -13 262 -13 Q195 -13 147 21 Q99 55 73.5 114.5 Q48 174 48 248 Q48 324 75 383 Q102 442 150 475.5 Q198 509 262 509 Z M272 471 Q216 471 176.5 441.5 Q137 412 116 362 Q95 312 95 248 Q95 184 116 134 Q137 84 176.5 54.5 Q216 25 272 25 Q318 25 357 50.5 Q396 76 420.5 124.5 Q445 173 445 241 L445 255 Q445 322 421.5 370 Q398 418 359 444.5 Q320 471 272 471 Z " />
<glyph glyph-name="e" unicode="e" horiz-adv-x="545" d="M278 -13 Q218 -13 165.5 16 Q113 45 80.5 102.5 Q48 160 48 248 Q48 332 81 390 Q114 448 167 478.5 Q220 509 278 509 Q342 509 392 478.5 Q442 448 470.5 390 Q499 332 499 250 L499 238 L94 238 Q96 182 116 133.5 Q136 85 177 55 Q218 25 280 25 Q350 25 391 59.5 Q432 94 448 153 L493 153 Q471 69 413.5 28 Q356 -13 278 -13 Z M278 471 Q230 471 190 447.5 Q150 424 124.5 380.5 Q99 337 95 275 L453 275 Q445 366 400.5 418.5 Q356 471 278 471 Z " />
<glyph glyph-name="f" unicode="f" horiz-adv-x="328" d="M18 496 L99 496 L99 529 Q99 621 138.5 667 Q178 713 252 713 Q290 713 330 695 L319 661 Q285 675 251 675 Q201 675 172.5 642 Q144 609 144 533 L144 496 L309 496 L309 460 L144 460 L144 0 L99 0 L99 460 L18 460 L18 496 Z " />
<glyph glyph-name="g" unicode="g" horiz-adv-x="569" d="M268 -223 Q188 -223 132 -180.5 Q76 -138 64 -53 L111 -53 Q122 -121 165 -153 Q208 -185 268 -185 Q352 -185 397.5 -135.5 Q443 -86 443 15 L443 109 Q418 56 370 26.5 Q322 -3 263 -3 Q196 -3 148 30.5 Q100 64 74 122 Q48 180 48 253 Q48 328 75.5 385.5 Q103 443 151.5 476 Q200 509 262 509 Q329 509 375.5 477.5 Q422 446 444 398 L447 496 L488 496 L488 29 Q488 -223 268 -223 Z M272 35 Q318 35 357 60 Q396 85 420.5 132 Q445 179 445 246 L445 260 Q445 326 421.5 373 Q398 420 359 445.5 Q320 471 272 471 Q216 471 176.5 442.5 Q137 414 116 364.5 Q95 315 95 253 Q95 191 116 141.5 Q137 92 176.5 63.5 Q216 35 272 35 Z " />
<glyph glyph-name="h" unicode="h" horiz-adv-x="561" d="M81 0 L81 700 L126 700 L126 393 Q151 453 202 481 Q253 509 306 509 Q400 509 444.5 452.5 Q489 396 489 299 L489 0 L444 0 L444 294 Q444 386 407.5 428.5 Q371 471 299 471 Q224 471 175 414.5 Q126 358 126 242 L126 0 L81 0 Z " />
<glyph glyph-name="i" unicode="i" horiz-adv-x="207" d="M103 594 Q87 594 76.5 604 Q66 614 66 631 Q66 648 76.5 658 Q87 668 103 668 Q119 668 129.5 658 Q140 648 140 631 Q140 614 129.5 604 Q119 594 103 594 Z M81 0 L81 496 L126 496 L126 0 L81 0 Z " />
<glyph glyph-name="j" unicode="j" horiz-adv-x="216" d="M108 594 Q92 594 81.5 604 Q71 614 71 631 Q71 648 81.5 658 Q92 668 108 668 Q124 668 134.5 658 Q145 648 145 631 Q145 614 134.5 604 Q124 594 108 594 Z M-83 -211 L-73 -176 Q-60 -181 -47.5 -183 Q-35 -185 -19 -185 Q31 -185 58.5 -153.5 Q86 -122 86 -48 L86 496 L131 496 L131 -44 Q131 -223 -20 -223 Q-53 -223 -83 -211 Z " />
<glyph glyph-name="k" unicode="k" horiz-adv-x="476" d="M81 0 L81 700 L126 700 L126 282 L386 496 L444 496 L164 267 Q253 251 319 197 Q416 120 456 0 L405 0 Q373 99 294 166 Q224 226 126 236 L126 0 L81 0 Z " />
<glyph glyph-name="l" unicode="l" horiz-adv-x="207" d="M81 0 L81 700 L126 700 L126 0 L81 0 Z " />
<glyph glyph-name="m" unicode="m" horiz-adv-x="900" d="M81 496 L122 496 L125 394 Q150 455 199 482 Q248 509 300 509 Q371 509 412.5 474.5 Q454 440 469 378 Q483 423 512 452 Q541 481 577.5 495 Q614 509 651 509 Q742 509 785 452.5 Q828 396 828 299 L828 0 L783 0 L783 294 Q783 386 748 428.5 Q713 471 644 471 Q571 471 524 414.5 Q477 358 477 242 L477 0 L432 0 L432 294 Q432 386 397 428.5 Q362 471 293 471 Q220 471 173 414.5 Q126 358 126 242 L126 0 L81 0 L81 496 Z " />
<glyph glyph-name="n" unicode="n" horiz-adv-x="561" d="M81 0 L81 496 L122 496 L125 392 Q150 454 201 481.5 Q252 509 306 509 Q400 509 444.5 452.5 Q489 396 489 299 L489 0 L444 0 L444 294 Q444 386 407.5 428.5 Q371 471 299 471 Q224 471 175 414.5 Q126 358 126 242 L126 0 L81 0 Z " />
<glyph glyph-name="o" unicode="o" horiz-adv-x="564" d="M282 -13 Q214 -13 161 20.5 Q108 54 78 113 Q48 172 48 248 Q48 324 78 383 Q108 442 161 475.5 Q214 509 282 509 Q350 509 403 475.5 Q456 442 486 383 Q516 324 516 248 Q516 172 486 113 Q456 54 403 20.5 Q350 -13 282 -13 Z M282 25 Q340 25 381.5 53.5 Q423 82 446 132.5 Q469 183 469 248 Q469 313 446 363.5 Q423 414 381.5 442.5 Q340 471 282 471 Q224 471 182.5 442.5 Q141 414 118 363.5 Q95 313 95 248 Q95 183 118 132.5 Q141 82 182.5 53.5 Q224 25 282 25 Z " />
<glyph glyph-name="p" unicode="p" horiz-adv-x="569" d="M81 -210 L81 496 L122 496 L125 393 Q150 448 199.5 478.5 Q249 509 307 509 Q374 509 422 475 Q470 441 495.5 381.5 Q521 322 521 248 Q521 172 494 113 Q467 54 418.5 20.5 Q370 -13 307 -13 Q241 -13 195 18.5 Q149 50 126 99 L126 -210 L81 -210 Z M297 25 Q352 25 392 54.5 Q432 84 453 134 Q474 184 474 248 Q474 312 453 362 Q432 412 392 441.5 Q352 471 297 471 Q252 471 212.5 445.5 Q173 420 148.5 371.5 Q124 323 124 255 L124 241 Q124 174 147 126 Q170 78 209.5 51.5 Q249 25 297 25 Z " />
<glyph glyph-name="q" unicode="q" horiz-adv-x="569" d="M262 509 Q329 509 375.5 476.5 Q422 444 444 394 L447 496 L488 496 L488 -210 L443 -210 L443 100 Q418 47 369 17 Q320 -13 262 -13 Q195 -13 147 21 Q99 55 73.5 114.5 Q48 174 48 248 Q48 324 75 383 Q102 442 150 475.5 Q198 509 262 509 Z M272 471 Q216 471 176.5 441.5 Q137 412 116 362 Q95 312 95 248 Q95 184 116 134 Q137 84 176.5 54.5 Q216 25 272 25 Q318 25 357 50.5 Q396 76 420.5 124.5 Q445 173 445 241 L445 255 Q445 322 421.5 370 Q398 418 359 444.5 Q320 471 272 471 Z " />
<glyph glyph-name="r" unicode="r" horiz-adv-x="330" d="M81 0 L81 496 L122 496 L125 393 Q146 443 186.5 474 Q227 505 275 505 Q292 505 309 501 L309 460 Q297 463 274 463 Q240 463 206 442 Q172 421 149 375 Q126 329 126 254 L126 0 L81 0 Z " />
<glyph glyph-name="s" unicode="s" horiz-adv-x="473" d="M239 -13 Q150 -13 98.5 27.5 Q47 68 38 142 L85 142 Q93 96 116.5 70 Q140 44 172.5 33.5 Q205 23 240 23 Q381 23 381 120 Q381 166 354 189 Q327 212 275 225 L188 246 Q150 255 121 269 Q92 283 76 307.5 Q60 332 60 374 Q60 433 106.5 471 Q153 509 231 509 Q315 509 364 472 Q413 435 424 368 L377 368 Q353 473 231 473 Q176 473 141 448.5 Q106 424 106 378 Q106 335 131 316.5 Q156 298 199 287 L285 266 Q348 250 387.5 220 Q427 190 427 124 Q427 60 378 23.5 Q329 -13 239 -13 Z " />
<glyph glyph-name="t" unicode="t" horiz-adv-x="337" d="M227 -13 Q167 -13 130.5 25 Q94 63 94 139 L94 460 L18 460 L18 496 L94 496 L94 646 L139 646 L139 496 L300 496 L300 460 L139 460 L139 143 Q139 77 167 51 Q195 25 232 25 Q252 25 267 27.5 Q282 30 301 38 L312 3 Q289 -6 269.5 -9.5 Q250 -13 227 -13 Z " />
<glyph glyph-name="u" unicode="u" horiz-adv-x="549" d="M468 496 L468 0 L427 0 L424 102 Q399 42 349.5 14.5 Q300 -13 249 -13 Q158 -13 115 43.5 Q72 100 72 197 L72 496 L117 496 L117 202 Q117 110 152 67.5 Q187 25 256 25 Q329 25 376 81.5 Q423 138 423 254 L423 496 L468 496 Z " />
<glyph glyph-name="v" unicode="v" horiz-adv-x="484" d="M218 0 L21 496 L71 496 L244 50 L417 496 L463 496 L266 0 L218 0 Z " />
<glyph glyph-name="w" unicode="w" horiz-adv-x="734" d="M178 0 L21 496 L71 496 L204 53 L346 496 L394 496 L533 51 L668 496 L713 496 L556 0 L508 0 L368 434 L226 0 L178 0 Z " />
<glyph glyph-name="x" unicode="x" horiz-adv-x="470" d="M17 0 L211 256 L36 496 L88 496 L238 287 L395 496 L445 496 L263 258 L450 0 L398 0 L235 225 L67 0 L17 0 Z " />
<glyph glyph-name="y" unicode="y" horiz-adv-x="474" d="M-11 -202 L3 -168 Q19 -176 37.5 -180.5 Q56 -185 72 -185 Q108 -185 133.5 -161.5 Q159 -138 180 -86 L219 13 L21 496 L71 496 L241 68 L407 496 L453 496 L219 -97 Q194 -161 159 -192 Q124 -223 71 -223 Q31 -223 -11 -202 Z " />
<glyph glyph-name="z" unicode="z" horiz-adv-x="469" d="M44 0 L44 36 L375 460 L58 460 L58 496 L426 496 L426 460 L94 36 L435 36 L435 0 L44 0 Z " />
<glyph glyph-name="braceleft" unicode="&#x7b;" horiz-adv-x="314" d="M40 291 L40 329 L64 329 Q97 329 111 344 Q125 359 125 395 Q125 453 118 499.5 Q111 546 111 596 Q111 654 145 687 Q179 720 254 720 L292 720 L292 682 L253 682 Q197 682 175.5 661.5 Q154 641 154 598 Q154 558 157 526 Q160 494 163 460 Q166 426 166 380 Q166 342 149.5 327.5 Q133 313 113 310 Q133 307 149.5 292.5 Q166 278 166 240 Q166 194 163 160 Q160 126 157 94 Q154 62 154 22 Q154 -21 175.5 -41.5 Q197 -62 253 -62 L292 -62 L292 -100 L254 -100 Q179 -100 145 -67 Q111 -34 111 24 Q111 74 118 120.5 Q125 167 125 225 Q125 261 111 276 Q97 291 64 291 L40 291 Z " />
<glyph glyph-name="bar" unicode="&#x7c;" horiz-adv-x="199" d="M77 -100 L77 720 L122 720 L122 -100 L77 -100 Z " />
<glyph glyph-name="braceright" unicode="&#x7d;" horiz-adv-x="314" d="M22 -100 L22 -62 L61 -62 Q117 -62 138.5 -41.5 Q160 -21 160 22 Q160 62 157 94 Q154 126 151 160 Q148 194 148 240 Q148 278 164.5 292.5 Q181 307 201 310 Q181 313 164.5 327.5 Q148 342 148 380 Q148 426 151 460 Q154 494 157 526 Q160 558 160 598 Q160 641 138.5 661.5 Q117 682 61 682 L22 682 L22 720 L60 720 Q135 720 169 687 Q203 654 203 596 Q203 546 196 499.5 Q189 453 189 395 Q189 359 203 344 Q217 329 250 329 L274 329 L274 291 L250 291 Q217 291 203 276 Q189 261 189 225 Q189 167 196 120.5 Q203 74 203 24 Q203 -34 169 -67 Q135 -100 60 -100 L22 -100 Z " />
<glyph glyph-name="asciitilde" unicode="&#x7e;" horiz-adv-x="590" d="M286 300 Q265 323 250 334.5 Q235 346 213 346 Q190 346 166 321 Q142 296 138 235 L94 235 Q101 300 130.5 342.5 Q160 385 213 385 Q245 385 269 366.5 Q293 348 315 325 Q334 304 350 291.5 Q366 279 388 279 Q411 279 434.5 304 Q458 329 463 390 L507 390 Q500 325 470.5 282.5 Q441 240 388 240 Q356 240 331.5 258.5 Q307 277 286 300 Z " />
<glyph glyph-name="uni00A0" unicode="&#xa0;" horiz-adv-x="200" d="" />
<glyph glyph-name="exclamdown" unicode="&#xa1;" horiz-adv-x="207" d="M104 422 Q84 422 73 434 Q62 446 62 464 Q62 482 73 494 Q84 506 104 506 Q123 506 134.5 494 Q146 482 146 464 Q146 446 134.5 434 Q123 422 104 422 Z M128 -174 L79 -174 L84 335 L123 335 L128 -174 Z " />
<glyph glyph-name="cent" unicode="&#xa2;" horiz-adv-x="590" d="M286 0 L286 68 Q228 73 180 104 Q132 135 103.5 190.5 Q75 246 75 325 Q75 401 103.5 456.5 Q132 512 180 544.5 Q228 577 286 582 L286 660 L329 660 L329 582 Q396 577 449 535.5 Q502 494 517 413 L470 413 Q454 477 415.5 507.5 Q377 538 329 543 L329 107 Q377 113 415.5 147 Q454 181 472 248 L518 248 Q501 165 447 120 Q393 75 329 68 L329 0 L286 0 Z M121 325 Q121 255 144.5 208.5 Q168 162 206 137 Q244 112 286 107 L286 543 Q244 538 206 513.5 Q168 489 144.5 442.5 Q121 396 121 325 Z " />
<glyph glyph-name="sterling" unicode="&#xa3;" horiz-adv-x="590" d="M394 302 L198 302 Q206 270 212 238.5 Q218 207 218 172 Q218 119 205.5 87.5 Q193 56 175 40 L518 40 L518 0 L62 0 L62 40 Q123 40 147 68.5 Q171 97 171 175 Q171 207 165 238.5 Q159 270 151 302 L64 302 L64 342 L141 342 Q134 372 129 404 Q124 436 124 472 Q124 568 178.5 619 Q233 670 319 670 Q401 670 452 622 Q503 574 522 496 L474 496 Q458 559 418.5 593.5 Q379 628 317 628 Q251 628 211.5 591.5 Q172 555 172 473 Q172 435 177 403 Q182 371 188 342 L394 342 L394 302 Z " />
<glyph glyph-name="currency" unicode="&#xa4;" horiz-adv-x="590" d="M91 332 Q91 370 103.5 403 Q116 436 138 462 L64 536 L92 564 L166 490 Q193 511 226 522.5 Q259 534 296 534 Q333 534 365.5 522.5 Q398 511 425 490 L499 564 L527 536 L453 462 Q475 436 487 403 Q499 370 499 332 Q499 294 487 261 Q475 228 454 202 L527 129 L499 101 L426 174 Q399 153 366 141 Q333 129 296 129 Q259 129 225.5 141 Q192 153 165 174 L90 99 L62 127 L137 202 Q115 228 103 261 Q91 294 91 332 Z M131 332 Q131 284 152 246.5 Q173 209 210.5 187 Q248 165 296 165 Q343 165 380 187 Q417 209 438 246.5 Q459 284 459 332 Q459 379 438 416.5 Q417 454 380 476 Q343 498 296 498 Q248 498 210.5 476 Q173 454 152 416.5 Q131 379 131 332 Z " />
<glyph glyph-name="yen" unicode="&#xa5;" horiz-adv-x="590" d="M271 0 L271 140 L104 140 L104 174 L271 174 L271 269 L104 269 L104 303 L252 303 L45 654 L94 654 L294 307 L498 654 L544 654 L334 303 L478 303 L478 269 L315 269 L315 174 L478 174 L478 140 L315 140 L315 0 L271 0 Z " />
<glyph glyph-name="section" unicode="&#xa7;" horiz-adv-x="500" d="M410 337 L410 295 L205 357 Q126 381 85 421.5 Q44 462 44 530 Q44 598 94 642 Q144 686 241 686 Q334 686 385 645.5 Q436 605 444 531 L397 531 Q389 578 364.5 603.5 Q340 629 307 639.5 Q274 650 240 650 Q164 650 126.5 618 Q89 586 89 534 Q89 482 119.5 449.5 Q150 417 215 397 L410 337 Z M90 260 L90 302 L295 240 Q372 216 414 177 Q456 138 456 67 Q456 -1 406 -45 Q356 -89 259 -89 Q166 -89 115 -48.5 Q64 -8 56 66 L103 66 Q111 20 135.5 -6 Q160 -32 193 -42.5 Q226 -53 260 -53 Q336 -53 373.5 -21.5 Q411 10 411 63 Q411 117 380 148.5 Q349 180 285 200 L90 260 Z " />
<glyph glyph-name="dieresis" unicode="&#xa8;" horiz-adv-x="500" d="M340 589 Q324 589 313.5 599.5 Q303 610 303 626 Q303 642 313.5 652.5 Q324 663 340 663 Q356 663 366.5 652.5 Q377 642 377 626 Q377 610 366.5 599.5 Q356 589 340 589 Z M160 589 Q144 589 133.5 599.5 Q123 610 123 626 Q123 642 133.5 652.5 Q144 663 160 663 Q176 663 186.5 652.5 Q197 642 197 626 Q197 610 186.5 599.5 Q176 589 160 589 Z " />
<glyph glyph-name="copyright" unicode="&#xa9;" horiz-adv-x="833" d="M417 0 Q322 0 249 43 Q176 86 134 162 Q92 238 92 335 Q92 432 134 508 Q176 584 249 627 Q322 670 417 670 Q512 670 585 627 Q658 584 700 508 Q742 432 742 335 Q742 238 700 162 Q658 86 585 43 Q512 0 417 0 Z M417 41 Q500 41 563.5 78.5 Q627 116 662 182 Q697 248 697 335 Q697 422 662 488 Q627 554 563.5 591.5 Q500 629 417 629 Q334 629 270.5 591.5 Q207 554 172 488 Q137 422 137 335 Q137 248 172 182 Q207 116 270.5 78.5 Q334 41 417 41 Z M425 142 Q378 142 338 164 Q298 186 274 229 Q250 272 250 335 Q250 396 274 439 Q298 482 338 505.5 Q378 529 426 529 Q481 529 523.5 498 Q566 467 581 401 L537 401 Q524 452 493 473 Q462 494 425 494 Q394 494 364 477.5 Q334 461 314.5 426 Q295 391 295 335 Q295 280 314.5 245 Q334 210 364 193.5 Q394 177 425 177 Q463 177 494 200.5 Q525 224 539 279 L582 279 Q568 210 522.5 176 Q477 142 425 142 Z " />
<glyph glyph-name="ordfeminine" unicode="&#xaa;" horiz-adv-x="420" d="M168 278 Q109 278 76.5 304.5 Q44 331 44 379 Q44 430 81 458 Q118 486 178 497.5 Q238 509 308 510 L308 523 Q308 576 280.5 606.5 Q253 637 208 637 Q168 637 138.5 615.5 Q109 594 100 557 L58 557 Q69 610 107.5 640 Q146 670 210 670 Q276 670 312.5 631.5 Q349 593 349 513 L349 285 L314 285 L311 352 Q289 318 251 298 Q213 278 168 278 Z M171 314 Q208 314 239 331 Q270 348 289 375.5 Q308 403 308 435 L308 478 Q207 477 147 454.5 Q87 432 87 380 Q87 352 110.5 333 Q134 314 171 314 Z " />
<glyph glyph-name="guillemotleft" unicode="&#xab;" horiz-adv-x="586" d="M205 52 L59 245 L205 438 L253 438 L110 246 L255 52 L205 52 Z M455 52 L309 245 L455 438 L503 438 L360 246 L505 52 L455 52 Z " />
<glyph glyph-name="logicalnot" unicode="&#xac;" horiz-adv-x="590" d="M461 208 L461 370 L87 370 L87 410 L503 410 L503 208 L461 208 Z " />
<glyph glyph-name="uni00AD" unicode="&#xad;" horiz-adv-x="388" d="M56 218 L56 258 L332 258 L332 218 L56 218 Z " />
<glyph glyph-name="registered" unicode="&#xae;" horiz-adv-x="556" d="M278 188 Q208 188 154 219.5 Q100 251 70 306.5 Q40 362 40 434 Q40 506 70 561.5 Q100 617 154 648.5 Q208 680 278 680 Q348 680 402 648.5 Q456 617 486 561.5 Q516 506 516 434 Q516 362 486 306.5 Q456 251 402 219.5 Q348 188 278 188 Z M278 225 Q370 225 422 281.5 Q474 338 474 434 Q474 530 422 586.5 Q370 643 278 643 Q186 643 134 586.5 Q82 530 82 434 Q82 338 134 281.5 Q186 225 278 225 Z M191 314 L191 561 L284 561 Q330 561 352 541.5 Q374 522 374 490 Q374 436 310 423 Q338 413 357 387 Q376 361 389 314 L353 314 Q340 370 310 393 Q280 416 239 416 L225 416 L225 314 L191 314 Z M280 532 L225 532 L225 445 L280 445 Q313 445 326 458 Q339 471 339 489 Q339 508 326 520 Q313 532 280 532 Z " />
<glyph glyph-name="overscore" unicode="&#xaf;" horiz-adv-x="500" d="M119 605 L119 642 L381 642 L381 605 L119 605 Z " />
<glyph glyph-name="degree" unicode="&#xb0;" horiz-adv-x="310" d="M155 452 Q102 452 65 486.5 Q28 521 28 576 Q28 631 65 665.5 Q102 700 155 700 Q208 700 245 665.5 Q282 631 282 576 Q282 521 245 486.5 Q208 452 155 452 Z M155 490 Q192 490 215.5 514 Q239 538 239 576 Q239 614 215.5 638 Q192 662 155 662 Q118 662 94.5 638 Q71 614 71 576 Q71 538 94.5 514 Q118 490 155 490 Z " />
<glyph glyph-name="uni00B2" unicode="&#xb2;" horiz-adv-x="348" d="M38 378 L38 389 Q38 436 60 468 Q82 500 127 529 L203 578 Q238 600 251.5 621.5 Q265 643 265 672 Q265 707 241.5 727 Q218 747 177 747 Q85 747 77 650 L36 650 Q39 711 78 745.5 Q117 780 179 780 Q237 780 272 751 Q307 722 307 674 Q307 636 288.5 607 Q270 578 229 553 L149 503 Q112 480 97 459.5 Q82 439 81 413 L314 413 L314 378 L38 378 Z " />
<glyph glyph-name="uni00B3" unicode="&#xb3;" horiz-adv-x="341" d="M172 368 Q109 368 67.5 400 Q26 432 22 491 L64 491 Q69 444 100 422.5 Q131 401 175 401 Q218 401 244.5 422 Q271 443 271 488 Q271 506 262.5 525.5 Q254 545 227 558 Q200 571 145 571 L134 571 L134 601 L145 601 Q196 601 220.5 612.5 Q245 624 252.5 641 Q260 658 260 673 Q260 710 236 728.5 Q212 747 173 747 Q132 747 107 726.5 Q82 706 77 669 L35 669 Q40 721 78 750.5 Q116 780 175 780 Q231 780 266.5 752 Q302 724 302 676 Q302 648 285 623 Q268 598 227 586 Q275 574 294 547 Q313 520 313 488 Q313 432 274.5 400 Q236 368 172 368 Z " />
<glyph glyph-name="acute" unicode="&#xb4;" horiz-adv-x="500" d="M166 595 L315 731 L346 694 L185 572 L166 595 Z " />
<glyph glyph-name="paragraph" unicode="&#xb6;" horiz-adv-x="550" d="M287 -105 L287 256 L265 256 Q157 256 102.5 314 Q48 372 48 463 Q48 558 102.5 614 Q157 670 265 670 L457 670 L457 -105 L409 -105 L409 630 L335 630 L335 -105 L287 -105 Z " />
<glyph glyph-name="middot" unicode="&#xb7;" horiz-adv-x="220" d="M110 196 Q90 196 79 208 Q68 220 68 238 Q68 256 79 268 Q90 280 110 280 Q129 280 140.5 268 Q152 256 152 238 Q152 220 140.5 208 Q129 196 110 196 Z " />
<glyph glyph-name="cedilla" unicode="&#xb8;" horiz-adv-x="500" d="M203 0 L235 0 L222 -66 Q237 -61 252 -61 Q290 -61 314.5 -84 Q339 -107 339 -141 Q339 -184 308 -209 Q277 -234 228 -234 Q210 -234 195 -232 Q180 -230 159 -225 L162 -195 Q180 -200 197 -202 Q214 -204 230 -204 Q263 -204 283.5 -187.5 Q304 -171 304 -144 Q304 -120 288.5 -104.5 Q273 -89 246 -89 Q226 -89 210 -97 L188 -97 L203 0 Z " />
<glyph glyph-name="uni00B9" unicode="&#xb9;" horiz-adv-x="248" d="M19 676 L19 709 Q50 716 85 732 Q120 748 145 770 L176 770 L176 378 L136 378 L136 718 Q110 703 78.5 691.5 Q47 680 19 676 Z " />
<glyph glyph-name="ordmasculine" unicode="&#xba;" horiz-adv-x="422" d="M211 278 Q158 278 117 303.5 Q76 329 53 373.5 Q30 418 30 474 Q30 530 53 574.5 Q76 619 117 644.5 Q158 670 211 670 Q264 670 305 644.5 Q346 619 369 574.5 Q392 530 392 474 Q392 418 369 373.5 Q346 329 305 303.5 Q264 278 211 278 Z M211 313 Q273 313 311 358.5 Q349 404 349 474 Q349 544 311 589.5 Q273 635 211 635 Q148 635 110.5 589.5 Q73 544 73 474 Q73 404 110.5 358.5 Q148 313 211 313 Z " />
<glyph glyph-name="guillemotright" unicode="&#xbb;" horiz-adv-x="586" d="M131 438 L277 245 L131 52 L83 52 L226 244 L81 438 L131 438 Z M381 438 L527 245 L381 52 L333 52 L476 244 L331 438 L381 438 Z " />
<glyph glyph-name="onequarter" unicode="&#xbc;" horiz-adv-x="710" d="M153 0 L499 660 L545 660 L199 0 L153 0 Z M382 87 L382 119 L590 392 L626 392 L626 122 L692 122 L692 87 L626 87 L626 0 L586 0 L586 87 L382 87 Z M423 122 L586 122 L586 335 L423 122 Z M19 566 L19 599 Q50 606 85 622 Q120 638 145 660 L176 660 L176 268 L136 268 L136 608 Q110 593 78.5 581.5 Q47 570 19 566 Z " />
<glyph glyph-name="onehalf" unicode="&#xbd;" horiz-adv-x="767" d="M153 0 L499 660 L545 660 L199 0 L153 0 Z M457 0 L457 11 Q457 58 479 90 Q501 122 546 151 L622 200 Q657 222 670.5 243.5 Q684 265 684 294 Q684 329 660.5 349 Q637 369 596 369 Q504 369 496 272 L455 272 Q458 333 497 367.5 Q536 402 598 402 Q656 402 691 373 Q726 344 726 296 Q726 258 707.5 229 Q689 200 648 175 L568 125 Q531 102 516 81.5 Q501 61 500 35 L733 35 L733 0 L457 0 Z M19 566 L19 599 Q50 606 85 622 Q120 638 145 660 L176 660 L176 268 L136 268 L136 608 Q110 593 78.5 581.5 Q47 570 19 566 Z " />
<glyph glyph-name="threequarters" unicode="&#xbe;" horiz-adv-x="765" d="M208 0 L554 660 L600 660 L254 0 L208 0 Z M437 87 L437 119 L645 392 L681 392 L681 122 L747 122 L747 87 L681 87 L681 0 L641 0 L641 87 L437 87 Z M478 122 L641 122 L641 335 L478 122 Z M172 258 Q109 258 67.5 290 Q26 322 22 381 L64 381 Q69 334 100 312.5 Q131 291 175 291 Q218 291 244.5 312 Q271 333 271 378 Q271 396 262.5 415.5 Q254 435 227 448 Q200 461 145 461 L134 461 L134 491 L145 491 Q196 491 220.5 502.5 Q245 514 252.5 531 Q260 548 260 563 Q260 600 236 618.5 Q212 637 173 637 Q132 637 107 616.5 Q82 596 77 559 L35 559 Q40 611 78 640.5 Q116 670 175 670 Q231 670 266.5 642 Q302 614 302 566 Q302 538 285 513 Q268 488 227 476 Q275 464 294 437 Q313 410 313 378 Q313 322 274.5 290 Q236 258 172 258 Z " />
<glyph glyph-name="questiondown" unicode="&#xbf;" horiz-adv-x="442" d="M249 422 Q230 422 218.5 434 Q207 446 207 464 Q207 482 218.5 494 Q230 506 249 506 Q268 506 279.5 494 Q291 482 291 464 Q291 446 279.5 434 Q268 422 249 422 Z M382 18 L429 18 Q424 -76 366 -131.5 Q308 -187 215 -187 Q158 -187 114 -166 Q70 -145 45.5 -107.5 Q21 -70 21 -22 Q21 28 39.5 67 Q58 106 102 141 L171 196 Q205 223 216.5 246.5 Q228 270 228 308 L228 336 L271 336 L271 308 Q271 263 255.5 231.5 Q240 200 199 167 L128 109 Q68 61 68 -20 Q68 -77 108.5 -112 Q149 -147 216 -147 Q290 -147 333.5 -104 Q377 -61 382 18 Z " />
<glyph glyph-name="Agrave" unicode="&#xc0;" horiz-adv-x="622" d="M541 0 L475 181 L145 181 L78 0 L30 0 L283 670 L341 670 L592 0 L541 0 Z M160 221 L460 221 L311 629 L160 221 Z M202 871 L394 761 L379 730 L178 825 L202 871 Z " />
<glyph glyph-name="Aacute" unicode="&#xc1;" horiz-adv-x="622" d="M541 0 L475 181 L145 181 L78 0 L30 0 L283 670 L341 670 L592 0 L541 0 Z M160 221 L460 221 L311 629 L160 221 Z M230 761 L422 871 L446 825 L245 730 L230 761 Z " />
<glyph glyph-name="Acircumflex" unicode="&#xc2;" horiz-adv-x="622" d="M541 0 L475 181 L145 181 L78 0 L30 0 L283 670 L341 670 L592 0 L541 0 Z M160 221 L460 221 L311 629 L160 221 Z M331 864 L474 752 L456 725 L312 819 L169 725 L151 752 L294 864 L331 864 Z " />
<glyph glyph-name="Atilde" unicode="&#xc3;" horiz-adv-x="622" d="M541 0 L475 181 L145 181 L78 0 L30 0 L283 670 L341 670 L592 0 L541 0 Z M160 221 L460 221 L311 629 L160 221 Z M296 789 Q280 805 268.5 812.5 Q257 820 244 820 Q230 820 214 805 Q198 790 191 748 L150 748 Q155 800 181.5 830.5 Q208 861 248 861 Q269 861 288 850 Q307 839 328 818 Q344 802 355.5 794.5 Q367 787 380 787 Q394 787 410 802 Q426 817 433 859 L474 859 Q469 806 442.5 776 Q416 746 376 746 Q355 746 336 757 Q317 768 296 789 Z " />
<glyph glyph-name="Adieresis" unicode="&#xc4;" horiz-adv-x="622" d="M541 0 L475 181 L145 181 L78 0 L30 0 L283 670 L341 670 L592 0 L541 0 Z M160 221 L460 221 L311 629 L160 221 Z M412 765 Q395 765 384 775.5 Q373 786 373 804 Q373 822 384 832.5 Q395 843 412 843 Q429 843 440 832.5 Q451 822 451 804 Q451 786 440 775.5 Q429 765 412 765 Z M212 765 Q195 765 184 775.5 Q173 786 173 804 Q173 822 184 832.5 Q195 843 212 843 Q229 843 240 832.5 Q251 822 251 804 Q251 786 240 775.5 Q229 765 212 765 Z " />
<glyph glyph-name="Aring" unicode="&#xc5;" horiz-adv-x="622" d="M541 0 L475 181 L145 181 L78 0 L30 0 L283 670 L341 670 L592 0 L541 0 Z M160 221 L460 221 L311 629 L160 221 Z M312 743 Q260 743 228 773.5 Q196 804 196 854 Q196 904 228 934 Q260 964 312 964 Q364 964 396 934 Q428 904 428 854 Q428 804 396 773.5 Q364 743 312 743 Z M312 781 Q345 781 365 800.5 Q385 820 385 854 Q385 887 365 906.5 Q345 926 312 926 Q279 926 259 906.5 Q239 887 239 854 Q239 820 259 800.5 Q279 781 312 781 Z " />
<glyph glyph-name="AE" unicode="&#xc6;" horiz-adv-x="915" d="M30 0 L430 670 L856 670 L856 630 L504 630 L504 356 L825 356 L825 318 L504 318 L504 40 L860 40 L860 0 L456 0 L456 181 L187 181 L78 0 L30 0 Z M211 221 L456 221 L456 630 L211 221 Z " />
<glyph glyph-name="Ccedilla" unicode="&#xc7;" horiz-adv-x="689" d="M359 -16 Q264 -16 196.5 29 Q129 74 92.5 153 Q56 232 56 335 Q56 436 93 515.5 Q130 595 198 640.5 Q266 686 359 686 Q471 686 546.5 624 Q622 562 642 454 L590 454 Q570 545 509.5 594.5 Q449 644 359 644 Q281 644 224.5 605.5 Q168 567 138 497.5 Q108 428 108 335 Q108 242 138.5 172.5 Q169 103 225.5 64.5 Q282 26 359 26 Q448 26 508.5 73.5 Q569 121 590 210 L640 210 Q620 104 545 44 Q470 -16 359 -16 Z M341 1 L375 1 L362 -65 Q377 -60 391 -60 Q429 -60 454 -83 Q479 -106 479 -141 Q479 -184 448 -209.5 Q417 -235 367 -235 Q348 -235 333 -233 Q318 -231 297 -226 L300 -194 Q318 -199 335.5 -201 Q353 -203 369 -203 Q401 -203 421.5 -186.5 Q442 -170 442 -144 Q442 -121 426.5 -105.5 Q411 -90 385 -90 Q373 -90 366 -92 Q359 -94 350 -98 L326 -98 L341 1 Z " />
<glyph glyph-name="Egrave" unicode="&#xc8;" horiz-adv-x="552" d="M93 0 L93 670 L493 670 L493 630 L141 630 L141 356 L462 356 L462 318 L141 318 L141 40 L497 40 L497 0 L93 0 Z M183 871 L375 761 L360 730 L159 825 L183 871 Z " />
<glyph glyph-name="Eacute" unicode="&#xc9;" horiz-adv-x="552" d="M93 0 L93 670 L493 670 L493 630 L141 630 L141 356 L462 356 L462 318 L141 318 L141 40 L497 40 L497 0 L93 0 Z M211 761 L403 871 L427 825 L226 730 L211 761 Z " />
<glyph glyph-name="Ecircumflex" unicode="&#xca;" horiz-adv-x="552" d="M93 0 L93 670 L493 670 L493 630 L141 630 L141 356 L462 356 L462 318 L141 318 L141 40 L497 40 L497 0 L93 0 Z M312 864 L455 752 L437 725 L293 819 L150 725 L132 752 L275 864 L312 864 Z " />
<glyph glyph-name="Edieresis" unicode="&#xcb;" horiz-adv-x="552" d="M93 0 L93 670 L493 670 L493 630 L141 630 L141 356 L462 356 L462 318 L141 318 L141 40 L497 40 L497 0 L93 0 Z M393 765 Q376 765 365 775.5 Q354 786 354 804 Q354 822 365 832.5 Q376 843 393 843 Q410 843 421 832.5 Q432 822 432 804 Q432 786 421 775.5 Q410 765 393 765 Z M193 765 Q176 765 165 775.5 Q154 786 154 804 Q154 822 165 832.5 Q176 843 193 843 Q210 843 221 832.5 Q232 822 232 804 Q232 786 221 775.5 Q210 765 193 765 Z " />
<glyph glyph-name="Igrave" unicode="&#xcc;" horiz-adv-x="234" d="M93 0 L93 670 L141 670 L141 0 L93 0 Z M7 871 L199 761 L184 730 L-17 825 L7 871 Z " />
<glyph glyph-name="Iacute" unicode="&#xcd;" horiz-adv-x="234" d="M93 0 L93 670 L141 670 L141 0 L93 0 Z M35 761 L227 871 L251 825 L50 730 L35 761 Z " />
<glyph glyph-name="Icircumflex" unicode="&#xce;" horiz-adv-x="234" d="M93 0 L93 670 L141 670 L141 0 L93 0 Z M136 864 L279 752 L261 725 L117 819 L-26 725 L-44 752 L99 864 L136 864 Z " />
<glyph glyph-name="Idieresis" unicode="&#xcf;" horiz-adv-x="234" d="M93 0 L93 670 L141 670 L141 0 L93 0 Z M217 765 Q200 765 189 775.5 Q178 786 178 804 Q178 822 189 832.5 Q200 843 217 843 Q234 843 245 832.5 Q256 822 256 804 Q256 786 245 775.5 Q234 765 217 765 Z M17 765 Q0 765 -11 775.5 Q-22 786 -22 804 Q-22 822 -11 832.5 Q0 843 17 843 Q34 843 45 832.5 Q56 822 56 804 Q56 786 45 775.5 Q34 765 17 765 Z " />
<glyph glyph-name="Eth" unicode="&#xd0;" horiz-adv-x="717" d="M113 0 L113 317 L29 317 L29 355 L113 355 L113 670 L304 670 Q425 670 504 626 Q583 582 622 506 Q661 430 661 335 Q661 239 622 163.5 Q583 88 504.5 44 Q426 0 305 0 L113 0 Z M383 317 L161 317 L161 40 L304 40 Q409 40 476.5 77 Q544 114 576.5 180.5 Q609 247 609 335 Q609 423 577.5 489.5 Q546 556 479 593 Q412 630 304 630 L161 630 L161 355 L383 355 L383 317 Z " />
<glyph glyph-name="Ntilde" unicode="&#xd1;" horiz-adv-x="692" d="M93 0 L93 670 L141 670 L551 77 L551 670 L599 670 L599 0 L551 0 L141 593 L141 0 L93 0 Z M330 789 Q314 805 302.5 812.5 Q291 820 278 820 Q264 820 248 805 Q232 790 225 748 L184 748 Q189 800 215.5 830.5 Q242 861 282 861 Q303 861 322 850 Q341 839 362 818 Q378 802 389.5 794.5 Q401 787 414 787 Q428 787 444 802 Q460 817 467 859 L508 859 Q503 806 476.5 776 Q450 746 410 746 Q389 746 370 757 Q351 768 330 789 Z " />
<glyph glyph-name="Ograve" unicode="&#xd2;" horiz-adv-x="730" d="M365 -16 Q266 -16 197 30 Q128 76 92 155 Q56 234 56 335 Q56 436 92 515 Q128 594 197 640 Q266 686 365 686 Q464 686 533 640 Q602 594 638 515 Q674 436 674 335 Q674 234 638 155 Q602 76 533 30 Q464 -16 365 -16 Z M365 26 Q448 26 505.5 64.5 Q563 103 592.5 172.5 Q622 242 622 335 Q622 428 592.5 497.5 Q563 567 505.5 605.5 Q448 644 365 644 Q282 644 224.5 605.5 Q167 567 137.5 497.5 Q108 428 108 335 Q108 242 137.5 172.5 Q167 103 224.5 64.5 Q282 26 365 26 Z M255 871 L447 761 L432 730 L231 825 L255 871 Z " />
<glyph glyph-name="Oacute" unicode="&#xd3;" horiz-adv-x="730" d="M365 -16 Q266 -16 197 30 Q128 76 92 155 Q56 234 56 335 Q56 436 92 515 Q128 594 197 640 Q266 686 365 686 Q464 686 533 640 Q602 594 638 515 Q674 436 674 335 Q674 234 638 155 Q602 76 533 30 Q464 -16 365 -16 Z M365 26 Q448 26 505.5 64.5 Q563 103 592.5 172.5 Q622 242 622 335 Q622 428 592.5 497.5 Q563 567 505.5 605.5 Q448 644 365 644 Q282 644 224.5 605.5 Q167 567 137.5 497.5 Q108 428 108 335 Q108 242 137.5 172.5 Q167 103 224.5 64.5 Q282 26 365 26 Z M283 761 L475 871 L499 825 L298 730 L283 761 Z " />
<glyph glyph-name="Ocircumflex" unicode="&#xd4;" horiz-adv-x="730" d="M365 -16 Q266 -16 197 30 Q128 76 92 155 Q56 234 56 335 Q56 436 92 515 Q128 594 197 640 Q266 686 365 686 Q464 686 533 640 Q602 594 638 515 Q674 436 674 335 Q674 234 638 155 Q602 76 533 30 Q464 -16 365 -16 Z M365 26 Q448 26 505.5 64.5 Q563 103 592.5 172.5 Q622 242 622 335 Q622 428 592.5 497.5 Q563 567 505.5 605.5 Q448 644 365 644 Q282 644 224.5 605.5 Q167 567 137.5 497.5 Q108 428 108 335 Q108 242 137.5 172.5 Q167 103 224.5 64.5 Q282 26 365 26 Z M384 864 L527 752 L509 725 L365 819 L222 725 L204 752 L347 864 L384 864 Z " />
<glyph glyph-name="Otilde" unicode="&#xd5;" horiz-adv-x="730" d="M365 -16 Q266 -16 197 30 Q128 76 92 155 Q56 234 56 335 Q56 436 92 515 Q128 594 197 640 Q266 686 365 686 Q464 686 533 640 Q602 594 638 515 Q674 436 674 335 Q674 234 638 155 Q602 76 533 30 Q464 -16 365 -16 Z M365 26 Q448 26 505.5 64.5 Q563 103 592.5 172.5 Q622 242 622 335 Q622 428 592.5 497.5 Q563 567 505.5 605.5 Q448 644 365 644 Q282 644 224.5 605.5 Q167 567 137.5 497.5 Q108 428 108 335 Q108 242 137.5 172.5 Q167 103 224.5 64.5 Q282 26 365 26 Z M349 789 Q333 805 321.5 812.5 Q310 820 297 820 Q283 820 267 805 Q251 790 244 748 L203 748 Q208 800 234.5 830.5 Q261 861 301 861 Q322 861 341 850 Q360 839 381 818 Q397 802 408.5 794.5 Q420 787 433 787 Q447 787 463 802 Q479 817 486 859 L527 859 Q522 806 495.5 776 Q469 746 429 746 Q408 746 389 757 Q370 768 349 789 Z " />
<glyph glyph-name="Odieresis" unicode="&#xd6;" horiz-adv-x="730" d="M365 -16 Q266 -16 197 30 Q128 76 92 155 Q56 234 56 335 Q56 436 92 515 Q128 594 197 640 Q266 686 365 686 Q464 686 533 640 Q602 594 638 515 Q674 436 674 335 Q674 234 638 155 Q602 76 533 30 Q464 -16 365 -16 Z M365 26 Q448 26 505.5 64.5 Q563 103 592.5 172.5 Q622 242 622 335 Q622 428 592.5 497.5 Q563 567 505.5 605.5 Q448 644 365 644 Q282 644 224.5 605.5 Q167 567 137.5 497.5 Q108 428 108 335 Q108 242 137.5 172.5 Q167 103 224.5 64.5 Q282 26 365 26 Z M465 765 Q448 765 437 775.5 Q426 786 426 804 Q426 822 437 832.5 Q448 843 465 843 Q482 843 493 832.5 Q504 822 504 804 Q504 786 493 775.5 Q482 765 465 765 Z M265 765 Q248 765 237 775.5 Q226 786 226 804 Q226 822 237 832.5 Q248 843 265 843 Q282 843 293 832.5 Q304 822 304 804 Q304 786 293 775.5 Q282 765 265 765 Z " />
<glyph glyph-name="multiply" unicode="&#xd7;" horiz-adv-x="590" d="M140 148 L113 176 L267 330 L113 484 L141 513 L296 358 L450 513 L477 485 L323 331 L477 177 L449 148 L294 302 L140 148 Z " />
<glyph glyph-name="Oslash" unicode="&#xd8;" horiz-adv-x="730" d="M103 -18 L157 62 Q108 110 82 180 Q56 250 56 335 Q56 436 92 515 Q128 594 197 640 Q266 686 365 686 Q418 686 462 672.5 Q506 659 542 633 L594 710 L627 688 L573 608 Q622 560 648 490 Q674 420 674 335 Q674 234 638 155 Q602 76 533 30 Q464 -16 365 -16 Q312 -16 268 -2.5 Q224 11 188 37 L136 -40 L103 -18 Z M108 335 Q108 184 183 101 L517 597 Q487 619 449 631.5 Q411 644 365 644 Q282 644 224.5 605.5 Q167 567 137.5 497.5 Q108 428 108 335 Z M365 26 Q448 26 505.5 64.5 Q563 103 592.5 173 Q622 243 622 335 Q622 486 547 569 L213 73 Q243 51 281 38.5 Q319 26 365 26 Z " />
<glyph glyph-name="Ugrave" unicode="&#xd9;" horiz-adv-x="664" d="M332 -16 Q210 -16 145 58 Q80 132 80 262 L80 670 L128 670 L128 262 Q128 146 180 86 Q232 26 332 26 Q432 26 484 86 Q536 146 536 262 L536 670 L584 670 L584 262 Q584 132 519 58 Q454 -16 332 -16 Z M222 871 L414 761 L399 730 L198 825 L222 871 Z " />
<glyph glyph-name="Uacute" unicode="&#xda;" horiz-adv-x="664" d="M332 -16 Q210 -16 145 58 Q80 132 80 262 L80 670 L128 670 L128 262 Q128 146 180 86 Q232 26 332 26 Q432 26 484 86 Q536 146 536 262 L536 670 L584 670 L584 262 Q584 132 519 58 Q454 -16 332 -16 Z M250 761 L442 871 L466 825 L265 730 L250 761 Z " />
<glyph glyph-name="Ucircumflex" unicode="&#xdb;" horiz-adv-x="664" d="M332 -16 Q210 -16 145 58 Q80 132 80 262 L80 670 L128 670 L128 262 Q128 146 180 86 Q232 26 332 26 Q432 26 484 86 Q536 146 536 262 L536 670 L584 670 L584 262 Q584 132 519 58 Q454 -16 332 -16 Z M351 864 L494 752 L476 725 L332 819 L189 725 L171 752 L314 864 L351 864 Z " />
<glyph glyph-name="Udieresis" unicode="&#xdc;" horiz-adv-x="664" d="M332 -16 Q210 -16 145 58 Q80 132 80 262 L80 670 L128 670 L128 262 Q128 146 180 86 Q232 26 332 26 Q432 26 484 86 Q536 146 536 262 L536 670 L584 670 L584 262 Q584 132 519 58 Q454 -16 332 -16 Z M432 765 Q415 765 404 775.5 Q393 786 393 804 Q393 822 404 832.5 Q415 843 432 843 Q449 843 460 832.5 Q471 822 471 804 Q471 786 460 775.5 Q449 765 432 765 Z M232 765 Q215 765 204 775.5 Q193 786 193 804 Q193 822 204 832.5 Q215 843 232 843 Q249 843 260 832.5 Q271 822 271 804 Q271 786 260 775.5 Q249 765 232 765 Z " />
<glyph glyph-name="Yacute" unicode="&#xdd;" horiz-adv-x="574" d="M79 670 L288 308 L499 670 L548 670 L311 270 L311 0 L263 0 L263 270 L26 670 L79 670 Z M208 761 L400 871 L424 825 L223 730 L208 761 Z " />
<glyph glyph-name="Thorn" unicode="&#xde;" horiz-adv-x="569" d="M93 670 L141 670 L141 537 L314 537 Q386 537 433 512 Q480 487 502.5 443.5 Q525 400 525 344 Q525 256 471.5 200 Q418 144 297 144 L141 144 L141 0 L93 0 L93 670 Z M305 497 L141 497 L141 184 L305 184 Q392 184 433.5 226.5 Q475 269 475 343 Q475 416 434.5 456.5 Q394 497 305 497 Z " />
<glyph glyph-name="germandbls" unicode="&#xdf;" horiz-adv-x="591" d="M336 24 Q411 24 456.5 67 Q502 110 502 186 Q502 267 452 312 Q402 357 289 357 L266 357 L266 394 L288 394 Q365 394 409.5 430 Q454 466 454 532 Q454 601 414.5 638.5 Q375 676 296 676 Q219 676 172.5 627 Q126 578 126 484 L126 0 L81 0 L81 465 Q81 583 136 648 Q191 713 296 713 Q397 713 449 661.5 Q501 610 501 533 Q501 487 478 444.5 Q455 402 396 381 Q453 369 486.5 339.5 Q520 310 534.5 270 Q549 230 549 186 Q549 93 494.5 40 Q440 -13 336 -13 Q308 -13 280.5 -8.5 Q253 -4 230 6 L240 41 Q262 32 287 28 Q312 24 336 24 Z " />
<glyph glyph-name="agrave" unicode="&#xe0;" horiz-adv-x="512" d="M207 -13 Q130 -13 86.5 21.5 Q43 56 43 121 Q43 172 71.5 205.5 Q100 239 149.5 258 Q199 277 262 285 Q325 293 395 294 L395 316 Q395 390 358 431 Q321 472 256 472 Q198 472 158.5 443.5 Q119 415 108 361 L62 361 Q76 431 126 470 Q176 509 259 509 Q344 509 392 458.5 Q440 408 440 302 L440 0 L399 0 L397 89 Q370 42 320 14.5 Q270 -13 207 -13 Z M211 25 Q266 25 307.5 47.5 Q349 70 372 108 Q395 146 395 193 L395 259 Q253 258 171.5 227 Q90 196 90 123 Q90 76 123.5 50.5 Q157 25 211 25 Z M175 731 L324 595 L305 572 L144 694 L175 731 Z " />
<glyph glyph-name="aacute" unicode="&#xe1;" horiz-adv-x="512" d="M207 -13 Q130 -13 86.5 21.5 Q43 56 43 121 Q43 172 71.5 205.5 Q100 239 149.5 258 Q199 277 262 285 Q325 293 395 294 L395 316 Q395 390 358 431 Q321 472 256 472 Q198 472 158.5 443.5 Q119 415 108 361 L62 361 Q76 431 126 470 Q176 509 259 509 Q344 509 392 458.5 Q440 408 440 302 L440 0 L399 0 L397 89 Q370 42 320 14.5 Q270 -13 207 -13 Z M211 25 Q266 25 307.5 47.5 Q349 70 372 108 Q395 146 395 193 L395 259 Q253 258 171.5 227 Q90 196 90 123 Q90 76 123.5 50.5 Q157 25 211 25 Z M186 595 L335 731 L366 694 L205 572 L186 595 Z " />
<glyph glyph-name="acircumflex" unicode="&#xe2;" horiz-adv-x="512" d="M207 -13 Q130 -13 86.5 21.5 Q43 56 43 121 Q43 172 71.5 205.5 Q100 239 149.5 258 Q199 277 262 285 Q325 293 395 294 L395 316 Q395 390 358 431 Q321 472 256 472 Q198 472 158.5 443.5 Q119 415 108 361 L62 361 Q76 431 126 470 Q176 509 259 509 Q344 509 392 458.5 Q440 408 440 302 L440 0 L399 0 L397 89 Q370 42 320 14.5 Q270 -13 207 -13 Z M211 25 Q266 25 307.5 47.5 Q349 70 372 108 Q395 146 395 193 L395 259 Q253 258 171.5 227 Q90 196 90 123 Q90 76 123.5 50.5 Q157 25 211 25 Z M267 730 L404 583 L385 562 L255 680 L126 562 L107 583 L244 730 L267 730 Z " />
<glyph glyph-name="atilde" unicode="&#xe3;" horiz-adv-x="512" d="M207 -13 Q130 -13 86.5 21.5 Q43 56 43 121 Q43 172 71.5 205.5 Q100 239 149.5 258 Q199 277 262 285 Q325 293 395 294 L395 316 Q395 390 358 431 Q321 472 256 472 Q198 472 158.5 443.5 Q119 415 108 361 L62 361 Q76 431 126 470 Q176 509 259 509 Q344 509 392 458.5 Q440 408 440 302 L440 0 L399 0 L397 89 Q370 42 320 14.5 Q270 -13 207 -13 Z M211 25 Q266 25 307.5 47.5 Q349 70 372 108 Q395 146 395 193 L395 259 Q253 258 171.5 227 Q90 196 90 123 Q90 76 123.5 50.5 Q157 25 211 25 Z M242 631 Q227 644 215 652 Q203 660 193 660 Q179 660 166.5 645.5 Q154 631 148 591 L110 591 Q115 640 137.5 669 Q160 698 193 698 Q213 698 230.5 686 Q248 674 269 656 Q284 642 295.5 634.5 Q307 627 318 627 Q332 627 344.5 641.5 Q357 656 363 696 L401 696 Q396 646 373.5 617.5 Q351 589 318 589 Q298 589 280.5 601 Q263 613 242 631 Z " />
<glyph glyph-name="adieresis" unicode="&#xe4;" horiz-adv-x="512" d="M207 -13 Q130 -13 86.5 21.5 Q43 56 43 121 Q43 172 71.5 205.5 Q100 239 149.5 258 Q199 277 262 285 Q325 293 395 294 L395 316 Q395 390 358 431 Q321 472 256 472 Q198 472 158.5 443.5 Q119 415 108 361 L62 361 Q76 431 126 470 Q176 509 259 509 Q344 509 392 458.5 Q440 408 440 302 L440 0 L399 0 L397 89 Q370 42 320 14.5 Q270 -13 207 -13 Z M211 25 Q266 25 307.5 47.5 Q349 70 372 108 Q395 146 395 193 L395 259 Q253 258 171.5 227 Q90 196 90 123 Q90 76 123.5 50.5 Q157 25 211 25 Z M345 589 Q329 589 318.5 599.5 Q308 610 308 626 Q308 642 318.5 652.5 Q329 663 345 663 Q361 663 371.5 652.5 Q382 642 382 626 Q382 610 371.5 599.5 Q361 589 345 589 Z M165 589 Q149 589 138.5 599.5 Q128 610 128 626 Q128 642 138.5 652.5 Q149 663 165 663 Q181 663 191.5 652.5 Q202 642 202 626 Q202 610 191.5 599.5 Q181 589 165 589 Z " />
<glyph glyph-name="aring" unicode="&#xe5;" horiz-adv-x="512" d="M207 -13 Q130 -13 86.5 21.5 Q43 56 43 121 Q43 172 71.5 205.5 Q100 239 149.5 258 Q199 277 262 285 Q325 293 395 294 L395 316 Q395 390 358 431 Q321 472 256 472 Q198 472 158.5 443.5 Q119 415 108 361 L62 361 Q76 431 126 470 Q176 509 259 509 Q344 509 392 458.5 Q440 408 440 302 L440 0 L399 0 L397 89 Q370 42 320 14.5 Q270 -13 207 -13 Z M211 25 Q266 25 307.5 47.5 Q349 70 372 108 Q395 146 395 193 L395 259 Q253 258 171.5 227 Q90 196 90 123 Q90 76 123.5 50.5 Q157 25 211 25 Z M255 561 Q207 561 175.5 591 Q144 621 144 668 Q144 715 175.5 744.5 Q207 774 255 774 Q303 774 334.5 744.5 Q366 715 366 668 Q366 621 334.5 591 Q303 561 255 561 Z M255 594 Q288 594 308 614 Q328 634 328 668 Q328 701 308 721 Q288 741 255 741 Q222 741 202 721 Q182 701 182 668 Q182 634 202 614 Q222 594 255 594 Z " />
<glyph glyph-name="ae" unicode="&#xe6;" horiz-adv-x="894" d="M839 153 Q817 69 759.5 28 Q702 -13 624 -13 Q557 -13 501.5 22 Q446 57 419 128 Q399 65 342.5 26 Q286 -13 207 -13 Q130 -13 86.5 22 Q43 57 43 122 Q43 173 71.5 206 Q100 239 149.5 258 Q199 277 262.5 285.5 Q326 294 395 295 L395 316 Q395 390 358 431 Q321 472 256 472 Q198 472 158.5 443.5 Q119 415 108 361 L62 361 Q76 431 126 470 Q176 509 259 509 Q323 509 367 477.5 Q411 446 427 382 Q457 444 510.5 476.5 Q564 509 624 509 Q688 509 738 478.5 Q788 448 816.5 390 Q845 332 845 250 L845 238 L440 238 Q441 183 461.5 134 Q482 85 522.5 55 Q563 25 626 25 Q696 25 737 59.5 Q778 94 794 153 L839 153 Z M624 471 Q576 471 536 447.5 Q496 424 470.5 380.5 Q445 337 441 275 L799 275 Q791 366 746.5 418.5 Q702 471 624 471 Z M211 25 Q266 25 307.5 47.5 Q349 70 372 108 Q395 146 395 193 L395 259 Q251 258 170.5 226 Q90 194 90 124 Q90 77 123.5 51 Q157 25 211 25 Z " />
<glyph glyph-name="ccedilla" unicode="&#xe7;" horiz-adv-x="537" d="M281 -13 Q218 -13 165 17 Q112 47 80 105 Q48 163 48 248 Q48 330 80 388.5 Q112 447 165 478 Q218 509 282 509 Q331 509 374.5 490.5 Q418 472 448.5 434.5 Q479 397 490 339 L444 339 Q426 411 381 441 Q336 471 281 471 Q236 471 193 448 Q150 425 122.5 375.5 Q95 326 95 248 Q95 170 122.5 121 Q150 72 192.5 48.5 Q235 25 281 25 Q336 25 381 58.5 Q426 92 446 168 L491 168 Q478 108 446 68 Q414 28 371 7.5 Q328 -13 281 -13 Z M250 0 L282 0 L269 -66 Q284 -61 299 -61 Q337 -61 361.5 -84 Q386 -107 386 -141 Q386 -184 355 -209 Q324 -234 275 -234 Q257 -234 242 -232 Q227 -230 206 -225 L209 -195 Q227 -200 244 -202 Q261 -204 277 -204 Q310 -204 330.5 -187.5 Q351 -171 351 -144 Q351 -120 335.5 -104.5 Q320 -89 293 -89 Q273 -89 257 -97 L235 -97 L250 0 Z " />
<glyph glyph-name="egrave" unicode="&#xe8;" horiz-adv-x="545" d="M278 -13 Q218 -13 165.5 16 Q113 45 80.5 102.5 Q48 160 48 248 Q48 332 81 390 Q114 448 167 478.5 Q220 509 278 509 Q342 509 392 478.5 Q442 448 470.5 390 Q499 332 499 250 L499 238 L94 238 Q96 182 116 133.5 Q136 85 177 55 Q218 25 280 25 Q350 25 391 59.5 Q432 94 448 153 L493 153 Q471 69 413.5 28 Q356 -13 278 -13 Z M278 471 Q230 471 190 447.5 Q150 424 124.5 380.5 Q99 337 95 275 L453 275 Q445 366 400.5 418.5 Q356 471 278 471 Z M198 731 L347 595 L328 572 L167 694 L198 731 Z " />
<glyph glyph-name="eacute" unicode="&#xe9;" horiz-adv-x="545" d="M278 -13 Q218 -13 165.5 16 Q113 45 80.5 102.5 Q48 160 48 248 Q48 332 81 390 Q114 448 167 478.5 Q220 509 278 509 Q342 509 392 478.5 Q442 448 470.5 390 Q499 332 499 250 L499 238 L94 238 Q96 182 116 133.5 Q136 85 177 55 Q218 25 280 25 Q350 25 391 59.5 Q432 94 448 153 L493 153 Q471 69 413.5 28 Q356 -13 278 -13 Z M278 471 Q230 471 190 447.5 Q150 424 124.5 380.5 Q99 337 95 275 L453 275 Q445 366 400.5 418.5 Q356 471 278 471 Z M209 595 L358 731 L389 694 L228 572 L209 595 Z " />
<glyph glyph-name="ecircumflex" unicode="&#xea;" horiz-adv-x="545" d="M278 -13 Q218 -13 165.5 16 Q113 45 80.5 102.5 Q48 160 48 248 Q48 332 81 390 Q114 448 167 478.5 Q220 509 278 509 Q342 509 392 478.5 Q442 448 470.5 390 Q499 332 499 250 L499 238 L94 238 Q96 182 116 133.5 Q136 85 177 55 Q218 25 280 25 Q350 25 391 59.5 Q432 94 448 153 L493 153 Q471 69 413.5 28 Q356 -13 278 -13 Z M278 471 Q230 471 190 447.5 Q150 424 124.5 380.5 Q99 337 95 275 L453 275 Q445 366 400.5 418.5 Q356 471 278 471 Z M290 730 L427 583 L408 562 L278 680 L149 562 L130 583 L267 730 L290 730 Z " />
<glyph glyph-name="edieresis" unicode="&#xeb;" horiz-adv-x="545" d="M278 -13 Q218 -13 165.5 16 Q113 45 80.5 102.5 Q48 160 48 248 Q48 332 81 390 Q114 448 167 478.5 Q220 509 278 509 Q342 509 392 478.5 Q442 448 470.5 390 Q499 332 499 250 L499 238 L94 238 Q96 182 116 133.5 Q136 85 177 55 Q218 25 280 25 Q350 25 391 59.5 Q432 94 448 153 L493 153 Q471 69 413.5 28 Q356 -13 278 -13 Z M278 471 Q230 471 190 447.5 Q150 424 124.5 380.5 Q99 337 95 275 L453 275 Q445 366 400.5 418.5 Q356 471 278 471 Z M368 589 Q352 589 341.5 599.5 Q331 610 331 626 Q331 642 341.5 652.5 Q352 663 368 663 Q384 663 394.5 652.5 Q405 642 405 626 Q405 610 394.5 599.5 Q384 589 368 589 Z M188 589 Q172 589 161.5 599.5 Q151 610 151 626 Q151 642 161.5 652.5 Q172 663 188 663 Q204 663 214.5 652.5 Q225 642 225 626 Q225 610 214.5 599.5 Q204 589 188 589 Z " />
<glyph glyph-name="igrave" unicode="&#xec;" horiz-adv-x="207" d="M81 0 L81 496 L126 496 L126 0 L81 0 Z M36 731 L158 593 L134 572 L1 697 L36 731 Z " />
<glyph glyph-name="iacute" unicode="&#xed;" horiz-adv-x="207" d="M81 0 L81 496 L126 496 L126 0 L81 0 Z M48 593 L170 731 L205 697 L72 572 L48 593 Z " />
<glyph glyph-name="icircumflex" unicode="&#xee;" horiz-adv-x="207" d="M81 0 L81 496 L126 496 L126 0 L81 0 Z M115 730 L233 582 L212 561 L103 675 L-5 561 L-26 582 L92 730 L115 730 Z " />
<glyph glyph-name="idieresis" unicode="&#xef;" horiz-adv-x="207" d="M81 0 L81 496 L126 496 L126 0 L81 0 Z M26 588 Q9 588 -1.5 598.5 Q-12 609 -12 626 Q-12 643 -1.5 653.5 Q9 664 26 664 Q43 664 53.5 653.5 Q64 643 64 626 Q64 609 53.5 598.5 Q43 588 26 588 Z M180 588 Q163 588 152.5 598.5 Q142 609 142 626 Q142 643 152.5 653.5 Q163 664 180 664 Q197 664 207.5 653.5 Q218 643 218 626 Q218 609 207.5 598.5 Q197 588 180 588 Z " />
<glyph glyph-name="eth" unicode="&#xf0;" horiz-adv-x="551" d="M277 -13 Q210 -13 158.5 19 Q107 51 77.5 107.5 Q48 164 48 239 Q48 312 76 369 Q104 426 154 459.5 Q204 493 268 493 Q334 493 381.5 461.5 Q429 430 452 380 Q443 452 406 512.5 Q369 573 309 614 L202 529 L181 557 L278 633 Q222 663 155 673 L163 710 Q246 698 312 660 L401 729 L422 703 L343 640 Q416 587 459.5 497 Q503 407 503 279 Q503 184 473 118.5 Q443 53 392 20 Q341 -13 277 -13 Z M277 25 Q331 25 371.5 52.5 Q412 80 434.5 129 Q457 178 457 243 Q457 307 432.5 354.5 Q408 402 367 428.5 Q326 455 278 455 Q220 455 179.5 426.5 Q139 398 117 349.5 Q95 301 95 240 Q95 177 117.5 128.5 Q140 80 181 52.5 Q222 25 277 25 Z " />
<glyph glyph-name="ntilde" unicode="&#xf1;" horiz-adv-x="561" d="M81 0 L81 496 L122 496 L125 392 Q150 454 201 481.5 Q252 509 306 509 Q400 509 444.5 452.5 Q489 396 489 299 L489 0 L444 0 L444 294 Q444 386 407.5 428.5 Q371 471 299 471 Q224 471 175 414.5 Q126 358 126 242 L126 0 L81 0 Z M272 631 Q257 644 245 652 Q233 660 223 660 Q209 660 196.5 645.5 Q184 631 178 591 L140 591 Q145 640 167.5 669 Q190 698 223 698 Q243 698 260.5 686 Q278 674 299 656 Q314 642 325.5 634.5 Q337 627 348 627 Q362 627 374.5 641.5 Q387 656 393 696 L431 696 Q426 646 403.5 617.5 Q381 589 348 589 Q328 589 310.5 601 Q293 613 272 631 Z " />
<glyph glyph-name="ograve" unicode="&#xf2;" horiz-adv-x="564" d="M282 -13 Q214 -13 161 20.5 Q108 54 78 113 Q48 172 48 248 Q48 324 78 383 Q108 442 161 475.5 Q214 509 282 509 Q350 509 403 475.5 Q456 442 486 383 Q516 324 516 248 Q516 172 486 113 Q456 54 403 20.5 Q350 -13 282 -13 Z M282 25 Q340 25 381.5 53.5 Q423 82 446 132.5 Q469 183 469 248 Q469 313 446 363.5 Q423 414 381.5 442.5 Q340 471 282 471 Q224 471 182.5 442.5 Q141 414 118 363.5 Q95 313 95 248 Q95 183 118 132.5 Q141 82 182.5 53.5 Q224 25 282 25 Z M202 731 L351 595 L332 572 L171 694 L202 731 Z " />
<glyph glyph-name="oacute" unicode="&#xf3;" horiz-adv-x="564" d="M282 -13 Q214 -13 161 20.5 Q108 54 78 113 Q48 172 48 248 Q48 324 78 383 Q108 442 161 475.5 Q214 509 282 509 Q350 509 403 475.5 Q456 442 486 383 Q516 324 516 248 Q516 172 486 113 Q456 54 403 20.5 Q350 -13 282 -13 Z M282 25 Q340 25 381.5 53.5 Q423 82 446 132.5 Q469 183 469 248 Q469 313 446 363.5 Q423 414 381.5 442.5 Q340 471 282 471 Q224 471 182.5 442.5 Q141 414 118 363.5 Q95 313 95 248 Q95 183 118 132.5 Q141 82 182.5 53.5 Q224 25 282 25 Z M213 595 L362 731 L393 694 L232 572 L213 595 Z " />
<glyph glyph-name="ocircumflex" unicode="&#xf4;" horiz-adv-x="564" d="M282 -13 Q214 -13 161 20.5 Q108 54 78 113 Q48 172 48 248 Q48 324 78 383 Q108 442 161 475.5 Q214 509 282 509 Q350 509 403 475.5 Q456 442 486 383 Q516 324 516 248 Q516 172 486 113 Q456 54 403 20.5 Q350 -13 282 -13 Z M282 25 Q340 25 381.5 53.5 Q423 82 446 132.5 Q469 183 469 248 Q469 313 446 363.5 Q423 414 381.5 442.5 Q340 471 282 471 Q224 471 182.5 442.5 Q141 414 118 363.5 Q95 313 95 248 Q95 183 118 132.5 Q141 82 182.5 53.5 Q224 25 282 25 Z M294 730 L431 583 L412 562 L282 680 L153 562 L134 583 L271 730 L294 730 Z " />
<glyph glyph-name="otilde" unicode="&#xf5;" horiz-adv-x="564" d="M282 -13 Q214 -13 161 20.5 Q108 54 78 113 Q48 172 48 248 Q48 324 78 383 Q108 442 161 475.5 Q214 509 282 509 Q350 509 403 475.5 Q456 442 486 383 Q516 324 516 248 Q516 172 486 113 Q456 54 403 20.5 Q350 -13 282 -13 Z M282 25 Q340 25 381.5 53.5 Q423 82 446 132.5 Q469 183 469 248 Q469 313 446 363.5 Q423 414 381.5 442.5 Q340 471 282 471 Q224 471 182.5 442.5 Q141 414 118 363.5 Q95 313 95 248 Q95 183 118 132.5 Q141 82 182.5 53.5 Q224 25 282 25 Z M269 631 Q254 644 242 652 Q230 660 220 660 Q206 660 193.5 645.5 Q181 631 175 591 L137 591 Q142 640 164.5 669 Q187 698 220 698 Q240 698 257.5 686 Q275 674 296 656 Q311 642 322.5 634.5 Q334 627 345 627 Q359 627 371.5 641.5 Q384 656 390 696 L428 696 Q423 646 400.5 617.5 Q378 589 345 589 Q325 589 307.5 601 Q290 613 269 631 Z " />
<glyph glyph-name="odieresis" unicode="&#xf6;" horiz-adv-x="564" d="M282 -13 Q214 -13 161 20.5 Q108 54 78 113 Q48 172 48 248 Q48 324 78 383 Q108 442 161 475.5 Q214 509 282 509 Q350 509 403 475.5 Q456 442 486 383 Q516 324 516 248 Q516 172 486 113 Q456 54 403 20.5 Q350 -13 282 -13 Z M282 25 Q340 25 381.5 53.5 Q423 82 446 132.5 Q469 183 469 248 Q469 313 446 363.5 Q423 414 381.5 442.5 Q340 471 282 471 Q224 471 182.5 442.5 Q141 414 118 363.5 Q95 313 95 248 Q95 183 118 132.5 Q141 82 182.5 53.5 Q224 25 282 25 Z M372 589 Q356 589 345.5 599.5 Q335 610 335 626 Q335 642 345.5 652.5 Q356 663 372 663 Q388 663 398.5 652.5 Q409 642 409 626 Q409 610 398.5 599.5 Q388 589 372 589 Z M192 589 Q176 589 165.5 599.5 Q155 610 155 626 Q155 642 165.5 652.5 Q176 663 192 663 Q208 663 218.5 652.5 Q229 642 229 626 Q229 610 218.5 599.5 Q208 589 192 589 Z " />
<glyph glyph-name="divide" unicode="&#xf7;" horiz-adv-x="590" d="M295 461 Q276 461 265 472.5 Q254 484 254 502 Q254 520 265 531.5 Q276 543 295 543 Q314 543 325 531.5 Q336 520 336 502 Q336 484 325 472.5 Q314 461 295 461 Z M87 310 L87 350 L503 350 L503 310 L87 310 Z M295 117 Q276 117 265 128.5 Q254 140 254 158 Q254 176 265 187.5 Q276 199 295 199 Q314 199 325 187.5 Q336 176 336 158 Q336 140 325 128.5 Q314 117 295 117 Z " />
<glyph glyph-name="oslash" unicode="&#xf8;" horiz-adv-x="564" d="M81 -16 L125 49 Q89 84 68.5 135 Q48 186 48 248 Q48 324 78 383 Q108 442 161 475.5 Q214 509 282 509 Q354 509 410 471 L451 533 L483 512 L439 447 Q475 412 495.5 361 Q516 310 516 248 Q516 172 486 113 Q456 54 403 20.5 Q350 -13 282 -13 Q210 -13 154 25 L113 -37 L81 -16 Z M95 248 Q95 146 148 84 L387 438 Q342 471 282 471 Q224 471 182.5 442.5 Q141 414 118 363.5 Q95 313 95 248 Z M282 25 Q340 25 381.5 53.5 Q423 82 446 132.5 Q469 183 469 248 Q469 350 415 412 L177 58 Q222 25 282 25 Z " />
<glyph glyph-name="ugrave" unicode="&#xf9;" horiz-adv-x="549" d="M468 496 L468 0 L427 0 L424 102 Q399 42 349.5 14.5 Q300 -13 249 -13 Q158 -13 115 43.5 Q72 100 72 197 L72 496 L117 496 L117 202 Q117 110 152 67.5 Q187 25 256 25 Q329 25 376 81.5 Q423 138 423 254 L423 496 L468 496 Z M190 731 L339 595 L320 572 L159 694 L190 731 Z " />
<glyph glyph-name="uacute" unicode="&#xfa;" horiz-adv-x="549" d="M468 496 L468 0 L427 0 L424 102 Q399 42 349.5 14.5 Q300 -13 249 -13 Q158 -13 115 43.5 Q72 100 72 197 L72 496 L117 496 L117 202 Q117 110 152 67.5 Q187 25 256 25 Q329 25 376 81.5 Q423 138 423 254 L423 496 L468 496 Z M201 595 L350 731 L381 694 L220 572 L201 595 Z " />
<glyph glyph-name="ucircumflex" unicode="&#xfb;" horiz-adv-x="549" d="M468 496 L468 0 L427 0 L424 102 Q399 42 349.5 14.5 Q300 -13 249 -13 Q158 -13 115 43.5 Q72 100 72 197 L72 496 L117 496 L117 202 Q117 110 152 67.5 Q187 25 256 25 Q329 25 376 81.5 Q423 138 423 254 L423 496 L468 496 Z M282 730 L419 583 L400 562 L270 680 L141 562 L122 583 L259 730 L282 730 Z " />
<glyph glyph-name="udieresis" unicode="&#xfc;" horiz-adv-x="549" d="M468 496 L468 0 L427 0 L424 102 Q399 42 349.5 14.5 Q300 -13 249 -13 Q158 -13 115 43.5 Q72 100 72 197 L72 496 L117 496 L117 202 Q117 110 152 67.5 Q187 25 256 25 Q329 25 376 81.5 Q423 138 423 254 L423 496 L468 496 Z M360 589 Q344 589 333.5 599.5 Q323 610 323 626 Q323 642 333.5 652.5 Q344 663 360 663 Q376 663 386.5 652.5 Q397 642 397 626 Q397 610 386.5 599.5 Q376 589 360 589 Z M180 589 Q164 589 153.5 599.5 Q143 610 143 626 Q143 642 153.5 652.5 Q164 663 180 663 Q196 663 206.5 652.5 Q217 642 217 626 Q217 610 206.5 599.5 Q196 589 180 589 Z " />
<glyph glyph-name="yacute" unicode="&#xfd;" horiz-adv-x="475" d="M-11 -202 L3 -168 Q19 -176 37.5 -180.5 Q56 -185 72 -185 Q108 -185 133.5 -161.5 Q159 -138 180 -86 L219 13 L21 496 L71 496 L241 68 L407 496 L453 496 L219 -97 Q194 -161 159 -192 Q124 -223 71 -223 Q31 -223 -11 -202 Z M170 595 L319 731 L350 694 L189 572 L170 595 Z " />
<glyph glyph-name="thorn" unicode="&#xfe;" horiz-adv-x="569" d="M307 -13 Q241 -13 195 18.5 Q149 50 126 99 L126 -210 L81 -210 L81 700 L126 700 L126 395 Q151 449 200.5 479 Q250 509 307 509 Q374 509 422 475 Q470 441 495.5 381.5 Q521 322 521 248 Q521 172 494 113 Q467 54 418.5 20.5 Q370 -13 307 -13 Z M297 25 Q352 25 392 54.5 Q432 84 453 134 Q474 184 474 248 Q474 312 453 362 Q432 412 392 441.5 Q352 471 297 471 Q252 471 212.5 445.5 Q173 420 148.5 371.5 Q124 323 124 255 L124 241 Q124 174 147 126 Q170 78 209.5 51.5 Q249 25 297 25 Z " />
<glyph glyph-name="ydieresis" unicode="&#xff;" horiz-adv-x="475" d="M-11 -202 L3 -168 Q19 -176 37.5 -180.5 Q56 -185 72 -185 Q108 -185 133.5 -161.5 Q159 -138 180 -86 L219 13 L21 496 L71 496 L241 68 L407 496 L453 496 L219 -97 Q194 -161 159 -192 Q124 -223 71 -223 Q31 -223 -11 -202 Z M329 589 Q313 589 302.5 599.5 Q292 610 292 626 Q292 642 302.5 652.5 Q313 663 329 663 Q345 663 355.5 652.5 Q366 642 366 626 Q366 610 355.5 599.5 Q345 589 329 589 Z M149 589 Q133 589 122.5 599.5 Q112 610 112 626 Q112 642 122.5 652.5 Q133 663 149 663 Q165 663 175.5 652.5 Q186 642 186 626 Q186 610 175.5 599.5 Q165 589 149 589 Z " />
<glyph glyph-name="Amacron" unicode="&#x100;" horiz-adv-x="622" d="M541 0 L475 181 L145 181 L78 0 L30 0 L283 670 L341 670 L592 0 L541 0 Z M160 221 L460 221 L311 629 L160 221 Z M163 771 L163 811 L461 811 L461 771 L163 771 Z " />
<glyph glyph-name="amacron" unicode="&#x101;" horiz-adv-x="512" d="M207 -13 Q130 -13 86.5 21.5 Q43 56 43 121 Q43 172 71.5 205.5 Q100 239 149.5 258 Q199 277 262 285 Q325 293 395 294 L395 316 Q395 390 358 431 Q321 472 256 472 Q198 472 158.5 443.5 Q119 415 108 361 L62 361 Q76 431 126 470 Q176 509 259 509 Q344 509 392 458.5 Q440 408 440 302 L440 0 L399 0 L397 89 Q370 42 320 14.5 Q270 -13 207 -13 Z M211 25 Q266 25 307.5 47.5 Q349 70 372 108 Q395 146 395 193 L395 259 Q253 258 171.5 227 Q90 196 90 123 Q90 76 123.5 50.5 Q157 25 211 25 Z M124 605 L124 642 L386 642 L386 605 L124 605 Z " />
<glyph glyph-name="Abreve" unicode="&#x102;" horiz-adv-x="622" d="M541 0 L475 181 L145 181 L78 0 L30 0 L283 670 L341 670 L592 0 L541 0 Z M160 221 L460 221 L311 629 L160 221 Z M430 867 L472 867 Q470 832 449.5 802.5 Q429 773 394 755 Q359 737 312 737 Q267 737 232 755 Q197 773 175.5 802.5 Q154 832 152 867 L193 867 Q198 832 231.5 805 Q265 778 312 778 Q362 778 393.5 805 Q425 832 430 867 Z " />
<glyph glyph-name="abreve" unicode="&#x103;" horiz-adv-x="512" d="M207 -13 Q130 -13 86.5 21.5 Q43 56 43 121 Q43 172 71.5 205.5 Q100 239 149.5 258 Q199 277 262 285 Q325 293 395 294 L395 316 Q395 390 358 431 Q321 472 256 472 Q198 472 158.5 443.5 Q119 415 108 361 L62 361 Q76 431 126 470 Q176 509 259 509 Q344 509 392 458.5 Q440 408 440 302 L440 0 L399 0 L397 89 Q370 42 320 14.5 Q270 -13 207 -13 Z M211 25 Q266 25 307.5 47.5 Q349 70 372 108 Q395 146 395 193 L395 259 Q253 258 171.5 227 Q90 196 90 123 Q90 76 123.5 50.5 Q157 25 211 25 Z M255 572 Q197 572 157 608.5 Q117 645 109 703 L149 703 Q157 661 186 635.5 Q215 610 255 610 Q295 610 324 635.5 Q353 661 361 703 L401 703 Q393 645 353 608.5 Q313 572 255 572 Z " />
<glyph glyph-name="Aogonek" unicode="&#x104;" horiz-adv-x="622" d="M541 0 L475 181 L145 181 L78 0 L30 0 L283 670 L341 670 L592 0 L541 0 Z M160 221 L460 221 L311 629 L160 221 Z M531 -227 Q477 -227 450 -202.5 Q423 -178 423 -134 Q423 -88 453 -52.5 Q483 -17 547 8 L592 0 Q527 -26 496 -58 Q465 -90 465 -130 Q465 -157 482 -173.5 Q499 -190 532 -190 Q544 -190 559.5 -187.5 Q575 -185 592 -180 L592 -217 Q561 -227 531 -227 Z " />
<glyph glyph-name="aogonek" unicode="&#x105;" horiz-adv-x="512" d="M207 -13 Q130 -13 86.5 21.5 Q43 56 43 121 Q43 172 71.5 205.5 Q100 239 149.5 258 Q199 277 262 285 Q325 293 395 294 L395 316 Q395 390 358 431 Q321 472 256 472 Q198 472 158.5 443.5 Q119 415 108 361 L62 361 Q76 431 126 470 Q176 509 259 509 Q344 509 392 458.5 Q440 408 440 302 L440 0 L399 0 L397 89 Q370 42 320 14.5 Q270 -13 207 -13 Z M211 25 Q266 25 307.5 47.5 Q349 70 372 108 Q395 146 395 193 L395 259 Q253 258 171.5 227 Q90 196 90 123 Q90 76 123.5 50.5 Q157 25 211 25 Z M386 -224 Q337 -224 311 -200 Q285 -176 285 -134 Q285 -89 313.5 -52.5 Q342 -16 399 8 L440 0 Q321 -49 321 -130 Q321 -158 338 -175.5 Q355 -193 387 -193 Q397 -193 410 -191 Q423 -189 440 -184 L440 -215 Q423 -220 411 -222 Q399 -224 386 -224 Z " />
<glyph glyph-name="Cacute" unicode="&#x106;" horiz-adv-x="689" d="M359 -16 Q264 -16 196.5 29 Q129 74 92.5 153 Q56 232 56 335 Q56 436 93 515.5 Q130 595 198 640.5 Q266 686 359 686 Q471 686 546.5 624 Q622 562 642 454 L590 454 Q570 545 509.5 594.5 Q449 644 359 644 Q281 644 224.5 605.5 Q168 567 138 497.5 Q108 428 108 335 Q108 242 138.5 172.5 Q169 103 225.5 64.5 Q282 26 359 26 Q448 26 508.5 73.5 Q569 121 590 210 L640 210 Q620 104 545 44 Q470 -16 359 -16 Z M277 761 L469 871 L493 825 L292 730 L277 761 Z " />
<glyph glyph-name="cacute" unicode="&#x107;" horiz-adv-x="537" d="M281 -13 Q218 -13 165 17 Q112 47 80 105 Q48 163 48 248 Q48 330 80 388.5 Q112 447 165 478 Q218 509 282 509 Q331 509 374.5 490.5 Q418 472 448.5 434.5 Q479 397 490 339 L444 339 Q426 411 381 441 Q336 471 281 471 Q236 471 193 448 Q150 425 122.5 375.5 Q95 326 95 248 Q95 170 122.5 121 Q150 72 192.5 48.5 Q235 25 281 25 Q336 25 381 58.5 Q426 92 446 168 L491 168 Q478 108 446 68 Q414 28 371 7.5 Q328 -13 281 -13 Z M213 595 L362 731 L393 694 L232 572 L213 595 Z " />
<glyph glyph-name="Cdotaccent" unicode="&#x10a;" horiz-adv-x="689" d="M359 -16 Q264 -16 196.5 29 Q129 74 92.5 153 Q56 232 56 335 Q56 436 93 515.5 Q130 595 198 640.5 Q266 686 359 686 Q471 686 546.5 624 Q622 562 642 454 L590 454 Q570 545 509.5 594.5 Q449 644 359 644 Q281 644 224.5 605.5 Q168 567 138 497.5 Q108 428 108 335 Q108 242 138.5 172.5 Q169 103 225.5 64.5 Q282 26 359 26 Q448 26 508.5 73.5 Q569 121 590 210 L640 210 Q620 104 545 44 Q470 -16 359 -16 Z M359 768 Q343 768 331.5 779 Q320 790 320 807 Q320 824 331.5 835 Q343 846 359 846 Q375 846 386.5 835 Q398 824 398 807 Q398 790 386.5 779 Q375 768 359 768 Z " />
<glyph glyph-name="cdotaccent" unicode="&#x10b;" horiz-adv-x="537" d="M281 -13 Q218 -13 165 17 Q112 47 80 105 Q48 163 48 248 Q48 330 80 388.5 Q112 447 165 478 Q218 509 282 509 Q331 509 374.5 490.5 Q418 472 448.5 434.5 Q479 397 490 339 L444 339 Q426 411 381 441 Q336 471 281 471 Q236 471 193 448 Q150 425 122.5 375.5 Q95 326 95 248 Q95 170 122.5 121 Q150 72 192.5 48.5 Q235 25 281 25 Q336 25 381 58.5 Q426 92 446 168 L491 168 Q478 108 446 68 Q414 28 371 7.5 Q328 -13 281 -13 Z M282 594 Q266 594 255.5 604 Q245 614 245 631 Q245 648 255.5 658 Q266 668 282 668 Q298 668 308.5 658 Q319 648 319 631 Q319 614 308.5 604 Q298 594 282 594 Z " />
<glyph glyph-name="Ccaron" unicode="&#x10c;" horiz-adv-x="689" d="M359 -16 Q264 -16 196.5 29 Q129 74 92.5 153 Q56 232 56 335 Q56 436 93 515.5 Q130 595 198 640.5 Q266 686 359 686 Q471 686 546.5 624 Q622 562 642 454 L590 454 Q570 545 509.5 594.5 Q449 644 359 644 Q281 644 224.5 605.5 Q168 567 138 497.5 Q108 428 108 335 Q108 242 138.5 172.5 Q169 103 225.5 64.5 Q282 26 359 26 Q448 26 508.5 73.5 Q569 121 590 210 L640 210 Q620 104 545 44 Q470 -16 359 -16 Z M341 737 L198 849 L216 876 L360 783 L503 876 L521 849 L378 737 L341 737 Z " />
<glyph glyph-name="ccaron" unicode="&#x10d;" horiz-adv-x="537" d="M281 -13 Q218 -13 165 17 Q112 47 80 105 Q48 163 48 248 Q48 330 80 388.5 Q112 447 165 478 Q218 509 282 509 Q331 509 374.5 490.5 Q418 472 448.5 434.5 Q479 397 490 339 L444 339 Q426 411 381 441 Q336 471 281 471 Q236 471 193 448 Q150 425 122.5 375.5 Q95 326 95 248 Q95 170 122.5 121 Q150 72 192.5 48.5 Q235 25 281 25 Q336 25 381 58.5 Q426 92 446 168 L491 168 Q478 108 446 68 Q414 28 371 7.5 Q328 -13 281 -13 Z M431 718 L294 571 L271 571 L134 718 L153 739 L282 621 L412 739 L431 718 Z " />
<glyph glyph-name="Dcaron" unicode="&#x10e;" horiz-adv-x="697" d="M93 0 L93 670 L284 670 Q405 670 484 626 Q563 582 602 506 Q641 430 641 335 Q641 239 602 163.5 Q563 88 484.5 44 Q406 0 285 0 L93 0 Z M284 630 L141 630 L141 40 L284 40 Q389 40 456.5 77 Q524 114 556.5 180.5 Q589 247 589 335 Q589 423 557.5 489.5 Q526 556 459 593 Q392 630 284 630 Z M292 737 L149 849 L167 876 L311 783 L454 876 L472 849 L329 737 L292 737 Z " />
<glyph glyph-name="dcaron" unicode="&#x10f;" horiz-adv-x="594" d="M263 509 Q329 509 375 477.5 Q421 446 444 397 L444 700 L489 700 L489 0 L448 0 L445 103 Q420 48 371 17.5 Q322 -13 263 -13 Q196 -13 148 21 Q100 55 74.5 114.5 Q49 174 49 248 Q49 324 76 383 Q103 442 151 475.5 Q199 509 263 509 Z M273 471 Q217 471 177.5 441.5 Q138 412 117 362 Q96 312 96 248 Q96 184 117 134 Q138 84 177.5 54.5 Q217 25 273 25 Q319 25 358 50.5 Q397 76 421.5 124.5 Q446 173 446 241 L446 255 Q446 322 422.5 370 Q399 418 360 444.5 Q321 471 273 471 Z M583 531 L565 531 L565 700 L606 700 L606 692 Q606 666 603 635.5 Q600 605 594.5 577.5 Q589 550 583 531 Z " />
<glyph glyph-name="Dcroat" unicode="&#x110;" horiz-adv-x="717" d="M113 0 L113 317 L29 317 L29 355 L113 355 L113 670 L304 670 Q425 670 504 626 Q583 582 622 506 Q661 430 661 335 Q661 239 622 163.5 Q583 88 504.5 44 Q426 0 305 0 L113 0 Z M383 317 L161 317 L161 40 L304 40 Q409 40 476.5 77 Q544 114 576.5 180.5 Q609 247 609 335 Q609 423 577.5 489.5 Q546 556 479 593 Q412 630 304 630 L161 630 L161 355 L383 355 L383 317 Z " />
<glyph glyph-name="dslash" unicode="&#x111;" horiz-adv-x="566" d="M262 -13 Q195 -13 147 21 Q99 55 73.5 111.5 Q48 168 48 238 Q48 308 75 364 Q102 420 150 453 Q198 486 262 486 Q328 486 374 454.5 Q420 423 443 374 L443 575 L256 575 L256 611 L443 611 L443 700 L488 700 L488 611 L564 611 L564 575 L488 575 L488 0 L447 0 L444 103 Q419 48 370 17.5 Q321 -13 262 -13 Z M272 448 Q216 448 176.5 419 Q137 390 116 342.5 Q95 295 95 238 Q95 180 116 131.5 Q137 83 176.5 54 Q216 25 272 25 Q318 25 357 50.5 Q396 76 420.5 122 Q445 168 445 231 L445 245 Q445 305 421.5 350.5 Q398 396 359 422 Q320 448 272 448 Z " />
<glyph glyph-name="Emacron" unicode="&#x112;" horiz-adv-x="552" d="M93 0 L93 670 L493 670 L493 630 L141 630 L141 356 L462 356 L462 318 L141 318 L141 40 L497 40 L497 0 L93 0 Z M144 771 L144 811 L442 811 L442 771 L144 771 Z " />
<glyph glyph-name="emacron" unicode="&#x113;" horiz-adv-x="545" d="M278 -13 Q218 -13 165.5 16 Q113 45 80.5 102.5 Q48 160 48 248 Q48 332 81 390 Q114 448 167 478.5 Q220 509 278 509 Q342 509 392 478.5 Q442 448 470.5 390 Q499 332 499 250 L499 238 L94 238 Q96 182 116 133.5 Q136 85 177 55 Q218 25 280 25 Q350 25 391 59.5 Q432 94 448 153 L493 153 Q471 69 413.5 28 Q356 -13 278 -13 Z M278 471 Q230 471 190 447.5 Q150 424 124.5 380.5 Q99 337 95 275 L453 275 Q445 366 400.5 418.5 Q356 471 278 471 Z M147 605 L147 642 L409 642 L409 605 L147 605 Z " />
<glyph glyph-name="Edotaccent" unicode="&#x116;" horiz-adv-x="552" d="M93 0 L93 670 L493 670 L493 630 L141 630 L141 356 L462 356 L462 318 L141 318 L141 40 L497 40 L497 0 L93 0 Z M293 768 Q277 768 265.5 779 Q254 790 254 807 Q254 824 265.5 835 Q277 846 293 846 Q309 846 320.5 835 Q332 824 332 807 Q332 790 320.5 779 Q309 768 293 768 Z " />
<glyph glyph-name="edotaccent" unicode="&#x117;" horiz-adv-x="545" d="M278 -13 Q218 -13 165.5 16 Q113 45 80.5 102.5 Q48 160 48 248 Q48 332 81 390 Q114 448 167 478.5 Q220 509 278 509 Q342 509 392 478.5 Q442 448 470.5 390 Q499 332 499 250 L499 238 L94 238 Q96 182 116 133.5 Q136 85 177 55 Q218 25 280 25 Q350 25 391 59.5 Q432 94 448 153 L493 153 Q471 69 413.5 28 Q356 -13 278 -13 Z M278 471 Q230 471 190 447.5 Q150 424 124.5 380.5 Q99 337 95 275 L453 275 Q445 366 400.5 418.5 Q356 471 278 471 Z M278 594 Q262 594 251.5 604 Q241 614 241 631 Q241 648 251.5 658 Q262 668 278 668 Q294 668 304.5 658 Q315 648 315 631 Q315 614 304.5 604 Q294 594 278 594 Z " />
<glyph glyph-name="Eogonek" unicode="&#x118;" horiz-adv-x="552" d="M93 0 L93 670 L493 670 L493 630 L141 630 L141 356 L462 356 L462 318 L141 318 L141 40 L497 40 L497 0 L93 0 Z M436 -227 Q382 -227 355 -202.5 Q328 -178 328 -134 Q328 -88 358 -52.5 Q388 -17 452 8 L497 0 Q432 -26 401 -58 Q370 -90 370 -130 Q370 -157 387 -173.5 Q404 -190 437 -190 Q449 -190 464.5 -187.5 Q480 -185 497 -180 L497 -217 Q466 -227 436 -227 Z " />
<glyph glyph-name="eogonek" unicode="&#x119;" horiz-adv-x="545" d="M278 -13 Q218 -13 165.5 16 Q113 45 80.5 102.5 Q48 160 48 248 Q48 332 81 390 Q114 448 167 478.5 Q220 509 278 509 Q342 509 392 478.5 Q442 448 470.5 390 Q499 332 499 250 L499 238 L94 238 Q96 182 116 133.5 Q136 85 177 55 Q218 25 280 25 Q350 25 391 59.5 Q432 94 448 153 L493 153 Q471 69 413.5 28 Q356 -13 278 -13 Z M278 471 Q230 471 190 447.5 Q150 424 124.5 380.5 Q99 337 95 275 L453 275 Q445 366 400.5 418.5 Q356 471 278 471 Z M356 -224 Q307 -224 281 -200 Q255 -176 255 -134 Q255 -89 283.5 -48.5 Q312 -8 369 18 L411 26 Q350 -13 320.5 -50 Q291 -87 291 -130 Q291 -158 308 -175.5 Q325 -193 357 -193 Q367 -193 380 -191 Q393 -189 410 -184 L410 -215 Q393 -220 381 -222 Q369 -224 356 -224 Z " />
<glyph glyph-name="Ecaron" unicode="&#x11a;" horiz-adv-x="552" d="M93 0 L93 670 L493 670 L493 630 L141 630 L141 356 L462 356 L462 318 L141 318 L141 40 L497 40 L497 0 L93 0 Z M275 737 L132 849 L150 876 L294 783 L437 876 L455 849 L312 737 L275 737 Z " />
<glyph glyph-name="ecaron" unicode="&#x11b;" horiz-adv-x="545" d="M278 -13 Q218 -13 165.5 16 Q113 45 80.5 102.5 Q48 160 48 248 Q48 332 81 390 Q114 448 167 478.5 Q220 509 278 509 Q342 509 392 478.5 Q442 448 470.5 390 Q499 332 499 250 L499 238 L94 238 Q96 182 116 133.5 Q136 85 177 55 Q218 25 280 25 Q350 25 391 59.5 Q432 94 448 153 L493 153 Q471 69 413.5 28 Q356 -13 278 -13 Z M278 471 Q230 471 190 447.5 Q150 424 124.5 380.5 Q99 337 95 275 L453 275 Q445 366 400.5 418.5 Q356 471 278 471 Z M427 718 L290 571 L267 571 L130 718 L149 739 L278 621 L408 739 L427 718 Z " />
<glyph glyph-name="Gbreve" unicode="&#x11e;" horiz-adv-x="718" d="M56 335 Q56 438 94 517 Q132 596 201 641 Q270 686 365 686 Q483 686 560.5 624 Q638 562 655 454 L603 454 Q586 547 523 595.5 Q460 644 365 644 Q286 644 228.5 605.5 Q171 567 139.5 497.5 Q108 428 108 335 Q108 242 139 172.5 Q170 103 227.5 64.5 Q285 26 365 26 Q484 26 546.5 95.5 Q609 165 614 285 L398 285 L398 325 L662 325 L662 302 Q662 206 628 134.5 Q594 63 528 23.5 Q462 -16 365 -16 Q269 -16 199.5 29 Q130 74 93 153.5 Q56 233 56 335 Z M483 867 L525 867 Q523 832 502.5 802.5 Q482 773 447 755 Q412 737 365 737 Q320 737 285 755 Q250 773 228.5 802.5 Q207 832 205 867 L246 867 Q251 832 284.5 805 Q318 778 365 778 Q415 778 446.5 805 Q478 832 483 867 Z " />
<glyph glyph-name="gbreve" unicode="&#x11f;" horiz-adv-x="569" d="M268 -223 Q188 -223 132 -180.5 Q76 -138 64 -53 L111 -53 Q122 -121 165 -153 Q208 -185 268 -185 Q352 -185 397.5 -135.5 Q443 -86 443 15 L443 109 Q418 56 370 26.5 Q322 -3 263 -3 Q196 -3 148 30.5 Q100 64 74 122 Q48 180 48 253 Q48 328 75.5 385.5 Q103 443 151.5 476 Q200 509 262 509 Q329 509 375.5 477.5 Q422 446 444 398 L447 496 L488 496 L488 29 Q488 -223 268 -223 Z M272 35 Q318 35 357 60 Q396 85 420.5 132 Q445 179 445 246 L445 260 Q445 326 421.5 373 Q398 420 359 445.5 Q320 471 272 471 Q216 471 176.5 442.5 Q137 414 116 364.5 Q95 315 95 253 Q95 191 116 141.5 Q137 92 176.5 63.5 Q216 35 272 35 Z M271 572 Q213 572 173 608.5 Q133 645 125 703 L165 703 Q173 661 202 635.5 Q231 610 271 610 Q311 610 340 635.5 Q369 661 377 703 L417 703 Q409 645 369 608.5 Q329 572 271 572 Z " />
<glyph glyph-name="Gdotaccent" unicode="&#x120;" horiz-adv-x="718" d="M56 335 Q56 438 94 517 Q132 596 201 641 Q270 686 365 686 Q483 686 560.5 624 Q638 562 655 454 L603 454 Q586 547 523 595.5 Q460 644 365 644 Q286 644 228.5 605.5 Q171 567 139.5 497.5 Q108 428 108 335 Q108 242 139 172.5 Q170 103 227.5 64.5 Q285 26 365 26 Q484 26 546.5 95.5 Q609 165 614 285 L398 285 L398 325 L662 325 L662 302 Q662 206 628 134.5 Q594 63 528 23.5 Q462 -16 365 -16 Q269 -16 199.5 29 Q130 74 93 153.5 Q56 233 56 335 Z M365 768 Q349 768 337.5 779 Q326 790 326 807 Q326 824 337.5 835 Q349 846 365 846 Q381 846 392.5 835 Q404 824 404 807 Q404 790 392.5 779 Q381 768 365 768 Z " />
<glyph glyph-name="gdotaccent" unicode="&#x121;" horiz-adv-x="569" d="M268 -223 Q188 -223 132 -180.5 Q76 -138 64 -53 L111 -53 Q122 -121 165 -153 Q208 -185 268 -185 Q352 -185 397.5 -135.5 Q443 -86 443 15 L443 109 Q418 56 370 26.5 Q322 -3 263 -3 Q196 -3 148 30.5 Q100 64 74 122 Q48 180 48 253 Q48 328 75.5 385.5 Q103 443 151.5 476 Q200 509 262 509 Q329 509 375.5 477.5 Q422 446 444 398 L447 496 L488 496 L488 29 Q488 -223 268 -223 Z M272 35 Q318 35 357 60 Q396 85 420.5 132 Q445 179 445 246 L445 260 Q445 326 421.5 373 Q398 420 359 445.5 Q320 471 272 471 Q216 471 176.5 442.5 Q137 414 116 364.5 Q95 315 95 253 Q95 191 116 141.5 Q137 92 176.5 63.5 Q216 35 272 35 Z M271 594 Q255 594 244.5 604 Q234 614 234 631 Q234 648 244.5 658 Q255 668 271 668 Q287 668 297.5 658 Q308 648 308 631 Q308 614 297.5 604 Q287 594 271 594 Z " />
<glyph glyph-name="uni0122" unicode="&#x122;" horiz-adv-x="718" d="M56 335 Q56 438 94 517 Q132 596 201 641 Q270 686 365 686 Q483 686 560.5 624 Q638 562 655 454 L603 454 Q586 547 523 595.5 Q460 644 365 644 Q286 644 228.5 605.5 Q171 567 139.5 497.5 Q108 428 108 335 Q108 242 139 172.5 Q170 103 227.5 64.5 Q285 26 365 26 Q484 26 546.5 95.5 Q609 165 614 285 L398 285 L398 325 L662 325 L662 302 Q662 206 628 134.5 Q594 63 528 23.5 Q462 -16 365 -16 Q269 -16 199.5 29 Q130 74 93 153.5 Q56 233 56 335 Z M316 -280 L316 -249 Q361 -227 367 -185 L365 -185 Q350 -185 338.5 -174 Q327 -163 327 -146 Q327 -129 338 -118 Q349 -107 367 -107 Q385 -107 398 -121.5 Q411 -136 411 -162 Q411 -202 388 -231.5 Q365 -261 316 -280 Z " />
<glyph glyph-name="uni0123" unicode="&#x123;" horiz-adv-x="569" d="M268 -223 Q188 -223 132 -180.5 Q76 -138 64 -53 L111 -53 Q122 -121 165 -153 Q208 -185 268 -185 Q352 -185 397.5 -135.5 Q443 -86 443 15 L443 109 Q418 56 370 26.5 Q322 -3 263 -3 Q196 -3 148 30.5 Q100 64 74 122 Q48 180 48 253 Q48 328 75.5 385.5 Q103 443 151.5 476 Q200 509 262 509 Q329 509 375.5 477.5 Q422 446 444 398 L447 496 L488 496 L488 29 Q488 -223 268 -223 Z M272 35 Q318 35 357 60 Q396 85 420.5 132 Q445 179 445 246 L445 260 Q445 326 421.5 373 Q398 420 359 445.5 Q320 471 272 471 Q216 471 176.5 442.5 Q137 414 116 364.5 Q95 315 95 253 Q95 191 116 141.5 Q137 92 176.5 63.5 Q216 35 272 35 Z M314 752 L314 725 Q267 698 267 662 L268 662 Q286 662 296 651 Q306 640 306 625 Q306 608 295.5 598 Q285 588 268 588 Q251 588 239 602.5 Q227 617 227 643 Q227 681 247.5 708.5 Q268 736 314 752 Z " />
<glyph glyph-name="Hbar" unicode="&#x126;" horiz-adv-x="724" d="M113 0 L113 493 L29 493 L29 531 L113 531 L113 670 L161 670 L161 531 L563 531 L563 670 L611 670 L611 531 L695 531 L695 493 L611 493 L611 0 L563 0 L563 316 L161 316 L161 0 L113 0 Z M161 356 L563 356 L563 493 L161 493 L161 356 Z " />
<glyph glyph-name="hbar" unicode="&#x127;" horiz-adv-x="576" d="M96 0 L96 575 L20 575 L20 611 L96 611 L96 700 L141 700 L141 611 L328 611 L328 575 L141 575 L141 370 Q166 430 217 458 Q268 486 321 486 Q416 486 460 430 Q504 374 504 276 L504 0 L459 0 L459 271 Q459 362 422.5 405 Q386 448 314 448 Q239 448 190 391 Q141 334 141 219 L141 0 L96 0 Z " />
<glyph glyph-name="Itilde" unicode="&#x128;" horiz-adv-x="234" d="M93 0 L93 670 L141 670 L141 0 L93 0 Z M101 789 Q85 805 73.5 812.5 Q62 820 49 820 Q35 820 19 805 Q3 790 -4 748 L-45 748 Q-40 800 -13.5 830.5 Q13 861 53 861 Q74 861 93 850 Q112 839 133 818 Q149 802 160.5 794.5 Q172 787 185 787 Q199 787 215 802 Q231 817 238 859 L279 859 Q274 806 247.5 776 Q221 746 181 746 Q160 746 141 757 Q122 768 101 789 Z " />
<glyph glyph-name="itilde" unicode="&#x129;" horiz-adv-x="207" d="M81 0 L81 496 L126 496 L126 0 L81 0 Z M90 631 Q77 645 67.5 652.5 Q58 660 48 660 Q35 660 24 645.5 Q13 631 9 591 L-25 591 Q-21 641 -1.5 669.5 Q18 698 48 698 Q66 698 82.5 686.5 Q99 675 116 656 Q129 642 138.5 634.5 Q148 627 158 627 Q171 627 182 641.5 Q193 656 197 696 L231 696 Q227 646 207.5 617.5 Q188 589 158 589 Q140 589 123.5 600.5 Q107 612 90 631 Z " />
<glyph glyph-name="Imacron" unicode="&#x12a;" horiz-adv-x="234" d="M93 0 L93 670 L141 670 L141 0 L93 0 Z M-32 771 L-32 811 L266 811 L266 771 L-32 771 Z " />
<glyph glyph-name="imacron" unicode="&#x12b;" horiz-adv-x="207" d="M81 0 L81 496 L126 496 L126 0 L81 0 Z M-7 605 L-7 642 L213 642 L213 605 L-7 605 Z " />
<glyph glyph-name="Iogonek" unicode="&#x12e;" horiz-adv-x="234" d="M93 0 L93 670 L141 670 L141 0 L93 0 Z M80 -227 Q26 -227 -1 -202.5 Q-28 -178 -28 -134 Q-28 -88 2 -52.5 Q32 -17 96 8 L141 0 Q76 -26 45 -58 Q14 -90 14 -130 Q14 -157 31 -173.5 Q48 -190 81 -190 Q93 -190 108.5 -187.5 Q124 -185 141 -180 L141 -217 Q110 -227 80 -227 Z " />
<glyph glyph-name="iogonek" unicode="&#x12f;" horiz-adv-x="207" d="M103 594 Q87 594 76.5 604 Q66 614 66 631 Q66 648 76.5 658 Q87 668 103 668 Q119 668 129.5 658 Q140 648 140 631 Q140 614 129.5 604 Q119 594 103 594 Z M81 0 L81 496 L126 496 L126 0 L81 0 Z M72 -224 Q23 -224 -3 -200 Q-29 -176 -29 -134 Q-29 -89 -0.5 -52.5 Q28 -16 85 8 L126 0 Q7 -49 7 -130 Q7 -158 24 -175.5 Q41 -193 73 -193 Q83 -193 96 -191 Q109 -189 126 -184 L126 -215 Q109 -220 97 -222 Q85 -224 72 -224 Z " />
<glyph glyph-name="Idot" unicode="&#x130;" horiz-adv-x="234" d="M93 0 L93 670 L141 670 L141 0 L93 0 Z M117 768 Q101 768 89.5 779 Q78 790 78 807 Q78 824 89.5 835 Q101 846 117 846 Q133 846 144.5 835 Q156 824 156 807 Q156 790 144.5 779 Q133 768 117 768 Z " />
<glyph glyph-name="dotlessi" unicode="&#x131;" horiz-adv-x="207" d="M81 0 L81 496 L126 496 L126 0 L81 0 Z " />
<glyph glyph-name="IJ" unicode="&#x132;" horiz-adv-x="635" d="M317 -16 Q210 -16 151 42 Q92 100 80 204 L128 204 Q139 116 185.5 71 Q232 26 317 26 Q411 26 459 82 Q507 138 507 262 L507 670 L555 670 L555 262 Q555 123 493.5 53.5 Q432 -16 317 -16 Z M129 308 L81 308 L81 670 L129 670 L129 308 Z " />
<glyph glyph-name="ij" unicode="&#x133;" horiz-adv-x="549" d="M57 641 Q57 658 67.5 668 Q78 678 94 678 Q110 678 120.5 668 Q131 658 131 641 Q131 624 120.5 614 Q110 604 94 604 Q78 604 67.5 614 Q57 624 57 641 Z M408 641 Q408 658 418.5 668 Q429 678 445 678 Q461 678 471.5 668 Q482 658 482 641 Q482 624 471.5 614 Q461 604 445 604 Q429 604 418.5 614 Q408 624 408 641 Z M69 -53 L116 -53 Q126 -121 166 -153 Q206 -185 261 -185 Q338 -185 380.5 -135.5 Q423 -86 423 15 L423 112 Q398 54 349 27 Q300 0 249 0 Q158 0 115 56 Q72 112 72 210 L72 496 L117 496 L117 215 Q117 124 152 81 Q187 38 256 38 Q329 38 376 95 Q423 152 423 267 L423 496 L468 496 L468 29 Q468 -97 415 -160 Q362 -223 261 -223 Q187 -223 133.5 -180.5 Q80 -138 69 -53 Z " />
<glyph glyph-name="uni0136" unicode="&#x136;" horiz-adv-x="585" d="M93 0 L93 670 L141 670 L141 353 L492 670 L554 670 L189 342 Q247 327 300 301 Q353 275 402 234 Q460 186 499 129.5 Q538 73 567 0 L513 0 Q489 64 455.5 112.5 Q422 161 369 206 Q321 247 262.5 274 Q204 301 141 312 L141 0 L93 0 Z M262 -280 L262 -249 Q307 -227 313 -185 L311 -185 Q296 -185 284.5 -174 Q273 -163 273 -146 Q273 -129 284 -118 Q295 -107 313 -107 Q331 -107 344 -121.5 Q357 -136 357 -162 Q357 -202 334 -231.5 Q311 -261 262 -280 Z " />
<glyph glyph-name="uni0137" unicode="&#x137;" horiz-adv-x="476" d="M81 0 L81 700 L126 700 L126 282 L386 496 L444 496 L164 267 Q253 251 319 197 Q416 120 456 0 L405 0 Q373 99 294 166 Q224 226 126 236 L126 0 L81 0 Z M209 -275 L209 -248 Q258 -224 261 -181 Q260 -181 258 -181 Q240 -181 230 -170 Q220 -159 220 -144 Q220 -128 230.5 -117.5 Q241 -107 258 -107 Q275 -107 287.5 -121 Q300 -135 300 -160 Q300 -199 278 -228 Q256 -257 209 -275 Z " />
<glyph glyph-name="Lacute" unicode="&#x139;" horiz-adv-x="513" d="M93 0 L93 670 L141 670 L141 40 L481 40 L481 0 L93 0 Z M35 761 L227 871 L251 825 L50 730 L35 761 Z " />
<glyph glyph-name="lacute" unicode="&#x13a;" horiz-adv-x="207" d="M81 0 L81 700 L126 700 L126 0 L81 0 Z M30 789 L205 896 L227 853 L44 761 L30 789 Z " />
<glyph glyph-name="uni013B" unicode="&#x13b;" horiz-adv-x="513" d="M93 0 L93 670 L141 670 L141 40 L481 40 L481 0 L93 0 Z M238 -280 L238 -249 Q283 -227 289 -185 L287 -185 Q272 -185 260.5 -174 Q249 -163 249 -146 Q249 -129 260 -118 Q271 -107 289 -107 Q307 -107 320 -121.5 Q333 -136 333 -162 Q333 -202 310 -231.5 Q287 -261 238 -280 Z " />
<glyph glyph-name="uni013C" unicode="&#x13c;" horiz-adv-x="207" d="M81 0 L81 700 L126 700 L126 0 L81 0 Z M56 -275 L56 -248 Q105 -224 108 -181 Q107 -181 105 -181 Q87 -181 77 -170 Q67 -159 67 -144 Q67 -128 77.5 -117.5 Q88 -107 105 -107 Q122 -107 134.5 -121 Q147 -135 147 -160 Q147 -199 125 -228 Q103 -257 56 -275 Z " />
<glyph glyph-name="Lcaron" unicode="&#x13d;" horiz-adv-x="513" d="M93 0 L93 670 L141 670 L141 40 L481 40 L481 0 L93 0 Z M372 499 L352 499 L352 670 L396 670 L396 661 Q396 634 392.5 603.5 Q389 573 384 545.5 Q379 518 372 499 Z " />
<glyph glyph-name="lcaron" unicode="&#x13e;" horiz-adv-x="231" d="M81 0 L81 700 L126 700 L126 0 L81 0 Z M220 531 L202 531 L202 700 L243 700 L243 692 Q243 666 240 635.5 Q237 605 231.5 577.5 Q226 550 220 531 Z " />
<glyph glyph-name="Lslash" unicode="&#x141;" horiz-adv-x="513" d="M93 0 L93 275 L9 230 L9 272 L93 317 L93 670 L141 670 L141 343 L348 455 L348 413 L141 301 L141 40 L481 40 L481 0 L93 0 Z " />
<glyph glyph-name="lslash" unicode="&#x142;" horiz-adv-x="257" d="M106 0 L106 347 L14 295 L14 336 L106 388 L106 700 L151 700 L151 413 L243 465 L243 424 L151 372 L151 0 L106 0 Z " />
<glyph glyph-name="Nacute" unicode="&#x143;" horiz-adv-x="692" d="M93 0 L93 670 L141 670 L551 77 L551 670 L599 670 L599 0 L551 0 L141 593 L141 0 L93 0 Z M264 761 L456 871 L480 825 L279 730 L264 761 Z " />
<glyph glyph-name="nacute" unicode="&#x144;" horiz-adv-x="561" d="M81 0 L81 496 L122 496 L125 392 Q150 454 201 481.5 Q252 509 306 509 Q400 509 444.5 452.5 Q489 396 489 299 L489 0 L444 0 L444 294 Q444 386 407.5 428.5 Q371 471 299 471 Q224 471 175 414.5 Q126 358 126 242 L126 0 L81 0 Z M216 595 L365 731 L396 694 L235 572 L216 595 Z " />
<glyph glyph-name="uni0145" unicode="&#x145;" horiz-adv-x="692" d="M93 0 L93 670 L141 670 L551 77 L551 670 L599 670 L599 0 L551 0 L141 593 L141 0 L93 0 Z M297 -280 L297 -249 Q342 -227 348 -185 L346 -185 Q331 -185 319.5 -174 Q308 -163 308 -146 Q308 -129 319 -118 Q330 -107 348 -107 Q366 -107 379 -121.5 Q392 -136 392 -162 Q392 -202 369 -231.5 Q346 -261 297 -280 Z " />
<glyph glyph-name="uni0146" unicode="&#x146;" horiz-adv-x="561" d="M81 0 L81 496 L122 496 L125 392 Q150 454 201 481.5 Q252 509 306 509 Q400 509 444.5 452.5 Q489 396 489 299 L489 0 L444 0 L444 294 Q444 386 407.5 428.5 Q371 471 299 471 Q224 471 175 414.5 Q126 358 126 242 L126 0 L81 0 Z M238 -275 L238 -248 Q287 -224 290 -181 Q289 -181 287 -181 Q269 -181 259 -170 Q249 -159 249 -144 Q249 -128 259.5 -117.5 Q270 -107 287 -107 Q304 -107 316.5 -121 Q329 -135 329 -160 Q329 -199 307 -228 Q285 -257 238 -275 Z " />
<glyph glyph-name="Ncaron" unicode="&#x147;" horiz-adv-x="692" d="M93 0 L93 670 L141 670 L551 77 L551 670 L599 670 L599 0 L551 0 L141 593 L141 0 L93 0 Z M328 737 L185 849 L203 876 L347 783 L490 876 L508 849 L365 737 L328 737 Z " />
<glyph glyph-name="ncaron" unicode="&#x148;" horiz-adv-x="561" d="M81 0 L81 496 L122 496 L125 392 Q150 454 201 481.5 Q252 509 306 509 Q400 509 444.5 452.5 Q489 396 489 299 L489 0 L444 0 L444 294 Q444 386 407.5 428.5 Q371 471 299 471 Q224 471 175 414.5 Q126 358 126 242 L126 0 L81 0 Z M434 718 L297 571 L274 571 L137 718 L156 739 L285 621 L415 739 L434 718 Z " />
<glyph glyph-name="Eng" unicode="&#x14a;" horiz-adv-x="692" d="M93 0 L93 670 L141 670 L551 85 L551 670 L599 670 L599 11 Q599 -110 555.5 -166.5 Q512 -223 419 -223 Q361 -223 317 -202 L329 -162 Q368 -180 419 -180 Q489 -180 520 -139 Q551 -98 551 -7 L551 9 L141 594 L141 0 L93 0 Z " />
<glyph glyph-name="eng" unicode="&#x14b;" horiz-adv-x="561" d="M81 0 L81 496 L122 496 L125 392 Q150 454 201 481.5 Q252 509 306 509 Q400 509 444.5 452.5 Q489 396 489 299 L489 -44 Q489 -223 338 -223 Q305 -223 275 -211 L285 -176 Q298 -181 310.5 -183 Q323 -185 339 -185 Q389 -185 416.5 -153.5 Q444 -122 444 -48 L444 294 Q444 386 407.5 428.5 Q371 471 299 471 Q224 471 175 414.5 Q126 358 126 242 L126 0 L81 0 Z " />
<glyph glyph-name="Ohungarumlaut" unicode="&#x150;" horiz-adv-x="730" d="M365 -16 Q266 -16 197 30 Q128 76 92 155 Q56 234 56 335 Q56 436 92 515 Q128 594 197 640 Q266 686 365 686 Q464 686 533 640 Q602 594 638 515 Q674 436 674 335 Q674 234 638 155 Q602 76 533 30 Q464 -16 365 -16 Z M365 26 Q448 26 505.5 64.5 Q563 103 592.5 172.5 Q622 242 622 335 Q622 428 592.5 497.5 Q563 567 505.5 605.5 Q448 644 365 644 Q282 644 224.5 605.5 Q167 567 137.5 497.5 Q108 428 108 335 Q108 242 137.5 172.5 Q167 103 224.5 64.5 Q282 26 365 26 Z M245 760 L400 888 L431 846 L265 731 L245 760 Z M404 761 L570 875 L598 831 L422 731 L404 761 Z " />
<glyph glyph-name="ohungarumlaut" unicode="&#x151;" horiz-adv-x="564" d="M282 -13 Q214 -13 161 20.5 Q108 54 78 113 Q48 172 48 248 Q48 324 78 383 Q108 442 161 475.5 Q214 509 282 509 Q350 509 403 475.5 Q456 442 486 383 Q516 324 516 248 Q516 172 486 113 Q456 54 403 20.5 Q350 -13 282 -13 Z M282 25 Q340 25 381.5 53.5 Q423 82 446 132.5 Q469 183 469 248 Q469 313 446 363.5 Q423 414 381.5 442.5 Q340 471 282 471 Q224 471 182.5 442.5 Q141 414 118 363.5 Q95 313 95 248 Q95 183 118 132.5 Q141 82 182.5 53.5 Q224 25 282 25 Z M164 587 L301 736 L335 702 L185 566 L164 587 Z M319 595 L468 731 L499 694 L338 572 L319 595 Z " />
<glyph glyph-name="OE" unicode="&#x152;" horiz-adv-x="959" d="M56 335 Q56 430 95 506 Q134 582 213 626 Q292 670 412 670 L900 670 L900 630 L548 630 L548 356 L869 356 L869 318 L548 318 L548 40 L904 40 L904 0 L413 0 Q292 0 213 44 Q134 88 95 163.5 Q56 239 56 335 Z M413 40 L500 40 L500 630 L413 630 Q308 630 240.5 593 Q173 556 140.5 489.5 Q108 423 108 335 Q108 247 139 180.5 Q170 114 237.5 77 Q305 40 413 40 Z " />
<glyph glyph-name="oe" unicode="&#x153;" horiz-adv-x="963" d="M911 153 Q889 69 831.5 28 Q774 -13 696 -13 Q631 -13 574 22.5 Q517 58 489 129 Q462 64 407.5 25.5 Q353 -13 282 -13 Q214 -13 161 20.5 Q108 54 78 113 Q48 172 48 248 Q48 324 78 383 Q108 442 161 475.5 Q214 509 282 509 Q353 509 408.5 469.5 Q464 430 490 363 Q518 434 575.5 471.5 Q633 509 696 509 Q760 509 810 478.5 Q860 448 888.5 389 Q917 330 917 247 L917 235 L512 235 Q514 180 534.5 132 Q555 84 595.5 54.5 Q636 25 698 25 Q768 25 809 59.5 Q850 94 866 153 L911 153 Z M282 25 Q340 25 381.5 53.5 Q423 82 446 132.5 Q469 183 469 248 Q469 313 446 363.5 Q423 414 381.5 442.5 Q340 471 282 471 Q224 471 182.5 442.5 Q141 414 118 363.5 Q95 313 95 248 Q95 183 118 132.5 Q141 82 182.5 53.5 Q224 25 282 25 Z M696 471 Q648 471 607.5 447.5 Q567 424 541.5 379.5 Q516 335 513 272 L871 272 Q863 365 818.5 418 Q774 471 696 471 Z " />
<glyph glyph-name="Racute" unicode="&#x154;" horiz-adv-x="600" d="M93 0 L93 670 L301 670 Q383 670 434.5 645.5 Q486 621 510 580 Q534 539 534 488 Q534 410 481.5 364 Q429 318 326 308 Q405 285 464 213.5 Q523 142 566 0 L512 0 Q479 110 435 175.5 Q391 241 330 269.5 Q269 298 186 298 L141 298 L141 0 L93 0 Z M291 630 L141 630 L141 337 L276 337 Q382 337 433 375.5 Q484 414 484 486 Q484 552 439.5 591 Q395 630 291 630 Z M202 761 L394 871 L418 825 L217 730 L202 761 Z " />
<glyph glyph-name="racute" unicode="&#x155;" horiz-adv-x="330" d="M81 0 L81 496 L122 496 L125 393 Q146 443 186.5 474 Q227 505 275 505 Q292 505 309 501 L309 460 Q297 463 274 463 Q240 463 206 442 Q172 421 149 375 Q126 329 126 254 L126 0 L81 0 Z M122 595 L271 731 L302 694 L141 572 L122 595 Z " />
<glyph glyph-name="Rcaron" unicode="&#x158;" horiz-adv-x="600" d="M93 0 L93 670 L301 670 Q383 670 434.5 645.5 Q486 621 510 580 Q534 539 534 488 Q534 410 481.5 364 Q429 318 326 308 Q405 285 464 213.5 Q523 142 566 0 L512 0 Q479 110 435 175.5 Q391 241 330 269.5 Q269 298 186 298 L141 298 L141 0 L93 0 Z M291 630 L141 630 L141 337 L276 337 Q382 337 433 375.5 Q484 414 484 486 Q484 552 439.5 591 Q395 630 291 630 Z M266 737 L123 849 L141 876 L285 783 L428 876 L446 849 L303 737 L266 737 Z " />
<glyph glyph-name="rcaron" unicode="&#x159;" horiz-adv-x="330" d="M81 0 L81 496 L122 496 L125 393 Q146 443 186.5 474 Q227 505 275 505 Q292 505 309 501 L309 460 Q297 463 274 463 Q240 463 206 442 Q172 421 149 375 Q126 329 126 254 L126 0 L81 0 Z M340 718 L203 571 L180 571 L43 718 L62 739 L191 621 L321 739 L340 718 Z " />
<glyph glyph-name="Sacute" unicode="&#x15a;" horiz-adv-x="581" d="M295 -16 Q181 -16 116.5 34.5 Q52 85 42 176 L92 176 Q102 118 133.5 85.5 Q165 53 208.5 39.5 Q252 26 300 26 Q388 26 437 63 Q486 100 486 165 Q486 230 451 263 Q416 296 340 313 L223 339 Q178 349 142.5 367.5 Q107 386 86 420 Q65 454 65 511 Q65 562 92.5 601.5 Q120 641 171 663.5 Q222 686 290 686 Q389 686 449.5 636 Q510 586 523 496 L473 496 Q445 644 288 644 Q210 644 162.5 610 Q115 576 115 516 Q115 454 145 425.5 Q175 397 237 383 L353 357 Q441 338 488.5 296 Q536 254 536 169 Q536 84 472.5 34 Q409 -16 295 -16 Z M207 761 L399 871 L423 825 L222 730 L207 761 Z " />
<glyph glyph-name="sacute" unicode="&#x15b;" horiz-adv-x="473" d="M239 -13 Q150 -13 98.5 27.5 Q47 68 38 142 L85 142 Q93 96 116.5 70 Q140 44 172.5 33.5 Q205 23 240 23 Q381 23 381 120 Q381 166 354 189 Q327 212 275 225 L188 246 Q150 255 121 269 Q92 283 76 307.5 Q60 332 60 374 Q60 433 106.5 471 Q153 509 231 509 Q315 509 364 472 Q413 435 424 368 L377 368 Q353 473 231 473 Q176 473 141 448.5 Q106 424 106 378 Q106 335 131 316.5 Q156 298 199 287 L285 266 Q348 250 387.5 220 Q427 190 427 124 Q427 60 378 23.5 Q329 -13 239 -13 Z M163 595 L312 731 L343 694 L182 572 L163 595 Z " />
<glyph glyph-name="Scedilla" unicode="&#x15e;" horiz-adv-x="581" d="M295 -16 Q181 -16 116.5 34.5 Q52 85 42 176 L92 176 Q102 118 133.5 85.5 Q165 53 208.5 39.5 Q252 26 300 26 Q388 26 437 63 Q486 100 486 165 Q486 230 451 263 Q416 296 340 313 L223 339 Q178 349 142.5 367.5 Q107 386 86 420 Q65 454 65 511 Q65 562 92.5 601.5 Q120 641 171 663.5 Q222 686 290 686 Q389 686 449.5 636 Q510 586 523 496 L473 496 Q445 644 288 644 Q210 644 162.5 610 Q115 576 115 516 Q115 454 145 425.5 Q175 397 237 383 L353 357 Q441 338 488.5 296 Q536 254 536 169 Q536 84 472.5 34 Q409 -16 295 -16 Z M271 1 L305 1 L292 -65 Q307 -60 321 -60 Q359 -60 384 -83 Q409 -106 409 -141 Q409 -184 378 -209.5 Q347 -235 297 -235 Q278 -235 263 -233 Q248 -231 227 -226 L230 -194 Q248 -199 265.5 -201 Q283 -203 299 -203 Q331 -203 351.5 -186.5 Q372 -170 372 -144 Q372 -121 356.5 -105.5 Q341 -90 315 -90 Q303 -90 296 -92 Q289 -94 280 -98 L256 -98 L271 1 Z " />
<glyph glyph-name="scedilla" unicode="&#x15f;" horiz-adv-x="473" d="M239 -13 Q150 -13 98.5 27.5 Q47 68 38 142 L85 142 Q93 96 116.5 70 Q140 44 172.5 33.5 Q205 23 240 23 Q381 23 381 120 Q381 166 354 189 Q327 212 275 225 L188 246 Q150 255 121 269 Q92 283 76 307.5 Q60 332 60 374 Q60 433 106.5 471 Q153 509 231 509 Q315 509 364 472 Q413 435 424 368 L377 368 Q353 473 231 473 Q176 473 141 448.5 Q106 424 106 378 Q106 335 131 316.5 Q156 298 199 287 L285 266 Q348 250 387.5 220 Q427 190 427 124 Q427 60 378 23.5 Q329 -13 239 -13 Z M201 0 L233 0 L220 -66 Q235 -61 250 -61 Q288 -61 312.5 -84 Q337 -107 337 -141 Q337 -184 306 -209 Q275 -234 226 -234 Q208 -234 193 -232 Q178 -230 157 -225 L160 -195 Q178 -200 195 -202 Q212 -204 228 -204 Q261 -204 281.5 -187.5 Q302 -171 302 -144 Q302 -120 286.5 -104.5 Q271 -89 244 -89 Q224 -89 208 -97 L186 -97 L201 0 Z " />
<glyph glyph-name="Scaron" unicode="&#x160;" horiz-adv-x="581" d="M295 -16 Q181 -16 116.5 34.5 Q52 85 42 176 L92 176 Q102 118 133.5 85.5 Q165 53 208.5 39.5 Q252 26 300 26 Q388 26 437 63 Q486 100 486 165 Q486 230 451 263 Q416 296 340 313 L223 339 Q178 349 142.5 367.5 Q107 386 86 420 Q65 454 65 511 Q65 562 92.5 601.5 Q120 641 171 663.5 Q222 686 290 686 Q389 686 449.5 636 Q510 586 523 496 L473 496 Q445 644 288 644 Q210 644 162.5 610 Q115 576 115 516 Q115 454 145 425.5 Q175 397 237 383 L353 357 Q441 338 488.5 296 Q536 254 536 169 Q536 84 472.5 34 Q409 -16 295 -16 Z M271 737 L128 849 L146 876 L290 783 L433 876 L451 849 L308 737 L271 737 Z " />
<glyph glyph-name="scaron" unicode="&#x161;" horiz-adv-x="473" d="M239 -13 Q150 -13 98.5 27.5 Q47 68 38 142 L85 142 Q93 96 116.5 70 Q140 44 172.5 33.5 Q205 23 240 23 Q381 23 381 120 Q381 166 354 189 Q327 212 275 225 L188 246 Q150 255 121 269 Q92 283 76 307.5 Q60 332 60 374 Q60 433 106.5 471 Q153 509 231 509 Q315 509 364 472 Q413 435 424 368 L377 368 Q353 473 231 473 Q176 473 141 448.5 Q106 424 106 378 Q106 335 131 316.5 Q156 298 199 287 L285 266 Q348 250 387.5 220 Q427 190 427 124 Q427 60 378 23.5 Q329 -13 239 -13 Z M381 718 L244 571 L221 571 L84 718 L103 739 L232 621 L362 739 L381 718 Z " />
<glyph glyph-name="uni0162" unicode="&#x162;" horiz-adv-x="576" d="M264 0 L264 630 L27 630 L27 670 L549 670 L549 630 L312 630 L312 0 L264 0 Z M270 1 L304 1 L291 -65 Q306 -60 320 -60 Q358 -60 383 -83 Q408 -106 408 -141 Q408 -184 377 -209.5 Q346 -235 296 -235 Q277 -235 262 -233 Q247 -231 226 -226 L229 -194 Q247 -199 264.5 -201 Q282 -203 298 -203 Q330 -203 350.5 -186.5 Q371 -170 371 -144 Q371 -121 355.5 -105.5 Q340 -90 314 -90 Q302 -90 295 -92 Q288 -94 279 -98 L255 -98 L270 1 Z " />
<glyph glyph-name="uni0163" unicode="&#x163;" horiz-adv-x="337" d="M227 -13 Q167 -13 130.5 25 Q94 63 94 139 L94 460 L18 460 L18 496 L94 496 L94 646 L139 646 L139 496 L300 496 L300 460 L139 460 L139 143 Q139 77 167 51 Q195 25 232 25 Q252 25 267 27.5 Q282 30 301 38 L312 3 Q289 -6 269.5 -9.5 Q250 -13 227 -13 Z M172 0 L204 0 L191 -66 Q206 -61 221 -61 Q259 -61 283.5 -84 Q308 -107 308 -141 Q308 -184 277 -209 Q246 -234 197 -234 Q179 -234 164 -232 Q149 -230 128 -225 L131 -195 Q149 -200 166 -202 Q183 -204 199 -204 Q232 -204 252.5 -187.5 Q273 -171 273 -144 Q273 -120 257.5 -104.5 Q242 -89 215 -89 Q195 -89 179 -97 L157 -97 L172 0 Z " />
<glyph glyph-name="Tcaron" unicode="&#x164;" horiz-adv-x="576" d="M264 0 L264 630 L27 630 L27 670 L549 670 L549 630 L312 630 L312 0 L264 0 Z M270 737 L127 849 L145 876 L289 783 L432 876 L450 849 L307 737 L270 737 Z " />
<glyph glyph-name="tcaron" unicode="&#x165;" horiz-adv-x="337" d="M227 -13 Q167 -13 130.5 25 Q94 63 94 139 L94 460 L18 460 L18 496 L94 496 L94 646 L139 646 L139 496 L300 496 L300 460 L139 460 L139 143 Q139 77 167 51 Q195 25 232 25 Q252 25 267 27.5 Q282 30 301 38 L312 3 Q289 -6 269.5 -9.5 Q250 -13 227 -13 Z M227 555 L208 555 L208 700 L249 700 L249 692 Q249 653 242 618 Q235 583 227 555 Z " />
<glyph glyph-name="Tbar" unicode="&#x166;" horiz-adv-x="576" d="M264 0 L264 315 L97 315 L97 353 L264 353 L264 630 L27 630 L27 670 L549 670 L549 630 L312 630 L312 353 L479 353 L479 315 L312 315 L312 0 L264 0 Z " />
<glyph glyph-name="tbar" unicode="&#x167;" horiz-adv-x="337" d="M227 -13 Q167 -13 130.5 25 Q94 63 94 139 L94 250 L18 250 L18 285 L94 285 L94 461 L18 461 L18 496 L94 496 L94 646 L139 646 L139 496 L300 496 L300 461 L139 461 L139 285 L300 285 L300 250 L139 250 L139 143 Q139 77 167 51 Q195 25 232 25 Q252 25 267 27.5 Q282 30 301 38 L312 3 Q289 -6 269.5 -9.5 Q250 -13 227 -13 Z " />
<glyph glyph-name="Utilde" unicode="&#x168;" horiz-adv-x="664" d="M332 -16 Q210 -16 145 58 Q80 132 80 262 L80 670 L128 670 L128 262 Q128 146 180 86 Q232 26 332 26 Q432 26 484 86 Q536 146 536 262 L536 670 L584 670 L584 262 Q584 132 519 58 Q454 -16 332 -16 Z M316 789 Q300 805 288.5 812.5 Q277 820 264 820 Q250 820 234 805 Q218 790 211 748 L170 748 Q175 800 201.5 830.5 Q228 861 268 861 Q289 861 308 850 Q327 839 348 818 Q364 802 375.5 794.5 Q387 787 400 787 Q414 787 430 802 Q446 817 453 859 L494 859 Q489 806 462.5 776 Q436 746 396 746 Q375 746 356 757 Q337 768 316 789 Z " />
<glyph glyph-name="utilde" unicode="&#x169;" horiz-adv-x="549" d="M468 496 L468 0 L427 0 L424 102 Q399 42 349.5 14.5 Q300 -13 249 -13 Q158 -13 115 43.5 Q72 100 72 197 L72 496 L117 496 L117 202 Q117 110 152 67.5 Q187 25 256 25 Q329 25 376 81.5 Q423 138 423 254 L423 496 L468 496 Z M257 631 Q242 644 230 652 Q218 660 208 660 Q194 660 181.5 645.5 Q169 631 163 591 L125 591 Q130 640 152.5 669 Q175 698 208 698 Q228 698 245.5 686 Q263 674 284 656 Q299 642 310.5 634.5 Q322 627 333 627 Q347 627 359.5 641.5 Q372 656 378 696 L416 696 Q411 646 388.5 617.5 Q366 589 333 589 Q313 589 295.5 601 Q278 613 257 631 Z " />
<glyph glyph-name="Umacron" unicode="&#x16a;" horiz-adv-x="664" d="M332 -16 Q210 -16 145 58 Q80 132 80 262 L80 670 L128 670 L128 262 Q128 146 180 86 Q232 26 332 26 Q432 26 484 86 Q536 146 536 262 L536 670 L584 670 L584 262 Q584 132 519 58 Q454 -16 332 -16 Z M183 771 L183 811 L481 811 L481 771 L183 771 Z " />
<glyph glyph-name="umacron" unicode="&#x16b;" horiz-adv-x="549" d="M468 496 L468 0 L427 0 L424 102 Q399 42 349.5 14.5 Q300 -13 249 -13 Q158 -13 115 43.5 Q72 100 72 197 L72 496 L117 496 L117 202 Q117 110 152 67.5 Q187 25 256 25 Q329 25 376 81.5 Q423 138 423 254 L423 496 L468 496 Z M139 605 L139 642 L401 642 L401 605 L139 605 Z " />
<glyph glyph-name="Uring" unicode="&#x16e;" horiz-adv-x="664" d="M332 -16 Q210 -16 145 58 Q80 132 80 262 L80 670 L128 670 L128 262 Q128 146 180 86 Q232 26 332 26 Q432 26 484 86 Q536 146 536 262 L536 670 L584 670 L584 262 Q584 132 519 58 Q454 -16 332 -16 Z M332 743 Q280 743 248 773.5 Q216 804 216 854 Q216 904 248 934 Q280 964 332 964 Q384 964 416 934 Q448 904 448 854 Q448 804 416 773.5 Q384 743 332 743 Z M332 781 Q365 781 385 800.5 Q405 820 405 854 Q405 887 385 906.5 Q365 926 332 926 Q299 926 279 906.5 Q259 887 259 854 Q259 820 279 800.5 Q299 781 332 781 Z " />
<glyph glyph-name="uring" unicode="&#x16f;" horiz-adv-x="549" d="M468 496 L468 0 L427 0 L424 102 Q399 42 349.5 14.5 Q300 -13 249 -13 Q158 -13 115 43.5 Q72 100 72 197 L72 496 L117 496 L117 202 Q117 110 152 67.5 Q187 25 256 25 Q329 25 376 81.5 Q423 138 423 254 L423 496 L468 496 Z M270 561 Q222 561 190.5 591 Q159 621 159 668 Q159 715 190.5 744.5 Q222 774 270 774 Q318 774 349.5 744.5 Q381 715 381 668 Q381 621 349.5 591 Q318 561 270 561 Z M270 594 Q303 594 323 614 Q343 634 343 668 Q343 701 323 721 Q303 741 270 741 Q237 741 217 721 Q197 701 197 668 Q197 634 217 614 Q237 594 270 594 Z " />
<glyph glyph-name="Uhungarumlaut" unicode="&#x170;" horiz-adv-x="664" d="M332 -16 Q210 -16 145 58 Q80 132 80 262 L80 670 L128 670 L128 262 Q128 146 180 86 Q232 26 332 26 Q432 26 484 86 Q536 146 536 262 L536 670 L584 670 L584 262 Q584 132 519 58 Q454 -16 332 -16 Z M212 760 L367 888 L398 846 L232 731 L212 760 Z M371 761 L537 875 L565 831 L389 731 L371 761 Z " />
<glyph glyph-name="uhungarumlaut" unicode="&#x171;" horiz-adv-x="549" d="M468 496 L468 0 L427 0 L424 102 Q399 42 349.5 14.5 Q300 -13 249 -13 Q158 -13 115 43.5 Q72 100 72 197 L72 496 L117 496 L117 202 Q117 110 152 67.5 Q187 25 256 25 Q329 25 376 81.5 Q423 138 423 254 L423 496 L468 496 Z M152 587 L289 736 L323 702 L173 566 L152 587 Z M307 595 L456 731 L487 694 L326 572 L307 595 Z " />
<glyph glyph-name="Uogonek" unicode="&#x172;" horiz-adv-x="664" d="M332 -16 Q210 -16 145 58 Q80 132 80 262 L80 670 L128 670 L128 262 Q128 146 180 86 Q232 26 332 26 Q432 26 484 86 Q536 146 536 262 L536 670 L584 670 L584 262 Q584 132 519 58 Q454 -16 332 -16 Z M427 -227 Q376 -227 349.5 -202 Q323 -177 323 -133 Q323 -85 352 -45 Q381 -5 439 21 L484 27 Q420 -14 392.5 -50 Q365 -86 365 -129 Q365 -157 381.5 -173.5 Q398 -190 428 -190 Q438 -190 452 -188 Q466 -186 484 -180 L484 -217 Q466 -223 453 -225 Q440 -227 427 -227 Z " />
<glyph glyph-name="uogonek" unicode="&#x173;" horiz-adv-x="549" d="M468 496 L468 0 L427 0 L424 102 Q399 42 349.5 14.5 Q300 -13 249 -13 Q158 -13 115 43.5 Q72 100 72 197 L72 496 L117 496 L117 202 Q117 110 152 67.5 Q187 25 256 25 Q329 25 376 81.5 Q423 138 423 254 L423 496 L468 496 Z M414 -224 Q365 -224 339 -200 Q313 -176 313 -134 Q313 -89 341.5 -52.5 Q370 -16 427 8 L468 0 Q349 -49 349 -130 Q349 -158 366 -175.5 Q383 -193 415 -193 Q425 -193 438 -191 Q451 -189 468 -184 L468 -215 Q451 -220 439 -222 Q427 -224 414 -224 Z " />
<glyph glyph-name="Wcircumflex" unicode="&#x174;" horiz-adv-x="914" d="M227 0 L33 670 L84 670 L256 52 L435 670 L482 670 L659 52 L833 670 L881 670 L687 0 L630 0 L457 595 L285 0 L227 0 Z M477 864 L620 752 L602 725 L458 819 L315 725 L297 752 L440 864 L477 864 Z " />
<glyph glyph-name="wcircumflex" unicode="&#x175;" horiz-adv-x="734" d="M178 0 L21 496 L71 496 L204 53 L346 496 L394 496 L533 51 L668 496 L713 496 L556 0 L508 0 L368 434 L226 0 L178 0 Z M382 730 L519 583 L500 562 L370 680 L241 562 L222 583 L359 730 L382 730 Z " />
<glyph glyph-name="Ycircumflex" unicode="&#x176;" horiz-adv-x="574" d="M79 670 L288 308 L499 670 L548 670 L311 270 L311 0 L263 0 L263 270 L26 670 L79 670 Z M309 864 L452 752 L434 725 L290 819 L147 725 L129 752 L272 864 L309 864 Z " />
<glyph glyph-name="ycircumflex" unicode="&#x177;" horiz-adv-x="475" d="M-11 -202 L3 -168 Q19 -176 37.5 -180.5 Q56 -185 72 -185 Q108 -185 133.5 -161.5 Q159 -138 180 -86 L219 13 L21 496 L71 496 L241 68 L407 496 L453 496 L219 -97 Q194 -161 159 -192 Q124 -223 71 -223 Q31 -223 -11 -202 Z M251 730 L388 583 L369 562 L239 680 L110 562 L91 583 L228 730 L251 730 Z " />
<glyph glyph-name="Ydieresis" unicode="&#x178;" horiz-adv-x="574" d="M79 670 L288 308 L499 670 L548 670 L311 270 L311 0 L263 0 L263 270 L26 670 L79 670 Z M390 765 Q373 765 362 775.5 Q351 786 351 804 Q351 822 362 832.5 Q373 843 390 843 Q407 843 418 832.5 Q429 822 429 804 Q429 786 418 775.5 Q407 765 390 765 Z M190 765 Q173 765 162 775.5 Q151 786 151 804 Q151 822 162 832.5 Q173 843 190 843 Q207 843 218 832.5 Q229 822 229 804 Q229 786 218 775.5 Q207 765 190 765 Z " />
<glyph glyph-name="Zacute" unicode="&#x179;" horiz-adv-x="563" d="M48 0 L48 33 L462 630 L60 630 L60 670 L519 670 L519 637 L105 40 L527 40 L527 0 L48 0 Z M207 761 L399 871 L423 825 L222 730 L207 761 Z " />
<glyph glyph-name="zacute" unicode="&#x17a;" horiz-adv-x="469" d="M44 0 L44 36 L375 460 L58 460 L58 496 L426 496 L426 460 L94 36 L435 36 L435 0 L44 0 Z M170 595 L319 731 L350 694 L189 572 L170 595 Z " />
<glyph glyph-name="Zdotaccent" unicode="&#x17b;" horiz-adv-x="563" d="M48 0 L48 33 L462 630 L60 630 L60 670 L519 670 L519 637 L105 40 L527 40 L527 0 L48 0 Z M289 768 Q273 768 261.5 779 Q250 790 250 807 Q250 824 261.5 835 Q273 846 289 846 Q305 846 316.5 835 Q328 824 328 807 Q328 790 316.5 779 Q305 768 289 768 Z " />
<glyph glyph-name="zdotaccent" unicode="&#x17c;" horiz-adv-x="469" d="M44 0 L44 36 L375 460 L58 460 L58 496 L426 496 L426 460 L94 36 L435 36 L435 0 L44 0 Z M239 594 Q223 594 212.5 604 Q202 614 202 631 Q202 648 212.5 658 Q223 668 239 668 Q255 668 265.5 658 Q276 648 276 631 Q276 614 265.5 604 Q255 594 239 594 Z " />
<glyph glyph-name="Zcaron" unicode="&#x17d;" horiz-adv-x="563" d="M48 0 L48 33 L462 630 L60 630 L60 670 L519 670 L519 637 L105 40 L527 40 L527 0 L48 0 Z M271 737 L128 849 L146 876 L290 783 L433 876 L451 849 L308 737 L271 737 Z " />
<glyph glyph-name="zcaron" unicode="&#x17e;" horiz-adv-x="469" d="M44 0 L44 36 L375 460 L58 460 L58 496 L426 496 L426 460 L94 36 L435 36 L435 0 L44 0 Z M388 718 L251 571 L228 571 L91 718 L110 739 L239 621 L369 739 L388 718 Z " />
<glyph glyph-name="uni0218" unicode="&#x218;" horiz-adv-x="581" d="M295 -16 Q181 -16 116.5 34.5 Q52 85 42 176 L92 176 Q102 118 133.5 85.5 Q165 53 208.5 39.5 Q252 26 300 26 Q388 26 437 63 Q486 100 486 165 Q486 230 451 263 Q416 296 340 313 L223 339 Q178 349 142.5 367.5 Q107 386 86 420 Q65 454 65 511 Q65 562 92.5 601.5 Q120 641 171 663.5 Q222 686 290 686 Q389 686 449.5 636 Q510 586 523 496 L473 496 Q445 644 288 644 Q210 644 162.5 610 Q115 576 115 516 Q115 454 145 425.5 Q175 397 237 383 L353 357 Q441 338 488.5 296 Q536 254 536 169 Q536 84 472.5 34 Q409 -16 295 -16 Z M240 -280 L240 -249 Q285 -227 291 -185 L289 -185 Q274 -185 262.5 -174 Q251 -163 251 -146 Q251 -129 262 -118 Q273 -107 291 -107 Q309 -107 322 -121.5 Q335 -136 335 -162 Q335 -202 312 -231.5 Q289 -261 240 -280 Z " />
<glyph glyph-name="uni0219" unicode="&#x219;" horiz-adv-x="473" d="M239 -13 Q150 -13 98.5 27.5 Q47 68 38 142 L85 142 Q93 96 116.5 70 Q140 44 172.5 33.5 Q205 23 240 23 Q381 23 381 120 Q381 166 354 189 Q327 212 275 225 L188 246 Q150 255 121 269 Q92 283 76 307.5 Q60 332 60 374 Q60 433 106.5 471 Q153 509 231 509 Q315 509 364 472 Q413 435 424 368 L377 368 Q353 473 231 473 Q176 473 141 448.5 Q106 424 106 378 Q106 335 131 316.5 Q156 298 199 287 L285 266 Q348 250 387.5 220 Q427 190 427 124 Q427 60 378 23.5 Q329 -13 239 -13 Z M185 -275 L185 -248 Q234 -224 237 -181 Q236 -181 234 -181 Q216 -181 206 -170 Q196 -159 196 -144 Q196 -128 206.5 -117.5 Q217 -107 234 -107 Q251 -107 263.5 -121 Q276 -135 276 -160 Q276 -199 254 -228 Q232 -257 185 -275 Z " />
<glyph glyph-name="uni021A" unicode="&#x21a;" horiz-adv-x="576" d="M264 0 L264 630 L27 630 L27 670 L549 670 L549 630 L312 630 L312 0 L264 0 Z M239 -280 L239 -249 Q284 -227 290 -185 L288 -185 Q273 -185 261.5 -174 Q250 -163 250 -146 Q250 -129 261 -118 Q272 -107 290 -107 Q308 -107 321 -121.5 Q334 -136 334 -162 Q334 -202 311 -231.5 Q288 -261 239 -280 Z " />
<glyph glyph-name="uni021B" unicode="&#x21b;" horiz-adv-x="337" d="M227 -13 Q167 -13 130.5 25 Q94 63 94 139 L94 460 L18 460 L18 496 L94 496 L94 646 L139 646 L139 496 L300 496 L300 460 L139 460 L139 143 Q139 77 167 51 Q195 25 232 25 Q252 25 267 27.5 Q282 30 301 38 L312 3 Q289 -6 269.5 -9.5 Q250 -13 227 -13 Z M156 -275 L156 -248 Q205 -224 208 -181 Q207 -181 205 -181 Q187 -181 177 -170 Q167 -159 167 -144 Q167 -128 177.5 -117.5 Q188 -107 205 -107 Q222 -107 234.5 -121 Q247 -135 247 -160 Q247 -199 225 -228 Q203 -257 156 -275 Z " />
<glyph glyph-name="circumflex" unicode="&#x2c6;" horiz-adv-x="500" d="M262 730 L399 583 L380 562 L250 680 L121 562 L102 583 L239 730 L262 730 Z " />
<glyph glyph-name="caron" unicode="&#x2c7;" horiz-adv-x="500" d="M399 718 L262 571 L239 571 L102 718 L121 739 L250 621 L380 739 L399 718 Z " />
<glyph glyph-name="breve" unicode="&#x2d8;" horiz-adv-x="500" d="M250 572 Q192 572 152 608.5 Q112 645 104 703 L144 703 Q152 661 181 635.5 Q210 610 250 610 Q290 610 319 635.5 Q348 661 356 703 L396 703 Q388 645 348 608.5 Q308 572 250 572 Z " />
<glyph glyph-name="dotaccent" unicode="&#x2d9;" horiz-adv-x="500" d="M250 594 Q234 594 223.5 604 Q213 614 213 631 Q213 648 223.5 658 Q234 668 250 668 Q266 668 276.5 658 Q287 648 287 631 Q287 614 276.5 604 Q266 594 250 594 Z " />
<glyph glyph-name="ring" unicode="&#x2da;" horiz-adv-x="500" d="M250 561 Q202 561 170.5 591 Q139 621 139 668 Q139 715 170.5 744.5 Q202 774 250 774 Q298 774 329.5 744.5 Q361 715 361 668 Q361 621 329.5 591 Q298 561 250 561 Z M250 594 Q283 594 303 614 Q323 634 323 668 Q323 701 303 721 Q283 741 250 741 Q217 741 197 721 Q177 701 177 668 Q177 634 197 614 Q217 594 250 594 Z " />
<glyph glyph-name="ogonek" unicode="&#x2db;" horiz-adv-x="500" d="M234 -224 Q185 -224 159 -200 Q133 -176 133 -134 Q133 -89 161.5 -52.5 Q190 -16 247 8 L288 0 Q169 -49 169 -130 Q169 -158 186 -175.5 Q203 -193 235 -193 Q245 -193 258 -191 Q271 -189 288 -184 L288 -215 Q271 -220 259 -222 Q247 -224 234 -224 Z " />
<glyph glyph-name="tilde" unicode="&#x2dc;" horiz-adv-x="500" d="M237 631 Q222 644 210 652 Q198 660 188 660 Q174 660 161.5 645.5 Q149 631 143 591 L105 591 Q110 640 132.5 669 Q155 698 188 698 Q208 698 225.5 686 Q243 674 264 656 Q279 642 290.5 634.5 Q302 627 313 627 Q327 627 339.5 641.5 Q352 656 358 696 L396 696 Q391 646 368.5 617.5 Q346 589 313 589 Q293 589 275.5 601 Q258 613 237 631 Z " />
<glyph glyph-name="hungarumlaut" unicode="&#x2dd;" horiz-adv-x="500" d="M87 587 L224 736 L258 702 L108 566 L87 587 Z M242 595 L391 731 L422 694 L261 572 L242 595 Z " />
<glyph glyph-name="gravecomb" unicode="&#x300;" d="M-80 731 L69 595 L50 572 L-111 694 L-80 731 Z " />
<glyph glyph-name="acutecomb" unicode="&#x301;" d="M-69 595 L80 731 L111 694 L-50 572 L-69 595 Z " />
<glyph glyph-name="uni0302" unicode="&#x302;" d="M12 730 L149 583 L130 562 L0 680 L-129 562 L-148 583 L-11 730 L12 730 Z " />
<glyph glyph-name="tildecomb" unicode="&#x303;" d="M-13 631 Q-28 644 -40 652 Q-52 660 -62 660 Q-76 660 -88.5 645.5 Q-101 631 -107 591 L-145 591 Q-140 640 -117.5 669 Q-95 698 -62 698 Q-42 698 -24.5 686 Q-7 674 14 656 Q29 642 40.5 634.5 Q52 627 63 627 Q77 627 89.5 641.5 Q102 656 108 696 L146 696 Q141 646 118.5 617.5 Q96 589 63 589 Q43 589 25.5 601 Q8 613 -13 631 Z " />
<glyph glyph-name="uni0304" unicode="&#x304;" d="M-131 605 L-131 642 L131 642 L131 605 L-131 605 Z " />
<glyph glyph-name="uni0306" unicode="&#x306;" d="M0 572 Q-58 572 -98 608.5 Q-138 645 -146 703 L-106 703 Q-98 661 -69 635.5 Q-40 610 0 610 Q40 610 69 635.5 Q98 661 106 703 L146 703 Q138 645 98 608.5 Q58 572 0 572 Z " />
<glyph glyph-name="uni0307" unicode="&#x307;" d="M0 594 Q-16 594 -26.5 604 Q-37 614 -37 631 Q-37 648 -26.5 658 Q-16 668 0 668 Q16 668 26.5 658 Q37 648 37 631 Q37 614 26.5 604 Q16 594 0 594 Z " />
<glyph glyph-name="uni0308" unicode="&#x308;" d="M90 589 Q74 589 63.5 599.5 Q53 610 53 626 Q53 642 63.5 652.5 Q74 663 90 663 Q106 663 116.5 652.5 Q127 642 127 626 Q127 610 116.5 599.5 Q106 589 90 589 Z M-90 589 Q-106 589 -116.5 599.5 Q-127 610 -127 626 Q-127 642 -116.5 652.5 Q-106 663 -90 663 Q-74 663 -63.5 652.5 Q-53 642 -53 626 Q-53 610 -63.5 599.5 Q-74 589 -90 589 Z " />
<glyph glyph-name="uni030A" unicode="&#x30a;" d="M0 561 Q-48 561 -79.5 591 Q-111 621 -111 668 Q-111 715 -79.5 744.5 Q-48 774 0 774 Q48 774 79.5 744.5 Q111 715 111 668 Q111 621 79.5 591 Q48 561 0 561 Z M0 594 Q33 594 53 614 Q73 634 73 668 Q73 701 53 721 Q33 741 0 741 Q-33 741 -53 721 Q-73 701 -73 668 Q-73 634 -53 614 Q-33 594 0 594 Z " />
<glyph glyph-name="uni030B" unicode="&#x30b;" d="M-118 587 L19 736 L53 702 L-97 566 L-118 587 Z M37 595 L186 731 L217 694 L56 572 L37 595 Z " />
<glyph glyph-name="uni030C" unicode="&#x30c;" d="M149 718 L12 571 L-11 571 L-148 718 L-129 739 L0 621 L130 739 L149 718 Z " />
<glyph glyph-name="uni0312" unicode="&#x312;" d="M43 752 L43 725 Q-4 698 -4 662 L-3 662 Q15 662 25 651 Q35 640 35 625 Q35 608 24.5 598 Q14 588 -3 588 Q-20 588 -32 602.5 Q-44 617 -44 643 Q-44 681 -23.5 708.5 Q-3 736 43 752 Z " />
<glyph glyph-name="uni0315" unicode="&#x315;" d="M13 531 L-5 531 L-5 700 L36 700 L36 692 Q36 666 33 635.5 Q30 605 24.5 577.5 Q19 550 13 531 Z " />
<glyph glyph-name="dotbelowcomb" unicode="&#x323;" d="M0 -172 Q-16 -172 -26.5 -162 Q-37 -152 -37 -135 Q-37 -118 -26.5 -108 Q-16 -98 0 -98 Q16 -98 26.5 -108 Q37 -118 37 -135 Q37 -152 26.5 -162 Q16 -172 0 -172 Z " />
<glyph glyph-name="uni0326" unicode="&#x326;" d="M-47 -275 L-47 -248 Q2 -224 5 -181 Q4 -181 2 -181 Q-16 -181 -26 -170 Q-36 -159 -36 -144 Q-36 -128 -25.5 -117.5 Q-15 -107 2 -107 Q19 -107 31.5 -121 Q44 -135 44 -160 Q44 -199 22 -228 Q0 -257 -47 -275 Z " />
<glyph glyph-name="uni0327" unicode="&#x327;" d="M-31 0 L1 0 L-12 -66 Q3 -61 18 -61 Q56 -61 80.5 -84 Q105 -107 105 -141 Q105 -184 74 -209 Q43 -234 -6 -234 Q-24 -234 -39 -232 Q-54 -230 -75 -225 L-72 -195 Q-54 -200 -37 -202 Q-20 -204 -4 -204 Q29 -204 49.5 -187.5 Q70 -171 70 -144 Q70 -120 54.5 -104.5 Q39 -89 12 -89 Q-8 -89 -24 -97 L-46 -97 L-31 0 Z " />
<glyph glyph-name="uni0328" unicode="&#x328;" d="M15 -224 Q-34 -224 -60 -200 Q-86 -176 -86 -134 Q-86 -89 -57.5 -52.5 Q-29 -16 28 8 L69 0 Q-50 -49 -50 -130 Q-50 -158 -33 -175.5 Q-16 -193 16 -193 Q26 -193 39 -191 Q52 -189 69 -184 L69 -215 Q52 -220 40 -222 Q28 -224 15 -224 Z " />
<glyph glyph-name="uni1E24" unicode="&#x1e24;" horiz-adv-x="684" d="M93 0 L93 670 L141 670 L141 356 L543 356 L543 670 L591 670 L591 0 L543 0 L543 316 L141 316 L141 0 L93 0 Z M342 -176 Q326 -176 314.5 -165 Q303 -154 303 -137 Q303 -120 314.5 -109 Q326 -98 342 -98 Q358 -98 369.5 -109 Q381 -120 381 -137 Q381 -154 369.5 -165 Q358 -176 342 -176 Z " />
<glyph glyph-name="uni1E25" unicode="&#x1e25;" horiz-adv-x="561" d="M81 0 L81 700 L126 700 L126 393 Q151 453 202 481 Q253 509 306 509 Q400 509 444.5 452.5 Q489 396 489 299 L489 0 L444 0 L444 294 Q444 386 407.5 428.5 Q371 471 299 471 Q224 471 175 414.5 Q126 358 126 242 L126 0 L81 0 Z M285 -172 Q269 -172 258.5 -162 Q248 -152 248 -135 Q248 -118 258.5 -108 Q269 -98 285 -98 Q301 -98 311.5 -108 Q322 -118 322 -135 Q322 -152 311.5 -162 Q301 -172 285 -172 Z " />
<glyph glyph-name="uni1E36" unicode="&#x1e36;" horiz-adv-x="513" d="M93 0 L93 670 L141 670 L141 40 L481 40 L481 0 L93 0 Z M287 -176 Q271 -176 259.5 -165 Q248 -154 248 -137 Q248 -120 259.5 -109 Q271 -98 287 -98 Q303 -98 314.5 -109 Q326 -120 326 -137 Q326 -154 314.5 -165 Q303 -176 287 -176 Z " />
<glyph glyph-name="uni1E37" unicode="&#x1e37;" horiz-adv-x="207" d="M81 0 L81 700 L126 700 L126 0 L81 0 Z M103 -172 Q87 -172 76.5 -162 Q66 -152 66 -135 Q66 -118 76.5 -108 Q87 -98 103 -98 Q119 -98 129.5 -108 Q140 -118 140 -135 Q140 -152 129.5 -162 Q119 -172 103 -172 Z " />
<glyph glyph-name="Wgrave" unicode="&#x1e80;" horiz-adv-x="914" d="M227 0 L33 670 L84 670 L256 52 L435 670 L482 670 L659 52 L833 670 L881 670 L687 0 L630 0 L457 595 L285 0 L227 0 Z M348 871 L540 761 L525 730 L324 825 L348 871 Z " />
<glyph glyph-name="wgrave" unicode="&#x1e81;" horiz-adv-x="734" d="M178 0 L21 496 L71 496 L204 53 L346 496 L394 496 L533 51 L668 496 L713 496 L556 0 L508 0 L368 434 L226 0 L178 0 Z M290 731 L439 595 L420 572 L259 694 L290 731 Z " />
<glyph glyph-name="Wacute" unicode="&#x1e82;" horiz-adv-x="914" d="M227 0 L33 670 L84 670 L256 52 L435 670 L482 670 L659 52 L833 670 L881 670 L687 0 L630 0 L457 595 L285 0 L227 0 Z M376 761 L568 871 L592 825 L391 730 L376 761 Z " />
<glyph glyph-name="wacute" unicode="&#x1e83;" horiz-adv-x="734" d="M178 0 L21 496 L71 496 L204 53 L346 496 L394 496 L533 51 L668 496 L713 496 L556 0 L508 0 L368 434 L226 0 L178 0 Z M301 595 L450 731 L481 694 L320 572 L301 595 Z " />
<glyph glyph-name="Wdieresis" unicode="&#x1e84;" horiz-adv-x="914" d="M227 0 L33 670 L84 670 L256 52 L435 670 L482 670 L659 52 L833 670 L881 670 L687 0 L630 0 L457 595 L285 0 L227 0 Z M558 765 Q541 765 530 775.5 Q519 786 519 804 Q519 822 530 832.5 Q541 843 558 843 Q575 843 586 832.5 Q597 822 597 804 Q597 786 586 775.5 Q575 765 558 765 Z M358 765 Q341 765 330 775.5 Q319 786 319 804 Q319 822 330 832.5 Q341 843 358 843 Q375 843 386 832.5 Q397 822 397 804 Q397 786 386 775.5 Q375 765 358 765 Z " />
<glyph glyph-name="wdieresis" unicode="&#x1e85;" horiz-adv-x="734" d="M178 0 L21 496 L71 496 L204 53 L346 496 L394 496 L533 51 L668 496 L713 496 L556 0 L508 0 L368 434 L226 0 L178 0 Z M460 589 Q444 589 433.5 599.5 Q423 610 423 626 Q423 642 433.5 652.5 Q444 663 460 663 Q476 663 486.5 652.5 Q497 642 497 626 Q497 610 486.5 599.5 Q476 589 460 589 Z M280 589 Q264 589 253.5 599.5 Q243 610 243 626 Q243 642 253.5 652.5 Q264 663 280 663 Q296 663 306.5 652.5 Q317 642 317 626 Q317 610 306.5 599.5 Q296 589 280 589 Z " />
<glyph glyph-name="uni1E9E" unicode="&#x1e9e;" horiz-adv-x="656" d="M83 0 L83 426 Q83 549 147.5 617.5 Q212 686 326 686 Q478 686 557 563 L371 392 Q457 390 508 360 Q559 330 581.5 284 Q604 238 604 188 Q604 130 578.5 84 Q553 38 501.5 11 Q450 -16 372 -16 Q344 -16 315 -11 Q286 -6 263 4 L273 44 Q296 34 321.5 30 Q347 26 371 26 Q460 26 507 68 Q554 110 554 188 Q554 265 504.5 309.5 Q455 354 342 354 L319 354 L319 394 L502 566 Q474 605 428 624.5 Q382 644 323 644 Q233 644 182 591 Q131 538 131 436 L131 0 L83 0 Z " />
<glyph glyph-name="Ygrave" unicode="&#x1ef2;" horiz-adv-x="574" d="M79 670 L288 308 L499 670 L548 670 L311 270 L311 0 L263 0 L263 270 L26 670 L79 670 Z M180 871 L372 761 L357 730 L156 825 L180 871 Z " />
<glyph glyph-name="ygrave" unicode="&#x1ef3;" horiz-adv-x="475" d="M-11 -202 L3 -168 Q19 -176 37.5 -180.5 Q56 -185 72 -185 Q108 -185 133.5 -161.5 Q159 -138 180 -86 L219 13 L21 496 L71 496 L241 68 L407 496 L453 496 L219 -97 Q194 -161 159 -192 Q124 -223 71 -223 Q31 -223 -11 -202 Z M159 731 L308 595 L289 572 L128 694 L159 731 Z " />
<glyph glyph-name="uni2000" unicode="&#x2000;" horiz-adv-x="500" d="" />
<glyph glyph-name="uni2001" unicode="&#x2001;" horiz-adv-x="1000" d="" />
<glyph glyph-name="uni2002" unicode="&#x2002;" horiz-adv-x="500" d="" />
<glyph glyph-name="uni2003" unicode="&#x2003;" horiz-adv-x="1000" d="" />
<glyph glyph-name="uni2004" unicode="&#x2004;" horiz-adv-x="333" d="" />
<glyph glyph-name="uni2005" unicode="&#x2005;" horiz-adv-x="250" d="" />
<glyph glyph-name="uni2006" unicode="&#x2006;" horiz-adv-x="166" d="" />
<glyph glyph-name="uni2007" unicode="&#x2007;" horiz-adv-x="590" d="" />
<glyph glyph-name="uni2008" unicode="&#x2008;" horiz-adv-x="220" d="" />
<glyph glyph-name="uni2009" unicode="&#x2009;" horiz-adv-x="200" d="" />
<glyph glyph-name="uni200A" unicode="&#x200a;" horiz-adv-x="62" d="" />
<glyph glyph-name="uni200B" unicode="&#x200b;" d="" />
<glyph glyph-name="uni2010" unicode="&#x2010;" horiz-adv-x="388" d="M56 218 L56 258 L332 258 L332 218 L56 218 Z " />
<glyph glyph-name="uni2011" unicode="&#x2011;" horiz-adv-x="388" d="M56 218 L56 258 L332 258 L332 218 L56 218 Z " />
<glyph glyph-name="figuredash" unicode="&#x2012;" horiz-adv-x="590" d="M45 218 L45 258 L545 258 L545 218 L45 218 Z " />
<glyph glyph-name="endash" unicode="&#x2013;" horiz-adv-x="500" d="M0 218 L0 258 L500 258 L500 218 L0 218 Z " />
<glyph glyph-name="emdash" unicode="&#x2014;" horiz-adv-x="1000" d="M0 218 L0 258 L1000 258 L1000 218 L0 218 Z " />
<glyph glyph-name="uni2015" unicode="&#x2015;" horiz-adv-x="1000" d="M0 218 L0 258 L1000 258 L1000 218 L0 218 Z " />
<glyph glyph-name="quoteleft" unicode="&#x2018;" horiz-adv-x="139" d="M115 711 L115 681 Q92 673 78.5 655 Q65 637 63 615 Q65 615 68 615 Q86 615 97 604.5 Q108 594 108 577 Q108 560 98 549.5 Q88 539 71 539 Q26 539 26 602 Q26 641 48 670 Q70 699 115 711 Z " />
<glyph glyph-name="quoteright" unicode="&#x2019;" horiz-adv-x="139" d="M24 538 L24 568 Q47 576 60.5 594 Q74 612 76 634 Q74 634 71 634 Q53 634 42 645 Q31 656 31 672 Q31 689 41.5 699.5 Q52 710 68 710 Q113 710 113 647 Q113 608 91 579 Q69 550 24 538 Z " />
<glyph glyph-name="quotesinglbase" unicode="&#x201a;" horiz-adv-x="139" d="M24 -103 L24 -73 Q47 -65 60.5 -47 Q74 -29 76 -7 Q74 -7 71 -7 Q53 -7 42 4 Q31 15 31 31 Q31 48 41.5 58.5 Q52 69 68 69 Q113 69 113 6 Q113 -33 91 -62 Q69 -91 24 -103 Z " />
<glyph glyph-name="quotedblleft" unicode="&#x201c;" horiz-adv-x="252" d="M115 711 L115 681 Q92 673 78.5 655 Q65 637 63 615 Q65 615 68 615 Q86 615 97 604.5 Q108 594 108 577 Q108 560 98 549.5 Q88 539 71 539 Q26 539 26 602 Q26 641 48 670 Q70 699 115 711 Z M228 711 L228 681 Q205 673 191.5 655 Q178 637 176 615 Q178 615 181 615 Q199 615 210 604.5 Q221 594 221 577 Q221 560 211 549.5 Q201 539 184 539 Q139 539 139 602 Q139 641 161 670 Q183 699 228 711 Z " />
<glyph glyph-name="quotedblright" unicode="&#x201d;" horiz-adv-x="252" d="M24 538 L24 568 Q47 576 60.5 594 Q74 612 76 634 Q74 634 71 634 Q53 634 42 645 Q31 656 31 672 Q31 689 41.5 699.5 Q52 710 68 710 Q113 710 113 647 Q113 608 91 579 Q69 550 24 538 Z M137 538 L137 568 Q160 576 173.5 594 Q187 612 189 634 Q187 634 184 634 Q166 634 155 645 Q144 656 144 672 Q144 689 154.5 699.5 Q165 710 181 710 Q226 710 226 647 Q226 608 204 579 Q182 550 137 538 Z " />
<glyph glyph-name="quotedblbase" unicode="&#x201e;" horiz-adv-x="252" d="M24 -103 L24 -73 Q47 -65 60.5 -47 Q74 -29 76 -7 Q74 -7 71 -7 Q53 -7 42 4 Q31 15 31 31 Q31 48 41.5 58.5 Q52 69 68 69 Q113 69 113 6 Q113 -33 91 -62 Q69 -91 24 -103 Z M137 -103 L137 -73 Q160 -65 173.5 -47 Q187 -29 189 -7 Q187 -7 184 -7 Q166 -7 155 4 Q144 15 144 31 Q144 48 154.5 58.5 Q165 69 181 69 Q226 69 226 6 Q226 -33 204 -62 Q182 -91 137 -103 Z " />
<glyph glyph-name="dagger" unicode="&#x2020;" horiz-adv-x="397" d="M176 -105 L179 456 L30 453 L30 496 L179 493 L176 670 L221 670 L218 493 L367 496 L367 453 L218 456 L221 -105 L176 -105 Z " />
<glyph glyph-name="daggerdbl" unicode="&#x2021;" horiz-adv-x="397" d="M30 69 L30 112 L179 109 L179 456 L30 453 L30 496 L179 493 L176 670 L221 670 L218 493 L367 496 L367 453 L218 456 L218 109 L367 112 L367 69 L218 72 L221 -105 L176 -105 L179 72 L30 69 Z " />
<glyph glyph-name="bullet" unicode="&#x2022;" horiz-adv-x="270" d="M135 162 Q100 162 79.5 184 Q59 206 59 238 Q59 270 79.5 292 Q100 314 135 314 Q169 314 190 292 Q211 270 211 238 Q211 206 190 184 Q169 162 135 162 Z " />
<glyph glyph-name="ellipsis" unicode="&#x2026;" horiz-adv-x="1000" d="M167 -6 Q147 -6 136 6 Q125 18 125 36 Q125 54 136 66 Q147 78 167 78 Q186 78 197.5 66 Q209 54 209 36 Q209 18 197.5 6 Q186 -6 167 -6 Z M500 -6 Q480 -6 469 6 Q458 18 458 36 Q458 54 469 66 Q480 78 500 78 Q519 78 530.5 66 Q542 54 542 36 Q542 18 530.5 6 Q519 -6 500 -6 Z M833 -6 Q813 -6 802 6 Q791 18 791 36 Q791 54 802 66 Q813 78 833 78 Q852 78 863.5 66 Q875 54 875 36 Q875 18 863.5 6 Q852 -6 833 -6 Z " />
<glyph glyph-name="perthousand" unicode="&#x2030;" horiz-adv-x="1271" d="M191 258 Q116 258 79.5 314.5 Q43 371 43 464 Q43 557 79.5 613.5 Q116 670 191 670 Q266 670 302.5 613.5 Q339 557 339 464 Q339 371 302.5 314.5 Q266 258 191 258 Z M191 292 Q246 292 271 337 Q296 382 296 464 Q296 546 271 591 Q246 636 191 636 Q136 636 111 591 Q86 546 86 464 Q86 382 111 337 Q136 292 191 292 Z M260 0 L606 660 L652 660 L306 0 L260 0 Z M718 -10 Q643 -10 606.5 46.5 Q570 103 570 196 Q570 289 606.5 345.5 Q643 402 718 402 Q793 402 829.5 345.5 Q866 289 866 196 Q866 103 829.5 46.5 Q793 -10 718 -10 Z M718 24 Q773 24 798 69 Q823 114 823 196 Q823 278 798 323 Q773 368 718 368 Q663 368 638 323 Q613 278 613 196 Q613 114 638 69 Q663 24 718 24 Z M1080 -10 Q1005 -10 968.5 46.5 Q932 103 932 196 Q932 289 968.5 345.5 Q1005 402 1080 402 Q1155 402 1191.5 345.5 Q1228 289 1228 196 Q1228 103 1191.5 46.5 Q1155 -10 1080 -10 Z M1080 24 Q1135 24 1160 69 Q1185 114 1185 196 Q1185 278 1160 323 Q1135 368 1080 368 Q1025 368 1000 323 Q975 278 975 196 Q975 114 1000 69 Q1025 24 1080 24 Z " />
<glyph glyph-name="guilsinglleft" unicode="&#x2039;" horiz-adv-x="336" d="M205 52 L59 245 L205 438 L253 438 L110 246 L255 52 L205 52 Z " />
<glyph glyph-name="guilsinglright" unicode="&#x203a;" horiz-adv-x="336" d="M131 438 L277 245 L131 52 L83 52 L226 244 L81 438 L131 438 Z " />
<glyph glyph-name="fraction" unicode="&#x2044;" horiz-adv-x="140" d="M-126 0 L220 660 L266 660 L-80 0 L-126 0 Z " />
<glyph glyph-name="uni2070" unicode="&#x2070;" horiz-adv-x="360" d="M180 368 Q105 368 68.5 424.5 Q32 481 32 574 Q32 667 68.5 723.5 Q105 780 180 780 Q255 780 291.5 723.5 Q328 667 328 574 Q328 481 291.5 424.5 Q255 368 180 368 Z M180 402 Q235 402 260 447 Q285 492 285 574 Q285 656 260 701 Q235 746 180 746 Q125 746 100 701 Q75 656 75 574 Q75 492 100 447 Q125 402 180 402 Z " />
<glyph glyph-name="uni2074" unicode="&#x2074;" horiz-adv-x="350" d="M22 465 L22 497 L230 770 L266 770 L266 500 L332 500 L332 465 L266 465 L266 378 L226 378 L226 465 L22 465 Z M63 500 L226 500 L226 713 L63 500 Z " />
<glyph glyph-name="uni2075" unicode="&#x2075;" horiz-adv-x="335" d="M45 546 L62 770 L293 770 L293 735 L96 735 L86 598 Q104 617 128 627 Q152 637 177 637 Q238 637 274 600 Q310 563 310 504 Q310 440 271 404 Q232 368 166 368 Q111 368 73 396.5 Q35 425 29 477 L70 477 Q77 438 103.5 419.5 Q130 401 169 401 Q215 401 241.5 426 Q268 451 268 501 Q268 550 241 577.5 Q214 605 171 605 Q141 605 115 591.5 Q89 578 77 546 L45 546 Z " />
<glyph glyph-name="uni2076" unicode="&#x2076;" horiz-adv-x="341" d="M178 368 Q108 368 70 418.5 Q32 469 32 566 Q32 660 67.5 720 Q103 780 183 780 Q231 780 265.5 753.5 Q300 727 308 677 L265 677 Q258 713 235 730.5 Q212 748 180 748 Q127 748 100.5 704.5 Q74 661 72 567 Q89 598 120 614 Q151 630 182 630 Q244 630 280.5 594.5 Q317 559 317 499 Q317 439 278.5 403.5 Q240 368 178 368 Z M177 401 Q222 401 249 425.5 Q276 450 276 498 Q276 548 250.5 573 Q225 598 180 598 Q135 598 106.5 572 Q78 546 78 501 Q78 454 106.5 427.5 Q135 401 177 401 Z " />
<glyph glyph-name="uni2077" unicode="&#x2077;" horiz-adv-x="299" d="M12 735 L12 770 L284 770 L284 735 Q214 644 173 559 Q132 474 119 378 L76 378 Q87 445 108.5 503 Q130 561 163 617.5 Q196 674 244 735 L12 735 Z " />
<glyph glyph-name="uni2078" unicode="&#x2078;" horiz-adv-x="354" d="M177 368 Q111 368 69.5 399 Q28 430 28 484 Q28 520 51 546.5 Q74 573 113 585 Q80 596 61 619.5 Q42 643 42 675 Q42 723 79 751.5 Q116 780 177 780 Q238 780 275 751.5 Q312 723 312 675 Q312 643 293 619.5 Q274 596 241 585 Q281 573 303.5 547 Q326 521 326 484 Q326 430 285 399 Q244 368 177 368 Z M177 600 Q219 600 245 619 Q271 638 271 675 Q271 712 245 731 Q219 750 177 750 Q135 750 109 731 Q83 712 83 675 Q83 638 109 619 Q135 600 177 600 Z M177 400 Q224 400 253.5 422 Q283 444 283 485 Q283 526 253.5 548 Q224 570 177 570 Q130 570 100.5 548 Q71 526 71 485 Q71 444 100.5 422 Q130 400 177 400 Z " />
<glyph glyph-name="uni2079" unicode="&#x2079;" horiz-adv-x="341" d="M164 780 Q228 780 268.5 733 Q309 686 309 586 Q309 490 273 429 Q237 368 159 368 Q111 368 76.5 395 Q42 422 35 472 L78 472 Q85 435 107.5 418 Q130 401 162 401 Q212 401 239 444 Q266 487 269 579 Q253 549 221.5 533.5 Q190 518 157 518 Q96 518 60 553.5 Q24 589 24 649 Q24 709 63 744.5 Q102 780 164 780 Z M164 748 Q119 748 92 723.5 Q65 699 65 650 Q65 600 91 575 Q117 550 161 550 Q207 550 235 576.5 Q263 603 263 644 Q263 694 235 721 Q207 748 164 748 Z " />
<glyph glyph-name="uni2080" unicode="&#x2080;" horiz-adv-x="360" d="M180 -110 Q105 -110 68.5 -53.5 Q32 3 32 96 Q32 189 68.5 245.5 Q105 302 180 302 Q255 302 291.5 245.5 Q328 189 328 96 Q328 3 291.5 -53.5 Q255 -110 180 -110 Z M180 -76 Q235 -76 260 -31 Q285 14 285 96 Q285 178 260 223 Q235 268 180 268 Q125 268 100 223 Q75 178 75 96 Q75 14 100 -31 Q125 -76 180 -76 Z " />
<glyph glyph-name="uni2081" unicode="&#x2081;" horiz-adv-x="248" d="M19 198 L19 231 Q50 238 85 254 Q120 270 145 292 L176 292 L176 -100 L136 -100 L136 240 Q110 225 78.5 213.5 Q47 202 19 198 Z " />
<glyph glyph-name="uni2082" unicode="&#x2082;" horiz-adv-x="348" d="M38 -100 L38 -89 Q38 -42 60 -10 Q82 22 127 51 L203 100 Q238 122 251.5 143.5 Q265 165 265 194 Q265 229 241.5 249 Q218 269 177 269 Q85 269 77 172 L36 172 Q39 233 78 267.5 Q117 302 179 302 Q237 302 272 273 Q307 244 307 196 Q307 158 288.5 129 Q270 100 229 75 L149 25 Q112 2 97 -18.5 Q82 -39 81 -65 L314 -65 L314 -100 L38 -100 Z " />
<glyph glyph-name="uni2083" unicode="&#x2083;" horiz-adv-x="341" d="M172 -110 Q109 -110 67.5 -78 Q26 -46 22 13 L64 13 Q69 -34 100 -55.5 Q131 -77 175 -77 Q218 -77 244.5 -56 Q271 -35 271 10 Q271 28 262.5 47.5 Q254 67 227 80 Q200 93 145 93 L134 93 L134 123 L145 123 Q196 123 220.5 134.5 Q245 146 252.5 163 Q260 180 260 195 Q260 232 236 250.5 Q212 269 173 269 Q132 269 107 248.5 Q82 228 77 191 L35 191 Q40 243 78 272.5 Q116 302 175 302 Q231 302 266.5 274 Q302 246 302 198 Q302 170 285 145 Q268 120 227 108 Q275 96 294 69 Q313 42 313 10 Q313 -46 274.5 -78 Q236 -110 172 -110 Z " />
<glyph glyph-name="uni2084" unicode="&#x2084;" horiz-adv-x="350" d="M22 -13 L22 19 L230 292 L266 292 L266 22 L332 22 L332 -13 L266 -13 L266 -100 L226 -100 L226 -13 L22 -13 Z M63 22 L226 22 L226 235 L63 22 Z " />
<glyph glyph-name="uni2085" unicode="&#x2085;" horiz-adv-x="335" d="M45 68 L62 292 L293 292 L293 257 L96 257 L86 120 Q104 139 128 149 Q152 159 177 159 Q238 159 274 122 Q310 85 310 26 Q310 -38 271 -74 Q232 -110 166 -110 Q111 -110 73 -81.5 Q35 -53 29 -1 L70 -1 Q77 -40 103.5 -58.5 Q130 -77 169 -77 Q215 -77 241.5 -52 Q268 -27 268 23 Q268 72 241 99.5 Q214 127 171 127 Q141 127 115 113.5 Q89 100 77 68 L45 68 Z " />
<glyph glyph-name="uni2086" unicode="&#x2086;" horiz-adv-x="341" d="M178 -110 Q108 -110 70 -59.5 Q32 -9 32 88 Q32 182 67.5 242 Q103 302 183 302 Q231 302 265.5 275.5 Q300 249 308 199 L265 199 Q258 235 235 252.5 Q212 270 180 270 Q127 270 100.5 226.5 Q74 183 72 89 Q89 120 120 136 Q151 152 182 152 Q244 152 280.5 116.5 Q317 81 317 21 Q317 -39 278.5 -74.5 Q240 -110 178 -110 Z M177 -77 Q222 -77 249 -52.5 Q276 -28 276 20 Q276 70 250.5 95 Q225 120 180 120 Q135 120 106.5 94 Q78 68 78 23 Q78 -24 106.5 -50.5 Q135 -77 177 -77 Z " />
<glyph glyph-name="uni2087" unicode="&#x2087;" horiz-adv-x="299" d="M12 257 L12 292 L284 292 L284 257 Q214 166 173 81 Q132 -4 119 -100 L76 -100 Q87 -33 108.5 25 Q130 83 163 139.5 Q196 196 244 257 L12 257 Z " />
<glyph glyph-name="uni2088" unicode="&#x2088;" horiz-adv-x="354" d="M177 -110 Q111 -110 69.5 -79 Q28 -48 28 6 Q28 42 51 68.5 Q74 95 113 107 Q80 118 61 141.5 Q42 165 42 197 Q42 245 79 273.5 Q116 302 177 302 Q238 302 275 273.5 Q312 245 312 197 Q312 165 293 141.5 Q274 118 241 107 Q281 95 303.5 69 Q326 43 326 6 Q326 -48 285 -79 Q244 -110 177 -110 Z M177 122 Q219 122 245 141 Q271 160 271 197 Q271 234 245 253 Q219 272 177 272 Q135 272 109 253 Q83 234 83 197 Q83 160 109 141 Q135 122 177 122 Z M177 -78 Q224 -78 253.5 -56 Q283 -34 283 7 Q283 48 253.5 70 Q224 92 177 92 Q130 92 100.5 70 Q71 48 71 7 Q71 -34 100.5 -56 Q130 -78 177 -78 Z " />
<glyph glyph-name="uni2089" unicode="&#x2089;" horiz-adv-x="341" d="M164 302 Q228 302 268.5 255 Q309 208 309 108 Q309 12 273 -49 Q237 -110 159 -110 Q111 -110 76.5 -83 Q42 -56 35 -6 L78 -6 Q85 -43 107.5 -60 Q130 -77 162 -77 Q212 -77 239 -34 Q266 9 269 101 Q253 71 221.5 55.5 Q190 40 157 40 Q96 40 60 75.5 Q24 111 24 171 Q24 231 63 266.5 Q102 302 164 302 Z M164 270 Q119 270 92 245.5 Q65 221 65 172 Q65 122 91 97 Q117 72 161 72 Q207 72 235 98.5 Q263 125 263 166 Q263 216 235 243 Q207 270 164 270 Z " />
<glyph glyph-name="Euro" unicode="&#x20ac;" horiz-adv-x="590" d="M335 -16 Q267 -16 216 17 Q165 50 133 109.5 Q101 169 90 247 L39 247 L39 281 L87 281 Q85 304 85 328 Q85 350 87 371 L39 371 L39 405 L90 405 Q101 482 133 542 Q165 602 216 636 Q267 670 335 670 Q419 670 479.5 617 Q540 564 556 473 L511 473 Q494 549 447.5 590 Q401 631 335 631 Q251 631 200.5 569.5 Q150 508 137 405 L402 405 L396 371 L133 371 Q132 350 132 328 Q132 304 134 281 L382 281 L376 247 L137 247 Q151 144 201 83.5 Q251 23 335 23 Q400 23 448 62.5 Q496 102 513 182 L556 182 Q540 88 480 36 Q420 -16 335 -16 Z " />
<glyph glyph-name="uni20B9" unicode="&#x20b9;" horiz-adv-x="590" d="M106 487 L395 487 Q389 544 344 579 Q299 614 203 614 L106 614 L106 654 L544 654 L536 614 L366 614 Q403 591 421.5 558 Q440 525 443 487 L544 487 L536 447 L443 447 Q438 401 412.5 363.5 Q387 326 337.5 304 Q288 282 213 282 L167 282 L474 0 L415 0 L106 282 L106 322 L203 322 Q298 322 343 356.5 Q388 391 395 447 L106 447 L106 487 Z " />
<glyph glyph-name="uni20BA" unicode="&#x20ba;" horiz-adv-x="590" d="M39 267 L125 299 L125 394 L39 362 L39 401 L125 433 L125 654 L170 654 L170 449 L373 524 L373 485 L170 410 L170 315 L373 390 L373 351 L170 276 L170 40 L273 40 Q459 40 471 282 L518 282 Q510 146 447.5 73 Q385 0 273 0 L125 0 L125 260 L39 228 L39 267 Z " />
<glyph glyph-name="trademark" unicode="&#x2122;" horiz-adv-x="881" d="M161 250 L161 636 L12 636 L12 670 L350 670 L350 636 L201 636 L201 250 L161 250 Z M385 250 L438 670 L485 670 L612 342 L737 670 L785 670 L839 250 L801 250 L754 626 L626 293 L597 293 L468 625 L422 250 L385 250 Z " />
<glyph glyph-name="minus" unicode="&#x2212;" horiz-adv-x="590" d="M87 310 L87 350 L503 350 L503 310 L87 310 Z " />
<glyph glyph-name="uniFB00" unicode="&#xfb00;" horiz-adv-x="643" d="M18 496 L99 496 L99 527 Q99 621 138.5 667 Q178 713 252 713 Q290 713 330 695 L319 661 Q285 675 251 675 Q201 675 172.5 641.5 Q144 608 144 531 L144 496 L414 496 L414 527 Q414 621 453.5 667 Q493 713 567 713 Q604 713 645 695 L634 661 Q600 675 566 675 Q516 675 487.5 641.5 Q459 608 459 531 L459 496 L624 496 L624 460 L459 460 L459 0 L414 0 L414 460 L144 460 L144 0 L99 0 L99 460 L18 460 L18 496 Z " />
<glyph glyph-name="uniFB01" unicode="&#xfb01;" horiz-adv-x="540" d="M18 496 L99 496 L99 527 Q99 621 138.5 667 Q178 713 252 713 Q290 713 330 695 L319 661 Q285 675 251 675 Q201 675 172.5 641.5 Q144 608 144 531 L144 496 L309 496 L309 460 L144 460 L144 0 L99 0 L99 460 L18 460 L18 496 Z M399 631 Q399 648 409.5 658 Q420 668 436 668 Q452 668 462.5 658 Q473 648 473 631 Q473 614 462.5 604 Q452 594 436 594 Q420 594 409.5 604 Q399 614 399 631 Z M414 496 L459 496 L459 0 L414 0 L414 496 Z " />
<glyph glyph-name="uniFB02" unicode="&#xfb02;" horiz-adv-x="535" d="M18 496 L99 496 L99 527 Q99 621 138.5 667 Q178 713 252 713 Q290 713 330 695 L319 661 Q285 675 251 675 Q201 675 172.5 641.5 Q144 608 144 531 L144 496 L309 496 L309 460 L144 460 L144 0 L99 0 L99 460 L18 460 L18 496 Z M409 700 L454 700 L454 0 L409 0 L409 700 Z " />
<glyph glyph-name="uniFB03" unicode="&#xfb03;" horiz-adv-x="855" d="M18 496 L99 496 L99 527 Q99 621 138.5 667 Q178 713 252 713 Q290 713 330 695 L319 661 Q285 675 251 675 Q201 675 172.5 641.5 Q144 608 144 531 L144 496 L414 496 L414 527 Q414 621 453.5 667 Q493 713 567 713 Q604 713 645 695 L634 661 Q600 675 566 675 Q516 675 487.5 641.5 Q459 608 459 531 L459 496 L624 496 L624 460 L459 460 L459 0 L414 0 L414 460 L144 460 L144 0 L99 0 L99 460 L18 460 L18 496 Z M714 631 Q714 648 724.5 658 Q735 668 751 668 Q767 668 777.5 658 Q788 648 788 631 Q788 614 777.5 604 Q767 594 751 594 Q735 594 724.5 604 Q714 614 714 631 Z M729 496 L774 496 L774 0 L729 0 L729 496 Z " />
<glyph glyph-name="uniFB04" unicode="&#xfb04;" horiz-adv-x="850" d="M18 496 L99 496 L99 527 Q99 621 138.5 667 Q178 713 252 713 Q290 713 330 695 L319 661 Q285 675 251 675 Q201 675 172.5 641.5 Q144 608 144 531 L144 496 L414 496 L414 527 Q414 621 453.5 667 Q493 713 567 713 Q604 713 645 695 L634 661 Q600 675 566 675 Q516 675 487.5 641.5 Q459 608 459 531 L459 496 L624 496 L624 460 L459 460 L459 0 L414 0 L414 460 L144 460 L144 0 L99 0 L99 460 L18 460 L18 496 Z M724 700 L769 700 L769 0 L724 0 L724 700 Z " />
</font>
</svg>
