<?xml version="1.0" encoding="UTF-8"?>
<svg xmlns="http://www.w3.org/2000/svg" xmlns:xlink="http://www.w3.org/1999/xlink" version="1.2" >
<font id="Speedee Bold">
<font-face  font-family="Speedee" units-per-em="1000" ascent="967" descent="-359" font-style="normal" font-weight="700" font-stretch="normal" cap-height="670" x-height="504" underline-position="-165" underline-thickness="40" />
<missing-glyph  horiz-adv-x="500" d="M454 0 L46 0 L46 670 L454 670 L454 0 Z M393 54 L393 616 L106 616 L106 54 L393 54 Z " />
<glyph glyph-name="uni0000" d="" />
<glyph glyph-name="uni000D" unicode="&#xd;" horiz-adv-x="200" d="" />
<glyph glyph-name="space" unicode="&#x20;" horiz-adv-x="200" d="" />
<glyph glyph-name="exclam" unicode="&#x21;" horiz-adv-x="275" d="M48 670 L227 670 L197 212 L79 212 L48 670 Z M137 170 Q176 170 202 145 Q228 120 228 80 Q228 43 201 16.5 Q174 -10 137 -10 Q99 -10 73 16.5 Q47 43 47 80 Q47 120 73 145 Q99 170 137 170 Z " />
<glyph glyph-name="quotedbl" unicode="&#x22;" horiz-adv-x="469" d="M174 440 L95 440 Q76 501 68 547.5 Q60 594 60 645 L60 700 L209 700 L209 645 Q209 594 201.5 547.5 Q194 501 174 440 Z M374 440 L295 440 Q276 501 268 547.5 Q260 594 260 645 L260 700 L409 700 L409 645 Q409 594 401.5 547.5 Q394 501 374 440 Z " />
<glyph glyph-name="numbersign" unicode="&#x23;" horiz-adv-x="590" d="M49 0 L76 155 L10 155 L10 268 L95 268 L118 402 L39 402 L39 515 L138 515 L162 654 L296 654 L272 515 L383 515 L407 654 L541 654 L517 515 L583 515 L583 402 L497 402 L474 268 L554 268 L554 155 L455 155 L428 0 L294 0 L321 155 L210 155 L183 0 L49 0 Z M229 268 L340 268 L363 402 L252 402 L229 268 Z " />
<glyph glyph-name="dollar" unicode="&#x24;" horiz-adv-x="590" d="M263 -110 L263 -3 Q157 6 96 60 Q35 114 25 202 L199 202 Q205 160 224 137.5 Q243 115 273 108 L273 262 L220 274 Q134 294 88 343 Q42 392 42 461 Q42 524 70.5 567.5 Q99 611 149 635 Q199 659 263 664 L263 770 L332 770 L332 663 Q428 655 483 600 Q538 545 551 450 L380 450 Q375 489 361 514.5 Q347 540 322 550 L322 395 L370 383 Q444 365 486 339.5 Q528 314 545 279 Q562 244 562 200 Q562 110 501.5 57 Q441 4 332 -3 L332 -110 L263 -110 Z M208 480 Q208 453 223.5 435 Q239 417 273 407 L273 555 Q241 551 224.5 531 Q208 511 208 480 Z M393 184 Q393 207 376.5 224 Q360 241 322 251 L322 106 Q359 110 376 131.5 Q393 153 393 184 Z " />
<glyph glyph-name="percent" unicode="&#x25;" horiz-adv-x="908" d="M226 0 L544 660 L682 660 L364 0 L226 0 Z M190 258 Q106 258 65 313.5 Q24 369 24 464 Q24 559 65 614.5 Q106 670 190 670 Q274 670 315 614.5 Q356 559 356 464 Q356 369 315 313.5 Q274 258 190 258 Z M190 342 Q213 342 222 371 Q231 400 231 464 Q231 528 222 557 Q213 586 190 586 Q167 586 158 557 Q149 528 149 464 Q149 400 158 371 Q167 342 190 342 Z M716 -10 Q632 -10 591 45.5 Q550 101 550 196 Q550 291 591 346.5 Q632 402 716 402 Q800 402 841 346.5 Q882 291 882 196 Q882 101 841 45.5 Q800 -10 716 -10 Z M716 74 Q739 74 748 103 Q757 132 757 196 Q757 260 748 289 Q739 318 716 318 Q693 318 684 289 Q675 260 675 196 Q675 132 684 103 Q693 74 716 74 Z " />
<glyph glyph-name="ampersand" unicode="&#x26;" horiz-adv-x="720" d="M499 344 L646 344 Q640 217 572 125 Q591 119 611 119 Q624 119 635 120 Q646 121 659 125 L677 12 Q656 3 635 -0.5 Q614 -4 589 -4 Q554 -4 523.5 5.5 Q493 15 465 32 Q428 12 383 1 Q338 -10 287 -10 Q214 -10 158 13.5 Q102 37 70 79.5 Q38 122 38 181 Q38 239 69 284.5 Q100 330 164 360 Q131 404 119.5 437.5 Q108 471 108 503 Q108 580 163 625 Q218 670 306 670 Q360 670 402.5 651 Q445 632 469.5 598 Q494 564 494 519 Q494 456 459.5 417 Q425 378 351 349 L465 208 L467 206 Q493 263 499 344 Z M255 517 Q255 494 262.5 473.5 Q270 453 292 424 Q325 445 336 466 Q347 487 347 516 Q347 541 334.5 555 Q322 569 301 569 Q282 569 268.5 555.5 Q255 542 255 517 Z M216 190 Q216 150 244.5 124.5 Q273 99 315 99 Q347 99 375 111 Q366 121 356 132 L240 268 Q216 238 216 190 Z " />
<glyph glyph-name="quotesingle" unicode="&#x27;" horiz-adv-x="269" d="M174 440 L95 440 Q76 501 68 547.5 Q60 594 60 645 L60 700 L209 700 L209 645 Q209 594 201.5 547.5 Q194 501 174 440 Z " />
<glyph glyph-name="parenleft" unicode="&#x28;" horiz-adv-x="353" d="M328 -100 L210 -100 Q60 89 60 310 Q60 421 97.5 524.5 Q135 628 210 720 L328 720 Q272 626 247.5 519.5 Q223 413 223 310 Q223 207 247.5 102 Q272 -3 328 -100 Z " />
<glyph glyph-name="parenright" unicode="&#x29;" horiz-adv-x="353" d="M143 -100 L25 -100 Q81 -6 105.5 100.5 Q130 207 130 310 Q130 413 105.5 518 Q81 623 25 720 L143 720 Q293 531 293 310 Q293 199 255.5 95.5 Q218 -8 143 -100 Z " />
<glyph glyph-name="asterisk" unicode="&#x2a;" horiz-adv-x="364" d="M125 696 L239 696 Q229 633 211 570 Q267 606 323 635 L358 526 Q325 521 293.5 517.5 Q262 514 230 513 Q255 493 279 471.5 Q303 450 326 427 L234 360 Q219 389 206.5 418.5 Q194 448 182 478 Q170 448 157 418.5 Q144 389 130 360 L38 427 Q61 450 84.5 471.5 Q108 493 134 513 Q101 514 69.5 517.5 Q38 521 6 526 L41 635 Q98 605 152 570 Q144 602 137 632.5 Q130 663 125 696 Z " />
<glyph glyph-name="plus" unicode="&#x2b;" horiz-adv-x="590" d="M77 388 L236 388 L236 552 L354 552 L354 388 L513 388 L513 272 L354 272 L354 107 L236 107 L236 272 L77 272 L77 388 Z " />
<glyph glyph-name="comma" unicode="&#x2c;" horiz-adv-x="220" d="M17 -147 L17 -81 Q53 -73 75.5 -54.5 Q98 -36 107 -10 Q69 -9 44 15 Q19 39 19 79 Q19 120 45.5 145 Q72 170 114 170 Q155 170 182.5 141 Q210 112 210 52 Q210 -28 159 -81.5 Q108 -135 17 -147 Z " />
<glyph glyph-name="hyphen" unicode="&#x2d;" horiz-adv-x="374" d="M25 182 L25 312 L349 312 L349 182 L25 182 Z " />
<glyph glyph-name="period" unicode="&#x2e;" horiz-adv-x="220" d="M109 -10 Q71 -10 45 16.5 Q19 43 19 80 Q19 120 45 145 Q71 170 109 170 Q148 170 174 145 Q200 120 200 80 Q200 43 173 16.5 Q146 -10 109 -10 Z " />
<glyph glyph-name="slash" unicode="&#x2f;" horiz-adv-x="366" d="M1 -104 L219 685 L364 685 L146 -104 L1 -104 Z " />
<glyph glyph-name="zero" unicode="0" horiz-adv-x="586" d="M293 -16 Q204 -16 145.5 26 Q87 68 58.5 145 Q30 222 30 327 Q30 432 58.5 509 Q87 586 145.5 628 Q204 670 293 670 Q382 670 440.5 628 Q499 586 527.5 509 Q556 432 556 327 Q556 222 527.5 145 Q499 68 440.5 26 Q382 -16 293 -16 Z M293 106 Q337 106 356.5 160 Q376 214 376 327 Q376 440 356.5 494 Q337 548 293 548 Q249 548 229.5 494 Q210 440 210 327 Q210 214 229.5 160 Q249 106 293 106 Z " />
<glyph glyph-name="one" unicode="1" horiz-adv-x="432" d="M22 425 L22 563 Q77 573 127.5 594 Q178 615 219 654 L350 654 L350 0 L176 0 L176 464 Q138 450 99 440 Q60 430 22 425 Z " />
<glyph glyph-name="two" unicode="2" horiz-adv-x="564" d="M35 0 L35 22 Q35 106 72.5 167.5 Q110 229 192 288 L273 346 Q316 377 334 403.5 Q352 430 352 465 Q352 506 334 528 Q316 550 282 550 Q244 550 224 520.5 Q204 491 199 429 L33 429 Q39 543 109 606.5 Q179 670 293 670 Q364 670 417 645.5 Q470 621 499.5 576.5 Q529 532 529 472 Q529 410 499.5 361 Q470 312 405 266 L313 201 Q281 178 263.5 162 Q246 146 241 129 L532 129 L532 0 L35 0 Z " />
<glyph glyph-name="three" unicode="3" horiz-adv-x="570" d="M290 -16 Q161 -16 95 45.5 Q29 107 20 208 L184 208 Q188 152 214.5 127 Q241 102 283 102 Q325 102 348.5 125.5 Q372 149 372 195 Q372 238 343.5 266 Q315 294 235 294 L212 294 L212 399 L234 399 Q297 399 322.5 420 Q348 441 348 476 Q348 510 329.5 531 Q311 552 277 552 Q211 552 202 482 L39 482 Q50 569 111.5 619.5 Q173 670 282 670 Q354 670 408 648 Q462 626 492.5 585.5 Q523 545 523 487 Q523 445 503 407 Q483 369 431 345 Q477 327 502.5 301 Q528 275 537.5 245 Q547 215 547 186 Q547 122 515 77 Q483 32 425.5 8 Q368 -16 290 -16 Z " />
<glyph glyph-name="four" unicode="4" horiz-adv-x="572" d="M21 125 L21 239 L329 653 L476 653 L476 250 L554 250 L554 125 L476 125 L476 0 L316 0 L316 125 L21 125 Z M169 250 L316 250 L316 450 L169 250 Z " />
<glyph glyph-name="five" unicode="5" horiz-adv-x="567" d="M54 275 L80 654 L501 654 L501 525 L214 525 L205 400 Q229 418 258.5 428.5 Q288 439 324 439 Q390 439 439 411.5 Q488 384 515 335 Q542 286 542 221 Q542 148 509 94.5 Q476 41 416 12.5 Q356 -16 275 -16 Q169 -16 103.5 35.5 Q38 87 28 177 L195 177 Q202 140 221.5 122 Q241 104 278 104 Q317 104 339 132.5 Q361 161 361 214 Q361 272 337 300.5 Q313 329 277 329 Q219 329 190 275 L54 275 Z " />
<glyph glyph-name="six" unicode="6" horiz-adv-x="573" d="M298 -16 Q169 -16 99.5 72.5 Q30 161 30 335 Q30 434 59 509.5 Q88 585 149 627.5 Q210 670 307 670 Q396 670 458.5 626 Q521 582 536 497 L361 497 Q356 526 339 542 Q322 558 297 558 Q252 558 228.5 514.5 Q205 471 201 377 Q253 433 341 433 Q402 433 449 406.5 Q496 380 523 331.5 Q550 283 550 217 Q550 146 518 93.5 Q486 41 429 12.5 Q372 -16 298 -16 Z M291 97 Q332 97 355 126.5 Q378 156 378 209 Q378 262 355 291.5 Q332 321 291 321 Q250 321 227 291.5 Q204 262 204 209 Q204 156 227 126.5 Q250 97 291 97 Z " />
<glyph glyph-name="seven" unicode="7" horiz-adv-x="512" d="M13 525 L13 654 L496 654 L496 525 Q389 390 331.5 265 Q274 140 263 0 L92 0 Q104 101 134.5 188.5 Q165 276 216 358 Q267 440 341 525 L13 525 Z " />
<glyph glyph-name="eight" unicode="8" horiz-adv-x="588" d="M294 -16 Q214 -16 152.5 8.5 Q91 33 57 78 Q23 123 23 185 Q23 244 58 286.5 Q93 329 154 350 Q103 371 74 409 Q45 447 45 498 Q45 551 76 589.5 Q107 628 163 649 Q219 670 294 670 Q369 670 425 649 Q481 628 512 589.5 Q543 551 543 498 Q543 447 514 409 Q485 371 434 350 Q495 329 530 286.5 Q565 244 565 185 Q565 123 531 78 Q497 33 435.5 8.5 Q374 -16 294 -16 Z M294 400 Q328 400 348 421.5 Q368 443 368 484 Q368 525 348 546.5 Q328 568 294 568 Q260 568 240 546.5 Q220 525 220 484 Q220 443 240 421.5 Q260 400 294 400 Z M294 89 Q332 89 357.5 115.5 Q383 142 383 194 Q383 246 357.5 272.5 Q332 299 294 299 Q256 299 230.5 272.5 Q205 246 205 194 Q205 142 230.5 115.5 Q256 89 294 89 Z " />
<glyph glyph-name="nine" unicode="9" horiz-adv-x="573" d="M282 670 Q355 670 414 635.5 Q473 601 508 527.5 Q543 454 543 338 Q543 233 513.5 153.5 Q484 74 423 29 Q362 -16 266 -16 Q177 -16 114.5 28 Q52 72 37 157 L212 157 Q217 128 234 112 Q251 96 276 96 Q320 96 343.5 138.5 Q367 181 371 275 Q321 221 238 221 Q174 221 126 247.5 Q78 274 50.5 322 Q23 370 23 435 Q23 507 55.5 559.5 Q88 612 146 641 Q204 670 282 670 Z M285 557 Q243 557 220.5 527.5 Q198 498 198 445 Q198 392 220.5 362.5 Q243 333 285 333 Q324 333 346.5 362.5 Q369 392 369 445 Q369 498 346.5 527.5 Q324 557 285 557 Z " />
<glyph glyph-name="colon" unicode="&#x3a;" horiz-adv-x="220" d="M109 -10 Q71 -10 45 16.5 Q19 43 19 80 Q19 120 45 145 Q71 170 109 170 Q148 170 174 145 Q200 120 200 80 Q200 43 173 16.5 Q146 -10 109 -10 Z M109 324 Q71 324 45 350.5 Q19 377 19 414 Q19 454 45 479 Q71 504 109 504 Q148 504 174 479 Q200 454 200 414 Q200 377 173 350.5 Q146 324 109 324 Z " />
<glyph glyph-name="semicolon" unicode="&#x3b;" horiz-adv-x="220" d="M17 -147 L17 -81 Q53 -73 75.5 -54.5 Q98 -36 107 -10 Q69 -9 44 15 Q19 39 19 79 Q19 120 45.5 145 Q72 170 114 170 Q155 170 182.5 141 Q210 112 210 52 Q210 -28 159 -81.5 Q108 -135 17 -147 Z M109 324 Q71 324 45 350.5 Q19 377 19 414 Q19 454 45 479 Q71 504 109 504 Q148 504 174 479 Q200 454 200 414 Q200 377 173 350.5 Q146 324 109 324 Z " />
<glyph glyph-name="less" unicode="&#x3c;" horiz-adv-x="590" d="M510 90 L74 272 L74 388 L510 570 L510 446 L206 330 L510 213 L510 90 Z " />
<glyph glyph-name="equal" unicode="&#x3d;" horiz-adv-x="590" d="M77 368 L77 484 L513 484 L513 368 L77 368 Z M77 156 L77 272 L513 272 L513 156 L77 156 Z " />
<glyph glyph-name="greater" unicode="&#x3e;" horiz-adv-x="590" d="M80 90 L80 214 L384 330 L80 447 L80 570 L516 388 L516 272 L80 90 Z " />
<glyph glyph-name="question" unicode="&#x3f;" horiz-adv-x="475" d="M157 477 L-7 477 Q-2 573 60.5 629.5 Q123 686 234 686 Q304 686 358 663.5 Q412 641 442 599.5 Q472 558 472 501 Q472 442 445 405.5 Q418 369 371 335 L326 302 Q301 284 293.5 265 Q286 246 286 222 L286 212 L133 212 L133 242 Q133 287 150 316.5 Q167 346 210 380 L248 410 Q276 432 285.5 450 Q295 468 295 498 Q295 526 278.5 546 Q262 566 231 566 Q199 566 179.5 544.5 Q160 523 157 477 Z M209 170 Q248 170 274 145 Q300 120 300 80 Q300 43 273 16.5 Q246 -10 209 -10 Q171 -10 145 16.5 Q119 43 119 80 Q119 120 145 145 Q171 170 209 170 Z " />
<glyph glyph-name="at" unicode="&#x40;" horiz-adv-x="955" d="M477 -184 Q342 -184 241.5 -130 Q141 -76 85.5 24 Q30 124 30 261 Q30 358 62 439.5 Q94 521 154 581.5 Q214 642 296.5 675 Q379 708 480 708 Q590 708 674.5 677 Q759 646 817 591 Q875 536 905 462.5 Q935 389 935 304 Q935 168 871.5 94.5 Q808 21 705 21 Q678 21 650.5 29 Q623 37 601 57 Q579 77 569 114 Q550 79 510.5 58 Q471 37 418 37 Q362 37 322 65 Q282 93 260 141.5 Q238 190 238 252 Q238 315 261 363.5 Q284 412 325 439.5 Q366 467 421 467 Q461 467 497 448 Q533 429 555 393 L564 464 L699 464 L699 176 Q699 136 711.5 120.5 Q724 105 746 105 Q767 105 789.5 123.5 Q812 142 827 185 Q842 228 842 304 Q842 391 801 464.5 Q760 538 679.5 582 Q599 626 480 626 Q402 626 337 598 Q272 570 224.5 520.5 Q177 471 151 404.5 Q125 338 125 261 Q125 177 153 110 Q181 43 230 -4.5 Q279 -52 343 -77 Q407 -102 479 -102 Q546 -102 599 -90.5 Q652 -79 713 -49 L733 -127 Q672 -157 611 -170.5 Q550 -184 477 -184 Z M466 147 Q500 147 522 172.5 Q544 198 544 243 L544 261 Q544 305 522 330.5 Q500 356 466 356 Q432 356 414.5 326 Q397 296 397 252 Q397 208 414.5 177.5 Q432 147 466 147 Z " />
<glyph glyph-name="A" unicode="A" horiz-adv-x="666" d="M480 0 L441 124 L219 124 L180 0 L7 0 L247 670 L420 670 L659 0 L480 0 Z M258 251 L401 251 L330 480 L258 251 Z " />
<glyph glyph-name="B" unicode="B" horiz-adv-x="648" d="M74 0 L74 670 L341 670 Q426 670 479 647 Q532 624 557 585 Q582 546 582 498 Q582 457 560 419 Q538 381 477 357 Q548 336 582 292.5 Q616 249 616 194 Q616 107 551.5 53.5 Q487 0 362 0 L74 0 Z M317 554 L242 554 L242 397 L317 397 Q354 397 373 409 Q392 421 399 439 Q406 457 406 476 Q406 554 317 554 Z M321 291 L242 291 L242 116 L321 116 Q383 116 408.5 140 Q434 164 434 204 Q434 242 409.5 266.5 Q385 291 321 291 Z " />
<glyph glyph-name="C" unicode="C" horiz-adv-x="692" d="M360 -16 Q255 -16 182.5 28.5 Q110 73 73 152 Q36 231 36 335 Q36 438 73 517 Q110 596 182.5 641 Q255 686 360 686 Q488 686 566.5 616 Q645 546 666 427 L479 427 Q468 488 437 522.5 Q406 557 360 557 Q293 557 257.5 498 Q222 439 222 335 Q222 231 257.5 172 Q293 113 360 113 Q405 113 435.5 145.5 Q466 178 477 237 L664 237 Q652 161 612.5 104 Q573 47 509 15.5 Q445 -16 360 -16 Z " />
<glyph glyph-name="D" unicode="D" horiz-adv-x="712" d="M74 0 L74 670 L309 670 Q428 670 510 626.5 Q592 583 634 509.5 Q676 436 676 345 Q676 243 634 165.5 Q592 88 510 44 Q428 0 309 0 L74 0 Z M309 546 L242 546 L242 125 L309 125 Q402 125 446 180 Q490 235 490 335 Q490 436 446 491 Q402 546 309 546 Z " />
<glyph glyph-name="E" unicode="E" horiz-adv-x="577" d="M74 0 L74 670 L528 670 L528 539 L252 539 L252 400 L497 400 L497 275 L252 275 L252 131 L532 131 L532 0 L74 0 Z " />
<glyph glyph-name="F" unicode="F" horiz-adv-x="563" d="M74 0 L74 670 L528 670 L528 539 L252 539 L252 379 L487 379 L487 252 L252 252 L252 0 L74 0 Z " />
<glyph glyph-name="G" unicode="G" horiz-adv-x="718" d="M36 335 Q36 438 75 517 Q114 596 189 641 Q264 686 373 686 Q492 686 568.5 624 Q645 562 671 450 L484 450 Q457 560 370 560 Q295 560 257 499.5 Q219 439 219 335 Q219 231 257 170.5 Q295 110 370 110 Q423 110 458.5 138.5 Q494 167 506 227 L383 227 L383 352 L681 352 L681 310 Q681 245 662 186.5 Q643 128 604.5 82.5 Q566 37 506.5 10.5 Q447 -16 367 -16 Q262 -16 188 28.5 Q114 73 75 152 Q36 231 36 335 Z " />
<glyph glyph-name="H" unicode="H" horiz-adv-x="728" d="M74 0 L74 670 L252 670 L252 405 L476 405 L476 670 L654 670 L654 0 L476 0 L476 274 L252 274 L252 0 L74 0 Z " />
<glyph glyph-name="I" unicode="I" horiz-adv-x="326" d="M74 0 L74 670 L252 670 L252 0 L74 0 Z " />
<glyph glyph-name="J" unicode="J" horiz-adv-x="599" d="M272 -16 Q156 -16 86.5 54.5 Q17 125 10 248 L187 248 Q189 186 209.5 149.5 Q230 113 272 113 Q317 113 338 147 Q359 181 359 242 L359 670 L537 670 L537 264 Q537 126 464 55 Q391 -16 272 -16 Z " />
<glyph glyph-name="K" unicode="K" horiz-adv-x="671" d="M74 0 L74 670 L252 670 L252 384 L448 670 L653 670 L396 339 Q463 310 520 250 Q566 201 602 137 Q638 73 661 0 L458 0 Q447 45 427.5 89.5 Q408 134 382 172 Q354 213 320.5 241 Q287 269 252 274 L252 0 L74 0 Z " />
<glyph glyph-name="L" unicode="L" horiz-adv-x="542" d="M74 0 L74 670 L252 670 L252 131 L512 131 L512 0 L74 0 Z " />
<glyph glyph-name="M" unicode="M" horiz-adv-x="851" d="M35 0 L110 670 L285 670 L425 249 L566 670 L741 670 L816 0 L637 0 L598 409 L479 49 L368 49 L248 413 L208 0 L35 0 Z " />
<glyph glyph-name="N" unicode="N" horiz-adv-x="725" d="M74 0 L74 670 L241 670 L478 262 L478 670 L651 670 L651 0 L487 0 L247 415 L247 0 L74 0 Z " />
<glyph glyph-name="O" unicode="O" horiz-adv-x="735" d="M367 -16 Q261 -16 187 28.5 Q113 73 74.5 152.5 Q36 232 36 335 Q36 437 74.5 516.5 Q113 596 187 641 Q261 686 367 686 Q474 686 548 641 Q622 596 660.5 516.5 Q699 437 699 335 Q699 232 660.5 153 Q622 74 548 29 Q474 -16 367 -16 Z M367 113 Q438 113 475.5 173 Q513 233 513 335 Q513 437 475.5 497 Q438 557 367 557 Q296 557 259 497 Q222 437 222 335 Q222 233 259 173 Q296 113 367 113 Z " />
<glyph glyph-name="P" unicode="P" horiz-adv-x="611" d="M314 234 L252 234 L252 0 L74 0 L74 670 L334 670 Q463 670 532 612 Q601 554 601 459 Q601 356 530.5 295 Q460 234 314 234 Z M308 554 L252 554 L252 350 L308 350 Q421 350 421 452 Q421 554 308 554 Z " />
<glyph glyph-name="Q" unicode="Q" horiz-adv-x="735" d="M367 -16 Q261 -16 187 28.5 Q113 73 74.5 152.5 Q36 232 36 335 Q36 437 74.5 516.5 Q113 596 187 641 Q261 686 367 686 Q474 686 548 641 Q622 596 660.5 516.5 Q699 437 699 335 Q699 222 652.5 137.5 Q606 53 518 14 Q547 6 585.5 3 Q624 0 673 0 L673 -154 Q552 -147 485 -114.5 Q418 -82 380 -16 Q373 -16 367 -16 Z M367 113 Q438 113 475.5 173 Q513 233 513 335 Q513 437 475.5 497 Q438 557 367 557 Q296 557 259 497 Q222 437 222 335 Q222 233 259 173 Q296 113 367 113 Z " />
<glyph glyph-name="R" unicode="R" horiz-adv-x="666" d="M74 0 L74 670 L344 670 Q472 670 540.5 615.5 Q609 561 609 478 Q609 427 585.5 390 Q562 353 523.5 330.5 Q485 308 440 299 Q520 265 569 186 Q618 107 641 0 L455 0 Q433 117 380 187 Q327 257 252 261 L252 0 L74 0 Z M308 554 L252 554 L252 370 L308 370 Q367 370 398 394 Q429 418 429 462 Q429 506 398 530 Q367 554 308 554 Z " />
<glyph glyph-name="S" unicode="S" horiz-adv-x="621" d="M317 -16 Q190 -16 116.5 40.5 Q43 97 31 203 L206 203 Q214 145 246 122.5 Q278 100 319 100 Q366 100 388 123 Q410 146 410 171 Q410 202 393.5 224 Q377 246 335 257 L224 286 Q138 308 95 354.5 Q52 401 52 486 Q52 551 86.5 595.5 Q121 640 179 663 Q237 686 309 686 Q428 686 494.5 630 Q561 574 575 471 L403 471 Q397 517 372 543.5 Q347 570 304 570 Q267 570 246 550 Q225 530 225 499 Q225 440 292 423 L397 396 Q472 377 513 346.5 Q554 316 570 277 Q586 238 586 191 Q586 94 515.5 39 Q445 -16 317 -16 Z " />
<glyph glyph-name="T" unicode="T" horiz-adv-x="596" d="M209 0 L209 539 L13 539 L13 670 L583 670 L583 539 L387 539 L387 0 L209 0 Z " />
<glyph glyph-name="U" unicode="U" horiz-adv-x="704" d="M351 -16 Q212 -16 137 62 Q62 140 62 274 L62 670 L240 670 L240 259 Q240 194 268.5 153.5 Q297 113 351 113 Q406 113 435 153.5 Q464 194 464 259 L464 670 L642 670 L642 274 Q642 140 566 62 Q490 -16 351 -16 Z " />
<glyph glyph-name="V" unicode="V" horiz-adv-x="652" d="M187 670 L329 193 L471 670 L644 670 L410 0 L241 0 L8 670 L187 670 Z " />
<glyph glyph-name="W" unicode="W" horiz-adv-x="913" d="M166 0 L13 670 L192 670 L284 231 L399 670 L524 670 L638 231 L731 670 L900 670 L747 0 L566 0 L458 430 L347 0 L166 0 Z " />
<glyph glyph-name="X" unicode="X" horiz-adv-x="654" d="M204 670 L327 471 L452 670 L639 670 L419 344 L649 0 L460 0 L326 219 L192 0 L5 0 L235 343 L15 670 L204 670 Z " />
<glyph glyph-name="Y" unicode="Y" horiz-adv-x="634" d="M188 670 L320 396 L455 670 L633 670 L406 270 L406 0 L228 0 L228 268 L1 670 L188 670 Z " />
<glyph glyph-name="Z" unicode="Z" horiz-adv-x="606" d="M40 0 L40 99 L346 541 L47 541 L47 670 L567 670 L567 571 L260 129 L574 129 L574 0 L40 0 Z " />
<glyph glyph-name="bracketleft" unicode="&#x5b;" horiz-adv-x="355" d="M70 -100 L70 720 L338 720 L338 610 L226 610 L226 10 L338 10 L338 -100 L70 -100 Z " />
<glyph glyph-name="backslash" unicode="&#x5c;" horiz-adv-x="366" d="M147 685 L365 -104 L220 -104 L2 685 L147 685 Z " />
<glyph glyph-name="bracketright" unicode="&#x5d;" horiz-adv-x="355" d="M285 720 L285 -100 L17 -100 L17 10 L129 10 L129 610 L17 610 L17 720 L285 720 Z " />
<glyph glyph-name="asciicircum" unicode="&#x5e;" horiz-adv-x="590" d="M71 322 L234 660 L356 660 L519 322 L396 322 L293 554 L189 322 L71 322 Z " />
<glyph glyph-name="underscore" unicode="&#x5f;" horiz-adv-x="500" d="M0 -125 L0 -85 L500 -85 L500 -125 L0 -125 Z " />
<glyph glyph-name="grave" unicode="&#x60;" horiz-adv-x="500" d="M213 781 L363 625 L304 556 L125 676 L213 781 Z " />
<glyph glyph-name="a" unicode="a" horiz-adv-x="554" d="M184 -13 Q114 -13 69.5 24 Q25 61 25 129 Q25 183 53.5 218 Q82 253 128.5 273 Q175 293 229.5 301.5 Q284 310 335 311 L335 322 Q335 365 318.5 388.5 Q302 412 271 412 Q245 412 227 395.5 Q209 379 204 348 L44 348 Q57 428 118 472.5 Q179 517 277 517 Q391 517 445.5 460.5 Q500 404 500 291 L500 0 L348 0 L344 66 Q318 29 274.5 8 Q231 -13 184 -13 Z M251 92 Q286 92 310.5 119.5 Q335 147 335 199 L335 238 Q260 236 227.5 211.5 Q195 187 195 151 Q195 121 210.5 106.5 Q226 92 251 92 Z " />
<glyph glyph-name="b" unicode="b" horiz-adv-x="599" d="M364 -13 Q318 -13 277.5 11.5 Q237 36 218 84 L212 0 L60 0 L60 700 L230 700 L230 444 Q279 517 370 517 Q432 517 477 482.5 Q522 448 546.5 388 Q571 328 571 252 Q571 174 545 114 Q519 54 472.5 20.5 Q426 -13 364 -13 Z M312 105 Q353 105 374 146.5 Q395 188 395 252 Q395 316 374 358 Q353 400 312 400 Q274 400 251 363.5 Q228 327 228 261 L228 243 Q228 178 251 141.5 Q274 105 312 105 Z " />
<glyph glyph-name="c" unicode="c" horiz-adv-x="543" d="M284 -13 Q212 -13 154 17 Q96 47 62 106.5 Q28 166 28 252 Q28 335 62 394.5 Q96 454 154 485.5 Q212 517 284 517 Q342 517 392.5 495.5 Q443 474 476.5 431 Q510 388 518 323 L350 323 Q342 368 325 387.5 Q308 407 284 407 Q252 407 228 372 Q204 337 204 252 Q204 168 228 132.5 Q252 97 284 97 Q310 97 327.5 117 Q345 137 353 188 L520 188 Q509 118 474 73.5 Q439 29 389.5 8 Q340 -13 284 -13 Z " />
<glyph glyph-name="d" unicode="d" horiz-adv-x="599" d="M235 517 Q275 517 311 498.5 Q347 480 369 444 L369 700 L539 700 L539 0 L387 0 L381 82 Q334 -13 229 -13 Q168 -13 122.5 21.5 Q77 56 52.5 116 Q28 176 28 252 Q28 330 54 390 Q80 450 126.5 483.5 Q173 517 235 517 Z M287 399 Q246 399 225 357.5 Q204 316 204 252 Q204 188 225 146 Q246 104 287 104 Q324 104 347.5 140.5 Q371 177 371 243 L371 261 Q371 326 347.5 362.5 Q324 399 287 399 Z " />
<glyph glyph-name="e" unicode="e" horiz-adv-x="553" d="M283 -13 Q212 -13 154 16 Q96 45 62 103.5 Q28 162 28 252 Q28 333 59.5 392.5 Q91 452 147.5 484.5 Q204 517 279 517 Q358 517 413.5 483.5 Q469 450 498 390 Q527 330 527 250 L527 217 L196 217 Q202 149 225.5 120.5 Q249 92 284 92 Q316 92 334 109 Q352 126 359 157 L521 157 Q501 72 436.5 29.5 Q372 -13 283 -13 Z M279 412 Q245 412 222.5 382.5 Q200 353 196 298 L359 298 Q355 352 335 382 Q315 412 279 412 Z " />
<glyph glyph-name="f" unicode="f" horiz-adv-x="376" d="M10 504 L81 504 Q82 599 129 656 Q176 713 275 713 Q304 713 334 706 Q364 699 391 685 L367 585 Q338 598 310 598 Q251 598 251 523 L251 504 L359 504 L359 394 L251 394 L251 0 L81 0 L81 394 L10 394 L10 504 Z " />
<glyph glyph-name="g" unicode="g" horiz-adv-x="599" d="M283 -223 Q189 -223 123.5 -180.5 Q58 -138 43 -53 L203 -53 Q210 -85 231 -103 Q252 -121 283 -121 Q369 -121 369 -9 L369 67 Q346 34 311 15.5 Q276 -3 232 -3 Q169 -3 123.5 31 Q78 65 53 123.5 Q28 182 28 258 Q28 334 54.5 392.5 Q81 451 129.5 484 Q178 517 244 517 Q283 517 322 495 Q361 473 382 428 L387 504 L539 504 L539 42 Q539 -223 283 -223 Z M287 114 Q324 114 347.5 149 Q371 184 371 249 L371 267 Q371 330 347.5 365 Q324 400 287 400 Q246 400 225 360 Q204 320 204 258 Q204 195 225 154.5 Q246 114 287 114 Z " />
<glyph glyph-name="h" unicode="h" horiz-adv-x="601" d="M60 0 L60 700 L230 700 L230 437 Q251 474 287.5 495.5 Q324 517 373 517 Q454 517 500.5 467.5 Q547 418 547 334 L547 0 L377 0 L377 308 Q377 348 360 371.5 Q343 395 309 395 Q278 395 254 368.5 Q230 342 230 285 L230 0 L60 0 Z " />
<glyph glyph-name="i" unicode="i" horiz-adv-x="290" d="M145 561 Q105 561 77.5 587.5 Q50 614 50 652 Q50 690 77.5 716.5 Q105 743 145 743 Q185 743 212.5 716.5 Q240 690 240 652 Q240 614 212.5 587.5 Q185 561 145 561 Z M60 0 L60 504 L230 504 L230 0 L60 0 Z " />
<glyph glyph-name="j" unicode="j" horiz-adv-x="296" d="M148 561 Q108 561 80.5 587.5 Q53 614 53 652 Q53 690 80.5 716.5 Q108 743 148 743 Q188 743 215.5 716.5 Q243 690 243 652 Q243 614 215.5 587.5 Q188 561 148 561 Z M-58 -204 L-37 -100 Q-16 -107 5 -107 Q63 -107 63 -33 L63 504 L233 504 L233 -10 Q233 -108 186.5 -165.5 Q140 -223 39 -223 Q16 -223 -9.5 -218.5 Q-35 -214 -58 -204 Z " />
<glyph glyph-name="k" unicode="k" horiz-adv-x="570" d="M60 0 L60 700 L230 700 L230 303 L370 504 L550 504 L361 274 Q417 236 461 185 Q493 148 519.5 102 Q546 56 568 0 L384 0 Q364 70 329 119 Q308 148 284 173.5 Q260 199 230 220 L230 0 L60 0 Z " />
<glyph glyph-name="l" unicode="l" horiz-adv-x="290" d="M60 0 L60 700 L230 700 L230 0 L60 0 Z " />
<glyph glyph-name="m" unicode="m" horiz-adv-x="894" d="M60 504 L212 504 L217 427 Q235 468 273.5 492.5 Q312 517 367 517 Q420 517 458.5 493 Q497 469 517 427 Q535 468 574.5 492.5 Q614 517 672 517 Q750 517 795 467.5 Q840 418 840 334 L840 0 L670 0 L670 308 Q670 348 654.5 371.5 Q639 395 608 395 Q579 395 557 368.5 Q535 342 535 285 L535 0 L365 0 L365 308 Q365 348 349.5 371.5 Q334 395 303 395 Q274 395 252 368.5 Q230 342 230 285 L230 0 L60 0 L60 504 Z " />
<glyph glyph-name="n" unicode="n" horiz-adv-x="601" d="M60 0 L60 504 L212 504 L217 427 Q236 468 276.5 492.5 Q317 517 373 517 Q454 517 500.5 467.5 Q547 418 547 334 L547 0 L377 0 L377 308 Q377 348 360 371.5 Q343 395 309 395 Q278 395 254 368.5 Q230 342 230 285 L230 0 L60 0 Z " />
<glyph glyph-name="o" unicode="o" horiz-adv-x="578" d="M289 -13 Q208 -13 149.5 22 Q91 57 59.5 116.5 Q28 176 28 252 Q28 328 59.5 387.5 Q91 447 149.5 482 Q208 517 289 517 Q370 517 428.5 482 Q487 447 518.5 387.5 Q550 328 550 252 Q550 176 518.5 116.5 Q487 57 428.5 22 Q370 -13 289 -13 Z M289 97 Q329 97 351.5 138.5 Q374 180 374 252 Q374 324 351.5 365.5 Q329 407 289 407 Q249 407 226.5 365.5 Q204 324 204 252 Q204 180 226.5 138.5 Q249 97 289 97 Z " />
<glyph glyph-name="p" unicode="p" horiz-adv-x="599" d="M60 -210 L60 504 L212 504 L218 422 Q265 517 370 517 Q432 517 477 482.5 Q522 448 546.5 388 Q571 328 571 252 Q571 174 545 114 Q519 54 472.5 20.5 Q426 -13 364 -13 Q324 -13 288 5.5 Q252 24 230 60 L230 -210 L60 -210 Z M312 105 Q353 105 374 146.5 Q395 188 395 252 Q395 316 374 358 Q353 400 312 400 Q274 400 251 363.5 Q228 327 228 261 L228 243 Q228 178 251 141.5 Q274 105 312 105 Z " />
<glyph glyph-name="q" unicode="q" horiz-adv-x="599" d="M235 517 Q281 517 321.5 492.5 Q362 468 381 420 L387 504 L539 504 L539 -210 L369 -210 L369 60 Q320 -13 229 -13 Q168 -13 122.5 21.5 Q77 56 52.5 116 Q28 176 28 252 Q28 330 54 390 Q80 450 126.5 483.5 Q173 517 235 517 Z M287 399 Q246 399 225 357.5 Q204 316 204 252 Q204 188 225 146 Q246 104 287 104 Q324 104 347.5 140.5 Q371 177 371 243 L371 261 Q371 326 347.5 362.5 Q324 399 287 399 Z " />
<glyph glyph-name="r" unicode="r" horiz-adv-x="390" d="M60 0 L60 504 L209 504 L217 416 Q230 452 262 482 Q294 512 347 512 Q357 512 364 511 Q371 510 377 509 L377 352 Q371 354 359 355.5 Q347 357 336 357 Q290 357 260 328.5 Q230 300 230 241 L230 0 L60 0 Z " />
<glyph glyph-name="s" unicode="s" horiz-adv-x="528" d="M267 -13 Q160 -13 99.5 31.5 Q39 76 30 159 L195 159 Q200 118 222 102.5 Q244 87 269 87 Q298 87 314 99.5 Q330 112 330 131 Q330 148 316.5 163 Q303 178 266 188 L182 210 Q117 227 80.5 262 Q44 297 44 359 Q44 412 74 447 Q104 482 155 499.5 Q206 517 270 517 Q364 517 419 475 Q474 433 488 354 L324 354 Q320 383 305 400 Q290 417 262 417 Q236 417 222 403.5 Q208 390 208 371 Q208 353 220 339.5 Q232 326 264 318 L336 300 Q422 278 458 243.5 Q494 209 494 150 Q494 72 434 29.5 Q374 -13 267 -13 Z " />
<glyph glyph-name="t" unicode="t" horiz-adv-x="399" d="M260 -13 Q168 -13 123.5 38.5 Q79 90 79 169 L79 394 L14 394 L14 504 L79 504 L79 646 L249 646 L249 504 L368 504 L368 394 L249 394 L249 171 Q249 138 264 122 Q279 106 304 106 Q318 106 333 109 Q348 112 362 118 L388 14 Q365 1 329.5 -6 Q294 -13 260 -13 Z " />
<glyph glyph-name="u" unicode="u" horiz-adv-x="591" d="M531 504 L531 0 L379 0 L373 82 Q355 40 315.5 13.5 Q276 -13 219 -13 Q145 -13 100.5 36.5 Q56 86 56 170 L56 504 L226 504 L226 196 Q226 156 241.5 132.5 Q257 109 288 109 Q317 109 339 135.5 Q361 162 361 219 L361 504 L531 504 Z " />
<glyph glyph-name="v" unicode="v" horiz-adv-x="539" d="M181 0 L3 504 L179 504 L276 160 L371 504 L536 504 L358 0 L181 0 Z " />
<glyph glyph-name="w" unicode="w" horiz-adv-x="800" d="M150 0 L3 504 L179 504 L249 159 L334 504 L480 504 L569 158 L637 504 L797 504 L650 0 L478 0 L400 275 L322 0 L150 0 Z " />
<glyph glyph-name="x" unicode="x" horiz-adv-x="541" d="M2 0 L187 258 L12 504 L197 504 L276 367 L364 504 L535 504 L358 259 L541 0 L356 0 L270 148 L173 0 L2 0 Z " />
<glyph glyph-name="y" unicode="y" horiz-adv-x="536" d="M4 -198 L39 -94 Q70 -107 100 -107 Q123 -107 141.5 -93 Q160 -79 179 -36 L198 8 L3 504 L179 504 L275 186 L368 504 L533 504 L319 -43 Q283 -135 235 -179 Q187 -223 119 -223 Q84 -223 55 -216.5 Q26 -210 4 -198 Z " />
<glyph glyph-name="z" unicode="z" horiz-adv-x="503" d="M39 0 L39 80 L260 385 L45 385 L45 504 L462 504 L462 426 L235 119 L474 119 L474 0 L39 0 Z " />
<glyph glyph-name="braceleft" unicode="&#x7b;" horiz-adv-x="389" d="M25 255 L25 365 L54 365 Q98 365 113.5 385.5 Q129 406 129 437 Q129 472 120.5 503.5 Q112 535 112 577 Q112 645 155 682.5 Q198 720 311 720 L374 720 L374 610 L329 610 Q294 610 278 595 Q262 580 262 545 Q262 521 266.5 502 Q271 483 275.5 463.5 Q280 444 280 417 Q280 365 249 340.5 Q218 316 180 310 Q218 304 249 279.5 Q280 255 280 203 Q280 176 275.5 156 Q271 136 266.5 117.5 Q262 99 262 75 Q262 40 278 25 Q294 10 329 10 L374 10 L374 -100 L311 -100 Q198 -100 155 -62.5 Q112 -25 112 43 Q112 85 120.5 116.5 Q129 148 129 183 Q129 214 113.5 234.5 Q98 255 54 255 L25 255 Z " />
<glyph glyph-name="bar" unicode="&#x7c;" horiz-adv-x="281" d="M72 -100 L72 720 L209 720 L209 -100 L72 -100 Z " />
<glyph glyph-name="braceright" unicode="&#x7d;" horiz-adv-x="389" d="M15 -100 L15 10 L60 10 Q94 10 110.5 25 Q127 40 127 75 Q127 99 122.5 117.5 Q118 136 113.5 156 Q109 176 109 203 Q109 255 140 279.5 Q171 304 209 310 Q171 316 140 340.5 Q109 365 109 417 Q109 444 113.5 463.5 Q118 483 122.5 502 Q127 521 127 545 Q127 580 110.5 595 Q94 610 60 610 L15 610 L15 720 L78 720 Q190 720 233.5 682.5 Q277 645 277 577 Q277 535 268.5 503.5 Q260 472 260 437 Q260 406 276 385.5 Q292 365 335 365 L364 365 L364 255 L335 255 Q292 255 276 234.5 Q260 214 260 183 Q260 148 268.5 116.5 Q277 85 277 43 Q277 -25 233.5 -62.5 Q190 -100 78 -100 L15 -100 Z " />
<glyph glyph-name="asciitilde" unicode="&#x7e;" horiz-adv-x="590" d="M273 258 Q254 279 240.5 290 Q227 301 214 301 Q196 301 184.5 280 Q173 259 173 205 L56 205 Q56 260 73.5 305.5 Q91 351 124.5 378 Q158 405 204 405 Q243 405 272.5 386.5 Q302 368 321 346 Q340 325 353.5 314 Q367 303 380 303 Q398 303 409.5 324 Q421 345 421 399 L538 399 Q538 344 520.5 298.5 Q503 253 469.5 226 Q436 199 390 199 Q351 199 321.5 217.5 Q292 236 273 258 Z " />
<glyph glyph-name="uni00A0" unicode="&#xa0;" horiz-adv-x="200" d="" />
<glyph glyph-name="exclamdown" unicode="&#xa1;" horiz-adv-x="275" d="M138 334 Q99 334 73 359 Q47 384 47 424 Q47 461 74 487.5 Q101 514 138 514 Q176 514 202 487.5 Q228 461 228 424 Q228 384 202 359 Q176 334 138 334 Z M227 -166 L48 -166 L78 292 L196 292 L227 -166 Z " />
<glyph glyph-name="cent" unicode="&#xa2;" horiz-adv-x="590" d="M270 0 L270 72 Q208 79 159 111 Q110 143 81.5 198 Q53 253 53 330 Q53 403 81.5 458.5 Q110 514 159 547 Q208 580 270 588 L270 660 L339 660 L339 588 Q415 580 471.5 532 Q528 484 539 394 L388 394 Q382 433 365.5 454 Q349 475 329 481 L329 178 Q349 185 366.5 205 Q384 225 391 263 L541 263 Q526 174 469 127 Q412 80 339 72 L339 0 L270 0 Z M219 330 Q219 262 236 226 Q253 190 280 180 L280 480 Q253 470 236 434.5 Q219 399 219 330 Z " />
<glyph glyph-name="sterling" unicode="&#xa3;" horiz-adv-x="590" d="M426 266 L310 266 Q311 255 311 244 Q311 198 293.5 169.5 Q276 141 250 125 L540 125 L540 0 L30 0 L30 110 Q65 110 89.5 127 Q114 144 126.5 169.5 Q139 195 139 222 Q139 244 135 266 L32 266 L32 376 L106 376 Q100 398 96 422.5 Q92 447 92 476 Q92 564 156 617 Q220 670 327 670 Q418 670 480 620.5 Q542 571 559 484 L383 484 Q375 524 360 541 Q345 558 321 558 Q298 558 281.5 539.5 Q265 521 265 485 Q265 456 271 429 Q277 402 285 376 L426 376 L426 266 Z " />
<glyph glyph-name="currency" unicode="&#xa4;" horiz-adv-x="590" d="M67 332 Q67 366 76.5 396.5 Q86 427 102 453 L33 522 L105 594 L176 523 Q230 554 295 554 Q359 554 413 522 L485 593 L557 521 L487 451 Q503 425 512 395 Q521 365 521 332 Q521 298 512 268 Q503 238 487 212 L557 142 L485 70 L413 141 Q359 109 295 109 Q230 109 176 140 L105 69 L33 141 L102 210 Q86 236 76.5 267 Q67 298 67 332 Z M197 332 Q197 283 224.5 251 Q252 219 295 219 Q336 219 363.5 251 Q391 283 391 332 Q391 380 363.5 412 Q336 444 295 444 Q252 444 224.5 412 Q197 380 197 332 Z " />
<glyph glyph-name="yen" unicode="&#xa5;" horiz-adv-x="590" d="M212 0 L212 117 L78 117 L78 197 L212 197 L212 246 L78 246 L78 326 L181 326 L15 654 L188 654 L299 391 L408 654 L575 654 L409 326 L512 326 L512 246 L378 246 L378 197 L512 197 L512 117 L378 117 L378 0 L212 0 Z " />
<glyph glyph-name="section" unicode="&#xa7;" horiz-adv-x="524" d="M446 376 L446 258 L229 321 Q150 344 107 371 Q64 398 47 433.5 Q30 469 30 515 Q30 594 90 640 Q150 686 256 686 Q362 686 423 642 Q484 598 493 516 L334 516 Q330 557 305 572.5 Q280 588 254 588 Q221 588 204 570.5 Q187 553 187 523 Q187 494 201.5 473 Q216 452 257 438 L446 376 Z M77 201 L77 319 L294 256 Q372 233 415.5 205.5 Q459 178 476 143 Q493 108 493 62 Q493 -18 433 -63.5 Q373 -109 267 -109 Q160 -109 99.5 -65 Q39 -21 30 61 L189 61 Q193 20 218.5 4.5 Q244 -11 269 -11 Q302 -11 319 6.5 Q336 24 336 53 Q336 82 321 104 Q306 126 266 139 L77 201 Z " />
<glyph glyph-name="dieresis" unicode="&#xa8;" horiz-adv-x="500" d="M350 561 Q317 561 293.5 584 Q270 607 270 641 Q270 673 293.5 696 Q317 719 350 719 Q382 719 406 696 Q430 673 430 641 Q430 607 406 584 Q382 561 350 561 Z M150 561 Q117 561 93.5 584 Q70 607 70 641 Q70 673 93.5 696 Q117 719 150 719 Q182 719 206 696 Q230 673 230 641 Q230 607 206 584 Q182 561 150 561 Z " />
<glyph glyph-name="copyright" unicode="&#xa9;" horiz-adv-x="833" d="M417 0 Q320 0 244 43 Q168 86 125 162 Q82 238 82 335 Q82 432 125 508 Q168 584 244 627 Q320 670 417 670 Q514 670 590 627 Q666 584 709 508 Q752 432 752 335 Q752 238 709 162 Q666 86 590 43 Q514 0 417 0 Z M417 75 Q492 75 548 107.5 Q604 140 635.5 199 Q667 258 667 335 Q667 412 635.5 471 Q604 530 548 562.5 Q492 595 417 595 Q342 595 286 562.5 Q230 530 198.5 471 Q167 412 167 335 Q167 258 198.5 199 Q230 140 286 107.5 Q342 75 417 75 Z M425 142 Q372 142 330 165 Q288 188 264 231.5 Q240 275 240 335 Q240 394 265 437.5 Q290 481 332 505 Q374 529 425 529 Q487 529 535.5 493 Q584 457 595 382 L467 382 Q463 415 452 429 Q441 443 425 443 Q406 443 390 418 Q374 393 374 335 Q374 278 390 253 Q406 228 425 228 Q442 228 453 241 Q464 254 469 285 L596 285 Q582 210 533.5 176 Q485 142 425 142 Z " />
<glyph glyph-name="ordfeminine" unicode="&#xaa;" horiz-adv-x="437" d="M137 278 Q83 278 51.5 305.5 Q20 333 20 378 Q20 417 41 443.5 Q62 470 96 485.5 Q130 501 169.5 508 Q209 515 247 516 L247 524 Q247 552 237.5 569 Q228 586 206 586 Q187 586 177 574 Q167 562 163 543 L37 543 Q47 603 93 636.5 Q139 670 213 670 Q304 670 345.5 627.5 Q387 585 387 500 L387 285 L268 285 L258 339 Q240 310 208 294 Q176 278 137 278 Z M192 363 Q216 363 231.5 380.5 Q247 398 247 426 L247 459 Q201 457 180.5 439.5 Q160 422 160 398 Q160 382 169 372.5 Q178 363 192 363 Z " />
<glyph glyph-name="guillemotleft" unicode="&#xab;" horiz-adv-x="623" d="M168 52 L30 253 L168 454 L327 454 L196 255 L330 52 L168 52 Z M448 52 L310 253 L448 454 L607 454 L476 255 L610 52 L448 52 Z " />
<glyph glyph-name="logicalnot" unicode="&#xac;" horiz-adv-x="590" d="M395 181 L395 318 L77 318 L77 434 L513 434 L513 181 L395 181 Z " />
<glyph glyph-name="uni00AD" unicode="&#xad;" horiz-adv-x="374" d="M25 182 L25 312 L349 312 L349 182 L25 182 Z " />
<glyph glyph-name="registered" unicode="&#xae;" horiz-adv-x="550" d="M275 188 Q202 188 147 219 Q92 250 61 305 Q30 360 30 434 Q30 508 61 563 Q92 618 147 649 Q202 680 275 680 Q348 680 403 649 Q458 618 489 563 Q520 508 520 434 Q520 360 489 305 Q458 250 403 219 Q348 188 275 188 Z M275 249 Q355 249 402 298.5 Q449 348 449 434 Q449 521 402 570.5 Q355 620 275 620 Q192 620 146.5 570.5 Q101 521 101 434 Q101 348 146.5 298.5 Q192 249 275 249 Z M177 314 L177 561 L282 561 Q380 561 380 486 Q380 462 364 447 Q348 432 323 426 Q351 414 368 384.5 Q385 355 392 314 L320 314 Q312 357 295.5 381.5 Q279 406 248 406 L246 406 L246 314 L177 314 Z M270 516 L246 516 L246 452 L270 452 Q292 452 301.5 461 Q311 470 311 483 Q311 497 301.5 506.5 Q292 516 270 516 Z " />
<glyph glyph-name="overscore" unicode="&#xaf;" horiz-adv-x="500" d="M87 589 L87 695 L413 695 L413 589 L87 589 Z " />
<glyph glyph-name="degree" unicode="&#xb0;" horiz-adv-x="319" d="M159 424 Q96 424 55 462 Q14 500 14 562 Q14 624 55 662 Q96 700 159 700 Q222 700 263 662 Q304 624 304 562 Q304 500 263 462 Q222 424 159 424 Z M159 496 Q184 496 200.5 513.5 Q217 531 217 562 Q217 593 200.5 610.5 Q184 628 159 628 Q134 628 117.5 610.5 Q101 593 101 562 Q101 531 117.5 513.5 Q134 496 159 496 Z " />
<glyph glyph-name="uni00B2" unicode="&#xb2;" horiz-adv-x="373" d="M29 378 L29 392 Q29 443 52.5 481 Q76 519 128 556 L173 588 Q198 606 209 620 Q220 634 220 653 Q220 698 185 698 Q166 698 155.5 682 Q145 666 143 631 L28 631 Q32 702 76 741 Q120 780 193 780 Q260 780 301.5 746.5 Q343 713 343 658 Q343 621 325 590.5 Q307 560 266 533 L213 498 Q183 479 176 467 L346 467 L346 378 L29 378 Z " />
<glyph glyph-name="uni00B3" unicode="&#xb3;" horiz-adv-x="367" d="M186 368 Q110 368 66 403 Q22 438 15 506 L128 506 Q132 449 180 449 Q227 449 227 495 Q227 524 208.5 537.5 Q190 551 150 551 L139 551 L139 621 L150 621 Q188 621 203.5 630.5 Q219 640 219 661 Q219 701 180 701 Q148 701 143 662 L30 662 Q39 720 79.5 750 Q120 780 187 780 Q254 780 295.5 749.5 Q337 719 337 669 Q337 609 270 584 Q349 558 349 490 Q349 434 305 401 Q261 368 186 368 Z " />
<glyph glyph-name="acute" unicode="&#xb4;" horiz-adv-x="500" d="M149 625 L299 781 L387 676 L208 556 L149 625 Z " />
<glyph glyph-name="paragraph" unicode="&#xb6;" horiz-adv-x="624" d="M270 -105 L270 216 L258 216 Q140 216 80.5 279 Q21 342 21 443 Q21 546 80.5 608 Q140 670 258 670 L544 670 L544 -105 L446 -105 L446 572 L368 572 L368 -105 L270 -105 Z " />
<glyph glyph-name="middot" unicode="&#xb7;" horiz-adv-x="220" d="M109 158 Q71 158 45 184.5 Q19 211 19 248 Q19 288 45 313 Q71 338 109 338 Q148 338 174 313 Q200 288 200 248 Q200 211 173 184.5 Q146 158 109 158 Z " />
<glyph glyph-name="cedilla" unicode="&#xb8;" horiz-adv-x="500" d="M180 0 L250 0 L241 -59 Q251 -56 264 -56 Q309 -56 337.5 -83 Q366 -110 366 -154 Q366 -209 329 -240.5 Q292 -272 223 -272 Q183 -272 144 -261 L151 -187 Q186 -196 215 -196 Q269 -196 269 -156 Q269 -139 258.5 -128 Q248 -117 231 -117 Q211 -117 193 -128 L165 -128 L180 0 Z " />
<glyph glyph-name="uni00B9" unicode="&#xb9;" horiz-adv-x="290" d="M17 622 L17 717 Q52 723 82.5 735 Q113 747 138 770 L229 770 L229 378 L108 378 L108 642 Q61 626 17 622 Z " />
<glyph glyph-name="ordmasculine" unicode="&#xba;" horiz-adv-x="444" d="M221 278 Q160 278 115 304.5 Q70 331 45.5 375.5 Q21 420 21 473 Q21 528 45.5 572.5 Q70 617 115 643.5 Q160 670 221 670 Q283 670 328 643.5 Q373 617 397.5 572.5 Q422 528 422 473 Q422 420 397.5 375.5 Q373 331 328 304.5 Q283 278 221 278 Z M221 367 Q248 367 262.5 394.5 Q277 422 277 473 Q277 581 221 581 Q196 581 181.5 553.5 Q167 526 167 473 Q167 422 181.5 394.5 Q196 367 221 367 Z " />
<glyph glyph-name="guillemotright" unicode="&#xbb;" horiz-adv-x="623" d="M175 454 L313 253 L175 52 L16 52 L147 251 L13 454 L175 454 Z M455 454 L593 253 L455 52 L296 52 L427 251 L293 454 L455 454 Z " />
<glyph glyph-name="onequarter" unicode="&#xbc;" horiz-adv-x="812" d="M177 0 L495 660 L633 660 L315 0 L177 0 Z M465 72 L465 147 L654 392 L755 392 L755 156 L799 156 L799 72 L755 72 L755 0 L644 0 L644 72 L465 72 Z M564 156 L644 156 L644 262 L564 156 Z M17 512 L17 607 Q52 613 82.5 625 Q113 637 138 660 L229 660 L229 268 L108 268 L108 532 Q61 516 17 512 Z " />
<glyph glyph-name="onehalf" unicode="&#xbd;" horiz-adv-x="872" d="M177 0 L495 660 L633 660 L315 0 L177 0 Z M528 0 L528 14 Q528 65 551.5 103 Q575 141 627 178 L672 210 Q697 228 708 242 Q719 256 719 275 Q719 320 684 320 Q665 320 654.5 304 Q644 288 642 253 L527 253 Q531 324 575 363 Q619 402 692 402 Q759 402 800.5 368.5 Q842 335 842 280 Q842 243 824 212.5 Q806 182 765 155 L712 120 Q682 101 675 89 L845 89 L845 0 L528 0 Z M17 512 L17 607 Q52 613 82.5 625 Q113 637 138 660 L229 660 L229 268 L108 268 L108 532 Q61 516 17 512 Z " />
<glyph glyph-name="threequarters" unicode="&#xbe;" horiz-adv-x="870" d="M235 0 L553 660 L691 660 L373 0 L235 0 Z M523 72 L523 147 L712 392 L813 392 L813 156 L857 156 L857 72 L813 72 L813 0 L702 0 L702 72 L523 72 Z M622 156 L702 156 L702 262 L622 156 Z M186 258 Q110 258 66 293 Q22 328 15 396 L128 396 Q132 339 180 339 Q227 339 227 385 Q227 414 208.5 427.5 Q190 441 150 441 L139 441 L139 511 L150 511 Q188 511 203.5 520.5 Q219 530 219 551 Q219 591 180 591 Q148 591 143 552 L30 552 Q39 610 79.5 640 Q120 670 187 670 Q254 670 295.5 639.5 Q337 609 337 559 Q337 499 270 474 Q349 448 349 380 Q349 324 305 291 Q261 258 186 258 Z " />
<glyph glyph-name="questiondown" unicode="&#xbf;" horiz-adv-x="475" d="M266 334 Q227 334 201 359 Q175 384 175 424 Q175 461 202 487.5 Q229 514 266 514 Q304 514 330 487.5 Q356 461 356 424 Q356 384 330 359 Q304 334 266 334 Z M318 27 L482 27 Q477 -69 414.5 -125.5 Q352 -182 241 -182 Q170 -182 116.5 -159.5 Q63 -137 33 -95.5 Q3 -54 3 3 Q3 62 30 98.5 Q57 135 104 169 L149 202 Q174 220 181.5 239 Q189 258 189 282 L189 292 L342 292 L342 262 Q342 217 325 187.5 Q308 158 265 124 L227 94 Q199 72 189.5 54 Q180 36 180 6 Q180 -22 196.5 -42 Q213 -62 244 -62 Q276 -62 295.5 -40.5 Q315 -19 318 27 Z " />
<glyph glyph-name="Agrave" unicode="&#xc0;" horiz-adv-x="666" d="M480 0 L441 124 L219 124 L180 0 L7 0 L247 670 L420 670 L659 0 L480 0 Z M258 251 L401 251 L330 480 L258 251 Z M231 940 L456 795 L414 712 L162 809 L231 940 Z " />
<glyph glyph-name="Aacute" unicode="&#xc1;" horiz-adv-x="666" d="M480 0 L441 124 L219 124 L180 0 L7 0 L247 670 L420 670 L659 0 L480 0 Z M258 251 L401 251 L330 480 L258 251 Z M210 795 L435 940 L504 809 L252 712 L210 795 Z " />
<glyph glyph-name="Acircumflex" unicode="&#xc2;" horiz-adv-x="666" d="M480 0 L441 124 L219 124 L180 0 L7 0 L247 670 L420 670 L659 0 L480 0 Z M258 251 L401 251 L330 480 L258 251 Z M369 915 L531 790 L478 710 L333 800 L188 710 L135 790 L297 915 L369 915 Z " />
<glyph glyph-name="Atilde" unicode="&#xc3;" horiz-adv-x="666" d="M480 0 L441 124 L219 124 L180 0 L7 0 L247 670 L420 670 L659 0 L480 0 Z M258 251 L401 251 L330 480 L258 251 Z M310 777 Q295 788 284 794 Q273 800 263 800 Q251 800 241.5 786.5 Q232 773 225 739 L126 739 Q131 786 148 824.5 Q165 863 192 886 Q219 909 253 909 Q282 909 306 897 Q330 885 356 865 Q371 854 382 848 Q393 842 403 842 Q415 842 424.5 855.5 Q434 869 441 903 L540 903 Q535 856 518 817.5 Q501 779 474 756 Q447 733 413 733 Q384 733 360 745 Q336 757 310 777 Z " />
<glyph glyph-name="Adieresis" unicode="&#xc4;" horiz-adv-x="666" d="M480 0 L441 124 L219 124 L180 0 L7 0 L247 670 L420 670 L659 0 L480 0 Z M258 251 L401 251 L330 480 L258 251 Z M448 736 Q413 736 389 760 Q365 784 365 820 Q365 856 389 880 Q413 904 448 904 Q483 904 507 880 Q531 856 531 820 Q531 784 507 760 Q483 736 448 736 Z M218 736 Q183 736 159 760 Q135 784 135 820 Q135 856 159 880 Q183 904 218 904 Q253 904 277 880 Q301 856 301 820 Q301 784 277 760 Q253 736 218 736 Z " />
<glyph glyph-name="Aring" unicode="&#xc5;" horiz-adv-x="666" d="M480 0 L441 124 L219 124 L180 0 L7 0 L247 670 L420 670 L659 0 L480 0 Z M258 251 L401 251 L330 480 L258 251 Z M333 718 Q278 718 243 752.5 Q208 787 208 840 Q208 896 243 929 Q278 962 333 962 Q389 962 424.5 929 Q460 896 460 840 Q460 787 424.5 752.5 Q389 718 333 718 Z M333 788 Q354 788 368 802.5 Q382 817 382 840 Q382 862 368.5 877 Q355 892 333 892 Q311 892 297.5 877 Q284 862 284 840 Q284 817 297.5 802.5 Q311 788 333 788 Z " />
<glyph glyph-name="AE" unicode="&#xc6;" horiz-adv-x="970" d="M7 0 L398 670 L921 670 L921 539 L645 539 L645 400 L890 400 L890 275 L645 275 L645 131 L925 131 L925 0 L467 0 L467 122 L246 122 L180 0 L7 0 Z M316 253 L467 253 L467 534 L316 253 Z " />
<glyph glyph-name="Ccedilla" unicode="&#xc7;" horiz-adv-x="692" d="M360 -16 Q255 -16 182.5 28.5 Q110 73 73 152 Q36 231 36 335 Q36 438 73 517 Q110 596 182.5 641 Q255 686 360 686 Q488 686 566.5 616 Q645 546 666 427 L479 427 Q468 488 437 522.5 Q406 557 360 557 Q293 557 257.5 498 Q222 439 222 335 Q222 231 257.5 172 Q293 113 360 113 Q405 113 435.5 145.5 Q466 178 477 237 L664 237 Q652 161 612.5 104 Q573 47 509 15.5 Q445 -16 360 -16 Z M309 0 L385 0 L379 -58 Q386 -56 397 -56 Q443 -56 472.5 -83.5 Q502 -111 502 -157 Q502 -213 464.5 -245.5 Q427 -278 359 -278 Q341 -278 317 -275 Q293 -272 274 -265 L281 -186 Q300 -192 318.5 -194 Q337 -196 351 -196 Q399 -196 399 -159 Q399 -143 389.5 -133 Q380 -123 364 -123 Q344 -123 327 -134 L295 -134 L309 0 Z " />
<glyph glyph-name="Egrave" unicode="&#xc8;" horiz-adv-x="577" d="M74 0 L74 670 L528 670 L528 539 L252 539 L252 400 L497 400 L497 275 L252 275 L252 131 L532 131 L532 0 L74 0 Z M199 940 L424 795 L382 712 L130 809 L199 940 Z " />
<glyph glyph-name="Eacute" unicode="&#xc9;" horiz-adv-x="577" d="M74 0 L74 670 L528 670 L528 539 L252 539 L252 400 L497 400 L497 275 L252 275 L252 131 L532 131 L532 0 L74 0 Z M178 795 L403 940 L472 809 L220 712 L178 795 Z " />
<glyph glyph-name="Ecircumflex" unicode="&#xca;" horiz-adv-x="577" d="M74 0 L74 670 L528 670 L528 539 L252 539 L252 400 L497 400 L497 275 L252 275 L252 131 L532 131 L532 0 L74 0 Z M337 915 L499 790 L446 710 L301 800 L156 710 L103 790 L265 915 L337 915 Z " />
<glyph glyph-name="Edieresis" unicode="&#xcb;" horiz-adv-x="577" d="M74 0 L74 670 L528 670 L528 539 L252 539 L252 400 L497 400 L497 275 L252 275 L252 131 L532 131 L532 0 L74 0 Z M416 736 Q381 736 357 760 Q333 784 333 820 Q333 856 357 880 Q381 904 416 904 Q451 904 475 880 Q499 856 499 820 Q499 784 475 760 Q451 736 416 736 Z M186 736 Q151 736 127 760 Q103 784 103 820 Q103 856 127 880 Q151 904 186 904 Q221 904 245 880 Q269 856 269 820 Q269 784 245 760 Q221 736 186 736 Z " />
<glyph glyph-name="Igrave" unicode="&#xcc;" horiz-adv-x="326" d="M74 0 L74 670 L252 670 L252 0 L74 0 Z M61 940 L286 795 L244 712 L-8 809 L61 940 Z " />
<glyph glyph-name="Iacute" unicode="&#xcd;" horiz-adv-x="326" d="M74 0 L74 670 L252 670 L252 0 L74 0 Z M40 795 L265 940 L334 809 L82 712 L40 795 Z " />
<glyph glyph-name="Icircumflex" unicode="&#xce;" horiz-adv-x="326" d="M74 0 L74 670 L252 670 L252 0 L74 0 Z M199 915 L361 790 L308 710 L163 800 L18 710 L-35 790 L127 915 L199 915 Z " />
<glyph glyph-name="Idieresis" unicode="&#xcf;" horiz-adv-x="326" d="M74 0 L74 670 L252 670 L252 0 L74 0 Z M278 736 Q243 736 219 760 Q195 784 195 820 Q195 856 219 880 Q243 904 278 904 Q313 904 337 880 Q361 856 361 820 Q361 784 337 760 Q313 736 278 736 Z M48 736 Q13 736 -11 760 Q-35 784 -35 820 Q-35 856 -11 880 Q13 904 48 904 Q83 904 107 880 Q131 856 131 820 Q131 784 107 760 Q83 736 48 736 Z " />
<glyph glyph-name="Eth" unicode="&#xd0;" horiz-adv-x="732" d="M94 0 L94 282 L14 282 L14 397 L94 397 L94 670 L329 670 Q448 670 530 626 Q612 582 654 506.5 Q696 431 696 335 Q696 238 654 162.5 Q612 87 530 43.5 Q448 0 329 0 L94 0 Z M408 282 L262 282 L262 125 L329 125 Q422 125 466 180 Q510 235 510 335 Q510 436 466 491 Q422 546 329 546 L262 546 L262 397 L408 397 L408 282 Z " />
<glyph glyph-name="Ntilde" unicode="&#xd1;" horiz-adv-x="725" d="M74 0 L74 670 L241 670 L478 262 L478 670 L651 670 L651 0 L487 0 L247 415 L247 0 L74 0 Z M339 777 Q324 788 313 794 Q302 800 292 800 Q280 800 270.5 786.5 Q261 773 254 739 L155 739 Q160 786 177 824.5 Q194 863 221 886 Q248 909 282 909 Q311 909 335 897 Q359 885 385 865 Q400 854 411 848 Q422 842 432 842 Q444 842 453.5 855.5 Q463 869 470 903 L569 903 Q564 856 547 817.5 Q530 779 503 756 Q476 733 442 733 Q413 733 389 745 Q365 757 339 777 Z " />
<glyph glyph-name="Ograve" unicode="&#xd2;" horiz-adv-x="735" d="M367 -16 Q261 -16 187 28.5 Q113 73 74.5 152.5 Q36 232 36 335 Q36 437 74.5 516.5 Q113 596 187 641 Q261 686 367 686 Q474 686 548 641 Q622 596 660.5 516.5 Q699 437 699 335 Q699 232 660.5 153 Q622 74 548 29 Q474 -16 367 -16 Z M367 113 Q438 113 475.5 173 Q513 233 513 335 Q513 437 475.5 497 Q438 557 367 557 Q296 557 259 497 Q222 437 222 335 Q222 233 259 173 Q296 113 367 113 Z M265 940 L490 795 L448 712 L196 809 L265 940 Z " />
<glyph glyph-name="Oacute" unicode="&#xd3;" horiz-adv-x="735" d="M367 -16 Q261 -16 187 28.5 Q113 73 74.5 152.5 Q36 232 36 335 Q36 437 74.5 516.5 Q113 596 187 641 Q261 686 367 686 Q474 686 548 641 Q622 596 660.5 516.5 Q699 437 699 335 Q699 232 660.5 153 Q622 74 548 29 Q474 -16 367 -16 Z M367 113 Q438 113 475.5 173 Q513 233 513 335 Q513 437 475.5 497 Q438 557 367 557 Q296 557 259 497 Q222 437 222 335 Q222 233 259 173 Q296 113 367 113 Z M244 795 L469 940 L538 809 L286 712 L244 795 Z " />
<glyph glyph-name="Ocircumflex" unicode="&#xd4;" horiz-adv-x="735" d="M367 -16 Q261 -16 187 28.5 Q113 73 74.5 152.5 Q36 232 36 335 Q36 437 74.5 516.5 Q113 596 187 641 Q261 686 367 686 Q474 686 548 641 Q622 596 660.5 516.5 Q699 437 699 335 Q699 232 660.5 153 Q622 74 548 29 Q474 -16 367 -16 Z M367 113 Q438 113 475.5 173 Q513 233 513 335 Q513 437 475.5 497 Q438 557 367 557 Q296 557 259 497 Q222 437 222 335 Q222 233 259 173 Q296 113 367 113 Z M403 915 L565 790 L512 710 L367 800 L222 710 L169 790 L331 915 L403 915 Z " />
<glyph glyph-name="Otilde" unicode="&#xd5;" horiz-adv-x="735" d="M367 -16 Q261 -16 187 28.5 Q113 73 74.5 152.5 Q36 232 36 335 Q36 437 74.5 516.5 Q113 596 187 641 Q261 686 367 686 Q474 686 548 641 Q622 596 660.5 516.5 Q699 437 699 335 Q699 232 660.5 153 Q622 74 548 29 Q474 -16 367 -16 Z M367 113 Q438 113 475.5 173 Q513 233 513 335 Q513 437 475.5 497 Q438 557 367 557 Q296 557 259 497 Q222 437 222 335 Q222 233 259 173 Q296 113 367 113 Z M344 777 Q329 788 318 794 Q307 800 297 800 Q285 800 275.5 786.5 Q266 773 259 739 L160 739 Q165 786 182 824.5 Q199 863 226 886 Q253 909 287 909 Q316 909 340 897 Q364 885 390 865 Q405 854 416 848 Q427 842 437 842 Q449 842 458.5 855.5 Q468 869 475 903 L574 903 Q569 856 552 817.5 Q535 779 508 756 Q481 733 447 733 Q418 733 394 745 Q370 757 344 777 Z " />
<glyph glyph-name="Odieresis" unicode="&#xd6;" horiz-adv-x="735" d="M367 -16 Q261 -16 187 28.5 Q113 73 74.5 152.5 Q36 232 36 335 Q36 437 74.5 516.5 Q113 596 187 641 Q261 686 367 686 Q474 686 548 641 Q622 596 660.5 516.5 Q699 437 699 335 Q699 232 660.5 153 Q622 74 548 29 Q474 -16 367 -16 Z M367 113 Q438 113 475.5 173 Q513 233 513 335 Q513 437 475.5 497 Q438 557 367 557 Q296 557 259 497 Q222 437 222 335 Q222 233 259 173 Q296 113 367 113 Z M482 736 Q447 736 423 760 Q399 784 399 820 Q399 856 423 880 Q447 904 482 904 Q517 904 541 880 Q565 856 565 820 Q565 784 541 760 Q517 736 482 736 Z M252 736 Q217 736 193 760 Q169 784 169 820 Q169 856 193 880 Q217 904 252 904 Q287 904 311 880 Q335 856 335 820 Q335 784 311 760 Q287 736 252 736 Z " />
<glyph glyph-name="multiply" unicode="&#xd7;" horiz-adv-x="590" d="M159 115 L80 194 L216 330 L80 466 L159 545 L295 409 L431 545 L510 466 L374 330 L510 194 L431 115 L295 251 L159 115 Z " />
<glyph glyph-name="Oslash" unicode="&#xd8;" horiz-adv-x="735" d="M74 8 L123 81 Q36 175 36 335 Q36 437 74.5 516.5 Q113 596 187 641 Q261 686 367 686 Q448 686 513 658 L561 729 L660 662 L611 589 Q654 542 676.5 477 Q699 412 699 335 Q699 232 660.5 153 Q622 74 548 29 Q474 -16 367 -16 Q286 -16 221 12 L173 -59 L74 8 Z M222 335 Q222 277 234 232 L438 536 Q408 557 367 557 Q296 557 259 497 Q222 437 222 335 Z M367 113 Q438 113 475.5 173 Q513 233 513 335 Q513 394 501 439 L296 134 Q326 113 367 113 Z " />
<glyph glyph-name="Ugrave" unicode="&#xd9;" horiz-adv-x="704" d="M351 -16 Q212 -16 137 62 Q62 140 62 274 L62 670 L240 670 L240 259 Q240 194 268.5 153.5 Q297 113 351 113 Q406 113 435 153.5 Q464 194 464 259 L464 670 L642 670 L642 274 Q642 140 566 62 Q490 -16 351 -16 Z M250 940 L475 795 L433 712 L181 809 L250 940 Z " />
<glyph glyph-name="Uacute" unicode="&#xda;" horiz-adv-x="704" d="M351 -16 Q212 -16 137 62 Q62 140 62 274 L62 670 L240 670 L240 259 Q240 194 268.5 153.5 Q297 113 351 113 Q406 113 435 153.5 Q464 194 464 259 L464 670 L642 670 L642 274 Q642 140 566 62 Q490 -16 351 -16 Z M229 795 L454 940 L523 809 L271 712 L229 795 Z " />
<glyph glyph-name="Ucircumflex" unicode="&#xdb;" horiz-adv-x="704" d="M351 -16 Q212 -16 137 62 Q62 140 62 274 L62 670 L240 670 L240 259 Q240 194 268.5 153.5 Q297 113 351 113 Q406 113 435 153.5 Q464 194 464 259 L464 670 L642 670 L642 274 Q642 140 566 62 Q490 -16 351 -16 Z M388 915 L550 790 L497 710 L352 800 L207 710 L154 790 L316 915 L388 915 Z " />
<glyph glyph-name="Udieresis" unicode="&#xdc;" horiz-adv-x="704" d="M351 -16 Q212 -16 137 62 Q62 140 62 274 L62 670 L240 670 L240 259 Q240 194 268.5 153.5 Q297 113 351 113 Q406 113 435 153.5 Q464 194 464 259 L464 670 L642 670 L642 274 Q642 140 566 62 Q490 -16 351 -16 Z M467 736 Q432 736 408 760 Q384 784 384 820 Q384 856 408 880 Q432 904 467 904 Q502 904 526 880 Q550 856 550 820 Q550 784 526 760 Q502 736 467 736 Z M237 736 Q202 736 178 760 Q154 784 154 820 Q154 856 178 880 Q202 904 237 904 Q272 904 296 880 Q320 856 320 820 Q320 784 296 760 Q272 736 237 736 Z " />
<glyph glyph-name="Yacute" unicode="&#xdd;" horiz-adv-x="634" d="M188 670 L320 396 L455 670 L633 670 L406 270 L406 0 L228 0 L228 268 L1 670 L188 670 Z M197 795 L422 940 L491 809 L239 712 L197 795 Z " />
<glyph glyph-name="Thorn" unicode="&#xde;" horiz-adv-x="624" d="M74 670 L252 670 L252 563 L334 563 Q463 563 532 504.5 Q601 446 601 352 Q601 248 530.5 187.5 Q460 127 314 127 L252 127 L252 0 L74 0 L74 670 Z M308 447 L252 447 L252 243 L308 243 Q421 243 421 345 Q421 447 308 447 Z " />
<glyph glyph-name="germandbls" unicode="&#xdf;" horiz-adv-x="616" d="M331 103 Q368 103 392 130.5 Q416 158 416 211 Q416 258 389 287 Q362 316 308 316 L285 316 L285 425 L307 425 Q337 425 355.5 448.5 Q374 472 374 513 Q374 598 304 598 Q270 598 250 572.5 Q230 547 230 495 L230 0 L60 0 L60 448 Q60 578 124.5 645.5 Q189 713 311 713 Q381 713 433.5 688.5 Q486 664 515 621 Q544 578 544 521 Q544 473 524.5 434.5 Q505 396 453 375 Q508 360 538 331 Q568 302 579.5 266.5 Q591 231 591 194 Q591 95 528.5 41 Q466 -13 363 -13 Q340 -13 314.5 -8.5 Q289 -4 266 6 L287 110 Q308 103 331 103 Z " />
<glyph glyph-name="agrave" unicode="&#xe0;" horiz-adv-x="554" d="M184 -13 Q114 -13 69.5 24 Q25 61 25 129 Q25 183 53.5 218 Q82 253 128.5 273 Q175 293 229.5 301.5 Q284 310 335 311 L335 322 Q335 365 318.5 388.5 Q302 412 271 412 Q245 412 227 395.5 Q209 379 204 348 L44 348 Q57 428 118 472.5 Q179 517 277 517 Q391 517 445.5 460.5 Q500 404 500 291 L500 0 L348 0 L344 66 Q318 29 274.5 8 Q231 -13 184 -13 Z M251 92 Q286 92 310.5 119.5 Q335 147 335 199 L335 238 Q260 236 227.5 211.5 Q195 187 195 151 Q195 121 210.5 106.5 Q226 92 251 92 Z M230 781 L380 625 L321 556 L142 676 L230 781 Z " />
<glyph glyph-name="aacute" unicode="&#xe1;" horiz-adv-x="554" d="M184 -13 Q114 -13 69.5 24 Q25 61 25 129 Q25 183 53.5 218 Q82 253 128.5 273 Q175 293 229.5 301.5 Q284 310 335 311 L335 322 Q335 365 318.5 388.5 Q302 412 271 412 Q245 412 227 395.5 Q209 379 204 348 L44 348 Q57 428 118 472.5 Q179 517 277 517 Q391 517 445.5 460.5 Q500 404 500 291 L500 0 L348 0 L344 66 Q318 29 274.5 8 Q231 -13 184 -13 Z M251 92 Q286 92 310.5 119.5 Q335 147 335 199 L335 238 Q260 236 227.5 211.5 Q195 187 195 151 Q195 121 210.5 106.5 Q226 92 251 92 Z M180 625 L330 781 L418 676 L239 556 L180 625 Z " />
<glyph glyph-name="acircumflex" unicode="&#xe2;" horiz-adv-x="554" d="M184 -13 Q114 -13 69.5 24 Q25 61 25 129 Q25 183 53.5 218 Q82 253 128.5 273 Q175 293 229.5 301.5 Q284 310 335 311 L335 322 Q335 365 318.5 388.5 Q302 412 271 412 Q245 412 227 395.5 Q209 379 204 348 L44 348 Q57 428 118 472.5 Q179 517 277 517 Q391 517 445.5 460.5 Q500 404 500 291 L500 0 L348 0 L344 66 Q318 29 274.5 8 Q231 -13 184 -13 Z M251 92 Q286 92 310.5 119.5 Q335 147 335 199 L335 238 Q260 236 227.5 211.5 Q195 187 195 151 Q195 121 210.5 106.5 Q226 92 251 92 Z M321 770 L458 624 L401 557 L280 657 L159 557 L102 624 L239 770 L321 770 Z " />
<glyph glyph-name="atilde" unicode="&#xe3;" horiz-adv-x="554" d="M184 -13 Q114 -13 69.5 24 Q25 61 25 129 Q25 183 53.5 218 Q82 253 128.5 273 Q175 293 229.5 301.5 Q284 310 335 311 L335 322 Q335 365 318.5 388.5 Q302 412 271 412 Q245 412 227 395.5 Q209 379 204 348 L44 348 Q57 428 118 472.5 Q179 517 277 517 Q391 517 445.5 460.5 Q500 404 500 291 L500 0 L348 0 L344 66 Q318 29 274.5 8 Q231 -13 184 -13 Z M251 92 Q286 92 310.5 119.5 Q335 147 335 199 L335 238 Q260 236 227.5 211.5 Q195 187 195 151 Q195 121 210.5 106.5 Q226 92 251 92 Z M260 611 Q243 624 234 629 Q225 634 217 634 Q195 634 185 577 L92 577 Q96 644 127 690.5 Q158 737 210 737 Q237 737 258.5 725 Q280 713 300 697 Q317 684 326 679 Q335 674 343 674 Q365 674 375 731 L468 731 Q464 664 433 617.5 Q402 571 350 571 Q323 571 301.5 583 Q280 595 260 611 Z " />
<glyph glyph-name="adieresis" unicode="&#xe4;" horiz-adv-x="554" d="M184 -13 Q114 -13 69.5 24 Q25 61 25 129 Q25 183 53.5 218 Q82 253 128.5 273 Q175 293 229.5 301.5 Q284 310 335 311 L335 322 Q335 365 318.5 388.5 Q302 412 271 412 Q245 412 227 395.5 Q209 379 204 348 L44 348 Q57 428 118 472.5 Q179 517 277 517 Q391 517 445.5 460.5 Q500 404 500 291 L500 0 L348 0 L344 66 Q318 29 274.5 8 Q231 -13 184 -13 Z M251 92 Q286 92 310.5 119.5 Q335 147 335 199 L335 238 Q260 236 227.5 211.5 Q195 187 195 151 Q195 121 210.5 106.5 Q226 92 251 92 Z M380 561 Q347 561 323.5 584 Q300 607 300 641 Q300 673 323.5 696 Q347 719 380 719 Q412 719 436 696 Q460 673 460 641 Q460 607 436 584 Q412 561 380 561 Z M180 561 Q147 561 123.5 584 Q100 607 100 641 Q100 673 123.5 696 Q147 719 180 719 Q212 719 236 696 Q260 673 260 641 Q260 607 236 584 Q212 561 180 561 Z " />
<glyph glyph-name="aring" unicode="&#xe5;" horiz-adv-x="554" d="M184 -13 Q114 -13 69.5 24 Q25 61 25 129 Q25 183 53.5 218 Q82 253 128.5 273 Q175 293 229.5 301.5 Q284 310 335 311 L335 322 Q335 365 318.5 388.5 Q302 412 271 412 Q245 412 227 395.5 Q209 379 204 348 L44 348 Q57 428 118 472.5 Q179 517 277 517 Q391 517 445.5 460.5 Q500 404 500 291 L500 0 L348 0 L344 66 Q318 29 274.5 8 Q231 -13 184 -13 Z M251 92 Q286 92 310.5 119.5 Q335 147 335 199 L335 238 Q260 236 227.5 211.5 Q195 187 195 151 Q195 121 210.5 106.5 Q226 92 251 92 Z M280 551 Q226 551 191.5 584.5 Q157 618 157 671 Q157 726 191.5 758.5 Q226 791 280 791 Q336 791 370.5 758.5 Q405 726 405 671 Q405 618 370 584.5 Q335 551 280 551 Z M280 617 Q302 617 316.5 632 Q331 647 331 671 Q331 694 316.5 709.5 Q302 725 280 725 Q258 725 243.5 709.5 Q229 694 229 671 Q229 647 243.5 632 Q258 617 280 617 Z " />
<glyph glyph-name="ae" unicode="&#xe6;" horiz-adv-x="840" d="M808 157 Q788 72 724 29.5 Q660 -13 575 -13 Q512 -13 464.5 11.5 Q417 36 390 83 Q365 39 311.5 13 Q258 -13 195 -13 Q120 -13 72.5 24 Q25 61 25 129 Q25 183 54 218 Q83 253 129.5 273 Q176 293 230 301.5 Q284 310 335 312 L335 322 Q335 365 318.5 388.5 Q302 412 271 412 Q245 412 227 395.5 Q209 379 204 348 L44 348 Q57 428 117.5 472.5 Q178 517 275 517 Q321 517 356.5 501 Q392 485 418 452 Q446 483 484.5 500 Q523 517 571 517 Q646 517 700.5 483.5 Q755 450 784.5 390 Q814 330 814 250 L814 217 L483 217 Q488 149 512.5 120.5 Q537 92 571 92 Q603 92 621 109 Q639 126 646 157 L808 157 Z M566 412 Q532 412 509.5 382.5 Q487 353 483 298 L646 298 Q642 352 622 382 Q602 412 566 412 Z M251 92 Q286 92 310.5 119 Q335 146 335 196 L335 238 Q260 236 227.5 211.5 Q195 187 195 151 Q195 121 210.5 106.5 Q226 92 251 92 Z " />
<glyph glyph-name="ccedilla" unicode="&#xe7;" horiz-adv-x="543" d="M284 -13 Q212 -13 154 17 Q96 47 62 106.5 Q28 166 28 252 Q28 335 62 394.5 Q96 454 154 485.5 Q212 517 284 517 Q342 517 392.5 495.5 Q443 474 476.5 431 Q510 388 518 323 L350 323 Q342 368 325 387.5 Q308 407 284 407 Q252 407 228 372 Q204 337 204 252 Q204 168 228 132.5 Q252 97 284 97 Q310 97 327.5 117 Q345 137 353 188 L520 188 Q509 118 474 73.5 Q439 29 389.5 8 Q340 -13 284 -13 Z M236 0 L306 0 L297 -59 Q307 -56 320 -56 Q365 -56 393.5 -83 Q422 -110 422 -154 Q422 -209 385 -240.5 Q348 -272 279 -272 Q239 -272 200 -261 L207 -187 Q242 -196 271 -196 Q325 -196 325 -156 Q325 -139 314.5 -128 Q304 -117 287 -117 Q267 -117 249 -128 L221 -128 L236 0 Z " />
<glyph glyph-name="egrave" unicode="&#xe8;" horiz-adv-x="553" d="M283 -13 Q212 -13 154 16 Q96 45 62 103.5 Q28 162 28 252 Q28 333 59.5 392.5 Q91 452 147.5 484.5 Q204 517 279 517 Q358 517 413.5 483.5 Q469 450 498 390 Q527 330 527 250 L527 217 L196 217 Q202 149 225.5 120.5 Q249 92 284 92 Q316 92 334 109 Q352 126 359 157 L521 157 Q501 72 436.5 29.5 Q372 -13 283 -13 Z M279 412 Q245 412 222.5 382.5 Q200 353 196 298 L359 298 Q355 352 335 382 Q315 412 279 412 Z M229 781 L379 625 L320 556 L141 676 L229 781 Z " />
<glyph glyph-name="eacute" unicode="&#xe9;" horiz-adv-x="553" d="M283 -13 Q212 -13 154 16 Q96 45 62 103.5 Q28 162 28 252 Q28 333 59.5 392.5 Q91 452 147.5 484.5 Q204 517 279 517 Q358 517 413.5 483.5 Q469 450 498 390 Q527 330 527 250 L527 217 L196 217 Q202 149 225.5 120.5 Q249 92 284 92 Q316 92 334 109 Q352 126 359 157 L521 157 Q501 72 436.5 29.5 Q372 -13 283 -13 Z M279 412 Q245 412 222.5 382.5 Q200 353 196 298 L359 298 Q355 352 335 382 Q315 412 279 412 Z M179 625 L329 781 L417 676 L238 556 L179 625 Z " />
<glyph glyph-name="ecircumflex" unicode="&#xea;" horiz-adv-x="553" d="M283 -13 Q212 -13 154 16 Q96 45 62 103.5 Q28 162 28 252 Q28 333 59.5 392.5 Q91 452 147.5 484.5 Q204 517 279 517 Q358 517 413.5 483.5 Q469 450 498 390 Q527 330 527 250 L527 217 L196 217 Q202 149 225.5 120.5 Q249 92 284 92 Q316 92 334 109 Q352 126 359 157 L521 157 Q501 72 436.5 29.5 Q372 -13 283 -13 Z M279 412 Q245 412 222.5 382.5 Q200 353 196 298 L359 298 Q355 352 335 382 Q315 412 279 412 Z M320 770 L457 624 L400 557 L279 657 L158 557 L101 624 L238 770 L320 770 Z " />
<glyph glyph-name="edieresis" unicode="&#xeb;" horiz-adv-x="553" d="M283 -13 Q212 -13 154 16 Q96 45 62 103.5 Q28 162 28 252 Q28 333 59.5 392.5 Q91 452 147.5 484.5 Q204 517 279 517 Q358 517 413.5 483.5 Q469 450 498 390 Q527 330 527 250 L527 217 L196 217 Q202 149 225.5 120.5 Q249 92 284 92 Q316 92 334 109 Q352 126 359 157 L521 157 Q501 72 436.5 29.5 Q372 -13 283 -13 Z M279 412 Q245 412 222.5 382.5 Q200 353 196 298 L359 298 Q355 352 335 382 Q315 412 279 412 Z M379 561 Q346 561 322.5 584 Q299 607 299 641 Q299 673 322.5 696 Q346 719 379 719 Q411 719 435 696 Q459 673 459 641 Q459 607 435 584 Q411 561 379 561 Z M179 561 Q146 561 122.5 584 Q99 607 99 641 Q99 673 122.5 696 Q146 719 179 719 Q211 719 235 696 Q259 673 259 641 Q259 607 235 584 Q211 561 179 561 Z " />
<glyph glyph-name="igrave" unicode="&#xec;" horiz-adv-x="290" d="M60 0 L60 504 L230 504 L230 0 L60 0 Z M119 781 L233 615 L161 556 L15 689 L119 781 Z " />
<glyph glyph-name="iacute" unicode="&#xed;" horiz-adv-x="290" d="M60 0 L60 504 L230 504 L230 0 L60 0 Z M57 615 L171 781 L275 689 L129 556 L57 615 Z " />
<glyph glyph-name="icircumflex" unicode="&#xee;" horiz-adv-x="290" d="M60 0 L60 504 L230 504 L230 0 L60 0 Z M186 755 L308 604 L246 542 L145 640 L44 542 L-18 604 L104 755 L186 755 Z " />
<glyph glyph-name="idieresis" unicode="&#xef;" horiz-adv-x="290" d="M60 0 L60 504 L230 504 L230 0 L60 0 Z M56 561 Q23 561 -0.5 584 Q-24 607 -24 641 Q-24 673 -0.5 696 Q23 719 56 719 Q88 719 112 696 Q136 673 136 641 Q136 607 112 584 Q88 561 56 561 Z M234 561 Q201 561 177.5 584 Q154 607 154 641 Q154 673 177.5 696 Q201 719 234 719 Q266 719 290 696 Q314 673 314 641 Q314 607 290 584 Q266 561 234 561 Z " />
<glyph glyph-name="eth" unicode="&#xf0;" horiz-adv-x="570" d="M285 -13 Q206 -13 148.5 20 Q91 53 59.5 111.5 Q28 170 28 246 Q28 316 55 371.5 Q82 427 128 459 Q174 491 231 491 Q271 491 306.5 473 Q342 455 364 420 Q360 460 338.5 496 Q317 532 279 559 L210 504 L161 566 L199 596 Q167 606 131 609 L158 727 Q248 721 318 692 L404 760 L452 697 L392 650 Q469 593 505.5 501 Q542 409 542 294 Q542 200 510 131 Q478 62 420 24.5 Q362 -13 285 -13 Z M285 97 Q325 97 345.5 134 Q366 171 366 235 Q366 299 345.5 336 Q325 373 285 373 Q245 373 224.5 336 Q204 299 204 235 Q204 171 224.5 134 Q245 97 285 97 Z " />
<glyph glyph-name="ntilde" unicode="&#xf1;" horiz-adv-x="601" d="M60 0 L60 504 L212 504 L217 427 Q236 468 276.5 492.5 Q317 517 373 517 Q454 517 500.5 467.5 Q547 418 547 334 L547 0 L377 0 L377 308 Q377 348 360 371.5 Q343 395 309 395 Q278 395 254 368.5 Q230 342 230 285 L230 0 L60 0 Z M283 611 Q266 624 257 629 Q248 634 240 634 Q218 634 208 577 L115 577 Q119 644 150 690.5 Q181 737 233 737 Q260 737 281.5 725 Q303 713 323 697 Q340 684 349 679 Q358 674 366 674 Q388 674 398 731 L491 731 Q487 664 456 617.5 Q425 571 373 571 Q346 571 324.5 583 Q303 595 283 611 Z " />
<glyph glyph-name="ograve" unicode="&#xf2;" horiz-adv-x="578" d="M289 -13 Q208 -13 149.5 22 Q91 57 59.5 116.5 Q28 176 28 252 Q28 328 59.5 387.5 Q91 447 149.5 482 Q208 517 289 517 Q370 517 428.5 482 Q487 447 518.5 387.5 Q550 328 550 252 Q550 176 518.5 116.5 Q487 57 428.5 22 Q370 -13 289 -13 Z M289 97 Q329 97 351.5 138.5 Q374 180 374 252 Q374 324 351.5 365.5 Q329 407 289 407 Q249 407 226.5 365.5 Q204 324 204 252 Q204 180 226.5 138.5 Q249 97 289 97 Z M239 781 L389 625 L330 556 L151 676 L239 781 Z " />
<glyph glyph-name="oacute" unicode="&#xf3;" horiz-adv-x="578" d="M289 -13 Q208 -13 149.5 22 Q91 57 59.5 116.5 Q28 176 28 252 Q28 328 59.5 387.5 Q91 447 149.5 482 Q208 517 289 517 Q370 517 428.5 482 Q487 447 518.5 387.5 Q550 328 550 252 Q550 176 518.5 116.5 Q487 57 428.5 22 Q370 -13 289 -13 Z M289 97 Q329 97 351.5 138.5 Q374 180 374 252 Q374 324 351.5 365.5 Q329 407 289 407 Q249 407 226.5 365.5 Q204 324 204 252 Q204 180 226.5 138.5 Q249 97 289 97 Z M189 625 L339 781 L427 676 L248 556 L189 625 Z " />
<glyph glyph-name="ocircumflex" unicode="&#xf4;" horiz-adv-x="578" d="M289 -13 Q208 -13 149.5 22 Q91 57 59.5 116.5 Q28 176 28 252 Q28 328 59.5 387.5 Q91 447 149.5 482 Q208 517 289 517 Q370 517 428.5 482 Q487 447 518.5 387.5 Q550 328 550 252 Q550 176 518.5 116.5 Q487 57 428.5 22 Q370 -13 289 -13 Z M289 97 Q329 97 351.5 138.5 Q374 180 374 252 Q374 324 351.5 365.5 Q329 407 289 407 Q249 407 226.5 365.5 Q204 324 204 252 Q204 180 226.5 138.5 Q249 97 289 97 Z M330 770 L467 624 L410 557 L289 657 L168 557 L111 624 L248 770 L330 770 Z " />
<glyph glyph-name="otilde" unicode="&#xf5;" horiz-adv-x="578" d="M289 -13 Q208 -13 149.5 22 Q91 57 59.5 116.5 Q28 176 28 252 Q28 328 59.5 387.5 Q91 447 149.5 482 Q208 517 289 517 Q370 517 428.5 482 Q487 447 518.5 387.5 Q550 328 550 252 Q550 176 518.5 116.5 Q487 57 428.5 22 Q370 -13 289 -13 Z M289 97 Q329 97 351.5 138.5 Q374 180 374 252 Q374 324 351.5 365.5 Q329 407 289 407 Q249 407 226.5 365.5 Q204 324 204 252 Q204 180 226.5 138.5 Q249 97 289 97 Z M269 611 Q252 624 243 629 Q234 634 226 634 Q204 634 194 577 L101 577 Q105 644 136 690.5 Q167 737 219 737 Q246 737 267.5 725 Q289 713 309 697 Q326 684 335 679 Q344 674 352 674 Q374 674 384 731 L477 731 Q473 664 442 617.5 Q411 571 359 571 Q332 571 310.5 583 Q289 595 269 611 Z " />
<glyph glyph-name="odieresis" unicode="&#xf6;" horiz-adv-x="578" d="M289 -13 Q208 -13 149.5 22 Q91 57 59.5 116.5 Q28 176 28 252 Q28 328 59.5 387.5 Q91 447 149.5 482 Q208 517 289 517 Q370 517 428.5 482 Q487 447 518.5 387.5 Q550 328 550 252 Q550 176 518.5 116.5 Q487 57 428.5 22 Q370 -13 289 -13 Z M289 97 Q329 97 351.5 138.5 Q374 180 374 252 Q374 324 351.5 365.5 Q329 407 289 407 Q249 407 226.5 365.5 Q204 324 204 252 Q204 180 226.5 138.5 Q249 97 289 97 Z M389 561 Q356 561 332.5 584 Q309 607 309 641 Q309 673 332.5 696 Q356 719 389 719 Q421 719 445 696 Q469 673 469 641 Q469 607 445 584 Q421 561 389 561 Z M189 561 Q156 561 132.5 584 Q109 607 109 641 Q109 673 132.5 696 Q156 719 189 719 Q221 719 245 696 Q269 673 269 641 Q269 607 245 584 Q221 561 189 561 Z " />
<glyph glyph-name="divide" unicode="&#xf7;" horiz-adv-x="590" d="M294 453 Q262 453 240.5 475 Q219 497 219 528 Q219 561 240.5 582 Q262 603 294 603 Q326 603 348 582 Q370 561 370 528 Q370 497 348 475 Q326 453 294 453 Z M76 272 L76 388 L513 388 L513 272 L76 272 Z M294 57 Q262 57 240.5 79 Q219 101 219 132 Q219 165 240.5 186 Q262 207 294 207 Q326 207 348 186 Q370 165 370 132 Q370 101 348 79 Q326 57 294 57 Z " />
<glyph glyph-name="oslash" unicode="&#xf8;" horiz-adv-x="578" d="M54 -1 L98 63 Q28 136 28 252 Q28 328 59.5 387.5 Q91 447 149.5 482 Q208 517 289 517 Q345 517 392 499 L436 564 L524 505 L481 441 Q550 367 550 252 Q550 176 518.5 116.5 Q487 57 428.5 22 Q370 -13 289 -13 Q233 -13 186 5 L142 -60 L54 -1 Z M204 252 Q204 228 207 207 L331 392 Q313 407 289 407 Q249 407 226.5 365.5 Q204 324 204 252 Z M289 97 Q329 97 351.5 138.5 Q374 180 374 252 Q374 277 371 298 L246 113 Q265 97 289 97 Z " />
<glyph glyph-name="ugrave" unicode="&#xf9;" horiz-adv-x="594" d="M531 504 L531 0 L379 0 L373 82 Q355 40 315.5 13.5 Q276 -13 219 -13 Q145 -13 100.5 36.5 Q56 86 56 170 L56 504 L226 504 L226 196 Q226 156 241.5 132.5 Q257 109 288 109 Q317 109 339 135.5 Q361 162 361 219 L361 504 L531 504 Z M243 781 L393 625 L334 556 L155 676 L243 781 Z " />
<glyph glyph-name="uacute" unicode="&#xfa;" horiz-adv-x="594" d="M531 504 L531 0 L379 0 L373 82 Q355 40 315.5 13.5 Q276 -13 219 -13 Q145 -13 100.5 36.5 Q56 86 56 170 L56 504 L226 504 L226 196 Q226 156 241.5 132.5 Q257 109 288 109 Q317 109 339 135.5 Q361 162 361 219 L361 504 L531 504 Z M193 625 L343 781 L431 676 L252 556 L193 625 Z " />
<glyph glyph-name="ucircumflex" unicode="&#xfb;" horiz-adv-x="594" d="M531 504 L531 0 L379 0 L373 82 Q355 40 315.5 13.5 Q276 -13 219 -13 Q145 -13 100.5 36.5 Q56 86 56 170 L56 504 L226 504 L226 196 Q226 156 241.5 132.5 Q257 109 288 109 Q317 109 339 135.5 Q361 162 361 219 L361 504 L531 504 Z M334 770 L471 624 L414 557 L293 657 L172 557 L115 624 L252 770 L334 770 Z " />
<glyph glyph-name="udieresis" unicode="&#xfc;" horiz-adv-x="594" d="M531 504 L531 0 L379 0 L373 82 Q355 40 315.5 13.5 Q276 -13 219 -13 Q145 -13 100.5 36.5 Q56 86 56 170 L56 504 L226 504 L226 196 Q226 156 241.5 132.5 Q257 109 288 109 Q317 109 339 135.5 Q361 162 361 219 L361 504 L531 504 Z M393 561 Q360 561 336.5 584 Q313 607 313 641 Q313 673 336.5 696 Q360 719 393 719 Q425 719 449 696 Q473 673 473 641 Q473 607 449 584 Q425 561 393 561 Z M193 561 Q160 561 136.5 584 Q113 607 113 641 Q113 673 136.5 696 Q160 719 193 719 Q225 719 249 696 Q273 673 273 641 Q273 607 249 584 Q225 561 193 561 Z " />
<glyph glyph-name="yacute" unicode="&#xfd;" horiz-adv-x="536" d="M4 -198 L39 -94 Q70 -107 100 -107 Q123 -107 141.5 -93 Q160 -79 179 -36 L198 8 L3 504 L179 504 L275 186 L368 504 L533 504 L319 -43 Q283 -135 235 -179 Q187 -223 119 -223 Q84 -223 55 -216.5 Q26 -210 4 -198 Z M173 625 L323 781 L411 676 L232 556 L173 625 Z " />
<glyph glyph-name="thorn" unicode="&#xfe;" horiz-adv-x="599" d="M364 -13 Q324 -13 288 5.5 Q252 24 230 60 L230 -210 L60 -210 L60 700 L230 700 L230 444 Q279 517 370 517 Q432 517 477 482.5 Q522 448 546.5 388 Q571 328 571 252 Q571 174 545 114 Q519 54 472.5 20.5 Q426 -13 364 -13 Z M312 105 Q353 105 374 146.5 Q395 188 395 252 Q395 316 374 358 Q353 400 312 400 Q274 400 251 363.5 Q228 327 228 261 L228 243 Q228 178 251 141.5 Q274 105 312 105 Z " />
<glyph glyph-name="ydieresis" unicode="&#xff;" horiz-adv-x="536" d="M4 -198 L39 -94 Q70 -107 100 -107 Q123 -107 141.5 -93 Q160 -79 179 -36 L198 8 L3 504 L179 504 L275 186 L368 504 L533 504 L319 -43 Q283 -135 235 -179 Q187 -223 119 -223 Q84 -223 55 -216.5 Q26 -210 4 -198 Z M373 561 Q340 561 316.5 584 Q293 607 293 641 Q293 673 316.5 696 Q340 719 373 719 Q405 719 429 696 Q453 673 453 641 Q453 607 429 584 Q405 561 373 561 Z M173 561 Q140 561 116.5 584 Q93 607 93 641 Q93 673 116.5 696 Q140 719 173 719 Q205 719 229 696 Q253 673 253 641 Q253 607 229 584 Q205 561 173 561 Z " />
<glyph glyph-name="Amacron" unicode="&#x100;" horiz-adv-x="666" d="M480 0 L441 124 L219 124 L180 0 L7 0 L247 670 L420 670 L659 0 L480 0 Z M258 251 L401 251 L330 480 L258 251 Z M145 752 L145 870 L521 870 L521 752 L145 752 Z " />
<glyph glyph-name="amacron" unicode="&#x101;" horiz-adv-x="554" d="M184 -13 Q114 -13 69.5 24 Q25 61 25 129 Q25 183 53.5 218 Q82 253 128.5 273 Q175 293 229.5 301.5 Q284 310 335 311 L335 322 Q335 365 318.5 388.5 Q302 412 271 412 Q245 412 227 395.5 Q209 379 204 348 L44 348 Q57 428 118 472.5 Q179 517 277 517 Q391 517 445.5 460.5 Q500 404 500 291 L500 0 L348 0 L344 66 Q318 29 274.5 8 Q231 -13 184 -13 Z M251 92 Q286 92 310.5 119.5 Q335 147 335 199 L335 238 Q260 236 227.5 211.5 Q195 187 195 151 Q195 121 210.5 106.5 Q226 92 251 92 Z M117 589 L117 695 L443 695 L443 589 L117 589 Z " />
<glyph glyph-name="Abreve" unicode="&#x102;" horiz-adv-x="666" d="M480 0 L441 124 L219 124 L180 0 L7 0 L247 670 L420 670 L659 0 L480 0 Z M258 251 L401 251 L330 480 L258 251 Z M333 739 Q278 739 238.5 760.5 Q199 782 177 819 Q155 856 152 900 L257 900 Q261 878 280 860.5 Q299 843 333 843 Q366 843 384.5 860.5 Q403 878 407 900 L512 900 Q509 856 488 819 Q467 782 428 760.5 Q389 739 333 739 Z " />
<glyph glyph-name="abreve" unicode="&#x103;" horiz-adv-x="554" d="M184 -13 Q114 -13 69.5 24 Q25 61 25 129 Q25 183 53.5 218 Q82 253 128.5 273 Q175 293 229.5 301.5 Q284 310 335 311 L335 322 Q335 365 318.5 388.5 Q302 412 271 412 Q245 412 227 395.5 Q209 379 204 348 L44 348 Q57 428 118 472.5 Q179 517 277 517 Q391 517 445.5 460.5 Q500 404 500 291 L500 0 L348 0 L344 66 Q318 29 274.5 8 Q231 -13 184 -13 Z M251 92 Q286 92 310.5 119.5 Q335 147 335 199 L335 238 Q260 236 227.5 211.5 Q195 187 195 151 Q195 121 210.5 106.5 Q226 92 251 92 Z M280 569 Q207 569 163.5 617 Q120 665 116 737 L215 737 Q218 708 235 687.5 Q252 667 280 667 Q309 667 325.5 687.5 Q342 708 345 737 L444 737 Q440 665 398 617 Q356 569 280 569 Z " />
<glyph glyph-name="Aogonek" unicode="&#x104;" horiz-adv-x="666" d="M480 0 L441 124 L219 124 L180 0 L7 0 L247 670 L420 670 L659 0 L480 0 Z M258 251 L401 251 L330 480 L258 251 Z M542 -268 Q469 -268 429 -231 Q389 -194 389 -142 Q389 -104 408.5 -69.5 Q428 -35 480 0 L604 0 Q555 -8 536 -37.5 Q517 -67 517 -96 Q517 -130 534.5 -148 Q552 -166 580 -166 Q607 -166 636 -154 L636 -253 Q613 -261 590.5 -264.5 Q568 -268 542 -268 Z " />
<glyph glyph-name="aogonek" unicode="&#x105;" horiz-adv-x="554" d="M184 -13 Q114 -13 69.5 24 Q25 61 25 129 Q25 183 53.5 218 Q82 253 128.5 273 Q175 293 229.5 301.5 Q284 310 335 311 L335 322 Q335 365 318.5 388.5 Q302 412 271 412 Q245 412 227 395.5 Q209 379 204 348 L44 348 Q57 428 118 472.5 Q179 517 277 517 Q391 517 445.5 460.5 Q500 404 500 291 L500 0 L348 0 L344 66 Q318 29 274.5 8 Q231 -13 184 -13 Z M251 92 Q286 92 310.5 119.5 Q335 147 335 199 L335 238 Q260 236 227.5 211.5 Q195 187 195 151 Q195 121 210.5 106.5 Q226 92 251 92 Z M409 -262 Q338 -262 298.5 -226 Q259 -190 259 -141 Q259 -103 278.5 -68.5 Q298 -34 348 0 L471 0 Q420 -8 400.5 -36 Q381 -64 381 -98 Q381 -130 400.5 -148 Q420 -166 445 -166 Q476 -166 500 -156 L500 -248 Q459 -262 409 -262 Z " />
<glyph glyph-name="Cacute" unicode="&#x106;" horiz-adv-x="692" d="M360 -16 Q255 -16 182.5 28.5 Q110 73 73 152 Q36 231 36 335 Q36 438 73 517 Q110 596 182.5 641 Q255 686 360 686 Q488 686 566.5 616 Q645 546 666 427 L479 427 Q468 488 437 522.5 Q406 557 360 557 Q293 557 257.5 498 Q222 439 222 335 Q222 231 257.5 172 Q293 113 360 113 Q405 113 435.5 145.5 Q466 178 477 237 L664 237 Q652 161 612.5 104 Q573 47 509 15.5 Q445 -16 360 -16 Z M228 795 L453 940 L522 809 L270 712 L228 795 Z " />
<glyph glyph-name="cacute" unicode="&#x107;" horiz-adv-x="543" d="M284 -13 Q212 -13 154 17 Q96 47 62 106.5 Q28 166 28 252 Q28 335 62 394.5 Q96 454 154 485.5 Q212 517 284 517 Q342 517 392.5 495.5 Q443 474 476.5 431 Q510 388 518 323 L350 323 Q342 368 325 387.5 Q308 407 284 407 Q252 407 228 372 Q204 337 204 252 Q204 168 228 132.5 Q252 97 284 97 Q310 97 327.5 117 Q345 137 353 188 L520 188 Q509 118 474 73.5 Q439 29 389.5 8 Q340 -13 284 -13 Z M184 625 L334 781 L422 676 L243 556 L184 625 Z " />
<glyph glyph-name="Cdotaccent" unicode="&#x10a;" horiz-adv-x="692" d="M360 -16 Q255 -16 182.5 28.5 Q110 73 73 152 Q36 231 36 335 Q36 438 73 517 Q110 596 182.5 641 Q255 686 360 686 Q488 686 566.5 616 Q645 546 666 427 L479 427 Q468 488 437 522.5 Q406 557 360 557 Q293 557 257.5 498 Q222 439 222 335 Q222 231 257.5 172 Q293 113 360 113 Q405 113 435.5 145.5 Q466 178 477 237 L664 237 Q652 161 612.5 104 Q573 47 509 15.5 Q445 -16 360 -16 Z M351 727 Q311 727 282.5 754.5 Q254 782 254 820 Q254 858 282.5 885.5 Q311 913 351 913 Q391 913 419.5 885.5 Q448 858 448 820 Q448 782 419.5 754.5 Q391 727 351 727 Z " />
<glyph glyph-name="cdotaccent" unicode="&#x10b;" horiz-adv-x="543" d="M284 -13 Q212 -13 154 17 Q96 47 62 106.5 Q28 166 28 252 Q28 335 62 394.5 Q96 454 154 485.5 Q212 517 284 517 Q342 517 392.5 495.5 Q443 474 476.5 431 Q510 388 518 323 L350 323 Q342 368 325 387.5 Q308 407 284 407 Q252 407 228 372 Q204 337 204 252 Q204 168 228 132.5 Q252 97 284 97 Q310 97 327.5 117 Q345 137 353 188 L520 188 Q509 118 474 73.5 Q439 29 389.5 8 Q340 -13 284 -13 Z M284 561 Q244 561 216.5 587.5 Q189 614 189 652 Q189 690 216.5 716.5 Q244 743 284 743 Q324 743 351.5 716.5 Q379 690 379 652 Q379 614 351.5 587.5 Q324 561 284 561 Z " />
<glyph glyph-name="Ccaron" unicode="&#x10c;" horiz-adv-x="692" d="M360 -16 Q255 -16 182.5 28.5 Q110 73 73 152 Q36 231 36 335 Q36 438 73 517 Q110 596 182.5 641 Q255 686 360 686 Q488 686 566.5 616 Q645 546 666 427 L479 427 Q468 488 437 522.5 Q406 557 360 557 Q293 557 257.5 498 Q222 439 222 335 Q222 231 257.5 172 Q293 113 360 113 Q405 113 435.5 145.5 Q466 178 477 237 L664 237 Q652 161 612.5 104 Q573 47 509 15.5 Q445 -16 360 -16 Z M315 725 L153 850 L206 930 L351 840 L496 930 L549 850 L387 725 L315 725 Z " />
<glyph glyph-name="ccaron" unicode="&#x10d;" horiz-adv-x="543" d="M284 -13 Q212 -13 154 17 Q96 47 62 106.5 Q28 166 28 252 Q28 335 62 394.5 Q96 454 154 485.5 Q212 517 284 517 Q342 517 392.5 495.5 Q443 474 476.5 431 Q510 388 518 323 L350 323 Q342 368 325 387.5 Q308 407 284 407 Q252 407 228 372 Q204 337 204 252 Q204 168 228 132.5 Q252 97 284 97 Q310 97 327.5 117 Q345 137 353 188 L520 188 Q509 118 474 73.5 Q439 29 389.5 8 Q340 -13 284 -13 Z M464 707 L325 567 L243 567 L104 707 L163 780 L284 681 L405 780 L464 707 Z " />
<glyph glyph-name="Dcaron" unicode="&#x10e;" horiz-adv-x="712" d="M74 0 L74 670 L309 670 Q428 670 510 626.5 Q592 583 634 509.5 Q676 436 676 345 Q676 243 634 165.5 Q592 88 510 44 Q428 0 309 0 L74 0 Z M309 546 L242 546 L242 125 L309 125 Q402 125 446 180 Q490 235 490 335 Q490 436 446 491 Q402 546 309 546 Z M279 725 L117 850 L170 930 L315 840 L460 930 L513 850 L351 725 L279 725 Z " />
<glyph glyph-name="dcaron" unicode="&#x10f;" horiz-adv-x="704" d="M235 517 Q275 517 311 498.5 Q347 480 369 444 L369 700 L539 700 L539 0 L387 0 L381 82 Q334 -13 229 -13 Q168 -13 122.5 21.5 Q77 56 52.5 116 Q28 176 28 252 Q28 330 54 390 Q80 450 126.5 483.5 Q173 517 235 517 Z M287 399 Q246 399 225 357.5 Q204 316 204 252 Q204 188 225 146 Q246 104 287 104 Q324 104 347.5 140.5 Q371 177 371 243 L371 261 Q371 326 347.5 362.5 Q324 399 287 399 Z M690 516 L612 516 L612 700 L738 700 L738 692 Q738 666 732 632 Q726 598 715 566 Q704 534 690 516 Z " />
<glyph glyph-name="Dcroat" unicode="&#x110;" horiz-adv-x="732" d="M94 0 L94 282 L14 282 L14 397 L94 397 L94 670 L329 670 Q448 670 530 626 Q612 582 654 506.5 Q696 431 696 335 Q696 238 654 162.5 Q612 87 530 43.5 Q448 0 329 0 L94 0 Z M408 282 L262 282 L262 125 L329 125 Q422 125 466 180 Q510 235 510 335 Q510 436 466 491 Q422 546 329 546 L262 546 L262 397 L408 397 L408 282 Z " />
<glyph glyph-name="dslash" unicode="&#x111;" horiz-adv-x="614" d="M229 -13 Q168 -13 122.5 20 Q77 53 52.5 110.5 Q28 168 28 242 Q28 318 54 375 Q80 432 126.5 464.5 Q173 497 235 497 Q275 497 311 478.5 Q347 460 369 424 L369 544 L242 544 L242 634 L369 634 L369 700 L539 700 L539 634 L604 634 L604 544 L539 544 L539 0 L387 0 L380 78 Q356 33 317.5 10 Q279 -13 229 -13 Z M287 379 Q246 379 225 340 Q204 301 204 242 Q204 183 225 143.5 Q246 104 287 104 Q324 104 347.5 138 Q371 172 371 233 L371 251 Q371 312 347.5 345.5 Q324 379 287 379 Z " />
<glyph glyph-name="Emacron" unicode="&#x112;" horiz-adv-x="577" d="M74 0 L74 670 L528 670 L528 539 L252 539 L252 400 L497 400 L497 275 L252 275 L252 131 L532 131 L532 0 L74 0 Z M113 752 L113 870 L489 870 L489 752 L113 752 Z " />
<glyph glyph-name="emacron" unicode="&#x113;" horiz-adv-x="553" d="M283 -13 Q212 -13 154 16 Q96 45 62 103.5 Q28 162 28 252 Q28 333 59.5 392.5 Q91 452 147.5 484.5 Q204 517 279 517 Q358 517 413.5 483.5 Q469 450 498 390 Q527 330 527 250 L527 217 L196 217 Q202 149 225.5 120.5 Q249 92 284 92 Q316 92 334 109 Q352 126 359 157 L521 157 Q501 72 436.5 29.5 Q372 -13 283 -13 Z M279 412 Q245 412 222.5 382.5 Q200 353 196 298 L359 298 Q355 352 335 382 Q315 412 279 412 Z M116 589 L116 695 L442 695 L442 589 L116 589 Z " />
<glyph glyph-name="Edotaccent" unicode="&#x116;" horiz-adv-x="577" d="M74 0 L74 670 L528 670 L528 539 L252 539 L252 400 L497 400 L497 275 L252 275 L252 131 L532 131 L532 0 L74 0 Z M301 727 Q261 727 232.5 754.5 Q204 782 204 820 Q204 858 232.5 885.5 Q261 913 301 913 Q341 913 369.5 885.5 Q398 858 398 820 Q398 782 369.5 754.5 Q341 727 301 727 Z " />
<glyph glyph-name="edotaccent" unicode="&#x117;" horiz-adv-x="553" d="M283 -13 Q212 -13 154 16 Q96 45 62 103.5 Q28 162 28 252 Q28 333 59.5 392.5 Q91 452 147.5 484.5 Q204 517 279 517 Q358 517 413.5 483.5 Q469 450 498 390 Q527 330 527 250 L527 217 L196 217 Q202 149 225.5 120.5 Q249 92 284 92 Q316 92 334 109 Q352 126 359 157 L521 157 Q501 72 436.5 29.5 Q372 -13 283 -13 Z M279 412 Q245 412 222.5 382.5 Q200 353 196 298 L359 298 Q355 352 335 382 Q315 412 279 412 Z M279 561 Q239 561 211.5 587.5 Q184 614 184 652 Q184 690 211.5 716.5 Q239 743 279 743 Q319 743 346.5 716.5 Q374 690 374 652 Q374 614 346.5 587.5 Q319 561 279 561 Z " />
<glyph glyph-name="Eogonek" unicode="&#x118;" horiz-adv-x="577" d="M74 0 L74 670 L528 670 L528 539 L252 539 L252 400 L497 400 L497 275 L252 275 L252 131 L532 131 L532 0 L74 0 Z M438 -268 Q365 -268 325 -231 Q285 -194 285 -142 Q285 -104 304.5 -69.5 Q324 -35 376 0 L500 0 Q451 -8 432 -37.5 Q413 -67 413 -96 Q413 -130 430.5 -148 Q448 -166 476 -166 Q503 -166 532 -154 L532 -253 Q509 -261 486.5 -264.5 Q464 -268 438 -268 Z " />
<glyph glyph-name="eogonek" unicode="&#x119;" horiz-adv-x="553" d="M283 -13 Q212 -13 154 16 Q96 45 62 103.5 Q28 162 28 252 Q28 333 59.5 392.5 Q91 452 147.5 484.5 Q204 517 279 517 Q358 517 413.5 483.5 Q469 450 498 390 Q527 330 527 250 L527 217 L196 217 Q202 149 225.5 120.5 Q249 92 284 92 Q316 92 334 109 Q352 126 359 157 L521 157 Q501 72 436.5 29.5 Q372 -13 283 -13 Z M279 412 Q245 412 222.5 382.5 Q200 353 196 298 L359 298 Q355 352 335 382 Q315 412 279 412 Z M370 -262 Q299 -262 259.5 -226 Q220 -190 220 -141 Q220 -103 239.5 -68.5 Q259 -34 309 0 L431 29 Q380 -8 361 -35.5 Q342 -63 342 -100 Q342 -130 361 -148 Q380 -166 406 -166 Q437 -166 461 -156 L461 -248 Q420 -262 370 -262 Z " />
<glyph glyph-name="Ecaron" unicode="&#x11a;" horiz-adv-x="577" d="M74 0 L74 670 L528 670 L528 539 L252 539 L252 400 L497 400 L497 275 L252 275 L252 131 L532 131 L532 0 L74 0 Z M265 725 L103 850 L156 930 L301 840 L446 930 L499 850 L337 725 L265 725 Z " />
<glyph glyph-name="ecaron" unicode="&#x11b;" horiz-adv-x="553" d="M283 -13 Q212 -13 154 16 Q96 45 62 103.5 Q28 162 28 252 Q28 333 59.5 392.5 Q91 452 147.5 484.5 Q204 517 279 517 Q358 517 413.5 483.5 Q469 450 498 390 Q527 330 527 250 L527 217 L196 217 Q202 149 225.5 120.5 Q249 92 284 92 Q316 92 334 109 Q352 126 359 157 L521 157 Q501 72 436.5 29.5 Q372 -13 283 -13 Z M279 412 Q245 412 222.5 382.5 Q200 353 196 298 L359 298 Q355 352 335 382 Q315 412 279 412 Z M459 707 L320 567 L238 567 L99 707 L158 780 L279 681 L400 780 L459 707 Z " />
<glyph glyph-name="Gbreve" unicode="&#x11e;" horiz-adv-x="718" d="M36 335 Q36 438 75 517 Q114 596 189 641 Q264 686 373 686 Q492 686 568.5 624 Q645 562 671 450 L484 450 Q457 560 370 560 Q295 560 257 499.5 Q219 439 219 335 Q219 231 257 170.5 Q295 110 370 110 Q423 110 458.5 138.5 Q494 167 506 227 L383 227 L383 352 L681 352 L681 310 Q681 245 662 186.5 Q643 128 604.5 82.5 Q566 37 506.5 10.5 Q447 -16 367 -16 Q262 -16 188 28.5 Q114 73 75 152 Q36 231 36 335 Z M370 739 Q315 739 275.5 760.5 Q236 782 214 819 Q192 856 189 900 L294 900 Q298 878 317 860.5 Q336 843 370 843 Q403 843 421.5 860.5 Q440 878 444 900 L549 900 Q546 856 525 819 Q504 782 465 760.5 Q426 739 370 739 Z " />
<glyph glyph-name="gbreve" unicode="&#x11f;" horiz-adv-x="599" d="M283 -223 Q189 -223 123.5 -180.5 Q58 -138 43 -53 L203 -53 Q210 -85 231 -103 Q252 -121 283 -121 Q369 -121 369 -9 L369 67 Q346 34 311 15.5 Q276 -3 232 -3 Q169 -3 123.5 31 Q78 65 53 123.5 Q28 182 28 258 Q28 334 54.5 392.5 Q81 451 129.5 484 Q178 517 244 517 Q283 517 322 495 Q361 473 382 428 L387 504 L539 504 L539 42 Q539 -223 283 -223 Z M287 114 Q324 114 347.5 149 Q371 184 371 249 L371 267 Q371 330 347.5 365 Q324 400 287 400 Q246 400 225 360 Q204 320 204 258 Q204 195 225 154.5 Q246 114 287 114 Z M293 569 Q220 569 176.5 617 Q133 665 129 737 L228 737 Q231 708 248 687.5 Q265 667 293 667 Q322 667 338.5 687.5 Q355 708 358 737 L457 737 Q453 665 411 617 Q369 569 293 569 Z " />
<glyph glyph-name="Gdotaccent" unicode="&#x120;" horiz-adv-x="718" d="M36 335 Q36 438 75 517 Q114 596 189 641 Q264 686 373 686 Q492 686 568.5 624 Q645 562 671 450 L484 450 Q457 560 370 560 Q295 560 257 499.5 Q219 439 219 335 Q219 231 257 170.5 Q295 110 370 110 Q423 110 458.5 138.5 Q494 167 506 227 L383 227 L383 352 L681 352 L681 310 Q681 245 662 186.5 Q643 128 604.5 82.5 Q566 37 506.5 10.5 Q447 -16 367 -16 Q262 -16 188 28.5 Q114 73 75 152 Q36 231 36 335 Z M370 727 Q330 727 301.5 754.5 Q273 782 273 820 Q273 858 301.5 885.5 Q330 913 370 913 Q410 913 438.5 885.5 Q467 858 467 820 Q467 782 438.5 754.5 Q410 727 370 727 Z " />
<glyph glyph-name="gdotaccent" unicode="&#x121;" horiz-adv-x="599" d="M283 -223 Q189 -223 123.5 -180.5 Q58 -138 43 -53 L203 -53 Q210 -85 231 -103 Q252 -121 283 -121 Q369 -121 369 -9 L369 67 Q346 34 311 15.5 Q276 -3 232 -3 Q169 -3 123.5 31 Q78 65 53 123.5 Q28 182 28 258 Q28 334 54.5 392.5 Q81 451 129.5 484 Q178 517 244 517 Q283 517 322 495 Q361 473 382 428 L387 504 L539 504 L539 42 Q539 -223 283 -223 Z M287 114 Q324 114 347.5 149 Q371 184 371 249 L371 267 Q371 330 347.5 365 Q324 400 287 400 Q246 400 225 360 Q204 320 204 258 Q204 195 225 154.5 Q246 114 287 114 Z M293 561 Q253 561 225.5 587.5 Q198 614 198 652 Q198 690 225.5 716.5 Q253 743 293 743 Q333 743 360.5 716.5 Q388 690 388 652 Q388 614 360.5 587.5 Q333 561 293 561 Z " />
<glyph glyph-name="uni0122" unicode="&#x122;" horiz-adv-x="718" d="M36 335 Q36 438 75 517 Q114 596 189 641 Q264 686 373 686 Q492 686 568.5 624 Q645 562 671 450 L484 450 Q457 560 370 560 Q295 560 257 499.5 Q219 439 219 335 Q219 231 257 170.5 Q295 110 370 110 Q423 110 458.5 138.5 Q494 167 506 227 L383 227 L383 352 L681 352 L681 310 Q681 245 662 186.5 Q643 128 604.5 82.5 Q566 37 506.5 10.5 Q447 -16 367 -16 Q262 -16 188 28.5 Q114 73 75 152 Q36 231 36 335 Z M274 -359 L274 -292 Q311 -283 333 -266.5 Q355 -250 364 -222 Q336 -221 311 -199 Q286 -177 286 -139 Q286 -103 310 -80 Q334 -57 369 -57 Q405 -57 430.5 -84.5 Q456 -112 456 -162 Q456 -238 406 -292 Q356 -346 274 -359 Z " />
<glyph glyph-name="uni0123" unicode="&#x123;" horiz-adv-x="599" d="M283 -223 Q189 -223 123.5 -180.5 Q58 -138 43 -53 L203 -53 Q210 -85 231 -103 Q252 -121 283 -121 Q369 -121 369 -9 L369 67 Q346 34 311 15.5 Q276 -3 232 -3 Q169 -3 123.5 31 Q78 65 53 123.5 Q28 182 28 258 Q28 334 54.5 392.5 Q81 451 129.5 484 Q178 517 244 517 Q283 517 322 495 Q361 473 382 428 L387 504 L539 504 L539 42 Q539 -223 283 -223 Z M287 114 Q324 114 347.5 149 Q371 184 371 249 L371 267 Q371 330 347.5 365 Q324 400 287 400 Q246 400 225 360 Q204 320 204 258 Q204 195 225 154.5 Q246 114 287 114 Z M382 851 L382 789 Q309 770 295 719 Q322 718 345.5 696.5 Q369 675 369 639 Q369 605 346 583 Q323 561 290 561 Q256 561 231.5 587 Q207 613 207 662 Q207 708 229 748 Q251 788 290 815 Q329 842 382 851 Z " />
<glyph glyph-name="Hbar" unicode="&#x126;" horiz-adv-x="768" d="M94 0 L94 478 L14 478 L14 583 L94 583 L94 670 L272 670 L272 583 L496 583 L496 670 L674 670 L674 583 L754 583 L754 478 L674 478 L674 0 L496 0 L496 264 L272 264 L272 0 L94 0 Z M272 393 L496 393 L496 478 L272 478 L272 393 Z " />
<glyph glyph-name="hbar" unicode="&#x127;" horiz-adv-x="621" d="M80 0 L80 544 L14 544 L14 634 L80 634 L80 700 L250 700 L250 634 L376 634 L376 544 L250 544 L250 417 Q271 454 307.5 475.5 Q344 497 393 497 Q474 497 520.5 447.5 Q567 398 567 314 L567 0 L397 0 L397 288 Q397 328 380 351.5 Q363 375 329 375 Q298 375 274 348.5 Q250 322 250 265 L250 0 L80 0 Z " />
<glyph glyph-name="Itilde" unicode="&#x128;" horiz-adv-x="326" d="M74 0 L74 670 L252 670 L252 0 L74 0 Z M140 777 Q125 788 114 794 Q103 800 93 800 Q81 800 71.5 786.5 Q62 773 55 739 L-44 739 Q-39 786 -22 824.5 Q-5 863 22 886 Q49 909 83 909 Q112 909 136 897 Q160 885 186 865 Q201 854 212 848 Q223 842 233 842 Q245 842 254.5 855.5 Q264 869 271 903 L370 903 Q365 856 348 817.5 Q331 779 304 756 Q277 733 243 733 Q214 733 190 745 Q166 757 140 777 Z " />
<glyph glyph-name="itilde" unicode="&#x129;" horiz-adv-x="290" d="M60 0 L60 504 L230 504 L230 0 L60 0 Z M126 614 Q112 628 103 632.5 Q94 637 86 637 Q75 637 66 623.5 Q57 610 54 578 L-30 578 Q-25 644 2.5 690 Q30 736 79 736 Q105 736 124.5 724.5 Q144 713 164 694 Q178 680 187 675.5 Q196 671 204 671 Q215 671 224 684.5 Q233 698 236 730 L320 730 Q315 664 287.5 618 Q260 572 211 572 Q185 572 165.5 583.5 Q146 595 126 614 Z " />
<glyph glyph-name="Imacron" unicode="&#x12a;" horiz-adv-x="326" d="M74 0 L74 670 L252 670 L252 0 L74 0 Z M-25 752 L-25 870 L351 870 L351 752 L-25 752 Z " />
<glyph glyph-name="imacron" unicode="&#x12b;" horiz-adv-x="290" d="M60 0 L60 504 L230 504 L230 0 L60 0 Z M-12 589 L-12 695 L302 695 L302 589 L-12 589 Z " />
<glyph glyph-name="Iogonek" unicode="&#x12e;" horiz-adv-x="326" d="M74 0 L74 670 L252 670 L252 0 L74 0 Z M158 -268 Q85 -268 45 -231 Q5 -194 5 -142 Q5 -104 24.5 -69.5 Q44 -35 96 0 L220 0 Q171 -8 152 -37.5 Q133 -67 133 -96 Q133 -130 150.5 -148 Q168 -166 196 -166 Q223 -166 252 -154 L252 -253 Q229 -261 206.5 -264.5 Q184 -268 158 -268 Z " />
<glyph glyph-name="iogonek" unicode="&#x12f;" horiz-adv-x="290" d="M145 561 Q105 561 77.5 587.5 Q50 614 50 652 Q50 690 77.5 716.5 Q105 743 145 743 Q185 743 212.5 716.5 Q240 690 240 652 Q240 614 212.5 587.5 Q185 561 145 561 Z M60 0 L60 504 L230 504 L230 0 L60 0 Z M139 -262 Q68 -262 28.5 -226 Q-11 -190 -11 -141 Q-11 -103 8.5 -68.5 Q28 -34 78 0 L201 0 Q150 -8 130.5 -36 Q111 -64 111 -98 Q111 -130 130.5 -148 Q150 -166 175 -166 Q206 -166 230 -156 L230 -248 Q189 -262 139 -262 Z " />
<glyph glyph-name="Idot" unicode="&#x130;" horiz-adv-x="326" d="M74 0 L74 670 L252 670 L252 0 L74 0 Z M163 727 Q123 727 94.5 754.5 Q66 782 66 820 Q66 858 94.5 885.5 Q123 913 163 913 Q203 913 231.5 885.5 Q260 858 260 820 Q260 782 231.5 754.5 Q203 727 163 727 Z " />
<glyph glyph-name="dotlessi" unicode="&#x131;" horiz-adv-x="290" d="M60 0 L60 504 L230 504 L230 0 L60 0 Z " />
<glyph glyph-name="IJ" unicode="&#x132;" horiz-adv-x="671" d="M336 -16 Q214 -16 143 48.5 Q72 113 62 225 L239 225 Q244 176 269.5 144.5 Q295 113 336 113 Q381 113 406 148.5 Q431 184 431 249 L431 670 L609 670 L609 264 Q609 132 536.5 58 Q464 -16 336 -16 Z M240 312 L62 312 L62 670 L240 670 L240 312 Z " />
<glyph glyph-name="ij" unicode="&#x133;" horiz-adv-x="591" d="M45 652 Q45 690 72.5 716.5 Q100 743 140 743 Q180 743 207.5 716.5 Q235 690 235 652 Q235 614 207.5 587.5 Q180 561 140 561 Q100 561 72.5 587.5 Q45 614 45 652 Z M351 652 Q351 690 378.5 716.5 Q406 743 446 743 Q486 743 513.5 716.5 Q541 690 541 652 Q541 614 513.5 587.5 Q486 561 446 561 Q406 561 378.5 587.5 Q351 614 351 652 Z M51 -53 L211 -53 Q217 -85 235 -103 Q253 -121 283 -121 Q319 -121 340 -93.5 Q361 -66 361 -9 L361 72 Q340 39 303.5 19.5 Q267 0 219 0 Q145 0 100.5 49.5 Q56 99 56 183 L56 504 L226 504 L226 209 Q226 168 241.5 145 Q257 122 288 122 Q317 122 339 148.5 Q361 175 361 232 L361 504 L531 504 L531 42 Q531 -89 467.5 -156 Q404 -223 283 -223 Q193 -223 128.5 -180.5 Q64 -138 51 -53 Z " />
<glyph glyph-name="uni0136" unicode="&#x136;" horiz-adv-x="671" d="M74 0 L74 670 L252 670 L252 384 L448 670 L653 670 L396 339 Q463 310 520 250 Q566 201 602 137 Q638 73 661 0 L458 0 Q447 45 427.5 89.5 Q408 134 382 172 Q354 213 320.5 241 Q287 269 252 274 L252 0 L74 0 Z M259 -359 L259 -292 Q296 -283 318 -266.5 Q340 -250 349 -222 Q321 -221 296 -199 Q271 -177 271 -139 Q271 -103 295 -80 Q319 -57 354 -57 Q390 -57 415.5 -84.5 Q441 -112 441 -162 Q441 -238 391 -292 Q341 -346 259 -359 Z " />
<glyph glyph-name="uni0137" unicode="&#x137;" horiz-adv-x="570" d="M60 0 L60 700 L230 700 L230 303 L370 504 L550 504 L361 274 Q417 236 461 185 Q493 148 519.5 102 Q546 56 568 0 L384 0 Q364 70 329 119 Q308 148 284 173.5 Q260 199 230 220 L230 0 L60 0 Z M214 -347 L214 -285 Q287 -266 301 -215 Q274 -214 250.5 -192.5 Q227 -171 227 -135 Q227 -101 250.5 -79 Q274 -57 306 -57 Q339 -57 364 -83.5 Q389 -110 389 -158 Q389 -204 367 -244 Q345 -284 306 -311 Q267 -338 214 -347 Z " />
<glyph glyph-name="Lacute" unicode="&#x139;" horiz-adv-x="542" d="M74 0 L74 670 L252 670 L252 131 L512 131 L512 0 L74 0 Z M40 795 L265 940 L334 809 L82 712 L40 795 Z " />
<glyph glyph-name="lacute" unicode="&#x13a;" horiz-adv-x="290" d="M60 0 L60 700 L230 700 L230 0 L60 0 Z M48 826 L226 954 L292 833 L91 745 L48 826 Z " />
<glyph glyph-name="uni013B" unicode="&#x13b;" horiz-adv-x="542" d="M74 0 L74 670 L252 670 L252 131 L512 131 L512 0 L74 0 Z M197 -359 L197 -292 Q234 -283 256 -266.5 Q278 -250 287 -222 Q259 -221 234 -199 Q209 -177 209 -139 Q209 -103 233 -80 Q257 -57 292 -57 Q328 -57 353.5 -84.5 Q379 -112 379 -162 Q379 -238 329 -292 Q279 -346 197 -359 Z " />
<glyph glyph-name="uni013C" unicode="&#x13c;" horiz-adv-x="290" d="M60 0 L60 700 L230 700 L230 0 L60 0 Z M52 -347 L52 -285 Q125 -266 139 -215 Q112 -214 88.5 -192.5 Q65 -171 65 -135 Q65 -101 88.5 -79 Q112 -57 144 -57 Q177 -57 202 -83.5 Q227 -110 227 -158 Q227 -204 205 -244 Q183 -284 144 -311 Q105 -338 52 -347 Z " />
<glyph glyph-name="Lcaron" unicode="&#x13d;" horiz-adv-x="542" d="M74 0 L74 670 L252 670 L252 131 L512 131 L512 0 L74 0 Z M444 464 L362 464 L362 670 L494 670 L494 659 Q494 632 487.5 594 Q481 556 470 520 Q459 484 444 464 Z " />
<glyph glyph-name="lcaron" unicode="&#x13e;" horiz-adv-x="395" d="M60 0 L60 700 L230 700 L230 0 L60 0 Z M381 516 L303 516 L303 700 L429 700 L429 692 Q429 666 423 632 Q417 598 406 566 Q395 534 381 516 Z " />
<glyph glyph-name="Lslash" unicode="&#x141;" horiz-adv-x="573" d="M105 0 L105 219 L25 176 L25 305 L105 348 L105 670 L283 670 L283 444 L413 514 L413 385 L283 315 L283 131 L543 131 L543 0 L105 0 Z " />
<glyph glyph-name="lslash" unicode="&#x142;" horiz-adv-x="350" d="M90 0 L90 274 L5 226 L5 333 L90 381 L90 700 L260 700 L260 476 L345 524 L345 417 L260 369 L260 0 L90 0 Z " />
<glyph glyph-name="Nacute" unicode="&#x143;" horiz-adv-x="725" d="M74 0 L74 670 L241 670 L478 262 L478 670 L651 670 L651 0 L487 0 L247 415 L247 0 L74 0 Z M239 795 L464 940 L533 809 L281 712 L239 795 Z " />
<glyph glyph-name="nacute" unicode="&#x144;" horiz-adv-x="601" d="M60 0 L60 504 L212 504 L217 427 Q236 468 276.5 492.5 Q317 517 373 517 Q454 517 500.5 467.5 Q547 418 547 334 L547 0 L377 0 L377 308 Q377 348 360 371.5 Q343 395 309 395 Q278 395 254 368.5 Q230 342 230 285 L230 0 L60 0 Z M203 625 L353 781 L441 676 L262 556 L203 625 Z " />
<glyph glyph-name="uni0145" unicode="&#x145;" horiz-adv-x="725" d="M74 0 L74 670 L241 670 L478 262 L478 670 L651 670 L651 0 L487 0 L247 415 L247 0 L74 0 Z M266 -359 L266 -292 Q303 -283 325 -266.5 Q347 -250 356 -222 Q328 -221 303 -199 Q278 -177 278 -139 Q278 -103 302 -80 Q326 -57 361 -57 Q397 -57 422.5 -84.5 Q448 -112 448 -162 Q448 -238 398 -292 Q348 -346 266 -359 Z " />
<glyph glyph-name="uni0146" unicode="&#x146;" horiz-adv-x="601" d="M60 0 L60 504 L212 504 L217 427 Q236 468 276.5 492.5 Q317 517 373 517 Q454 517 500.5 467.5 Q547 418 547 334 L547 0 L377 0 L377 308 Q377 348 360 371.5 Q343 395 309 395 Q278 395 254 368.5 Q230 342 230 285 L230 0 L60 0 Z M210 -347 L210 -285 Q283 -266 297 -215 Q270 -214 246.5 -192.5 Q223 -171 223 -135 Q223 -101 246.5 -79 Q270 -57 302 -57 Q335 -57 360 -83.5 Q385 -110 385 -158 Q385 -204 363 -244 Q341 -284 302 -311 Q263 -338 210 -347 Z " />
<glyph glyph-name="Ncaron" unicode="&#x147;" horiz-adv-x="725" d="M74 0 L74 670 L241 670 L478 262 L478 670 L651 670 L651 0 L487 0 L247 415 L247 0 L74 0 Z M326 725 L164 850 L217 930 L362 840 L507 930 L560 850 L398 725 L326 725 Z " />
<glyph glyph-name="ncaron" unicode="&#x148;" horiz-adv-x="601" d="M60 0 L60 504 L212 504 L217 427 Q236 468 276.5 492.5 Q317 517 373 517 Q454 517 500.5 467.5 Q547 418 547 334 L547 0 L377 0 L377 308 Q377 348 360 371.5 Q343 395 309 395 Q278 395 254 368.5 Q230 342 230 285 L230 0 L60 0 Z M483 707 L344 567 L262 567 L123 707 L182 780 L303 681 L424 780 L483 707 Z " />
<glyph glyph-name="Eng" unicode="&#x14a;" horiz-adv-x="724" d="M74 0 L74 670 L241 670 L477 284 L477 670 L651 670 L651 42 Q651 -92 593.5 -157.5 Q536 -223 429 -223 Q400 -223 364.5 -216.5 Q329 -210 301 -198 L326 -80 Q341 -87 362.5 -91 Q384 -95 401 -95 Q436 -95 456.5 -70.5 Q477 -46 477 0 L477 38 L246 417 L246 0 L74 0 Z " />
<glyph glyph-name="eng" unicode="&#x14b;" horiz-adv-x="601" d="M60 0 L60 504 L212 504 L217 426 Q236 467 276.5 492 Q317 517 373 517 Q454 517 500.5 467.5 Q547 418 547 334 L547 -10 Q547 -108 500.5 -165.5 Q454 -223 354 -223 Q331 -223 305.5 -218.5 Q280 -214 257 -204 L278 -100 Q299 -107 320 -107 Q377 -107 377 -33 L377 308 Q377 348 360 371.5 Q343 395 309 395 Q278 395 254 368.5 Q230 342 230 285 L230 0 L60 0 Z " />
<glyph glyph-name="Ohungarumlaut" unicode="&#x150;" horiz-adv-x="735" d="M367 -16 Q261 -16 187 28.5 Q113 73 74.5 152.5 Q36 232 36 335 Q36 437 74.5 516.5 Q113 596 187 641 Q261 686 367 686 Q474 686 548 641 Q622 596 660.5 516.5 Q699 437 699 335 Q699 232 660.5 153 Q622 74 548 29 Q474 -16 367 -16 Z M367 113 Q438 113 475.5 173 Q513 233 513 335 Q513 437 475.5 497 Q438 557 367 557 Q296 557 259 497 Q222 437 222 335 Q222 233 259 173 Q296 113 367 113 Z M201 782 L377 967 L457 870 L250 720 L201 782 Z M397 790 L604 938 L664 827 L433 720 L397 790 Z " />
<glyph glyph-name="ohungarumlaut" unicode="&#x151;" horiz-adv-x="578" d="M289 -13 Q208 -13 149.5 22 Q91 57 59.5 116.5 Q28 176 28 252 Q28 328 59.5 387.5 Q91 447 149.5 482 Q208 517 289 517 Q370 517 428.5 482 Q487 447 518.5 387.5 Q550 328 550 252 Q550 176 518.5 116.5 Q487 57 428.5 22 Q370 -13 289 -13 Z M289 97 Q329 97 351.5 138.5 Q374 180 374 252 Q374 324 351.5 365.5 Q329 407 289 407 Q249 407 226.5 365.5 Q204 324 204 252 Q204 180 226.5 138.5 Q249 97 289 97 Z M142 599 L285 791 L371 713 L194 553 L142 599 Z M305 610 L485 768 L553 676 L346 554 L305 610 Z " />
<glyph glyph-name="OE" unicode="&#x152;" horiz-adv-x="973" d="M36 335 Q36 432 78 507.5 Q120 583 202 626.5 Q284 670 403 670 L924 670 L924 539 L648 539 L648 400 L893 400 L893 275 L648 275 L648 131 L928 131 L928 0 L403 0 Q284 0 202 44 Q120 88 78 163.5 Q36 239 36 335 Z M403 131 L470 131 L470 539 L403 539 Q310 539 266 484.5 Q222 430 222 335 Q222 240 266 185.5 Q310 131 403 131 Z " />
<glyph glyph-name="oe" unicode="&#x153;" horiz-adv-x="900" d="M868 157 Q848 72 783 29.5 Q718 -13 630 -13 Q579 -13 535.5 5.5 Q492 24 459 65 Q396 -13 289 -13 Q208 -13 149.5 22 Q91 57 59.5 116.5 Q28 176 28 252 Q28 328 59.5 387.5 Q91 447 149.5 482 Q208 517 289 517 Q398 517 460 438 Q490 478 532 497.5 Q574 517 626 517 Q705 517 760.5 483.5 Q816 450 845 389 Q874 328 874 247 L874 214 L543 214 Q549 147 573 119.5 Q597 92 631 92 Q663 92 681 109 Q699 126 706 157 L868 157 Z M626 412 Q592 412 569.5 382 Q547 352 543 295 L706 295 Q702 351 682 381.5 Q662 412 626 412 Z M289 97 Q329 97 351.5 138.5 Q374 180 374 252 Q374 324 351.5 365.5 Q329 407 289 407 Q249 407 226.5 365.5 Q204 324 204 252 Q204 180 226.5 138.5 Q249 97 289 97 Z " />
<glyph glyph-name="Racute" unicode="&#x154;" horiz-adv-x="666" d="M74 0 L74 670 L344 670 Q472 670 540.5 615.5 Q609 561 609 478 Q609 427 585.5 390 Q562 353 523.5 330.5 Q485 308 440 299 Q520 265 569 186 Q618 107 641 0 L455 0 Q433 117 380 187 Q327 257 252 261 L252 0 L74 0 Z M308 554 L252 554 L252 370 L308 370 Q367 370 398 394 Q429 418 429 462 Q429 506 398 530 Q367 554 308 554 Z M185 795 L410 940 L479 809 L227 712 L185 795 Z " />
<glyph glyph-name="racute" unicode="&#x155;" horiz-adv-x="390" d="M60 0 L60 504 L209 504 L217 416 Q230 452 262 482 Q294 512 347 512 Q357 512 364 511 Q371 510 377 509 L377 352 Q371 354 359 355.5 Q347 357 336 357 Q290 357 260 328.5 Q230 300 230 241 L230 0 L60 0 Z M117 625 L267 781 L355 676 L176 556 L117 625 Z " />
<glyph glyph-name="Rcaron" unicode="&#x158;" horiz-adv-x="666" d="M74 0 L74 670 L344 670 Q472 670 540.5 615.5 Q609 561 609 478 Q609 427 585.5 390 Q562 353 523.5 330.5 Q485 308 440 299 Q520 265 569 186 Q618 107 641 0 L455 0 Q433 117 380 187 Q327 257 252 261 L252 0 L74 0 Z M308 554 L252 554 L252 370 L308 370 Q367 370 398 394 Q429 418 429 462 Q429 506 398 530 Q367 554 308 554 Z M272 725 L110 850 L163 930 L308 840 L453 930 L506 850 L344 725 L272 725 Z " />
<glyph glyph-name="rcaron" unicode="&#x159;" horiz-adv-x="390" d="M60 0 L60 504 L209 504 L217 416 Q230 452 262 482 Q294 512 347 512 Q357 512 364 511 Q371 510 377 509 L377 352 Q371 354 359 355.5 Q347 357 336 357 Q290 357 260 328.5 Q230 300 230 241 L230 0 L60 0 Z M397 707 L258 567 L176 567 L37 707 L96 780 L217 681 L338 780 L397 707 Z " />
<glyph glyph-name="Sacute" unicode="&#x15a;" horiz-adv-x="621" d="M317 -16 Q190 -16 116.5 40.5 Q43 97 31 203 L206 203 Q214 145 246 122.5 Q278 100 319 100 Q366 100 388 123 Q410 146 410 171 Q410 202 393.5 224 Q377 246 335 257 L224 286 Q138 308 95 354.5 Q52 401 52 486 Q52 551 86.5 595.5 Q121 640 179 663 Q237 686 309 686 Q428 686 494.5 630 Q561 574 575 471 L403 471 Q397 517 372 543.5 Q347 570 304 570 Q267 570 246 550 Q225 530 225 499 Q225 440 292 423 L397 396 Q472 377 513 346.5 Q554 316 570 277 Q586 238 586 191 Q586 94 515.5 39 Q445 -16 317 -16 Z M184 795 L409 940 L478 809 L226 712 L184 795 Z " />
<glyph glyph-name="sacute" unicode="&#x15b;" horiz-adv-x="528" d="M267 -13 Q160 -13 99.5 31.5 Q39 76 30 159 L195 159 Q200 118 222 102.5 Q244 87 269 87 Q298 87 314 99.5 Q330 112 330 131 Q330 148 316.5 163 Q303 178 266 188 L182 210 Q117 227 80.5 262 Q44 297 44 359 Q44 412 74 447 Q104 482 155 499.5 Q206 517 270 517 Q364 517 419 475 Q474 433 488 354 L324 354 Q320 383 305 400 Q290 417 262 417 Q236 417 222 403.5 Q208 390 208 371 Q208 353 220 339.5 Q232 326 264 318 L336 300 Q422 278 458 243.5 Q494 209 494 150 Q494 72 434 29.5 Q374 -13 267 -13 Z M161 625 L311 781 L399 676 L220 556 L161 625 Z " />
<glyph glyph-name="Scedilla" unicode="&#x15e;" horiz-adv-x="621" d="M317 -16 Q190 -16 116.5 40.5 Q43 97 31 203 L206 203 Q214 145 246 122.5 Q278 100 319 100 Q366 100 388 123 Q410 146 410 171 Q410 202 393.5 224 Q377 246 335 257 L224 286 Q138 308 95 354.5 Q52 401 52 486 Q52 551 86.5 595.5 Q121 640 179 663 Q237 686 309 686 Q428 686 494.5 630 Q561 574 575 471 L403 471 Q397 517 372 543.5 Q347 570 304 570 Q267 570 246 550 Q225 530 225 499 Q225 440 292 423 L397 396 Q472 377 513 346.5 Q554 316 570 277 Q586 238 586 191 Q586 94 515.5 39 Q445 -16 317 -16 Z M265 0 L341 0 L335 -58 Q342 -56 353 -56 Q399 -56 428.5 -83.5 Q458 -111 458 -157 Q458 -213 420.5 -245.5 Q383 -278 315 -278 Q297 -278 273 -275 Q249 -272 230 -265 L237 -186 Q256 -192 274.5 -194 Q293 -196 307 -196 Q355 -196 355 -159 Q355 -143 345.5 -133 Q336 -123 320 -123 Q300 -123 283 -134 L251 -134 L265 0 Z " />
<glyph glyph-name="scedilla" unicode="&#x15f;" horiz-adv-x="528" d="M267 -13 Q160 -13 99.5 31.5 Q39 76 30 159 L195 159 Q200 118 222 102.5 Q244 87 269 87 Q298 87 314 99.5 Q330 112 330 131 Q330 148 316.5 163 Q303 178 266 188 L182 210 Q117 227 80.5 262 Q44 297 44 359 Q44 412 74 447 Q104 482 155 499.5 Q206 517 270 517 Q364 517 419 475 Q474 433 488 354 L324 354 Q320 383 305 400 Q290 417 262 417 Q236 417 222 403.5 Q208 390 208 371 Q208 353 220 339.5 Q232 326 264 318 L336 300 Q422 278 458 243.5 Q494 209 494 150 Q494 72 434 29.5 Q374 -13 267 -13 Z M213 0 L283 0 L274 -59 Q284 -56 297 -56 Q342 -56 370.5 -83 Q399 -110 399 -154 Q399 -209 362 -240.5 Q325 -272 256 -272 Q216 -272 177 -261 L184 -187 Q219 -196 248 -196 Q302 -196 302 -156 Q302 -139 291.5 -128 Q281 -117 264 -117 Q244 -117 226 -128 L198 -128 L213 0 Z " />
<glyph glyph-name="Scaron" unicode="&#x160;" horiz-adv-x="621" d="M317 -16 Q190 -16 116.5 40.5 Q43 97 31 203 L206 203 Q214 145 246 122.5 Q278 100 319 100 Q366 100 388 123 Q410 146 410 171 Q410 202 393.5 224 Q377 246 335 257 L224 286 Q138 308 95 354.5 Q52 401 52 486 Q52 551 86.5 595.5 Q121 640 179 663 Q237 686 309 686 Q428 686 494.5 630 Q561 574 575 471 L403 471 Q397 517 372 543.5 Q347 570 304 570 Q267 570 246 550 Q225 530 225 499 Q225 440 292 423 L397 396 Q472 377 513 346.5 Q554 316 570 277 Q586 238 586 191 Q586 94 515.5 39 Q445 -16 317 -16 Z M271 725 L109 850 L162 930 L307 840 L452 930 L505 850 L343 725 L271 725 Z " />
<glyph glyph-name="scaron" unicode="&#x161;" horiz-adv-x="528" d="M267 -13 Q160 -13 99.5 31.5 Q39 76 30 159 L195 159 Q200 118 222 102.5 Q244 87 269 87 Q298 87 314 99.5 Q330 112 330 131 Q330 148 316.5 163 Q303 178 266 188 L182 210 Q117 227 80.5 262 Q44 297 44 359 Q44 412 74 447 Q104 482 155 499.5 Q206 517 270 517 Q364 517 419 475 Q474 433 488 354 L324 354 Q320 383 305 400 Q290 417 262 417 Q236 417 222 403.5 Q208 390 208 371 Q208 353 220 339.5 Q232 326 264 318 L336 300 Q422 278 458 243.5 Q494 209 494 150 Q494 72 434 29.5 Q374 -13 267 -13 Z M441 707 L302 567 L220 567 L81 707 L140 780 L261 681 L382 780 L441 707 Z " />
<glyph glyph-name="uni0162" unicode="&#x162;" horiz-adv-x="596" d="M209 0 L209 539 L13 539 L13 670 L583 670 L583 539 L387 539 L387 0 L209 0 Z M256 0 L332 0 L326 -58 Q333 -56 344 -56 Q390 -56 419.5 -83.5 Q449 -111 449 -157 Q449 -213 411.5 -245.5 Q374 -278 306 -278 Q288 -278 264 -275 Q240 -272 221 -265 L228 -186 Q247 -192 265.5 -194 Q284 -196 298 -196 Q346 -196 346 -159 Q346 -143 336.5 -133 Q327 -123 311 -123 Q291 -123 274 -134 L242 -134 L256 0 Z " />
<glyph glyph-name="uni0163" unicode="&#x163;" horiz-adv-x="399" d="M260 -13 Q168 -13 123.5 38.5 Q79 90 79 169 L79 394 L14 394 L14 504 L79 504 L79 646 L249 646 L249 504 L368 504 L368 394 L249 394 L249 171 Q249 138 264 122 Q279 106 304 106 Q318 106 333 109 Q348 112 362 118 L388 14 Q365 1 329.5 -6 Q294 -13 260 -13 Z M182 0 L252 0 L243 -59 Q253 -56 266 -56 Q311 -56 339.5 -83 Q368 -110 368 -154 Q368 -209 331 -240.5 Q294 -272 225 -272 Q185 -272 146 -261 L153 -187 Q188 -196 217 -196 Q271 -196 271 -156 Q271 -139 260.5 -128 Q250 -117 233 -117 Q213 -117 195 -128 L167 -128 L182 0 Z " />
<glyph glyph-name="Tcaron" unicode="&#x164;" horiz-adv-x="596" d="M209 0 L209 539 L13 539 L13 670 L583 670 L583 539 L387 539 L387 0 L209 0 Z M262 725 L100 850 L153 930 L298 840 L443 930 L496 850 L334 725 L262 725 Z " />
<glyph glyph-name="tcaron" unicode="&#x165;" horiz-adv-x="399" d="M260 -13 Q168 -13 123.5 38.5 Q79 90 79 169 L79 394 L14 394 L14 504 L79 504 L79 646 L249 646 L249 504 L368 504 L368 394 L249 394 L249 171 Q249 138 264 122 Q279 106 304 106 Q318 106 333 109 Q348 112 362 118 L388 14 Q365 1 329.5 -6 Q294 -13 260 -13 Z M381 549 L299 549 L299 700 L419 700 L419 692 Q419 658 409 618 Q399 578 381 549 Z " />
<glyph glyph-name="Tbar" unicode="&#x166;" horiz-adv-x="596" d="M209 0 L209 266 L83 266 L83 381 L209 381 L209 539 L13 539 L13 670 L583 670 L583 539 L387 539 L387 381 L513 381 L513 266 L387 266 L387 0 L209 0 Z " />
<glyph glyph-name="tbar" unicode="&#x167;" horiz-adv-x="393" d="M14 205 L14 315 L79 315 L79 394 L14 394 L14 504 L79 504 L79 646 L249 646 L249 504 L368 504 L368 394 L249 394 L249 315 L368 315 L368 205 L249 205 L249 167 Q249 134 264 118 Q279 102 304 102 Q330 102 356 112 L382 12 Q359 0 326.5 -6.5 Q294 -13 260 -13 Q168 -13 123.5 38.5 Q79 90 79 169 L79 205 L14 205 Z " />
<glyph glyph-name="Utilde" unicode="&#x168;" horiz-adv-x="704" d="M351 -16 Q212 -16 137 62 Q62 140 62 274 L62 670 L240 670 L240 259 Q240 194 268.5 153.5 Q297 113 351 113 Q406 113 435 153.5 Q464 194 464 259 L464 670 L642 670 L642 274 Q642 140 566 62 Q490 -16 351 -16 Z M329 777 Q314 788 303 794 Q292 800 282 800 Q270 800 260.5 786.5 Q251 773 244 739 L145 739 Q150 786 167 824.5 Q184 863 211 886 Q238 909 272 909 Q301 909 325 897 Q349 885 375 865 Q390 854 401 848 Q412 842 422 842 Q434 842 443.5 855.5 Q453 869 460 903 L559 903 Q554 856 537 817.5 Q520 779 493 756 Q466 733 432 733 Q403 733 379 745 Q355 757 329 777 Z " />
<glyph glyph-name="utilde" unicode="&#x169;" horiz-adv-x="594" d="M531 504 L531 0 L379 0 L373 82 Q355 40 315.5 13.5 Q276 -13 219 -13 Q145 -13 100.5 36.5 Q56 86 56 170 L56 504 L226 504 L226 196 Q226 156 241.5 132.5 Q257 109 288 109 Q317 109 339 135.5 Q361 162 361 219 L361 504 L531 504 Z M273 611 Q256 624 247 629 Q238 634 230 634 Q208 634 198 577 L105 577 Q109 644 140 690.5 Q171 737 223 737 Q250 737 271.5 725 Q293 713 313 697 Q330 684 339 679 Q348 674 356 674 Q378 674 388 731 L481 731 Q477 664 446 617.5 Q415 571 363 571 Q336 571 314.5 583 Q293 595 273 611 Z " />
<glyph glyph-name="Umacron" unicode="&#x16a;" horiz-adv-x="704" d="M351 -16 Q212 -16 137 62 Q62 140 62 274 L62 670 L240 670 L240 259 Q240 194 268.5 153.5 Q297 113 351 113 Q406 113 435 153.5 Q464 194 464 259 L464 670 L642 670 L642 274 Q642 140 566 62 Q490 -16 351 -16 Z M164 752 L164 870 L540 870 L540 752 L164 752 Z " />
<glyph glyph-name="umacron" unicode="&#x16b;" horiz-adv-x="594" d="M531 504 L531 0 L379 0 L373 82 Q355 40 315.5 13.5 Q276 -13 219 -13 Q145 -13 100.5 36.5 Q56 86 56 170 L56 504 L226 504 L226 196 Q226 156 241.5 132.5 Q257 109 288 109 Q317 109 339 135.5 Q361 162 361 219 L361 504 L531 504 Z M130 589 L130 695 L456 695 L456 589 L130 589 Z " />
<glyph glyph-name="Uring" unicode="&#x16e;" horiz-adv-x="704" d="M351 -16 Q212 -16 137 62 Q62 140 62 274 L62 670 L240 670 L240 259 Q240 194 268.5 153.5 Q297 113 351 113 Q406 113 435 153.5 Q464 194 464 259 L464 670 L642 670 L642 274 Q642 140 566 62 Q490 -16 351 -16 Z M352 718 Q297 718 262 752.5 Q227 787 227 840 Q227 896 262 929 Q297 962 352 962 Q408 962 443.5 929 Q479 896 479 840 Q479 787 443.5 752.5 Q408 718 352 718 Z M352 788 Q373 788 387 802.5 Q401 817 401 840 Q401 862 387.5 877 Q374 892 352 892 Q330 892 316.5 877 Q303 862 303 840 Q303 817 316.5 802.5 Q330 788 352 788 Z " />
<glyph glyph-name="uring" unicode="&#x16f;" horiz-adv-x="594" d="M531 504 L531 0 L379 0 L373 82 Q355 40 315.5 13.5 Q276 -13 219 -13 Q145 -13 100.5 36.5 Q56 86 56 170 L56 504 L226 504 L226 196 Q226 156 241.5 132.5 Q257 109 288 109 Q317 109 339 135.5 Q361 162 361 219 L361 504 L531 504 Z M293 551 Q239 551 204.5 584.5 Q170 618 170 671 Q170 726 204.5 758.5 Q239 791 293 791 Q349 791 383.5 758.5 Q418 726 418 671 Q418 618 383 584.5 Q348 551 293 551 Z M293 617 Q315 617 329.5 632 Q344 647 344 671 Q344 694 329.5 709.5 Q315 725 293 725 Q271 725 256.5 709.5 Q242 694 242 671 Q242 647 256.5 632 Q271 617 293 617 Z " />
<glyph glyph-name="Uhungarumlaut" unicode="&#x170;" horiz-adv-x="704" d="M351 -16 Q212 -16 137 62 Q62 140 62 274 L62 670 L240 670 L240 259 Q240 194 268.5 153.5 Q297 113 351 113 Q406 113 435 153.5 Q464 194 464 259 L464 670 L642 670 L642 274 Q642 140 566 62 Q490 -16 351 -16 Z M186 782 L362 967 L442 870 L235 720 L186 782 Z M382 790 L589 938 L649 827 L418 720 L382 790 Z " />
<glyph glyph-name="uhungarumlaut" unicode="&#x171;" horiz-adv-x="594" d="M531 504 L531 0 L379 0 L373 82 Q355 40 315.5 13.5 Q276 -13 219 -13 Q145 -13 100.5 36.5 Q56 86 56 170 L56 504 L226 504 L226 196 Q226 156 241.5 132.5 Q257 109 288 109 Q317 109 339 135.5 Q361 162 361 219 L361 504 L531 504 Z M146 599 L289 791 L375 713 L198 553 L146 599 Z M309 610 L489 768 L557 676 L350 554 L309 610 Z " />
<glyph glyph-name="Uogonek" unicode="&#x172;" horiz-adv-x="704" d="M351 -16 Q212 -16 137 62 Q62 140 62 274 L62 670 L240 670 L240 259 Q240 194 268.5 153.5 Q297 113 351 113 Q406 113 435 153.5 Q464 194 464 259 L464 670 L642 670 L642 274 Q642 140 566 62 Q490 -16 351 -16 Z M445 -265 Q372 -265 332 -228.5 Q292 -192 292 -141 Q292 -102 312 -67 Q332 -32 384 3 L515 23 Q460 -8 440 -37.5 Q420 -67 420 -100 Q420 -128 438.5 -145.5 Q457 -163 481 -163 Q507 -163 539 -151 L539 -250 Q517 -258 494 -261.5 Q471 -265 445 -265 Z " />
<glyph glyph-name="uogonek" unicode="&#x173;" horiz-adv-x="594" d="M531 504 L531 0 L379 0 L373 82 Q355 40 315.5 13.5 Q276 -13 219 -13 Q145 -13 100.5 36.5 Q56 86 56 170 L56 504 L226 504 L226 196 Q226 156 241.5 132.5 Q257 109 288 109 Q317 109 339 135.5 Q361 162 361 219 L361 504 L531 504 Z M440 -262 Q369 -262 329.5 -226 Q290 -190 290 -141 Q290 -103 309.5 -68.5 Q329 -34 379 0 L502 0 Q451 -8 431.5 -36 Q412 -64 412 -98 Q412 -130 431.5 -148 Q451 -166 476 -166 Q507 -166 531 -156 L531 -248 Q490 -262 440 -262 Z " />
<glyph glyph-name="Wcircumflex" unicode="&#x174;" horiz-adv-x="913" d="M166 0 L13 670 L192 670 L284 231 L399 670 L524 670 L638 231 L731 670 L900 670 L747 0 L566 0 L458 430 L347 0 L166 0 Z M497 915 L659 790 L606 710 L461 800 L316 710 L263 790 L425 915 L497 915 Z " />
<glyph glyph-name="wcircumflex" unicode="&#x175;" horiz-adv-x="800" d="M150 0 L3 504 L179 504 L249 159 L334 504 L480 504 L569 158 L637 504 L797 504 L650 0 L478 0 L400 275 L322 0 L150 0 Z M448 770 L585 624 L528 557 L407 657 L286 557 L229 624 L366 770 L448 770 Z " />
<glyph glyph-name="Ycircumflex" unicode="&#x176;" horiz-adv-x="634" d="M188 670 L320 396 L455 670 L633 670 L406 270 L406 0 L228 0 L228 268 L1 670 L188 670 Z M356 915 L518 790 L465 710 L320 800 L175 710 L122 790 L284 915 L356 915 Z " />
<glyph glyph-name="ycircumflex" unicode="&#x177;" horiz-adv-x="536" d="M4 -198 L39 -94 Q70 -107 100 -107 Q123 -107 141.5 -93 Q160 -79 179 -36 L198 8 L3 504 L179 504 L275 186 L368 504 L533 504 L319 -43 Q283 -135 235 -179 Q187 -223 119 -223 Q84 -223 55 -216.5 Q26 -210 4 -198 Z M314 770 L451 624 L394 557 L273 657 L152 557 L95 624 L232 770 L314 770 Z " />
<glyph glyph-name="Ydieresis" unicode="&#x178;" horiz-adv-x="634" d="M188 670 L320 396 L455 670 L633 670 L406 270 L406 0 L228 0 L228 268 L1 670 L188 670 Z M435 736 Q400 736 376 760 Q352 784 352 820 Q352 856 376 880 Q400 904 435 904 Q470 904 494 880 Q518 856 518 820 Q518 784 494 760 Q470 736 435 736 Z M205 736 Q170 736 146 760 Q122 784 122 820 Q122 856 146 880 Q170 904 205 904 Q240 904 264 880 Q288 856 288 820 Q288 784 264 760 Q240 736 205 736 Z " />
<glyph glyph-name="Zacute" unicode="&#x179;" horiz-adv-x="606" d="M40 0 L40 99 L346 541 L47 541 L47 670 L567 670 L567 571 L260 129 L574 129 L574 0 L40 0 Z M184 795 L409 940 L478 809 L226 712 L184 795 Z " />
<glyph glyph-name="zacute" unicode="&#x17a;" horiz-adv-x="503" d="M39 0 L39 80 L260 385 L45 385 L45 504 L462 504 L462 426 L235 119 L474 119 L474 0 L39 0 Z M156 625 L306 781 L394 676 L215 556 L156 625 Z " />
<glyph glyph-name="Zdotaccent" unicode="&#x17b;" horiz-adv-x="606" d="M40 0 L40 99 L346 541 L47 541 L47 670 L567 670 L567 571 L260 129 L574 129 L574 0 L40 0 Z M307 727 Q267 727 238.5 754.5 Q210 782 210 820 Q210 858 238.5 885.5 Q267 913 307 913 Q347 913 375.5 885.5 Q404 858 404 820 Q404 782 375.5 754.5 Q347 727 307 727 Z " />
<glyph glyph-name="zdotaccent" unicode="&#x17c;" horiz-adv-x="503" d="M39 0 L39 80 L260 385 L45 385 L45 504 L462 504 L462 426 L235 119 L474 119 L474 0 L39 0 Z M256 561 Q216 561 188.5 587.5 Q161 614 161 652 Q161 690 188.5 716.5 Q216 743 256 743 Q296 743 323.5 716.5 Q351 690 351 652 Q351 614 323.5 587.5 Q296 561 256 561 Z " />
<glyph glyph-name="Zcaron" unicode="&#x17d;" horiz-adv-x="606" d="M40 0 L40 99 L346 541 L47 541 L47 670 L567 670 L567 571 L260 129 L574 129 L574 0 L40 0 Z M271 725 L109 850 L162 930 L307 840 L452 930 L505 850 L343 725 L271 725 Z " />
<glyph glyph-name="zcaron" unicode="&#x17e;" horiz-adv-x="503" d="M39 0 L39 80 L260 385 L45 385 L45 504 L462 504 L462 426 L235 119 L474 119 L474 0 L39 0 Z M436 707 L297 567 L215 567 L76 707 L135 780 L256 681 L377 780 L436 707 Z " />
<glyph glyph-name="uni0218" unicode="&#x218;" horiz-adv-x="621" d="M317 -16 Q190 -16 116.5 40.5 Q43 97 31 203 L206 203 Q214 145 246 122.5 Q278 100 319 100 Q366 100 388 123 Q410 146 410 171 Q410 202 393.5 224 Q377 246 335 257 L224 286 Q138 308 95 354.5 Q52 401 52 486 Q52 551 86.5 595.5 Q121 640 179 663 Q237 686 309 686 Q428 686 494.5 630 Q561 574 575 471 L403 471 Q397 517 372 543.5 Q347 570 304 570 Q267 570 246 550 Q225 530 225 499 Q225 440 292 423 L397 396 Q472 377 513 346.5 Q554 316 570 277 Q586 238 586 191 Q586 94 515.5 39 Q445 -16 317 -16 Z M211 -359 L211 -292 Q248 -283 270 -266.5 Q292 -250 301 -222 Q273 -221 248 -199 Q223 -177 223 -139 Q223 -103 247 -80 Q271 -57 306 -57 Q342 -57 367.5 -84.5 Q393 -112 393 -162 Q393 -238 343 -292 Q293 -346 211 -359 Z " />
<glyph glyph-name="uni0219" unicode="&#x219;" horiz-adv-x="528" d="M267 -13 Q160 -13 99.5 31.5 Q39 76 30 159 L195 159 Q200 118 222 102.5 Q244 87 269 87 Q298 87 314 99.5 Q330 112 330 131 Q330 148 316.5 163 Q303 178 266 188 L182 210 Q117 227 80.5 262 Q44 297 44 359 Q44 412 74 447 Q104 482 155 499.5 Q206 517 270 517 Q364 517 419 475 Q474 433 488 354 L324 354 Q320 383 305 400 Q290 417 262 417 Q236 417 222 403.5 Q208 390 208 371 Q208 353 220 339.5 Q232 326 264 318 L336 300 Q422 278 458 243.5 Q494 209 494 150 Q494 72 434 29.5 Q374 -13 267 -13 Z M168 -347 L168 -285 Q241 -266 255 -215 Q228 -214 204.5 -192.5 Q181 -171 181 -135 Q181 -101 204.5 -79 Q228 -57 260 -57 Q293 -57 318 -83.5 Q343 -110 343 -158 Q343 -204 321 -244 Q299 -284 260 -311 Q221 -338 168 -347 Z " />
<glyph glyph-name="uni021A" unicode="&#x21a;" horiz-adv-x="596" d="M209 0 L209 539 L13 539 L13 670 L583 670 L583 539 L387 539 L387 0 L209 0 Z M202 -359 L202 -292 Q239 -283 261 -266.5 Q283 -250 292 -222 Q264 -221 239 -199 Q214 -177 214 -139 Q214 -103 238 -80 Q262 -57 297 -57 Q333 -57 358.5 -84.5 Q384 -112 384 -162 Q384 -238 334 -292 Q284 -346 202 -359 Z " />
<glyph glyph-name="uni021B" unicode="&#x21b;" horiz-adv-x="399" d="M260 -13 Q168 -13 123.5 38.5 Q79 90 79 169 L79 394 L14 394 L14 504 L79 504 L79 646 L249 646 L249 504 L368 504 L368 394 L249 394 L249 171 Q249 138 264 122 Q279 106 304 106 Q318 106 333 109 Q348 112 362 118 L388 14 Q365 1 329.5 -6 Q294 -13 260 -13 Z M137 -347 L137 -285 Q210 -266 224 -215 Q197 -214 173.5 -192.5 Q150 -171 150 -135 Q150 -101 173.5 -79 Q197 -57 229 -57 Q262 -57 287 -83.5 Q312 -110 312 -158 Q312 -204 290 -244 Q268 -284 229 -311 Q190 -338 137 -347 Z " />
<glyph glyph-name="circumflex" unicode="&#x2c6;" horiz-adv-x="500" d="M291 770 L428 624 L371 557 L250 657 L129 557 L72 624 L209 770 L291 770 Z " />
<glyph glyph-name="caron" unicode="&#x2c7;" horiz-adv-x="500" d="M430 707 L291 567 L209 567 L70 707 L129 780 L250 681 L371 780 L430 707 Z " />
<glyph glyph-name="breve" unicode="&#x2d8;" horiz-adv-x="500" d="M250 569 Q177 569 133.5 617 Q90 665 86 737 L185 737 Q188 708 205 687.5 Q222 667 250 667 Q279 667 295.5 687.5 Q312 708 315 737 L414 737 Q410 665 368 617 Q326 569 250 569 Z " />
<glyph glyph-name="dotaccent" unicode="&#x2d9;" horiz-adv-x="500" d="M250 561 Q210 561 182.5 587.5 Q155 614 155 652 Q155 690 182.5 716.5 Q210 743 250 743 Q290 743 317.5 716.5 Q345 690 345 652 Q345 614 317.5 587.5 Q290 561 250 561 Z " />
<glyph glyph-name="ring" unicode="&#x2da;" horiz-adv-x="500" d="M249 551 Q195 551 160.5 584.5 Q126 618 126 671 Q126 726 160.5 758.5 Q195 791 249 791 Q305 791 339.5 758.5 Q374 726 374 671 Q374 618 339 584.5 Q304 551 249 551 Z M249 617 Q271 617 285.5 632 Q300 647 300 671 Q300 694 285.5 709.5 Q271 725 249 725 Q227 725 212.5 709.5 Q198 694 198 671 Q198 647 212.5 632 Q227 617 249 617 Z " />
<glyph glyph-name="ogonek" unicode="&#x2db;" horiz-adv-x="500" d="M279 -262 Q208 -262 168.5 -226 Q129 -190 129 -141 Q129 -103 148.5 -68.5 Q168 -34 218 0 L341 0 Q290 -8 270.5 -36 Q251 -64 251 -98 Q251 -130 270.5 -148 Q290 -166 315 -166 Q346 -166 370 -156 L370 -248 Q329 -262 279 -262 Z " />
<glyph glyph-name="tilde" unicode="&#x2dc;" horiz-adv-x="500" d="M230 611 Q213 624 204 629 Q195 634 187 634 Q165 634 155 577 L62 577 Q66 644 97 690.5 Q128 737 180 737 Q207 737 228.5 725 Q250 713 270 697 Q287 684 296 679 Q305 674 313 674 Q335 674 345 731 L438 731 Q434 664 403 617.5 Q372 571 320 571 Q293 571 271.5 583 Q250 595 230 611 Z " />
<glyph glyph-name="hungarumlaut" unicode="&#x2dd;" horiz-adv-x="500" d="M47 599 L190 791 L276 713 L99 553 L47 599 Z M210 610 L390 768 L458 676 L251 554 L210 610 Z " />
<glyph glyph-name="gravecomb" unicode="&#x300;" d="M-50 781 L100 625 L41 556 L-138 676 L-50 781 Z " />
<glyph glyph-name="acutecomb" unicode="&#x301;" d="M-100 625 L50 781 L138 676 L-41 556 L-100 625 Z " />
<glyph glyph-name="uni0302" unicode="&#x302;" d="M41 770 L178 624 L121 557 L0 657 L-121 557 L-178 624 L-41 770 L41 770 Z " />
<glyph glyph-name="tildecomb" unicode="&#x303;" d="M-20 611 Q-37 624 -46 629 Q-55 634 -63 634 Q-85 634 -95 577 L-188 577 Q-184 644 -153 690.5 Q-122 737 -70 737 Q-43 737 -21.5 725 Q0 713 20 697 Q37 684 46 679 Q55 674 63 674 Q85 674 95 731 L188 731 Q184 664 153 617.5 Q122 571 70 571 Q43 571 21.5 583 Q0 595 -20 611 Z " />
<glyph glyph-name="uni0304" unicode="&#x304;" d="M-163 589 L-163 695 L163 695 L163 589 L-163 589 Z " />
<glyph glyph-name="uni0306" unicode="&#x306;" d="M0 569 Q-73 569 -116.5 617 Q-160 665 -164 737 L-65 737 Q-62 708 -45 687.5 Q-28 667 0 667 Q29 667 45.5 687.5 Q62 708 65 737 L164 737 Q160 665 118 617 Q76 569 0 569 Z " />
<glyph glyph-name="uni0307" unicode="&#x307;" d="M0 561 Q-40 561 -67.5 587.5 Q-95 614 -95 652 Q-95 690 -67.5 716.5 Q-40 743 0 743 Q40 743 67.5 716.5 Q95 690 95 652 Q95 614 67.5 587.5 Q40 561 0 561 Z " />
<glyph glyph-name="uni0308" unicode="&#x308;" d="M100 561 Q67 561 43.5 584 Q20 607 20 641 Q20 673 43.5 696 Q67 719 100 719 Q132 719 156 696 Q180 673 180 641 Q180 607 156 584 Q132 561 100 561 Z M-100 561 Q-133 561 -156.5 584 Q-180 607 -180 641 Q-180 673 -156.5 696 Q-133 719 -100 719 Q-68 719 -44 696 Q-20 673 -20 641 Q-20 607 -44 584 Q-68 561 -100 561 Z " />
<glyph glyph-name="uni030A" unicode="&#x30a;" d="M0 551 Q-54 551 -88.5 584.5 Q-123 618 -123 671 Q-123 726 -88.5 758.5 Q-54 791 0 791 Q56 791 90.5 758.5 Q125 726 125 671 Q125 618 90 584.5 Q55 551 0 551 Z M0 617 Q22 617 36.5 632 Q51 647 51 671 Q51 694 36.5 709.5 Q22 725 0 725 Q-22 725 -36.5 709.5 Q-51 694 -51 671 Q-51 647 -36.5 632 Q-22 617 0 617 Z " />
<glyph glyph-name="uni030B" unicode="&#x30b;" d="M-147 599 L-4 791 L82 713 L-95 553 L-147 599 Z M16 610 L196 768 L264 676 L57 554 L16 610 Z " />
<glyph glyph-name="uni030C" unicode="&#x30c;" d="M180 707 L41 567 L-41 567 L-180 707 L-121 780 L0 681 L121 780 L180 707 Z " />
<glyph glyph-name="uni0312" unicode="&#x312;" d="M89 851 L89 789 Q16 770 2 719 Q29 718 52.5 696.5 Q76 675 76 639 Q76 605 53 583 Q30 561 -3 561 Q-37 561 -61.5 587 Q-86 613 -86 662 Q-86 708 -64 748 Q-42 788 -3 815 Q36 842 89 851 Z " />
<glyph glyph-name="uni0315" unicode="&#x315;" d="M30 516 L-48 516 L-48 700 L78 700 L78 692 Q78 666 72 632 Q66 598 55 566 Q44 534 30 516 Z " />
<glyph glyph-name="dotbelowcomb" unicode="&#x323;" d="M0 -239 Q-40 -239 -67.5 -212.5 Q-95 -186 -95 -148 Q-95 -110 -67.5 -83.5 Q-40 -57 0 -57 Q40 -57 67.5 -83.5 Q95 -110 95 -148 Q95 -186 67.5 -212.5 Q40 -239 0 -239 Z " />
<glyph glyph-name="uni0326" unicode="&#x326;" d="M-93 -347 L-93 -285 Q-20 -266 -6 -215 Q-33 -214 -56.5 -192.5 Q-80 -171 -80 -135 Q-80 -101 -56.5 -79 Q-33 -57 -1 -57 Q32 -57 57 -83.5 Q82 -110 82 -158 Q82 -204 60 -244 Q38 -284 -1 -311 Q-40 -338 -93 -347 Z " />
<glyph glyph-name="uni0327" unicode="&#x327;" d="M-48 0 L22 0 L13 -59 Q23 -56 36 -56 Q81 -56 109.5 -83 Q138 -110 138 -154 Q138 -209 101 -240.5 Q64 -272 -5 -272 Q-45 -272 -84 -261 L-77 -187 Q-42 -196 -13 -196 Q41 -196 41 -156 Q41 -139 30.5 -128 Q20 -117 3 -117 Q-17 -117 -35 -128 L-63 -128 L-48 0 Z " />
<glyph glyph-name="uni0328" unicode="&#x328;" d="M5 -262 Q-66 -262 -105.5 -226 Q-145 -190 -145 -141 Q-145 -103 -125.5 -68.5 Q-106 -34 -56 0 L67 0 Q16 -8 -3.5 -36 Q-23 -64 -23 -98 Q-23 -130 -3.5 -148 Q16 -166 41 -166 Q72 -166 96 -156 L96 -248 Q55 -262 5 -262 Z " />
<glyph glyph-name="uni1E24" unicode="&#x1e24;" horiz-adv-x="728" d="M74 0 L74 670 L252 670 L252 405 L476 405 L476 670 L654 670 L654 0 L476 0 L476 274 L252 274 L252 0 L74 0 Z M364 -242 Q324 -242 297.5 -216 Q271 -190 271 -153 Q271 -116 297.5 -90 Q324 -64 364 -64 Q404 -64 430.5 -90 Q457 -116 457 -153 Q457 -190 430.5 -216 Q404 -242 364 -242 Z " />
<glyph glyph-name="uni1E25" unicode="&#x1e25;" horiz-adv-x="601" d="M60 0 L60 700 L230 700 L230 437 Q251 474 287.5 495.5 Q324 517 373 517 Q454 517 500.5 467.5 Q547 418 547 334 L547 0 L377 0 L377 308 Q377 348 360 371.5 Q343 395 309 395 Q278 395 254 368.5 Q230 342 230 285 L230 0 L60 0 Z M303 -239 Q263 -239 235.5 -212.5 Q208 -186 208 -148 Q208 -110 235.5 -83.5 Q263 -57 303 -57 Q343 -57 370.5 -83.5 Q398 -110 398 -148 Q398 -186 370.5 -212.5 Q343 -239 303 -239 Z " />
<glyph glyph-name="uni1E36" unicode="&#x1e36;" horiz-adv-x="542" d="M74 0 L74 670 L252 670 L252 131 L512 131 L512 0 L74 0 Z M293 -242 Q253 -242 226.5 -216 Q200 -190 200 -153 Q200 -116 226.5 -90 Q253 -64 293 -64 Q333 -64 359.5 -90 Q386 -116 386 -153 Q386 -190 359.5 -216 Q333 -242 293 -242 Z " />
<glyph glyph-name="uni1E37" unicode="&#x1e37;" horiz-adv-x="290" d="M60 0 L60 700 L230 700 L230 0 L60 0 Z M145 -239 Q105 -239 77.5 -212.5 Q50 -186 50 -148 Q50 -110 77.5 -83.5 Q105 -57 145 -57 Q185 -57 212.5 -83.5 Q240 -110 240 -148 Q240 -186 212.5 -212.5 Q185 -239 145 -239 Z " />
<glyph glyph-name="Wgrave" unicode="&#x1e80;" horiz-adv-x="913" d="M166 0 L13 670 L192 670 L284 231 L399 670 L524 670 L638 231 L731 670 L900 670 L747 0 L566 0 L458 430 L347 0 L166 0 Z M359 940 L584 795 L542 712 L290 809 L359 940 Z " />
<glyph glyph-name="wgrave" unicode="&#x1e81;" horiz-adv-x="800" d="M150 0 L3 504 L179 504 L249 159 L334 504 L480 504 L569 158 L637 504 L797 504 L650 0 L478 0 L400 275 L322 0 L150 0 Z M357 781 L507 625 L448 556 L269 676 L357 781 Z " />
<glyph glyph-name="Wacute" unicode="&#x1e82;" horiz-adv-x="913" d="M166 0 L13 670 L192 670 L284 231 L399 670 L524 670 L638 231 L731 670 L900 670 L747 0 L566 0 L458 430 L347 0 L166 0 Z M338 795 L563 940 L632 809 L380 712 L338 795 Z " />
<glyph glyph-name="wacute" unicode="&#x1e83;" horiz-adv-x="800" d="M150 0 L3 504 L179 504 L249 159 L334 504 L480 504 L569 158 L637 504 L797 504 L650 0 L478 0 L400 275 L322 0 L150 0 Z M307 625 L457 781 L545 676 L366 556 L307 625 Z " />
<glyph glyph-name="Wdieresis" unicode="&#x1e84;" horiz-adv-x="913" d="M166 0 L13 670 L192 670 L284 231 L399 670 L524 670 L638 231 L731 670 L900 670 L747 0 L566 0 L458 430 L347 0 L166 0 Z M576 736 Q541 736 517 760 Q493 784 493 820 Q493 856 517 880 Q541 904 576 904 Q611 904 635 880 Q659 856 659 820 Q659 784 635 760 Q611 736 576 736 Z M346 736 Q311 736 287 760 Q263 784 263 820 Q263 856 287 880 Q311 904 346 904 Q381 904 405 880 Q429 856 429 820 Q429 784 405 760 Q381 736 346 736 Z " />
<glyph glyph-name="wdieresis" unicode="&#x1e85;" horiz-adv-x="800" d="M150 0 L3 504 L179 504 L249 159 L334 504 L480 504 L569 158 L637 504 L797 504 L650 0 L478 0 L400 275 L322 0 L150 0 Z M507 561 Q474 561 450.5 584 Q427 607 427 641 Q427 673 450.5 696 Q474 719 507 719 Q539 719 563 696 Q587 673 587 641 Q587 607 563 584 Q539 561 507 561 Z M307 561 Q274 561 250.5 584 Q227 607 227 641 Q227 673 250.5 696 Q274 719 307 719 Q339 719 363 696 Q387 673 387 641 Q387 607 363 584 Q339 561 307 561 Z " />
<glyph glyph-name="uni1E9E" unicode="&#x1e9e;" horiz-adv-x="684" d="M63 0 L63 409 Q63 548 137.5 617 Q212 686 347 686 Q446 686 515 636 Q584 586 618 501 L494 382 Q580 364 616 312.5 Q652 261 652 192 Q652 92 586.5 38 Q521 -16 410 -16 Q388 -16 353 -11 Q318 -6 293 7 L314 111 Q330 105 345.5 102.5 Q361 100 374 100 Q413 100 440 124.5 Q467 149 467 202 Q467 254 441 280 Q415 306 369 306 L356 306 L356 395 L462 507 Q447 534 418.5 552.5 Q390 571 347 571 Q299 571 270 540 Q241 509 241 441 L241 0 L63 0 Z " />
<glyph glyph-name="Ygrave" unicode="&#x1ef2;" horiz-adv-x="634" d="M188 670 L320 396 L455 670 L633 670 L406 270 L406 0 L228 0 L228 268 L1 670 L188 670 Z M218 940 L443 795 L401 712 L149 809 L218 940 Z " />
<glyph glyph-name="ygrave" unicode="&#x1ef3;" horiz-adv-x="536" d="M4 -198 L39 -94 Q70 -107 100 -107 Q123 -107 141.5 -93 Q160 -79 179 -36 L198 8 L3 504 L179 504 L275 186 L368 504 L533 504 L319 -43 Q283 -135 235 -179 Q187 -223 119 -223 Q84 -223 55 -216.5 Q26 -210 4 -198 Z M223 781 L373 625 L314 556 L135 676 L223 781 Z " />
<glyph glyph-name="uni2000" unicode="&#x2000;" horiz-adv-x="500" d="" />
<glyph glyph-name="uni2001" unicode="&#x2001;" horiz-adv-x="1000" d="" />
<glyph glyph-name="uni2002" unicode="&#x2002;" horiz-adv-x="500" d="" />
<glyph glyph-name="uni2003" unicode="&#x2003;" horiz-adv-x="1000" d="" />
<glyph glyph-name="uni2004" unicode="&#x2004;" horiz-adv-x="333" d="" />
<glyph glyph-name="uni2005" unicode="&#x2005;" horiz-adv-x="250" d="" />
<glyph glyph-name="uni2006" unicode="&#x2006;" horiz-adv-x="166" d="" />
<glyph glyph-name="uni2007" unicode="&#x2007;" horiz-adv-x="590" d="" />
<glyph glyph-name="uni2008" unicode="&#x2008;" horiz-adv-x="220" d="" />
<glyph glyph-name="uni2009" unicode="&#x2009;" horiz-adv-x="200" d="" />
<glyph glyph-name="uni200A" unicode="&#x200a;" horiz-adv-x="62" d="" />
<glyph glyph-name="uni200B" unicode="&#x200b;" d="" />
<glyph glyph-name="uni2010" unicode="&#x2010;" horiz-adv-x="374" d="M25 182 L25 312 L349 312 L349 182 L25 182 Z " />
<glyph glyph-name="uni2011" unicode="&#x2011;" horiz-adv-x="374" d="M25 182 L25 312 L349 312 L349 182 L25 182 Z " />
<glyph glyph-name="figuredash" unicode="&#x2012;" horiz-adv-x="590" d="M45 182 L45 312 L545 312 L545 182 L45 182 Z " />
<glyph glyph-name="endash" unicode="&#x2013;" horiz-adv-x="500" d="M0 182 L0 312 L500 312 L500 182 L0 182 Z " />
<glyph glyph-name="emdash" unicode="&#x2014;" horiz-adv-x="1000" d="M0 182 L0 312 L1000 312 L1000 182 L0 182 Z " />
<glyph glyph-name="uni2015" unicode="&#x2015;" horiz-adv-x="1000" d="M0 182 L0 312 L1000 312 L1000 182 L0 182 Z " />
<glyph glyph-name="quoteleft" unicode="&#x2018;" horiz-adv-x="206" d="M186 710 L186 642 Q132 631 115 589 Q147 587 167.5 565.5 Q188 544 188 510 Q188 470 164 447.5 Q140 425 102 425 Q62 425 37.5 452.5 Q13 480 13 536 Q13 603 58.5 652.5 Q104 702 186 710 Z " />
<glyph glyph-name="quoteright" unicode="&#x2019;" horiz-adv-x="206" d="M20 425 L20 493 Q74 504 91 546 Q59 548 38.5 569.5 Q18 591 18 625 Q18 665 42 687.5 Q66 710 104 710 Q144 710 168.5 682 Q193 654 193 599 Q193 532 147.5 482.5 Q102 433 20 425 Z " />
<glyph glyph-name="quotesinglbase" unicode="&#x201a;" horiz-adv-x="206" d="M20 -131 L20 -63 Q74 -52 91 -10 Q59 -8 38.5 13.5 Q18 35 18 69 Q18 109 42 131.5 Q66 154 104 154 Q144 154 168.5 126 Q193 98 193 43 Q193 -24 147.5 -73.5 Q102 -123 20 -131 Z " />
<glyph glyph-name="quotedblleft" unicode="&#x201c;" horiz-adv-x="429" d="M186 710 L186 642 Q132 631 115 589 Q147 587 167.5 565.5 Q188 544 188 510 Q188 470 164 447.5 Q140 425 102 425 Q62 425 37.5 452.5 Q13 480 13 536 Q13 603 58.5 652.5 Q104 702 186 710 Z M409 710 L409 642 Q355 631 338 589 Q370 587 390.5 565.5 Q411 544 411 510 Q411 470 387 447.5 Q363 425 325 425 Q285 425 260.5 452.5 Q236 480 236 536 Q236 603 281.5 652.5 Q327 702 409 710 Z " />
<glyph glyph-name="quotedblright" unicode="&#x201d;" horiz-adv-x="429" d="M20 425 L20 493 Q74 504 91 546 Q59 548 38.5 569.5 Q18 591 18 625 Q18 665 42 687.5 Q66 710 104 710 Q144 710 168.5 682 Q193 654 193 599 Q193 532 147.5 482.5 Q102 433 20 425 Z M243 425 L243 493 Q297 504 314 546 Q282 548 261.5 569.5 Q241 591 241 625 Q241 665 265 687.5 Q289 710 327 710 Q367 710 391.5 682 Q416 654 416 599 Q416 532 370.5 482.5 Q325 433 243 425 Z " />
<glyph glyph-name="quotedblbase" unicode="&#x201e;" horiz-adv-x="429" d="M20 -131 L20 -63 Q74 -52 91 -10 Q59 -8 38.5 13.5 Q18 35 18 69 Q18 109 42 131.5 Q66 154 104 154 Q144 154 168.5 126 Q193 98 193 43 Q193 -24 147.5 -73.5 Q102 -123 20 -131 Z M243 -131 L243 -63 Q297 -52 314 -10 Q282 -8 261.5 13.5 Q241 35 241 69 Q241 109 265 131.5 Q289 154 327 154 Q367 154 391.5 126 Q416 98 416 43 Q416 -24 370.5 -73.5 Q325 -123 243 -131 Z " />
<glyph glyph-name="dagger" unicode="&#x2020;" horiz-adv-x="417" d="M138 -105 L146 393 L25 387 L25 514 L145 508 L138 670 L275 670 L268 508 L392 514 L392 387 L267 393 L275 -105 L138 -105 Z " />
<glyph glyph-name="daggerdbl" unicode="&#x2021;" horiz-adv-x="417" d="M25 51 L25 178 L146 172 L146 393 L25 387 L25 514 L145 508 L138 670 L275 670 L268 508 L392 514 L392 387 L267 393 L267 172 L392 178 L392 51 L268 57 L275 -105 L138 -105 L145 57 L25 51 Z " />
<glyph glyph-name="bullet" unicode="&#x2022;" horiz-adv-x="391" d="M195 102 Q154 102 120.5 122 Q87 142 68 175 Q49 208 49 248 Q49 290 68 323 Q87 356 120.5 375 Q154 394 195 394 Q237 394 270.5 375 Q304 356 323 323 Q342 290 342 248 Q342 208 321.5 175 Q301 142 267.5 122 Q234 102 195 102 Z " />
<glyph glyph-name="ellipsis" unicode="&#x2026;" horiz-adv-x="1000" d="M166 -10 Q128 -10 102 16.5 Q76 43 76 80 Q76 120 102 145 Q128 170 166 170 Q205 170 231 145 Q257 120 257 80 Q257 43 230 16.5 Q203 -10 166 -10 Z M499 -10 Q461 -10 435 16.5 Q409 43 409 80 Q409 120 435 145 Q461 170 499 170 Q538 170 564 145 Q590 120 590 80 Q590 43 563 16.5 Q536 -10 499 -10 Z M832 -10 Q794 -10 768 16.5 Q742 43 742 80 Q742 120 768 145 Q794 170 832 170 Q871 170 897 145 Q923 120 923 80 Q923 43 896 16.5 Q869 -10 832 -10 Z " />
<glyph glyph-name="perthousand" unicode="&#x2030;" horiz-adv-x="1276" d="M226 0 L544 660 L682 660 L364 0 L226 0 Z M716 -10 Q632 -10 591 45.5 Q550 101 550 196 Q550 291 591 346.5 Q632 402 716 402 Q800 402 841 346.5 Q882 291 882 196 Q882 101 841 45.5 Q800 -10 716 -10 Z M716 74 Q739 74 748 103 Q757 132 757 196 Q757 260 748 289 Q739 318 716 318 Q693 318 684 289 Q675 260 675 196 Q675 132 684 103 Q693 74 716 74 Z M1083 -10 Q999 -10 958 45.5 Q917 101 917 196 Q917 291 958 346.5 Q999 402 1083 402 Q1167 402 1208 346.5 Q1249 291 1249 196 Q1249 101 1208 45.5 Q1167 -10 1083 -10 Z M1083 74 Q1106 74 1115 103 Q1124 132 1124 196 Q1124 260 1115 289 Q1106 318 1083 318 Q1060 318 1051 289 Q1042 260 1042 196 Q1042 132 1051 103 Q1060 74 1083 74 Z M190 258 Q106 258 65 313.5 Q24 369 24 464 Q24 559 65 614.5 Q106 670 190 670 Q274 670 315 614.5 Q356 559 356 464 Q356 369 315 313.5 Q274 258 190 258 Z M190 342 Q213 342 222 371 Q231 400 231 464 Q231 528 222 557 Q213 586 190 586 Q167 586 158 557 Q149 528 149 464 Q149 400 158 371 Q167 342 190 342 Z " />
<glyph glyph-name="guilsinglleft" unicode="&#x2039;" horiz-adv-x="343" d="M168 52 L30 253 L168 454 L327 454 L196 255 L330 52 L168 52 Z " />
<glyph glyph-name="guilsinglright" unicode="&#x203a;" horiz-adv-x="343" d="M175 454 L313 253 L175 52 L16 52 L147 251 L13 454 L175 454 Z " />
<glyph glyph-name="fraction" unicode="&#x2044;" horiz-adv-x="140" d="M-158 0 L160 660 L298 660 L-20 0 L-158 0 Z " />
<glyph glyph-name="uni2070" unicode="&#x2070;" horiz-adv-x="382" d="M191 368 Q107 368 66 423.5 Q25 479 25 574 Q25 669 66 724.5 Q107 780 191 780 Q275 780 316 724.5 Q357 669 357 574 Q357 479 316 423.5 Q275 368 191 368 Z M191 452 Q214 452 223 481 Q232 510 232 574 Q232 638 223 667 Q214 696 191 696 Q168 696 159 667 Q150 638 150 574 Q150 510 159 481 Q168 452 191 452 Z " />
<glyph glyph-name="uni2074" unicode="&#x2074;" horiz-adv-x="363" d="M16 446 L16 521 L205 766 L306 766 L306 530 L350 530 L350 446 L306 446 L306 374 L195 374 L195 446 L16 446 Z M115 530 L195 530 L195 636 L115 530 Z " />
<glyph glyph-name="uni2075" unicode="&#x2075;" horiz-adv-x="369" d="M39 538 L55 766 L322 766 L322 678 L147 678 L143 615 Q173 638 215 638 Q275 638 312 602 Q349 566 349 508 Q349 442 303.5 403 Q258 364 182 364 Q113 364 71 395 Q29 426 23 482 L139 482 Q146 447 180 447 Q223 447 223 504 Q223 532 211.5 548 Q200 564 181 564 Q151 564 134 538 L39 538 Z " />
<glyph glyph-name="uni2076" unicode="&#x2076;" horiz-adv-x="373" d="M197 368 Q114 368 69.5 422 Q25 476 25 581 Q25 669 68 724.5 Q111 780 202 780 Q258 780 297 753 Q336 726 346 674 L225 674 Q219 704 194 704 Q150 704 145 609 Q176 640 226 640 Q282 640 318.5 605 Q355 570 355 511 Q355 446 310.5 407 Q266 368 197 368 Z M190 445 Q235 445 235 504 Q235 563 190 563 Q145 563 145 504 Q145 476 157 460.5 Q169 445 190 445 Z " />
<glyph glyph-name="uni2077" unicode="&#x2077;" horiz-adv-x="324" d="M8 688 L8 776 L313 776 L313 688 Q247 609 212.5 536.5 Q178 464 172 384 L54 384 Q65 472 100.5 543.5 Q136 615 203 688 L8 688 Z " />
<glyph glyph-name="uni2078" unicode="&#x2078;" horiz-adv-x="380" d="M190 368 Q114 368 66 401 Q18 434 18 490 Q18 525 39 550 Q60 575 97 589 Q66 602 49 624.5 Q32 647 32 676 Q32 722 74.5 751 Q117 780 190 780 Q262 780 305 751 Q348 722 348 676 Q348 647 331 624.5 Q314 602 283 589 Q320 575 341 550 Q362 525 362 490 Q362 434 314 401 Q266 368 190 368 Z M190 623 Q227 623 227 667 Q227 711 190 711 Q153 711 153 667 Q153 623 190 623 Z M190 440 Q208 440 221.5 454 Q235 468 235 497 Q235 526 221.5 540 Q208 554 190 554 Q172 554 158.5 540 Q145 526 145 497 Q145 468 158.5 454 Q172 440 190 440 Z " />
<glyph glyph-name="uni2079" unicode="&#x2079;" horiz-adv-x="373" d="M182 780 Q229 780 266.5 759.5 Q304 739 326 694.5 Q348 650 348 579 Q348 485 305.5 426.5 Q263 368 172 368 Q115 368 75.5 395 Q36 422 26 474 L148 474 Q153 445 179 445 Q223 445 228 538 Q199 509 151 509 Q92 509 55 543.5 Q18 578 18 636 Q18 702 63 741 Q108 780 182 780 Z M183 703 Q138 703 138 644 Q138 585 183 585 Q228 585 228 644 Q228 672 216 687.5 Q204 703 183 703 Z " />
<glyph glyph-name="uni2080" unicode="&#x2080;" horiz-adv-x="382" d="M191 -110 Q107 -110 66 -54.5 Q25 1 25 96 Q25 191 66 246.5 Q107 302 191 302 Q275 302 316 246.5 Q357 191 357 96 Q357 1 316 -54.5 Q275 -110 191 -110 Z M191 -26 Q214 -26 223 3 Q232 32 232 96 Q232 160 223 189 Q214 218 191 218 Q168 218 159 189 Q150 160 150 96 Q150 32 159 3 Q168 -26 191 -26 Z " />
<glyph glyph-name="uni2081" unicode="&#x2081;" horiz-adv-x="290" d="M17 144 L17 239 Q52 245 82.5 257 Q113 269 138 292 L229 292 L229 -100 L108 -100 L108 164 Q61 148 17 144 Z " />
<glyph glyph-name="uni2082" unicode="&#x2082;" horiz-adv-x="373" d="M29 -100 L29 -86 Q29 -35 52.5 3 Q76 41 128 78 L173 110 Q198 128 209 142 Q220 156 220 175 Q220 220 185 220 Q166 220 155.5 204 Q145 188 143 153 L28 153 Q32 224 76 263 Q120 302 193 302 Q260 302 301.5 268.5 Q343 235 343 180 Q343 143 325 112.5 Q307 82 266 55 L213 20 Q183 1 176 -11 L346 -11 L346 -100 L29 -100 Z " />
<glyph glyph-name="uni2083" unicode="&#x2083;" horiz-adv-x="367" d="M186 -110 Q110 -110 66 -75 Q22 -40 15 28 L128 28 Q132 -29 180 -29 Q227 -29 227 17 Q227 46 208.5 59.5 Q190 73 150 73 L139 73 L139 143 L150 143 Q188 143 203.5 152.5 Q219 162 219 183 Q219 223 180 223 Q148 223 143 184 L30 184 Q39 242 79.5 272 Q120 302 187 302 Q254 302 295.5 271.5 Q337 241 337 191 Q337 131 270 106 Q349 80 349 12 Q349 -44 305 -77 Q261 -110 186 -110 Z " />
<glyph glyph-name="uni2084" unicode="&#x2084;" horiz-adv-x="363" d="M16 -28 L16 47 L205 292 L306 292 L306 56 L350 56 L350 -28 L306 -28 L306 -100 L195 -100 L195 -28 L16 -28 Z M115 56 L195 56 L195 162 L115 56 Z " />
<glyph glyph-name="uni2085" unicode="&#x2085;" horiz-adv-x="369" d="M39 63 L55 291 L322 291 L322 203 L147 203 L143 140 Q173 163 215 163 Q275 163 312 127 Q349 91 349 33 Q349 -33 303.5 -72 Q258 -111 182 -111 Q113 -111 71 -80 Q29 -49 23 7 L139 7 Q146 -28 180 -28 Q223 -28 223 29 Q223 57 211.5 73 Q200 89 181 89 Q151 89 134 63 L39 63 Z " />
<glyph glyph-name="uni2086" unicode="&#x2086;" horiz-adv-x="373" d="M197 -110 Q114 -110 69.5 -56 Q25 -2 25 103 Q25 191 68 246.5 Q111 302 202 302 Q258 302 297 275 Q336 248 346 196 L225 196 Q219 226 194 226 Q150 226 145 131 Q176 162 226 162 Q282 162 318.5 127 Q355 92 355 33 Q355 -32 310.5 -71 Q266 -110 197 -110 Z M190 -33 Q235 -33 235 26 Q235 85 190 85 Q145 85 145 26 Q145 -2 157 -17.5 Q169 -33 190 -33 Z " />
<glyph glyph-name="uni2087" unicode="&#x2087;" horiz-adv-x="324" d="M8 204 L8 292 L313 292 L313 204 Q247 125 212.5 52.5 Q178 -20 172 -100 L54 -100 Q65 -12 100.5 59.5 Q136 131 203 204 L8 204 Z " />
<glyph glyph-name="uni2088" unicode="&#x2088;" horiz-adv-x="380" d="M190 -110 Q114 -110 66 -77 Q18 -44 18 12 Q18 47 39 72 Q60 97 97 111 Q66 124 49 146.5 Q32 169 32 198 Q32 244 74.5 273 Q117 302 190 302 Q262 302 305 273 Q348 244 348 198 Q348 169 331 146.5 Q314 124 283 111 Q320 97 341 72 Q362 47 362 12 Q362 -44 314 -77 Q266 -110 190 -110 Z M190 145 Q227 145 227 189 Q227 233 190 233 Q153 233 153 189 Q153 145 190 145 Z M190 -38 Q208 -38 221.5 -24 Q235 -10 235 19 Q235 48 221.5 62 Q208 76 190 76 Q172 76 158.5 62 Q145 48 145 19 Q145 -10 158.5 -24 Q172 -38 190 -38 Z " />
<glyph glyph-name="uni2089" unicode="&#x2089;" horiz-adv-x="373" d="M182 302 Q229 302 266.5 281.5 Q304 261 326 216.5 Q348 172 348 101 Q348 7 305.5 -51.5 Q263 -110 172 -110 Q115 -110 75.5 -83 Q36 -56 26 -4 L148 -4 Q153 -33 179 -33 Q223 -33 228 60 Q199 31 151 31 Q92 31 55 65.5 Q18 100 18 158 Q18 224 63 263 Q108 302 182 302 Z M183 225 Q138 225 138 166 Q138 107 183 107 Q228 107 228 166 Q228 194 216 209.5 Q204 225 183 225 Z " />
<glyph glyph-name="Euro" unicode="&#x20ac;" horiz-adv-x="590" d="M338 -16 Q230 -16 162.5 49 Q95 114 74 225 L19 225 L19 305 L65 305 Q65 316 65 327 Q65 338 65 348 L19 348 L19 428 L74 428 Q95 538 162.5 604 Q230 670 337 670 Q395 670 443.5 645 Q492 620 525 575 Q558 530 570 469 L403 469 Q398 502 380 524 Q362 546 334 546 Q264 546 246 428 L418 428 L404 348 L239 348 Q239 338 239 327 Q239 315 239 305 L398 305 L384 225 L246 225 Q264 108 336 108 Q363 108 382 128.5 Q401 149 406 187 L573 187 Q564 126 531 80.5 Q498 35 448 9.5 Q398 -16 338 -16 Z " />
<glyph glyph-name="uni20B9" unicode="&#x20b9;" horiz-adv-x="590" d="M72 497 L303 497 Q293 532 261 553 Q229 574 173 574 L72 574 L72 654 L571 654 L557 574 L423 574 Q455 540 466 497 L562 497 L548 417 L467 417 Q454 355 400.5 313.5 Q347 272 253 263 L527 0 L352 0 L72 260 L72 340 L173 340 Q229 340 261 360.5 Q293 381 304 417 L72 417 L72 497 Z " />
<glyph glyph-name="uni20BA" unicode="&#x20ba;" horiz-adv-x="590" d="M27 297 L85 318 L85 373 L27 352 L27 438 L85 459 L85 654 L247 654 L247 517 L361 558 L361 472 L247 431 L247 376 L361 417 L361 331 L247 290 L247 121 L278 121 Q346 121 374 165 Q402 209 407 311 L551 311 Q548 196 516 127.5 Q484 59 422.5 29.5 Q361 0 271 0 L85 0 L85 232 L27 211 L27 297 Z " />
<glyph glyph-name="trademark" unicode="&#x2122;" horiz-adv-x="934" d="M128 250 L128 570 L6 570 L6 670 L377 670 L377 570 L256 570 L256 250 L128 250 Z M395 250 L436 670 L569 670 L648 429 L731 670 L863 670 L904 250 L774 250 L756 486 L688 293 L610 293 L541 489 L522 250 L395 250 Z " />
<glyph glyph-name="minus" unicode="&#x2212;" horiz-adv-x="590" d="M77 272 L77 388 L513 388 L513 272 L77 272 Z " />
<glyph glyph-name="uniFB00" unicode="&#xfb00;" horiz-adv-x="709" d="M10 504 L81 504 Q82 599 129 656 Q176 713 275 713 Q304 713 334 706 Q364 699 391 685 L367 585 Q338 598 310 598 Q251 598 251 523 L251 504 L414 504 Q415 599 462 656 Q509 713 608 713 Q636 713 666.5 706 Q697 699 724 685 L700 585 Q671 598 643 598 Q584 598 584 523 L584 504 L692 504 L692 394 L584 394 L584 0 L414 0 L414 394 L251 394 L251 0 L81 0 L81 394 L10 394 L10 504 Z " />
<glyph glyph-name="uniFB01" unicode="&#xfb01;" horiz-adv-x="644" d="M404 652 Q404 690 431.5 716.5 Q459 743 499 743 Q539 743 566.5 716.5 Q594 690 594 652 Q594 614 566.5 587.5 Q539 561 499 561 Q459 561 431.5 587.5 Q404 614 404 652 Z M10 504 L81 504 Q82 599 129 656 Q176 713 275 713 Q319 713 363 697 L339 594 Q324 598 310 598 Q251 598 251 523 L251 504 L341 504 L341 394 L251 394 L251 0 L81 0 L81 394 L10 394 L10 504 Z M414 504 L584 504 L584 0 L414 0 L414 504 Z " />
<glyph glyph-name="uniFB02" unicode="&#xfb02;" horiz-adv-x="641" d="M10 504 L81 504 Q82 599 129 656 Q176 713 275 713 Q319 713 363 697 L339 594 Q324 598 310 598 Q251 598 251 523 L251 504 L341 504 L341 394 L251 394 L251 0 L81 0 L81 394 L10 394 L10 504 Z M411 700 L581 700 L581 0 L411 0 L411 700 Z " />
<glyph glyph-name="uniFB03" unicode="&#xfb03;" horiz-adv-x="977" d="M737 652 Q737 690 764.5 716.5 Q792 743 832 743 Q872 743 899.5 716.5 Q927 690 927 652 Q927 614 899.5 587.5 Q872 561 832 561 Q792 561 764.5 587.5 Q737 614 737 652 Z M10 504 L81 504 Q82 599 129 656 Q176 713 275 713 Q304 713 334 706 Q364 699 391 685 L367 585 Q338 598 310 598 Q251 598 251 523 L251 504 L414 504 Q415 599 462 656 Q509 713 608 713 Q652 713 696 697 L672 594 Q657 598 643 598 Q584 598 584 523 L584 504 L674 504 L674 394 L584 394 L584 0 L414 0 L414 394 L251 394 L251 0 L81 0 L81 394 L10 394 L10 504 Z M747 504 L917 504 L917 0 L747 0 L747 504 Z " />
<glyph glyph-name="uniFB04" unicode="&#xfb04;" horiz-adv-x="974" d="M10 504 L81 504 Q82 599 129 656 Q176 713 275 713 Q304 713 334 706 Q364 699 391 685 L367 585 Q338 598 310 598 Q251 598 251 523 L251 504 L414 504 Q415 599 462 656 Q509 713 608 713 Q652 713 696 697 L672 594 Q657 598 643 598 Q584 598 584 523 L584 504 L674 504 L674 394 L584 394 L584 0 L414 0 L414 394 L251 394 L251 0 L81 0 L81 394 L10 394 L10 504 Z M744 700 L914 700 L914 0 L744 0 L744 700 Z " />
</font>
</svg>
